<?xml version="1.0" encoding="utf-8"?>
<!-- Generator: Adobe Illustrator 21.1.0, SVG Export Plug-In . SVG Version: 6.00 Build 0)  -->
<svg version="1.1" id="Layer_1" xmlns="http://www.w3.org/2000/svg" xmlns:xlink="http://www.w3.org/1999/xlink" x="0px" y="0px"
	 viewBox="0 0 22.7 22.7" style="enable-background:new 0 0 22.7 22.7;" xml:space="preserve">
<style type="text/css">
	.st0{fill:#00C5C5;}
</style>
<path id="arrow" class="st0" d="M11.3,22.7C5.1,22.7,0,17.6,0,11.3C0,5.1,5.1,0,11.4,0c6.3,0,11.3,5.1,11.3,11.3
	C22.7,17.6,17.6,22.7,11.3,22.7z M11.3,1C5.7,1.1,1.1,5.7,1.1,11.4c0,5.7,4.6,10.3,10.3,10.3c5.7,0,10.3-4.6,10.3-10.3
	C21.7,5.7,17,1,11.3,1L11.3,1z M11.3,19.5L4,6.8l7.5,4.4l7.2-4.4L11.3,19.5z"/>
</svg>
