<?xml version="1.0" encoding="utf-8"?>
<!-- Generator: Adobe Illustrator 21.1.0, SVG Export Plug-In . SVG Version: 6.00 Build 0)  -->
<svg version="1.1" id="Layer_1" xmlns="http://www.w3.org/2000/svg" xmlns:xlink="http://www.w3.org/1999/xlink" x="0px" y="0px"
	 viewBox="0 0 287.3 58.7" style="enable-background:new 0 0 287.3 58.7;" xml:space="preserve">
<style type="text/css">
	.st0{fill:#00C5C5;}
	.st1{enable-background:new    ;}
	.st2{fill:#FFFFFF;}
</style>
<title>Asset 10</title>
<g id="Layer_2">
	<g id="white_on_blue">
		<g id="blue_box">
			<rect class="st0" width="287.3" height="58.7"/>
		</g>
		<g id="White_text">
			<g class="st1">
				<path class="st2" d="M85.9,37.3c0,1.2-0.2,2.3-0.6,3.3c-0.4,1-0.9,1.9-1.6,2.6c-0.7,0.8-1.5,1.3-2.4,1.8c-0.9,0.4-1.9,0.6-3,0.6
					H64.9v-32h13.3c1,0,1.9,0.2,2.7,0.7s1.5,1.1,2,1.9c0.6,0.8,1,1.6,1.3,2.6c0.3,1,0.5,2,0.5,2.9c0,1.6-0.4,3.1-1.1,4.5
					s-1.7,2.3-3,3c1.6,0.5,2.9,1.6,3.9,3C85.4,33.7,85.9,35.4,85.9,37.3z M67,15.7v12.8h10.4c0.8,0,1.5-0.2,2.1-0.5
					c0.6-0.4,1.2-0.8,1.7-1.4s0.8-1.3,1.1-2c0.3-0.8,0.4-1.6,0.4-2.4c0-0.9-0.1-1.7-0.4-2.5c-0.3-0.8-0.6-1.4-1-2
					c-0.4-0.6-1-1.1-1.6-1.4c-0.6-0.3-1.3-0.5-2-0.5H67z M83.9,37c0-0.8-0.1-1.7-0.4-2.5c-0.3-0.8-0.6-1.5-1.1-2.1
					c-0.5-0.6-1-1.1-1.7-1.5c-0.7-0.4-1.4-0.5-2.1-0.5H67v13.1h11.3c0.8,0,1.5-0.2,2.2-0.5c0.7-0.4,1.3-0.8,1.8-1.5
					c0.5-0.6,0.9-1.3,1.2-2.1C83.7,38.6,83.9,37.8,83.9,37z"/>
			</g>
			<g class="st1">
				<path class="st2" d="M91.5,45.6v-32h2v29.9h17v2.1H91.5z"/>
			</g>
			<g class="st1">
				<path class="st2" d="M124.4,43.7c1.9,0,3.5-0.4,4.8-1.2c1.3-0.8,2.3-1.9,3-3.2c0.7-1.3,1.3-2.8,1.6-4.5c0.3-1.7,0.5-3.4,0.5-5.1
					V13.6h2v16.1c0,2.1-0.2,4.2-0.6,6.1c-0.4,2-1.1,3.7-2,5.2c-0.9,1.5-2.2,2.7-3.6,3.5c-1.5,0.9-3.3,1.3-5.5,1.3
					c-2.3,0-4.2-0.5-5.7-1.4c-1.5-0.9-2.7-2.1-3.7-3.6c-0.9-1.5-1.6-3.2-2-5.2c-0.4-1.9-0.6-3.9-0.6-5.9V13.6h2v16.1
					c0,1.8,0.2,3.5,0.5,5.2c0.3,1.7,0.8,3.2,1.6,4.5c0.8,1.3,1.8,2.4,3,3.2C120.9,43.3,122.5,43.7,124.4,43.7z"/>
				<path class="st2" d="M162.2,43.5v2.1h-19v-32h18.6v2.1h-16.5v12.6h14.5v2h-14.5v13.3H162.2z"/>
				<path class="st2" d="M178.1,45.6v-32h18.5v2.1h-16.5v12.7h14v2h-14v15.2H178.1z"/>
				<path class="st2" d="M220.8,43.5v2.1h-19v-32h18.6v2.1h-16.5v12.6h14.5v2h-14.5v13.3H220.8z"/>
				<path class="st2" d="M226.4,45.6v-32h11.8c1.2,0,2.3,0.3,3.3,0.9c1,0.6,1.9,1.3,2.6,2.3c0.7,0.9,1.3,2,1.7,3.2s0.6,2.4,0.6,3.6
					c0,1.2-0.2,2.3-0.5,3.4c-0.3,1.1-0.8,2.1-1.4,2.9c-0.6,0.9-1.3,1.6-2.1,2.2s-1.7,0.9-2.7,1.1l7.1,12.4h-2.4l-6.9-12.1h-9.2v12.1
					H226.4z M228.5,31.4h10c0.9,0,1.7-0.2,2.5-0.7c0.7-0.4,1.4-1,1.9-1.8c0.5-0.7,0.9-1.6,1.2-2.5c0.3-0.9,0.4-1.9,0.4-2.9
					c0-1-0.2-2-0.5-2.9c-0.3-0.9-0.8-1.8-1.4-2.5s-1.2-1.3-2-1.7c-0.8-0.4-1.6-0.7-2.5-0.7h-9.7V31.4z"/>
				<path class="st2" d="M254.5,17.9v27.6h-2v-32h1.6l20,28.1V13.6h2v32h-1.9L254.5,17.9z"/>
			</g>
		</g>
	</g>
	<g id="white_logo">
		<path class="st2" d="M16.8,37.9l-1-7.8c0.6-0.8,1.4-1.6,2.3-2.1l1.1,6.2l-0.6-6.5c1.1-0.6,2.2-1.1,3.3-1.6l0.4,5.7l0.1-5.9
			c1.1-0.5,2.2-0.9,3.2-1.2l0.2,4.8l0.2-4.9c1.6-0.5,3-0.9,3.7-1.1l-0.5,4.1l0.9-4.2h0.1c6.2-1.1,12.1-3.2,17.7-6
			C41.6,6.7,27.8,3.2,17.1,9.6S2.9,29.8,9.3,40.4c0.6,1,1.2,1.9,2,2.8L16.8,37.9z"/>
		<path class="st2" d="M40.4,30l-5-0.5l4.4,0.8c-1.1,0.7-2.2,1.5-3.2,2.3l-5-0.4l4.6,0.7c-0.9,0.9-1.8,1.9-2.4,3.1l-6.4-0.7l6.1,1.2
			c-0.5,0.9-1,1.9-1.3,2.9l-6.6-1.1l6.5,1.6c-0.3,0.9-0.5,1.9-0.6,2.9l-12.5-3.3C28.8,28.9,42,23.8,42,23.8
			c-12.1,2.5-24.4,14.6-29.8,20.6c8.3,9.2,22.6,9.9,31.8,1.6c6.8-6.2,9.2-15.9,6-24.5C47.3,24.8,44.1,27.7,40.4,30z"/>
	</g>
</g>
</svg>
