<svg xmlns="http://www.w3.org/2000/svg" viewBox="0 0 287.33 58.7"><defs><style>.cls-1{fill:#00c5c5;}.cls-2{font-size:45.02px;font-family:Raleway-Light, Raleway;}.cls-2,.cls-4{fill:#fff;}.cls-3{letter-spacing:-0.04em;}</style></defs><title>Asset 10</title><g id="Layer_2" data-name="Layer 2"><g id="white_on_blue" data-name="white on blue"><g id="blue_box" data-name="blue box"><rect class="cls-1" width="287.33" height="58.7"/></g><g id="White_text" data-name="White text"><text class="cls-2" transform="translate(61.22 45.57) scale(0.89 1)">B<tspan class="cls-3" x="29.8" y="0">L</tspan><tspan x="53.98" y="0">UE FERN</tspan></text></g></g><g id="white_logo" data-name="white logo"><path class="cls-4" d="M16.79,37.86l-1-7.77A7.74,7.74,0,0,1,18.13,28l1.06,6.19-.57-6.49a28.67,28.67,0,0,1,3.29-1.61l.37,5.67.1-5.87c1.1-.45,2.22-.85,3.25-1.19l.23,4.81.18-4.94c1.62-.53,3-.91,3.67-1.1l-.53,4.09.9-4.19.13,0a64.84,64.84,0,0,0,17.73-6A22.5,22.5,0,1,0,11.28,43.24Z"/><path class="cls-4" d="M40.43,30l-5-.52,4.42.84a18.09,18.09,0,0,0-3.18,2.35l-4.95-.36,4.58.72a16.47,16.47,0,0,0-2.44,3.06l-6.4-.71,6.11,1.2a16.46,16.46,0,0,0-1.29,2.87l-6.6-1.08L32.15,40a12.76,12.76,0,0,0-.56,2.9L19.11,39.56C28.79,28.86,42,23.75,42,23.75c-12.13,2.5-24.38,14.64-29.79,20.61A22.51,22.51,0,0,0,50,21.43,36.34,36.34,0,0,1,40.43,30Z"/></g></g></svg>