<svg xmlns="http://www.w3.org/2000/svg" viewBox="0 0 1290.65 555.58"><defs><style>.cls-1{fill:#fff;}.cls-2{fill:#f4f2f2;}</style></defs><title>Asset 1</title><g id="Layer_2" data-name="Layer 2"><g id="Layer_1-2" data-name="Layer 1"><path id="head" class="cls-1" d="M134.67,197.71S56.31,78.69,100.51,65.9c0,0,29-23.92,69.68,112.18,0,0,19.68,53.86,59.84,8.55,0,0,70.19-113.28,96.95-88.85,24.37,28.64-9.24,74.07-82.66,141.25,7.38,30.84,7.89,59.39,0,88.41-10.38,25.29-41.45,46.9-91.77,51.3-65.42-3.57-89.67-22.39-75.74-76.89C85.42,260.64,96.09,228.62,134.67,197.71Z"/><path id="left_leg" data-name="left leg" class="cls-1" d="M589.81,448c-98.77,60.78-179.28,3.76-81.93-104q10.48-11.6,23.77-24"/><path id="tummy" class="cls-1" d="M327.86,480c6.86,14.1,104.78,13.07,155.47,5.1l6.75,7.25c-25.74,28.74-41.49,63.23-11.17,55.83,26-.35,78.68-38.16,125.62-67.89l9.86-8.16,2.49,40.41c2.12,26.28,46.83,46.66,57.86,27.4,11.63-33.73-19.28-70.64-19.28-70.64-3-4.67,1-14,9.48-11.81,36.26,16.34,41.94-31.91,39.91-32.31.53-29.62-24.36-43-26-46.72-45.35-67.07-103.32-81.64-103.32-81.64-100.42-35.44-308.18,36.42-329.49,42.4-29.42,39.25-82.47,47.65-154.15,30.62-1.95-.7-64,99.14,18.67,131.34l-3.84,40.45"/><path class="cls-1" d="M155.91,529.46"/><path class="cls-1" d="M307.07,406.58"/><path class="cls-1" d="M63.83,480.73c-11.46-9.24-14.68-24.62-13.9-34.66h0C32,448.58,12.28,463.32,7.15,474.91c0,0-6.66,19.56,56.1,5.76"/><path class="cls-1" d="M602.71,361.51c4.65-1.56,66.56,21.93,63.2,56-1.23,26.65-24.3,35.91-24.3,35.91"/><g id="head-2" data-name="head"><path d="M130.89,197.6a1.17,1.17,0,0,0,0,.65,1.13,1.13,0,0,0,.12.29c0,.08,0,0,0,0l-.16-.25-.32-.5-.64-1-1.27-2-2.5-4q-2.48-4-4.88-8-4.81-8.09-9.34-16.34c-6-11-11.68-22.25-16.62-33.86-2.46-5.81-4.75-11.71-6.71-17.75A117.71,117.71,0,0,1,84,96.16a62,62,0,0,1-.73-9.82A35.89,35.89,0,0,1,84.69,76.2a22.1,22.1,0,0,1,5.51-9.36,22.46,22.46,0,0,1,9.44-5.45h0l-1.4.8c.25-.23.32-.28.45-.39l.35-.26c.23-.16.45-.31.68-.45a11.94,11.94,0,0,1,1.37-.71,13,13,0,0,1,2.85-.89,15.11,15.11,0,0,1,5.69,0A24.38,24.38,0,0,1,119,63.85c5.31,3.86,9.31,8.66,13,13.56a134.58,134.58,0,0,1,9.67,15.38c2.91,5.27,5.51,10.66,7.94,16.12,4.83,10.93,8.88,22.12,12.58,33.39q2.72,8.47,5.14,17c.81,2.85,1.56,5.72,2.31,8.58s1.48,5.73,2.16,8.62l.88-.26a5,5,0,0,0-.68.84.8.8,0,0,0-.14.36.23.23,0,0,0,0,.1l0,.13.43,1.12q.45,1.13,1,2.25c.67,1.49,1.41,3,2.2,4.39a51.85,51.85,0,0,0,5.46,8.09c4.11,5,9.59,8.9,15.76,9.72a21.46,21.46,0,0,0,9.2-.87,34.24,34.24,0,0,0,8.56-4.17,72.7,72.7,0,0,0,14.47-13.14l-.23.31c3-5.06,6.16-10,9.35-14.91s6.43-9.8,9.76-14.63,6.76-9.59,10.27-14.29,7.2-9.29,11-13.8A158.84,158.84,0,0,1,294.41,103a78,78,0,0,1,7.44-5A44.69,44.69,0,0,1,310,94.12a21.66,21.66,0,0,1,9.24-1.35A15.23,15.23,0,0,1,328,96.62l.06.05.08.09a41.35,41.35,0,0,1,6.46,9.65A37.86,37.86,0,0,1,338,117.76a39.94,39.94,0,0,1,.34,6,47.43,47.43,0,0,1-.41,6,65.46,65.46,0,0,1-2.63,11.54,92.85,92.85,0,0,1-10.1,20.87c-2.06,3.23-4.26,6.34-6.55,9.37s-4.62,6-7.05,8.89a354.39,354.39,0,0,1-31.12,32.42c-5.48,5.06-11,10-16.76,14.79s-11.48,9.48-17.43,14h0l.49-1.59c.68,1.82,1.28,3.66,1.93,5.49l1.69,5.58c.55,1.87,1,3.76,1.5,5.65s.85,3.8,1.28,5.71a154.75,154.75,0,0,1,3,23.34,148.27,148.27,0,0,1-.72,23.68c-.23,2-.51,3.93-.78,5.89l-1,5.86-1.25,5.81L251,332.71l-.09.34-.15.36a60.84,60.84,0,0,1-17.1,23.42A79.36,79.36,0,0,1,209,370.53a155.94,155.94,0,0,1-26.55,6.54c-8.91,1.45-17.83,2.44-26.76,3.19h-.11a263.73,263.73,0,0,1-32.8-1.82,126.67,126.67,0,0,1-16.32-3.07,77.08,77.08,0,0,1-15.84-5.93A49.24,49.24,0,0,1,76.7,358.9a43.64,43.64,0,0,1-8.93-15.48A55.9,55.9,0,0,1,65.12,326,85.41,85.41,0,0,1,67,308.82c.58-2.84,1.26-5.4,1.78-8s1.17-5.35,1.79-8q1.86-8,4.21-16a167.93,167.93,0,0,1,12.42-31.08,136.71,136.71,0,0,1,8.78-14.35,141.84,141.84,0,0,1,10.52-13.05,148,148,0,0,1,12-11.58c2.09-1.81,4.25-3.54,6.42-5.24l1.65-1.25c.52-.39,1.17-.91,1.53-1.11A28.78,28.78,0,0,1,130.89,197.6Zm3.31.54a41.56,41.56,0,0,1-3.42,3.7c-.71.65-1.07,1-1.58,1.53l-1.44,1.42c-1.92,1.89-3.81,3.8-5.63,5.77-3.67,3.91-7.17,7.94-10.4,12.16a144.67,144.67,0,0,0-16.58,26.95,190.06,190.06,0,0,0-10.77,29.84c-1.45,5.13-2.68,10.34-3.9,15.57-.6,2.63-1.17,5.22-1.74,7.91s-1.27,5.42-1.81,7.91c-2.16,10.11-3.07,20.48-.67,30a36,36,0,0,0,6.24,13.17,42.28,42.28,0,0,0,11.12,10.14A66.51,66.51,0,0,0,107.78,371a104.8,104.8,0,0,0,15.51,4,175.44,175.44,0,0,0,32.26,2.57h-.11a162.82,162.82,0,0,0,26.14-4.5A118,118,0,0,0,206,363.74,82.19,82.19,0,0,0,226.37,349a65.3,65.3,0,0,0,7.65-9.43,62.63,62.63,0,0,0,5.61-10.66l-.24.7,1.38-5.36,1.21-5.4,1.06-5.43.89-5.46a195.82,195.82,0,0,0,2-22.11c.27-7.43.12-14.91-.32-22.42l-.39-5.64-.48-5.66-1.18-11.37-.12-1.16.61-.43h0c5-5.52,10-10.93,15.09-16.34l15.07-16.23c10-10.84,19.81-21.75,28.93-33.08,2.26-2.84,4.51-5.69,6.66-8.59s4.23-5.84,6.26-8.79a157.87,157.87,0,0,0,11.05-18.15c3.11-6.24,5.5-12.92,5.6-19.83a27.91,27.91,0,0,0-1.7-10.17,30,30,0,0,0-2.23-4.76,39.47,39.47,0,0,0-3-4.37l.14.14A11.63,11.63,0,0,0,319,95.7,18.3,18.3,0,0,0,311.06,97c-5.2,2-9.88,5.41-14.22,9.11a149,149,0,0,0-12.27,12.1q-5.84,6.38-11.39,13.06c-3.72,4.43-7.32,9-10.85,13.58s-7,9.24-10.44,13.95c-6.83,9.39-13.4,19-19.57,28.84l-.12.19-.11.12a76.62,76.62,0,0,1-15.56,13.6,37.7,37.7,0,0,1-9.61,4.42,25.15,25.15,0,0,1-10.74.77,24.7,24.7,0,0,1-10-3.94,37.2,37.2,0,0,1-7.77-7.1,55.13,55.13,0,0,1-5.88-8.56q-1.27-2.26-2.36-4.61-.54-1.18-1-2.38l-.48-1.23-.06-.16a.67.67,0,0,0-.08-.2.84.84,0,0,0-.32-.24,5.75,5.75,0,0,0-1-.37l.88-.26c-4-11.08-8.05-22.13-12.25-33.09s-8.6-21.81-13.42-32.41-10-21.05-16.44-30.41a53.23,53.23,0,0,0-11.09-12.19,17,17,0,0,0-6.53-3.21,8.26,8.26,0,0,0-3.1-.07,6.12,6.12,0,0,0-1.37.41,5.13,5.13,0,0,0-.59.3l-.25.16-.09.07s-.08.07,0,0l-1.4.8h0a15.75,15.75,0,0,0-6.74,3.63,15.58,15.58,0,0,0-4,6.56,29.68,29.68,0,0,0-1.37,8.33,56,56,0,0,0,.46,8.87,112.11,112.11,0,0,0,3.95,17.82c1.76,5.89,3.86,11.71,6.14,17.46,4.59,11.51,9.92,22.76,15.64,33.81q4.29,8.29,8.89,16.43,2.29,4.07,4.66,8.1l2.39,4,1.21,2,.61,1,.31.49.15.25.07.11a2.33,2.33,0,0,1,.33,1.31Z"/></g><g id="body"><path d="M265.58,333c24.24-10.62,49.57-17.88,75.09-24.19s51.19-12.19,77.1-17.06c6.47-1.23,13-2.38,19.48-3.42s13-2,19.58-2.94c13.08-1.81,26.24-3.26,39.48-4.2,6.62-.46,13.26-.79,19.92-.95s13.35,0,20.06.29a195.36,195.36,0,0,1,20.17,2,117.32,117.32,0,0,1,20.13,4.84l-.52-.16,1.24.34,1.12.33c.75.22,1.46.46,2.19.7q2.15.72,4.26,1.51c2.81,1,5.56,2.19,8.28,3.38q8.16,3.61,15.89,8a214,214,0,0,1,29.24,19.93c4.56,3.73,9,7.57,13.3,11.65,2.18,2,4.21,4.12,6.31,6.18s4.1,4.23,6,6.44a253.08,253.08,0,0,1,21.78,27.73l.54,1a3.67,3.67,0,0,0-.29-.56,2.77,2.77,0,0,0-.21-.3l-.12-.14,0,0a1.77,1.77,0,0,0,.21.2c.28.24.71.57,1.16.91l3,2.31a50.95,50.95,0,0,1,14.65,19.33,49.82,49.82,0,0,1,3.79,15.41,71.46,71.46,0,0,1,.23,7.74,74.79,74.79,0,0,1-.56,7.68,77.5,77.5,0,0,1-3.54,14.79,38,38,0,0,1-7.88,13.09,23.65,23.65,0,0,1-6.16,4.67,20.83,20.83,0,0,1-7.35,2.16c-5.09.54-10.07-.74-14.6-2.62a30.33,30.33,0,0,0,14.4,1.27,20,20,0,0,0,11.82-7.17,38.39,38.39,0,0,0,6.46-12.55,54.72,54.72,0,0,0,2.85-14c0-1.08,0-2.35-.07-3.52s-.16-2.38-.28-3.57a52.35,52.35,0,0,0-1.24-7,45.34,45.34,0,0,0-5.24-12.62,37,37,0,0,0-8.82-9.82c-1.74-1.37-3.54-2.65-5.45-3.93l-3-2.05c-.54-.39-1.1-.79-1.77-1.34a14.35,14.35,0,0,1-1.15-1l-.36-.38-.41-.5c-.14-.19-.32-.45-.47-.68a8.7,8.7,0,0,1-.51-1l.54,1a241.11,241.11,0,0,0-20.69-26.42c-1.84-2.1-3.82-4.08-5.73-6.12s-3.92-4-6-5.87c-4-3.88-8.27-7.52-12.58-11.06a202.17,202.17,0,0,0-27.58-18.86c-4.84-2.74-9.8-5.26-14.85-7.53-2.53-1.13-5.07-2.2-7.64-3.16q-1.92-.73-3.85-1.38l-1.91-.62-.94-.28-.83-.24-.38-.11-.14,0A106,106,0,0,0,554.64,294a183.94,183.94,0,0,0-19-2,351.88,351.88,0,0,0-38.66.29c-25.89,1.51-51.76,5.08-77.51,9.32s-51.4,9.44-76.92,15.22S291.66,328.8,265.58,333Z"/></g><g id="right_back_foot" data-name="right back foot"><path d="M660.71,464.92c1.22,1.47,2.22,2.79,3.28,4.21s2,2.84,3,4.28q2.89,4.33,5.44,8.88a114.08,114.08,0,0,1,8.52,19.2,89.68,89.68,0,0,1,2.78,10.32,83.12,83.12,0,0,1,1.41,10.77,67.14,67.14,0,0,1-.39,11.06,60.69,60.69,0,0,1-2.53,10.94l-.21.63-.26.4q-.74,1.13-1.53,2.24c-.56.71-1.21,1.37-1.83,2a21.8,21.8,0,0,1-2.1,1.74A21.49,21.49,0,0,1,674,553a23.15,23.15,0,0,1-9.56,2.5,34.29,34.29,0,0,1-8.92-.75,51.68,51.68,0,0,1-8.14-2.37c-1.32-.45-2.57-1-3.84-1.58s-2.49-1.17-3.68-1.85a63.55,63.55,0,0,1-6.92-4.35,56.52,56.52,0,0,1-11.72-11.27c-.86-1.06-1.59-2.22-2.36-3.35-.36-.58-.69-1.19-1-1.78a17.85,17.85,0,0,1-1-1.82,31.24,31.24,0,0,1-2.72-7.8c-.12-.69-.28-1.35-.36-2.05l-.19-2.11c-.05-1.35,0-2.58,0-3.88l.15-7.69.59-30.74,2.35,30.6.59,7.64c.11,1.26.16,2.59.33,3.78l.32,1.69c.11.56.32,1.13.47,1.69a26.48,26.48,0,0,0,2.95,6.4,14.21,14.21,0,0,0,1,1.49c.35.48.68,1,1,1.45.77.92,1.48,1.86,2.33,2.72A52.87,52.87,0,0,0,650.09,544a34,34,0,0,0,6.78,1.13,23.17,23.17,0,0,0,6.37-.38,14.44,14.44,0,0,0,5-1.92,9.14,9.14,0,0,0,3.06-3.21l-.46,1a48.87,48.87,0,0,0,2-8.56,59.7,59.7,0,0,0,.36-9,71.44,71.44,0,0,0-1-9.11c-.58-3-1.33-6.07-2.21-9.08a117.92,117.92,0,0,0-7-17.7c-1.4-2.89-2.9-5.74-4.51-8.52q-1.21-2.09-2.49-4.13c-.83-1.34-1.74-2.76-2.55-3.94Z"/></g><g id="left_leg-2" data-name="left leg"><path d="M589.3,448.23a183.4,183.4,0,0,1-32.38,18,149.62,149.62,0,0,1-17.61,6.28,122.65,122.65,0,0,1-18.48,3.72,90.43,90.43,0,0,1-19.09.28,66.61,66.61,0,0,1-9.57-1.6c-1.59-.34-3.15-.86-4.72-1.32s-3.11-1.08-4.62-1.76a46.54,46.54,0,0,1-16.42-11.52,43.34,43.34,0,0,1-9.6-17.94,51.28,51.28,0,0,1-1.65-10c-.08-.84-.11-1.67-.12-2.51s-.05-1.67,0-2.5c.07-1.66.08-3.33.26-5a77.73,77.73,0,0,1,1.46-9.75c.37-1.59.75-3.17,1.17-4.75s.88-3.13,1.4-4.66a130.52,130.52,0,0,1,7.39-17.78,160,160,0,0,1,9.52-16.5,251,251,0,0,1,23-29.89,202.23,202.23,0,0,1,27.35-25.54l6,6.49c-8.12,9.15-16.47,17.93-24.43,27q-6,6.77-11.67,13.8t-10.64,14.49c-6.63,9.92-12.5,20.35-16.44,31.34a79.57,79.57,0,0,0-4.12,16.76c-.22,1.41-.27,2.82-.39,4.23,0,.7,0,1.4-.05,2.11s0,1.41,0,2.1a41.79,41.79,0,0,0,1,8.24,34.26,34.26,0,0,0,2.67,7.73,33.81,33.81,0,0,0,4.35,6.89A38.41,38.41,0,0,0,486,464.84c1.26.65,2.6,1.16,3.92,1.71s2.7,1,4.1,1.35a62.81,62.81,0,0,0,8.54,1.85,84.13,84.13,0,0,0,17.75.66,118.88,118.88,0,0,0,17.86-2.47,151.42,151.42,0,0,0,17.56-4.82A221.83,221.83,0,0,0,589.3,448.23Z"/></g><g id="left_back_foot" data-name="left back foot"><path d="M604.41,481.35q-15,10.86-30.23,21.26c-10.18,6.94-20.46,13.73-30.92,20.28s-21.11,12.82-32.16,18.5q-4.15,2.12-8.39,4.07c-2.83,1.31-5.7,2.55-8.63,3.68-5.88,2.19-12,4.24-18.67,4.53l.37,0a29.73,29.73,0,0,1-5.58.52,16.84,16.84,0,0,1-6-1.11,12.5,12.5,0,0,1-2.9-1.68,11.47,11.47,0,0,1-2.33-2.51,14.68,14.68,0,0,1-2.26-6,31.47,31.47,0,0,1,.65-11.35,73.78,73.78,0,0,1,3.15-10.31,126.67,126.67,0,0,1,9.36-19A148.18,148.18,0,0,1,482,484.71l8.79,8.17a108,108,0,0,0-13,14.61,104.26,104.26,0,0,0-10.22,16.74,57.67,57.67,0,0,0-3.5,9,25.32,25.32,0,0,0-1.19,8.85,8.23,8.23,0,0,0,1,3.55,5.63,5.63,0,0,0,2.49,2.23c2.24,1.06,5.42,1.14,8.52.73l.24,0h.13a39.17,39.17,0,0,0,8.59-1,71.3,71.3,0,0,0,8.6-2.52c2.84-1,5.65-2.14,8.44-3.35s5.53-2.55,8.26-3.91c10.92-5.47,21.51-11.7,32-18.12C562.2,506.8,582.79,493.26,604.41,481.35Z"/></g><g id="tummy-2" data-name="tummy"><path d="M457.67,495.17a267.14,267.14,0,0,1-32.26,4,253,253,0,0,1-32.61-.1,202.32,202.32,0,0,1-32.22-4.74c-2.65-.58-5.26-1.3-7.87-2s-5.18-1.57-7.76-2.39-5.1-1.81-7.63-2.72-5-2-7.47-3.13c2.7.23,5.36.56,8,.85l8,.86c5.3.51,10.57,1.05,15.84,1.42,10.52.77,21,1.27,31.47,1.19s20.92-.63,31.35-1.56,20.85-2.19,31.3-3.46Z"/></g><path d="M298.87,405.65c3.89,6,7.5,12.16,11,18.42a209.48,209.48,0,0,1,9.42,19.33,92.36,92.36,0,0,1,6.34,20.83,29.9,29.9,0,0,1-.21,11.46,15.48,15.48,0,0,1-2.62,5.69,14.39,14.39,0,0,1-5,4.16l-.2.1-.45.11c-12.86,3-25.69,6.42-38.45,9.87l-38.24,10.45c-25.4,7.07-50.93,13.81-75.55,22.68l-4.62,1.65c-1.53.56-3.1,1.07-4.58,1.71-3,1.21-6,2.45-9,3.63-.75.28-1.51.62-2.28,1s-1.53.69-2.33,1c-1.58.68-3.2,1.32-4.83,1.93a73.81,73.81,0,0,1-10.11,3,40.29,40.29,0,0,1-11,1,21.2,21.2,0,0,1-5.86-1.16,13.68,13.68,0,0,1-5.5-3.55,12.11,12.11,0,0,1-3-5.92,16.9,16.9,0,0,1-.05-6,31.5,31.5,0,0,1,3.8-10.19,72.33,72.33,0,0,1,12.8-16,134.91,134.91,0,0,1,15.51-12.83c5.46-3.87,11.12-7.4,16.9-10.71s11.7-6.35,17.68-9.24l.53,1.11A172.93,172.93,0,0,0,135.43,490a122,122,0,0,0-14.35,13.39,67.63,67.63,0,0,0-10.93,15.75,26.08,26.08,0,0,0-2.52,8.57c-.24,2.8.41,5.25,2,6.56s4.06,2,6.86,2a32.85,32.85,0,0,0,8.72-1.49,68.25,68.25,0,0,0,8.74-3.28c1.44-.65,2.87-1.33,4.28-2.06.7-.35,1.43-.74,2.15-1.13s1.44-.77,2.22-1.13l9.22-4.35c1.54-.75,3.09-1.36,4.64-2l4.65-1.95,4.66-1.94,4.71-1.75,9.44-3.48c6.33-2.15,12.67-4.34,19.07-6.23,12.75-4,25.65-7.45,38.6-10.59l9.74-2.22c3.25-.72,6.52-1.38,9.78-2.05,6.51-1.4,13.08-2.54,19.62-3.77,13.12-2.32,26.24-4.41,39.44-6.36l-.65.21a9.47,9.47,0,0,0,5.53-6.17,25.91,25.91,0,0,0,.83-9.79c-.55-6.86-2.54-13.72-4.85-20.39a207.73,207.73,0,0,0-8.19-19.67Q304.23,414.93,298.87,405.65Z"/><g id="chest"><path d="M89.74,378.15c-.68,1.12-1.46,2.49-2.16,3.78s-1.41,2.64-2.09,4q-2,4-3.88,8.18A165.48,165.48,0,0,0,75.15,411c-3.62,11.49-5.94,23.49-5.52,35.45a64.94,64.94,0,0,0,3,17.59,53,53,0,0,0,8.31,15.87A60.41,60.41,0,0,0,87,486.66a69.11,69.11,0,0,0,7.15,5.76,86.21,86.21,0,0,0,16.36,8.75,85.39,85.39,0,0,1-17.28-7.29,71.19,71.19,0,0,1-7.87-5.31,63.3,63.3,0,0,1-7-6.52A57.08,57.08,0,0,1,68,465.78,67.67,67.67,0,0,1,63.26,447c-1.45-12.92.06-25.91,3-38.39a168.36,168.36,0,0,1,5.48-18.44q1.63-4.53,3.5-9,.94-2.22,1.94-4.43c.69-1.5,1.34-2.89,2.17-4.5Z"/></g><g id="left_front_foot" data-name="left front foot"><path d="M50.49,449a64.45,64.45,0,0,0-25,10.87A57.89,57.89,0,0,0,15.2,469l-1.11,1.28c-.37.43-.67.89-1,1.33s-.68.89-1,1.34l-.85,1.39-.43.69c-.14.23-.22.44-.34.67L9.81,477l-.09.17,0,0s0,.05,0,0l.05-.17,0-.15v0c0-.08,0-.08,0-.08s0,0,0,.09a1.12,1.12,0,0,0,0,.37,2.52,2.52,0,0,0,.81,1.21,8.06,8.06,0,0,0,2.15,1.38,25.92,25.92,0,0,0,6.26,1.86,56.57,56.57,0,0,0,7.14.81c2.44.15,4.92.21,7.41.2,10-.08,20.13-1.09,30.3-2.11l.06.26a180,180,0,0,1-29.9,7.6,77.76,77.76,0,0,1-15.91,1,30.7,30.7,0,0,1-8.56-1.53A17.13,17.13,0,0,1,5,485.65,12.13,12.13,0,0,1,1,481a11,11,0,0,1-.94-3.32,10.18,10.18,0,0,1,0-1.81,8.38,8.38,0,0,1,.12-1l0-.15.06-.26.07-.23,0-.07,0-.07.1-.27.83-2.18c.15-.36.28-.74.44-1.07l.49-1,1-2c.35-.64.74-1.23,1.11-1.85s.74-1.24,1.15-1.82l1.24-1.72a63.15,63.15,0,0,1,11.73-11.83c1.08-.87,2.23-1.63,3.34-2.44s2.31-1.51,3.47-2.26,2.41-1.36,3.61-2,2.49-1.23,3.73-1.84a55.67,55.67,0,0,1,16.24-4.7Z"/></g><path d="M602.54,359.35a5.89,5.89,0,0,1,2.2,0c.73.09,1.46.21,2.18.35,1.44.29,2.87.64,4.29,1,2.84.78,5.64,1.7,8.41,2.7a134.26,134.26,0,0,1,16.24,7.13A112,112,0,0,1,651.13,380a68.06,68.06,0,0,1,13.29,12.83,44.77,44.77,0,0,1,5.06,8.26,35.46,35.46,0,0,1,2.93,9.66,32.56,32.56,0,0,1,.37,5.14c0,1.62-.13,3.19-.21,4.78-.06.8-.05,1.58-.17,2.4l-.4,2.44c-.15.81-.27,1.63-.44,2.45l-.68,2.41a42.38,42.38,0,0,1-10,17.17,48.7,48.7,0,0,1-7.55,6.35l-2.09,1.3c-.7.42-1.44.8-2.16,1.19s-1.48.73-2.25,1.06-1.48.61-2.52,1l-3.7-9.21,1.43-.92,1.57-1.07L645.2,446l1.51-1.2c1-.85,2-1.66,2.84-2.58s1.76-1.83,2.63-2.75a41,41,0,0,0,7.56-12.82l.67-1.76c.17-.61.31-1.22.48-1.83l.49-1.84c.17-.62.22-1.3.33-1.95.19-1.31.43-2.64.58-3.94a22.31,22.31,0,0,0,.14-3.61,29.81,29.81,0,0,0-4.74-14.31A61.18,61.18,0,0,0,647.1,384.8a106.77,106.77,0,0,0-13.41-10.61,146.53,146.53,0,0,0-14.93-8.79c-2.58-1.32-5.21-2.56-7.9-3.67-1.34-.56-2.7-1.08-4.08-1.54-.69-.22-1.38-.44-2.09-.61A5.78,5.78,0,0,0,602.54,359.35Z"/><path d="M428.62,78.91q0,18.14,10.29,19.36-.74,3.43-5.64,3.43-10.05,0-14.21-12.25a42.39,42.39,0,0,1-2-13.85q0-8.21,6.37-19.73,14.45-26.71,52.44-34.31a150.06,150.06,0,0,1,27.81-2.45q14.82,0,25.36-2.94t14.46-6.62Q553.85,0,558.75,0t4.9,2.94V4.41q-1.72,6.86-14.7,13a86,86,0,0,1-17.64,5.39q-8.09,3.43-13.48,18.75T506.55,85.77q12.74-1.23,21.08-1.22,2.2,0,2,2.69-1,2.94-5.15,3.06t-19.36,2.57Q493.56,149.74,485,173.26q-21.57,59.55-61.51,59.55-28.67,0-35.78-26.22a63.21,63.21,0,0,1-2.7-18.14q0-17.15,9.07-34.31,13.72-26.22,36-26.22a8.94,8.94,0,0,1,5.27,1.47,7.35,7.35,0,0,1,2.82,4.41q-21.08,0-34.8,21.81-10.79,16.91-10.78,35,0,26.47,18.63,32.35a44.34,44.34,0,0,0,11.52,1.22,33.39,33.39,0,0,0,15.07-4q8-4,14.46-14.7t10.66-17.89q4.17-7.23,9.56-25.85,6.37-22.79,10.78-42.27t5.39-23.4q-13.73,2.2-20.71,2.21t-8-6.13q-.25-4.9,2.7-5.64Q463.91,88,470.41,88t20.46-1.23a389.85,389.85,0,0,1,11.76-39.09q5.63-15.07,13.23-22.91-3.92.25-12.25.25-47.05,0-65.92,27.69Q428.62,65.68,428.62,78.91Zm107.83,50.24c0,.82-.73,1.22-2.21,1.22a9.92,9.92,0,0,1-4.29-1,3,3,0,0,1-2.08-2.69q0-25,5.64-40.31t14.95-15.32a5.69,5.69,0,0,1,4.17,1.72,6.31,6.31,0,0,1,1.72,4.66q-11,11-15.93,32.84A88.88,88.88,0,0,0,536.45,129.15Z"/><path d="M588.16,240.16q-14.22,0-21-14.95t-6.74-44.85q0-29.9,8.82-70.83T590,41.66q11.88-27,20.71-27,4.17,0,4.17,4.9-5.15,11.76-13,35.41T588.77,98.76q-5.27,20.1-9.56,47.05T574.92,192q0,19.23,3.8,29.65t10.42,10.42q5.63,0,10.78-5.27a35,35,0,0,0,7.35-10.42q1.22-2.7,4.41-1.47c.82.32,1,1,.61,2.08a35.68,35.68,0,0,1-2,4q-1.35,2.45-4.78,7.6Q598.2,240.16,588.16,240.16Z"/><path d="M702.6,222.76a7.72,7.72,0,0,0,5.51-2.57,24.31,24.31,0,0,0,4.78-8q.24-2.21,2.94-2.21t2.08,2.21a46.31,46.31,0,0,1-2,5.39,39.3,39.3,0,0,1-5.64,8.46q-4.29,5.27-8.7,5.27-9.8,0-15.19-12.25-5.64-12.26-5.64-30.27a265.32,265.32,0,0,1,2.7-37.13h-2.21q-29.66,51.71-45.58,51.71-18.88,0-18.87-28.79t12.25-57.47q13.47-31.61,23.77-31.61,4.41,0,4.41,5.39-10.29,27.2-17.64,52.93t-7.35,38.35q0,12.62,5.88,12.62,4.17,0,12.38-10a200.92,200.92,0,0,0,16.79-24.51q18.38-31.12,28.06-52.93t20-21.81q4.9,0,4.9,5.39-15.68,31.12-22.3,74.25a215.7,215.7,0,0,0-2.7,33.57Q695.25,222.76,702.6,222.76Z"/><path d="M722.93,281.09q-12.5,0-12.5-15,0-10.54,6.62-28.92a315.47,315.47,0,0,1,13.23-31.86q12-23.53,17.15-32.35,5.64-52.69,10-75.48a94.7,94.7,0,0,1-11.76.74q-5.88,0-7.11-6.13,0-4.9,2.94-5.64,1,1.47,7.11,1.47t11-.49q15.93-73.27,54.4-73.28,4.9,0,4.66,3.67-.25,2.45-1.72,2.45-16.67,0-26.71,17.4T774.15,86.51q29.16-2.21,35.54-2.21,2.2,0,1.84,2.94t-5,2.94q-4.66,0-34.06,4.9-3.19,18.14-6.74,52.69t-5.76,52.69q-2.2,18.13-5.15,31.86a193.43,193.43,0,0,1-7.11,25.24Q739.1,281.09,722.93,281.09Zm.25-7.11q7.6,0,11.52-12.74a168.44,168.44,0,0,0,6.37-29.16q2.94-22.79,5.15-46.81-18.38,39-22.3,51.47-6.62,21.07-6.62,29.16T723.18,274ZM821.45,53.67q-2.94,0-3.18-4.9a74.87,74.87,0,0,1,5.27-28.43q5.27-13,13.11-13,2.94,0,2.94,3.67-1.72,2.7-3.18,4.9t-3.06,5.15Q831.74,24,830,27.69T826.84,35a42.65,42.65,0,0,0-3.19,15.68Q823.66,53.67,821.45,53.67Z"/><path d="M798.9,281.09q-12.5,0-12.5-15,0-10.54,6.62-28.92a315.47,315.47,0,0,1,13.23-31.86q12-23.53,17.15-32.35,5.64-52.69,10-75.48a94.7,94.7,0,0,1-11.76.74q-5.88,0-7.11-6.13,0-4.9,2.94-5.64,1,1.47,7.11,1.47t11-.49q15.93-73.27,54.4-73.28,4.9,0,4.66,3.67-.25,2.45-1.72,2.45-16.67,0-26.71,17.4T850.12,86.51q29.16-2.21,35.54-2.21,2.2,0,1.84,2.94t-5,2.94q-4.66,0-34.06,4.9-3.19,18.14-6.74,52.69t-5.76,52.69q-2.2,18.13-5.15,31.86a193.43,193.43,0,0,1-7.11,25.24Q815.07,281.09,798.9,281.09Zm.25-7.11q7.6,0,11.52-12.74A168.44,168.44,0,0,0,817,232.08q2.94-22.79,5.15-46.81-18.38,39-22.3,51.47-6.62,21.07-6.62,29.16T799.15,274ZM897.42,53.67q-2.94,0-3.18-4.9a74.87,74.87,0,0,1,5.27-28.43q5.27-13,13.11-13,2.94,0,2.94,3.67-1.72,2.7-3.18,4.9t-3.06,5.15Q907.71,24,906,27.69T902.81,35a42.65,42.65,0,0,0-3.19,15.68Q899.62,53.67,897.42,53.67Z"/><path d="M920.94,240.16q-14.22,0-21-14.95t-6.74-44.85q0-29.9,8.82-70.83t20.71-67.88q11.88-27,20.71-27,4.17,0,4.17,4.9-5.15,11.76-13,35.41T921.55,98.76q-5.27,20.1-9.56,47.05T907.71,192q0,19.23,3.8,29.65t10.42,10.42q5.63,0,10.78-5.27a35,35,0,0,0,7.35-10.42q1.22-2.7,4.41-1.47c.82.32,1,1,.61,2.08a35.68,35.68,0,0,1-2,4q-1.35,2.45-4.78,7.6Q931,240.16,920.94,240.16Z"/><path d="M1013.57,85.53q18.62,0,18.63,21.81,0,12.5-8.34,26.22-14.21,22.79-37.74,22.79a13.59,13.59,0,0,1-6.13-1.23,8,8,0,0,1-3.68-3.67q17.4,0,31.86-20.09,11.76-16.17,11.76-29.65,0-10-8.09-10-16.17,0-30.14,25.24-15,27.45-14.95,56.36,0,24.51,14,29.41a20.33,20.33,0,0,0,6.86,1,21.66,21.66,0,0,0,8.82-2.08,28.72,28.72,0,0,0,7.84-5,56.7,56.7,0,0,0,10.54-13,3.72,3.72,0,0,1,3.68-2q4.41,0,4.17,1.47-.74,2.7-5.52,9.07a79.56,79.56,0,0,1-8.82,10.17,40.81,40.81,0,0,1-10.54,6.86,30.51,30.51,0,0,1-13.11,3.06q-26,0-33.08-24.51a66.71,66.71,0,0,1-2.21-17.15q0-16.42,7.6-35.78,12-29.41,33.08-42.4A45.5,45.5,0,0,1,1013.57,85.53Z"/><path d="M747.79,398.78q-8.81,0-8.81-12.38t12.86-27.62q21.43-25.71,59.53-29.76l13.1-.71q43.33,0,62.86,34.52Q899,384,899,411.64a161.5,161.5,0,0,1-1.9,24q-6.91,42.38-32.86,71.91-28.57,32.62-66.55,32.62T749.45,519a33.23,33.23,0,0,1-3.1-14.17,36.26,36.26,0,0,1,4-15.84q7.86-15.23,21.43-15.24a1.53,1.53,0,0,1,1.55,1.31,4.15,4.15,0,0,1-.24,2.74,1.93,1.93,0,0,1-1.78,1.43q-8.1,0-14,10.48-3.81,7.38-3.81,13.57a27.26,27.26,0,0,0,2.38,11.43q7.62,16.19,36.43,16.19,32.62,0,59-33.33,23.81-30,30.72-70.48a139,139,0,0,0,2.38-24.76q0-25.95-11.67-43.81-15.48-24-48.57-24-41.43,0-62.14,27.86Q751.59,376.64,751.6,389q0,5,2.14,5Q752.31,398.78,747.79,398.78ZM782.07,489a379.69,379.69,0,0,1,6.43-70.36q6.43-34.16,15.83-54t18.21-19.88q3.81,0,3.81,3.81-10.71,22.14-18.81,59-15,67.39-15,97.38,0,3.1-3.33,3.1Q782.07,508.07,782.07,489Z"/><path d="M978.27,397.11q18.09,0,18.1,21.19,0,12.14-8.1,25.48-13.81,22.14-36.67,22.14a13.2,13.2,0,0,1-6-1.19,7.77,7.77,0,0,1-3.57-3.57q16.91,0,31-19.52,11.43-15.71,11.43-28.81,0-9.76-7.86-9.76-15.71,0-29.29,24.52-14.53,26.67-14.52,54.76,0,23.81,13.57,28.57a19.75,19.75,0,0,0,6.67,1,21,21,0,0,0,8.57-2,27.9,27.9,0,0,0,7.62-4.88,55,55,0,0,0,10.24-12.62,3.61,3.61,0,0,1,3.57-1.9q4.29,0,4,1.43-.71,2.62-5.36,8.81a77.11,77.11,0,0,1-8.57,9.88,39.56,39.56,0,0,1-10.24,6.67,29.64,29.64,0,0,1-12.74,3q-25.24,0-32.14-23.81a64.81,64.81,0,0,1-2.14-16.67q0-15.95,7.38-34.76,11.66-28.57,32.14-41.19A44.21,44.21,0,0,1,978.27,397.11Z"/><path d="M1075.65,490.69c2.06,0,3.09.48,3.09,1.43v.71q-1,2.62-5.24,8.45a63.56,63.56,0,0,1-8.21,9.41,42.21,42.21,0,0,1-10.12,6.55,28.88,28.88,0,0,1-12.62,3q-25,0-31.91-24-6.19-22.38,5-51t31.19-41q10.48-6.43,20-6.43t13.81,5.47q6.43-20.71,16.43-20.71c2.54,0,3.81,1.35,3.81,4q-1.91,2.86-4.88,7.5t-8,16.55q-5,11.91-5,21,0,3.1-2.62,3.09-3.09,0-3.57-5.48a86.26,86.26,0,0,1,1.67-17.38q-1.43-7.38-10.47-7.38-17.15,0-30.12,26t-13,50.72q0,31,19.53,31a24.64,24.64,0,0,0,14.41-4.76q6.78-4.76,9.64-9.53l3.1-5Q1072.55,490.69,1075.65,490.69Z"/><path d="M1130.17,514.74q-29.29,0-29.29-40.24,0-22.62,11.43-45.24,14.52-28.57,34.53-28.57a7.72,7.72,0,0,1,4.76,1.43,7.35,7.35,0,0,1,2.62,4.29q-15,0-26,24t-11,47.38q0,28.34,15.48,28.33,8.81,0,18.33-13.45T1167,457.35a158.53,158.53,0,0,0,6.31-44v-2.86a41.29,41.29,0,0,1-12.14-11.9q-4.77-7.14-4.76-10.48a8.88,8.88,0,0,1,3-6.31q3-3,6.07-3,4.52,0,8.81,8.1a59.2,59.2,0,0,1,6,18.33q7.38,5,13,5a18,18,0,0,0,8.93-1.91,8.62,8.62,0,0,1-2.38,6q-2.38,2.62-7.38,2.62a33.44,33.44,0,0,1-11.43-2.38,171.7,171.7,0,0,1-6.9,46q-6.67,23.1-18.57,38.69T1130.17,514.74Z"/><path d="M1274.93,444.26q-9,0-9-19.76a51.59,51.59,0,0,1,4.29-21Q1254,417.59,1234,455.81t-20,49.88q0,2.86-3.81,2.86-6.91,0-6.91-18.81,0-35.48,7.15-64.29t17.38-28.81q4.52,0,4.52,5.24a415.55,415.55,0,0,0-15.71,71.19h1.67q19.29-44.52,42.62-69.53,13.34-14.29,24.29-14.29a5.57,5.57,0,0,1,3.93,1.43,4.66,4.66,0,0,1,1.55,3.57,41.12,41.12,0,0,0-4.05,5q-2.38,3.34-6.43,15.83a88.08,88.08,0,0,0-4,27.26C1276.12,443.63,1275.73,444.26,1274.93,444.26Z"/><path class="cls-2" d="M700.37,513.61"/></g></g></svg>