<svg xmlns="http://www.w3.org/2000/svg" viewBox="0 0 273.32 48.94"><defs><style>.cls-1{font-size:45.02px;font-family:Raleway-Light, Raleway;}.cls-1,.cls-3{fill:#00c5c5;}.cls-2{letter-spacing:-0.04em;}</style></defs><title>Asset 11</title><g id="Layer_2" data-name="Layer 2"><g id="blue"><g id="blue_text" data-name="blue text"><text class="cls-1" transform="translate(54.88 38.9) scale(0.89 1)">B<tspan class="cls-2" x="29.8" y="0">L</tspan><tspan x="53.98" y="0">UE FERN</tspan></text></g><g id="blue_logo" data-name="blue logo"><path class="cls-3" d="M10.46,31.19l-1-7.77a7.74,7.74,0,0,1,2.36-2.09l1.06,6.19L12.3,21a28.67,28.67,0,0,1,3.29-1.61L16,25.09l.1-5.87c1.1-.45,2.22-.85,3.25-1.19l.23,4.81.18-4.94c1.62-.53,3-.91,3.67-1.1l-.53,4.09.9-4.19.13,0a64.84,64.84,0,0,0,17.73-6A22.5,22.5,0,1,0,4.95,36.57Z"/><path class="cls-3" d="M34.1,23.35l-5-.52,4.42.84A18.09,18.09,0,0,0,30.38,26l-4.95-.36,4.58.72a16.47,16.47,0,0,0-2.44,3.06l-6.4-.71,6.11,1.2A16.46,16.46,0,0,0,26,32.8l-6.6-1.08,6.43,1.61a12.76,12.76,0,0,0-.56,2.9L12.78,32.9c9.68-10.7,22.91-15.82,22.91-15.82C23.55,19.58,11.31,31.72,5.9,37.69A22.51,22.51,0,0,0,43.64,14.77,36.34,36.34,0,0,1,34.1,23.35Z"/></g></g></g></svg>