<?xml version="1.0" encoding="utf-8"?>
<!-- Generator: Adobe Illustrator 21.1.0, SVG Export Plug-In . SVG Version: 6.00 Build 0)  -->
<svg version="1.1" id="Layer_1" xmlns="http://www.w3.org/2000/svg" xmlns:xlink="http://www.w3.org/1999/xlink" x="0px" y="0px"
	 viewBox="0 0 273.3 48.9" style="enable-background:new 0 0 273.3 48.9;" xml:space="preserve">
<style type="text/css">
	.st0{enable-background:new    ;}
	.st1{fill:#00C5C5;}
</style>
<title>Asset 11</title>
<g id="Layer_2">
	<g id="blue">
		<g id="blue_text">
			<g class="st0">
				<path class="st1" d="M79.6,30.6c0,1.2-0.2,2.3-0.6,3.3c-0.4,1-0.9,1.9-1.6,2.6c-0.7,0.8-1.5,1.3-2.4,1.8c-0.9,0.4-1.9,0.6-3,0.6
					H58.6v-32h13.3c1,0,1.9,0.2,2.7,0.7s1.5,1.1,2,1.9c0.6,0.8,1,1.6,1.3,2.6c0.3,1,0.5,2,0.5,2.9c0,1.6-0.4,3.1-1.1,4.5
					s-1.7,2.3-3,3c1.6,0.5,2.9,1.6,3.9,3C79.1,27,79.6,28.7,79.6,30.6z M60.6,9v12.8h10.4c0.8,0,1.5-0.2,2.1-0.5
					c0.6-0.4,1.2-0.8,1.7-1.4s0.8-1.3,1.1-2c0.3-0.8,0.4-1.6,0.4-2.4c0-0.9-0.1-1.7-0.4-2.5c-0.3-0.8-0.6-1.4-1-2
					c-0.4-0.6-1-1.1-1.6-1.4c-0.6-0.3-1.3-0.5-2-0.5H60.6z M77.5,30.3c0-0.8-0.1-1.7-0.4-2.5c-0.3-0.8-0.6-1.5-1.1-2.1
					c-0.5-0.6-1-1.1-1.7-1.5c-0.7-0.4-1.4-0.5-2.1-0.5H60.6v13.1h11.3c0.8,0,1.5-0.2,2.2-0.5c0.7-0.4,1.3-0.8,1.8-1.5
					c0.5-0.6,0.9-1.3,1.2-2.1C77.4,32,77.5,31.1,77.5,30.3z"/>
			</g>
			<g class="st0">
				<path class="st1" d="M85.1,38.9v-32h2v29.9h17v2.1H85.1z"/>
			</g>
			<g class="st0">
				<path class="st1" d="M118.1,37c1.9,0,3.5-0.4,4.8-1.2c1.3-0.8,2.3-1.9,3-3.2c0.7-1.3,1.3-2.8,1.6-4.5c0.3-1.7,0.5-3.4,0.5-5.1
					V6.9h2V23c0,2.1-0.2,4.2-0.6,6.1c-0.4,2-1.1,3.7-2,5.2c-0.9,1.5-2.2,2.7-3.6,3.5c-1.5,0.9-3.3,1.3-5.5,1.3
					c-2.3,0-4.2-0.5-5.7-1.4c-1.5-0.9-2.7-2.1-3.7-3.6c-0.9-1.5-1.6-3.2-2-5.2c-0.4-1.9-0.6-3.9-0.6-5.9V6.9h2V23
					c0,1.8,0.2,3.5,0.5,5.2c0.3,1.7,0.8,3.2,1.6,4.5c0.8,1.3,1.8,2.4,3,3.2C114.6,36.6,116.2,37,118.1,37z"/>
				<path class="st1" d="M155.9,36.8v2.1h-19v-32h18.6V9H139v12.6h14.5v2H139v13.3H155.9z"/>
				<path class="st1" d="M171.8,38.9v-32h18.5V9h-16.5v12.7h14v2h-14v15.2H171.8z"/>
				<path class="st1" d="M214.5,36.8v2.1h-19v-32h18.6V9h-16.5v12.6h14.5v2h-14.5v13.3H214.5z"/>
				<path class="st1" d="M220.1,38.9v-32h11.8c1.2,0,2.3,0.3,3.3,0.9c1,0.6,1.9,1.3,2.6,2.3c0.7,0.9,1.3,2,1.7,3.2s0.6,2.4,0.6,3.6
					c0,1.2-0.2,2.3-0.5,3.4c-0.3,1.1-0.8,2.1-1.4,2.9c-0.6,0.9-1.3,1.6-2.1,2.2s-1.7,0.9-2.7,1.1l7.1,12.4h-2.4l-6.9-12.1h-9.2v12.1
					H220.1z M222.1,24.7h10c0.9,0,1.7-0.2,2.5-0.7s1.4-1,1.9-1.8c0.5-0.7,0.9-1.6,1.2-2.5c0.3-0.9,0.4-1.9,0.4-2.9
					c0-1-0.2-2-0.5-2.9c-0.3-0.9-0.8-1.8-1.4-2.5s-1.2-1.3-2-1.7c-0.8-0.4-1.6-0.7-2.5-0.7h-9.7V24.7z"/>
				<path class="st1" d="M248.1,11.3v27.6h-2v-32h1.6l20,28.1V6.9h2v32h-1.9L248.1,11.3z"/>
			</g>
		</g>
		<g id="blue_logo">
			<path class="st1" d="M10.5,31.2l-1-7.8c0.6-0.9,1.4-1.6,2.4-2.1l1.1,6.2L12.3,21c1.1-0.6,2.2-1.1,3.3-1.6l0.4,5.7l0.1-5.9
				c1.1-0.5,2.2-0.9,3.2-1.2l0.2,4.8l0.2-4.9c1.6-0.5,3-0.9,3.7-1.1l-0.5,4.1l0.9-4.2h0.1c6.2-1.1,12.1-3.2,17.7-6
				C35.2,0.1,21.3-3.2,10.7,3.3S-3.2,23.7,3.3,34.2c0.5,0.8,1,1.6,1.6,2.3L10.5,31.2z"/>
			<path class="st1" d="M34.1,23.4l-5-0.5l4.4,0.8c-1.1,0.7-2.2,1.4-3.1,2.3l-4.9-0.4l4.6,0.7c-0.9,0.9-1.8,1.9-2.4,3.1l-6.4-0.7
				l6.1,1.2c-0.5,0.9-0.9,1.9-1.3,2.9l-6.6-1.1l6.4,1.6c-0.3,0.9-0.5,1.9-0.6,2.9l-12.5-3.3c9.7-10.7,22.9-15.8,22.9-15.8
				C23.5,19.6,11.3,31.7,5.9,37.7c8.4,9.2,22.6,9.8,31.8,1.4c6.7-6.2,9.1-15.7,5.9-24.3C41,18.2,37.8,21.1,34.1,23.4z"/>
		</g>
	</g>
</g>
</svg>
