<?xml version="1.0" encoding="utf-8"?>
<!-- Generator: Adobe Illustrator 21.1.0, SVG Export Plug-In . SVG Version: 6.00 Build 0)  -->
<svg version="1.1" id="Layer_1" xmlns="http://www.w3.org/2000/svg" xmlns:xlink="http://www.w3.org/1999/xlink" x="0px" y="0px"
	 viewBox="0 0 512 512" style="enable-background:new 0 0 512 512;" xml:space="preserve">
<style type="text/css">
	.st0{fill:#00C5C5;}
</style>
<g>
	<g>
		<path class="st0" d="M469.8,153.9c-4.4,0-8,3.6-8,8v68.4c0,4.4,3.6,8,8,8s8-3.6,8-8v-68.4C477.8,157.5,474.2,153.9,469.8,153.9z"
			/>
	</g>
</g>
<g>
	<g>
		<path class="st0" d="M504,17.1h-68.4H8c-4.4,0-8,3.6-8,8v342c0,4.4,3.6,8,8,8h299.9l117.4,117.4c1.6,1.6,3.6,2.3,5.7,2.3
			s4.1-0.8,5.7-2.3l36.3-36.3c3.1-3.1,3.1-8.2,0-11.3l-69.8-69.8h32.5H504c4.4,0,8-3.6,8-8v-342C512,20.7,508.4,17.1,504,17.1z
			 M455.9,450.6L431,475.5l-114-114l-56-56l24.9-24.9l92.3,92.3L455.9,450.6z M206.1,236.5l14.3,28.6h-33.3v-60.9h34.7H248v37.2
			l-31.2-15.6c-3.1-1.5-6.8-0.9-9.3,1.5C205.1,229.7,204.5,233.4,206.1,236.5z M252.4,261.5l19.9,9.9L251.7,292l-11.2-22.4
			l-9.3-18.7L252.4,261.5z M427.6,359.1h-40.5l-95.6-95.6l0,0c-0.1-0.1-0.2-0.2-0.4-0.3c-0.1-0.1-0.2-0.1-0.2-0.2
			c-0.1-0.1-0.2-0.2-0.3-0.2c-0.1-0.1-0.2-0.2-0.4-0.2c-0.1,0-0.2-0.1-0.2-0.1c-0.2-0.1-0.3-0.2-0.5-0.3l0,0L264,249.3v-53.2
			c0-4.4-3.6-8-8-8h-26.2V170h120.8v18.2h-34.7c-4.4,0-8,3.6-8,8v77c0,4.4,3.6,8,8,8h77c4.4,0,8-3.6,8-8v-77c0-4.4-3.6-8-8-8h-26.2
			V162c0-4.4-3.6-8-8-8H229.8v-5.3h47.6c4.4,0,8-3.6,8-8V55c0-4.4-3.6-8-8-8H170.5c-4.4,0-8,3.6-8,8v85.5c0,4.4,3.6,8,8,8h43.3v5.3
			H76.4c-4.4,0-8,3.6-8,8V188H42.2c-4.4,0-8,3.6-8,8v77c0,4.4,3.6,8,8,8h77c4.4,0,8-3.6,8-8v-77c0-4.4-3.6-8-8-8H84.4v-18h129.3
			v18.2H179c-4.4,0-8,3.6-8,8v77c0,4.4,3.6,8,8,8h49.3l14,27.9l0,0c0.2,0.3,0.3,0.6,0.5,0.9c0,0.1,0.1,0.1,0.1,0.2
			c0.2,0.2,0.3,0.4,0.5,0.6c0.1,0.1,0.1,0.2,0.2,0.2l0.1,0.1l48,48H16v-326h411.5L427.6,359.1L427.6,359.1z M178.5,132.5V63.1h90.9
			v69.5h-90.9V132.5z M384.8,204.2v60.9h-60.9v-60.9L384.8,204.2L384.8,204.2z M111.2,204.2v60.9h-61v-60.9L111.2,204.2L111.2,204.2
			z M496,359.1h-52.4v-326H496V359.1z"/>
	</g>
</g>
</svg>
