<?xml version="1.0" encoding="utf-8"?>
<!-- Generator: Adobe Illustrator 20.1.0, SVG Export Plug-In . SVG Version: 6.00 Build 0)  -->
<svg version="1.1" id="Layer_1" xmlns="http://www.w3.org/2000/svg" xmlns:xlink="http://www.w3.org/1999/xlink" x="0px" y="0px"
	 viewBox="0 0 512 512" style="enable-background:new 0 0 512 512;" xml:space="preserve">
<style type="text/css">
	.st0{fill:#2269AA;}
</style>
<g>
	<g>
		<path class="st0" d="M505.3,498.2L18.1,11c-2.3-2.3-5.8-3-8.8-1.8c-3,1.2-5,4.2-5,7.5v487.2c0,4.5,3.6,8.1,8.1,8.1h64.7h64.7h64.7
			h64.7h64.7h64.7h99.2c3.3,0,6.2-2,7.5-5C508.3,504,507.6,500.5,505.3,498.2z M408.5,495.8L408.5,495.8v-26.4
			c0-4.5-3.6-8.1-8.1-8.1c-4.5,0-8.1,3.6-8.1,8.1v26.4h-48.5v-26.4c0-4.5-3.6-8.1-8.1-8.1c-4.5,0-8.1,3.6-8.1,8.1v26.4h-48.5v-26.4
			c0-4.5-3.6-8.1-8.1-8.1c-4.5,0-8.1,3.6-8.1,8.1v26.4h-48.5v-26.4c0-4.5-3.6-8.1-8.1-8.1s-8.1,3.6-8.1,8.1v26.4h-48.5v-26.4
			c0-4.5-3.6-8.1-8.1-8.1s-8.1,3.6-8.1,8.1v26.4H85.1v-26.4c0-4.5-3.6-8.1-8.1-8.1S69,465,69,469.4v26.4H20.5V36.2l459.6,459.6
			L408.5,495.8L408.5,495.8z"/>
	</g>
</g>
<g>
	<g>
		<path class="st0" d="M350.1,433.5L82.8,167.1c-2.3-2.3-5.8-3-8.8-1.7c-3,1.3-5,4.2-5,7.5v266.4c0,4.5,3.6,8.1,8.1,8.1h267.3
			c3.3,0,6.2-2,7.5-5C353.1,439.3,352.4,435.8,350.1,433.5z M85.1,431.2V192.3l239.7,238.9H85.1z"/>
	</g>
</g>
<g>
	<g>
		<path class="st0" d="M181.9,217.9L61.2,97.2c-3.2-3.2-8.3-3.2-11.4,0c-3.2,3.2-3.2,8.3,0,11.4l120.7,120.7
			c1.6,1.6,3.6,2.4,5.7,2.4c2.1,0,4.1-0.8,5.7-2.4C185.1,226.2,185.1,221.1,181.9,217.9z"/>
	</g>
</g>
<g>
	<g>
		<path class="st0" d="M225.1,265.4l-21.6-21.6c-3.2-3.2-8.3-3.2-11.4,0c-3.2,3.2-3.2,8.3,0,11.4l21.6,21.6c1.6,1.6,3.6,2.4,5.7,2.4
			s4.1-0.8,5.7-2.4C228.2,273.6,228.2,268.5,225.1,265.4z"/>
	</g>
</g>
<g>
	<g>
		<path class="st0" d="M505.3,275.6l-61-61L257.8,28c0,0,0,0,0,0l0,0c0,0-0.1-0.1-0.1-0.1c-0.2-0.1-0.3-0.3-0.5-0.4
			c-0.1-0.1-0.1-0.1-0.2-0.2c-0.1-0.1-0.3-0.2-0.4-0.3c-0.1-0.1-0.2-0.1-0.3-0.2c-0.1-0.1-0.2-0.2-0.4-0.2c-0.1-0.1-0.3-0.1-0.4-0.2
			c-0.1-0.1-0.2-0.1-0.3-0.2c-0.2-0.1-0.3-0.1-0.5-0.2c-0.1,0-0.2-0.1-0.3-0.1c-0.2-0.1-0.4-0.1-0.6-0.2c-0.1,0-0.1,0-0.2,0l0,0
			c0,0,0,0,0,0L147,4.5c-0.3-0.1-0.6-0.1-0.9-0.1c0,0-0.1,0-0.1,0c-0.1,0-0.1,0-0.2,0c-0.1,0-0.3,0-0.4,0c-0.1,0-0.2,0-0.3,0
			c-0.1,0-0.2,0-0.2,0c0,0-0.1,0-0.1,0c0,0-0.1,0-0.1,0c-0.2,0-0.3,0-0.5,0.1c-0.1,0-0.1,0-0.2,0c-0.6,0.1-1.2,0.3-1.8,0.5
			c0,0-0.1,0-0.1,0.1c-0.2,0.1-0.3,0.1-0.5,0.2c-0.1,0-0.1,0.1-0.2,0.1c-0.1,0-0.1,0.1-0.2,0.1c-0.1,0.1-0.2,0.1-0.3,0.2
			c-0.1,0.1-0.2,0.1-0.3,0.2c0,0,0,0-0.1,0c-0.1,0-0.1,0.1-0.2,0.1c0,0-0.1,0.1-0.1,0.1c-0.1,0.1-0.1,0.1-0.2,0.2
			c-0.1,0.1-0.2,0.2-0.4,0.3c0,0-0.1,0.1-0.1,0.2c-0.1,0.1-0.3,0.3-0.4,0.4c0,0,0,0.1-0.1,0.1c0,0,0,0,0,0c0,0.1-0.1,0.1-0.1,0.2
			c-0.1,0.1-0.2,0.2-0.3,0.4c0,0,0,0,0,0c0,0.1-0.1,0.1-0.1,0.2c0,0.1-0.1,0.1-0.1,0.2c0,0.1-0.1,0.2-0.1,0.2c0,0,0,0,0,0.1
			C138.1,8.8,138,8.9,138,9c0,0,0,0.1-0.1,0.1c0,0,0,0.1,0,0.1c-0.1,0.3-0.2,0.5-0.3,0.8c0,0,0,0,0,0c-0.1,0.3-0.1,0.6-0.2,0.8
			c0,0.1,0,0.2,0,0.2c0,0.1-0.1,0.3-0.1,0.4c0,0.1,0,0.2,0,0.2c0,0.1,0,0.2,0,0.3c0,0.1,0,0.2,0,0.3c0,0.1,0,0.3,0,0.4
			c0,0.1,0,0.2,0,0.2c0,0,0,0.1,0,0.1c0,0.3,0.1,0.6,0.1,0.9l21.3,106.6c0,0,0,0,0,0l0,0c0,0.2,0.1,0.3,0.1,0.5
			c0,0.2,0.1,0.3,0.1,0.5c0.1,0.2,0.1,0.3,0.2,0.5c0,0.1,0.1,0.2,0.1,0.3c0.1,0.1,0.1,0.3,0.2,0.4c0,0.1,0.1,0.2,0.1,0.3
			c0.1,0.1,0.2,0.3,0.2,0.4c0.1,0.1,0.1,0.2,0.2,0.2c0.1,0.1,0.2,0.3,0.3,0.4c0.1,0.1,0.1,0.1,0.2,0.2c0.1,0.1,0.2,0.3,0.4,0.4
			c0,0,0.1,0.1,0.1,0.1l186.6,186.6l61,61c1.6,1.6,3.6,2.4,5.7,2.4s4.1-0.8,5.7-2.4l85.4-85.4c1.5-1.5,2.4-3.6,2.4-5.7
			S506.8,277.1,505.3,275.6z M252,45.2l175.2,175.2l-16,16L236,61.2L252,45.2z M399.8,247.8l-19.1,19.1L205.5,91.7l9.5-9.5
			c0,0,0,0,0,0l9.5-9.5L399.8,247.8z M159.4,41.7l-3.8-19l5.3,1.1l13.7,2.7L159.4,41.7z M163.2,60.8l30.5-30.5l41.9,8.4l-32,32
			c0,0,0,0,0,0l-15.2,15.2c0,0,0,0,0,0l-16.8,16.8L163.2,60.8z M178.1,119.1l16-16l175.2,175.2l-16,16L178.1,119.1z M414.2,355.2
			l-49.5-49.5l21.7-21.7l52.2-52.2l49.5,49.5L414.2,355.2z"/>
	</g>
</g>
<g>
	<g>
		<path class="st0" d="M462.2,278.3l-21.6-21.6c-3.2-3.2-8.3-3.2-11.4,0c-3.2,3.2-3.2,8.3,0,11.4l21.6,21.6c1.6,1.6,3.6,2.4,5.7,2.4
			s4.1-0.8,5.7-2.4C465.4,286.6,465.4,281.5,462.2,278.3z"/>
	</g>
</g>
<g>
	<g>
		<path class="st0" d="M505.3,100.1l-61-61L413.9,8.7c-11.6-11.6-30.4-11.6-41.9,0l-27.4,27.4c-11.6,11.6-11.6,30.4,0,41.9
			l30.5,30.5l61,61c1.5,1.5,3.6,2.4,5.7,2.4s4.2-0.9,5.7-2.4l57.9-57.9C508.5,108.4,508.5,103.3,505.3,100.1z M355.9,66.6
			c-5.3-5.3-5.3-13.8,0-19.1l27.4-27.4c5.3-5.3,13.8-5.3,19.1,0l24.8,24.8l-46.5,46.5L355.9,66.6z M441.7,152.3l-49.5-49.5
			l46.5-46.5l49.5,49.5L441.7,152.3z"/>
	</g>
</g>
<g>
	<g>
		<path class="st0" d="M468.7,100.1l-24.4-24.4c-3.2-3.2-8.3-3.2-11.4,0c-3.2,3.2-3.2,8.3,0,11.4l24.4,24.4c1.6,1.6,3.6,2.4,5.7,2.4
			s4.1-0.8,5.7-2.4C471.9,108.4,471.9,103.3,468.7,100.1z"/>
	</g>
</g>
</svg>
