<?xml version="1.0" encoding="utf-8"?>
<!-- Generator: Adobe Illustrator 20.1.0, SVG Export Plug-In . SVG Version: 6.00 Build 0)  -->
<svg version="1.1" id="Capa_1" xmlns="http://www.w3.org/2000/svg" xmlns:xlink="http://www.w3.org/1999/xlink" x="0px" y="0px"
	 viewBox="0 0 455.7 455.7" style="enable-background:new 0 0 455.7 455.7;" xml:space="preserve">
<style type="text/css">
	.st0{fill:#2269AA;}
</style>
<path class="st0" d="M0,0v455.7h455.7V0H0z M139.9,376c0,5.8-4.7,10.5-10.5,10.5H84.7c-5.8,0-10.5-4.7-10.5-10.5V185.2
	c0-5.8,4.7-10.5,10.5-10.5h44.7c5.8,0,10.5,4.7,10.5,10.5V376z M107,145.5c-20.3,0.4-38.2-16.6-38.2-38.2c0-21,17.3-38.1,38.4-38.1
	c20.9,0,38.1,17.3,38,38.2C145.2,129.4,127,146,107,145.5z M386.9,382.2c0,2.4-2,4.4-4.4,4.4l-57.2,0c-2.4,0-4.4-2-4.4-4.4V264.3
	c0-10.2-4.1-19.4-10.8-26.1c-6.8-6.8-16.1-10.9-26.5-10.8c-20.3,0.2-36.5,17.1-36.5,37.3v117.3c0,2.4-2,4.4-4.4,4.4l-57,0
	c-2.4,0-4.4-2-4.4-4.4V179c0-2.4,2-4.4,4.4-4.4h55.8c2.4,0,4.4,2,4.4,4.4v23.4c0,0,0.2,0,0.6,0.1c1.1-1.9,2.3-3.8,3.5-5.7
	c11.6-16.7,31-27.6,52.8-27.6h11.5c40,0,72.4,32.4,72.4,72.4L386.9,382.2L386.9,382.2z"/>
</svg>
