<?xml version="1.0" encoding="utf-8"?>
<!-- Generator: Adobe Illustrator 21.1.0, SVG Export Plug-In . SVG Version: 6.00 Build 0)  -->
<svg version="1.1" id="Layer_1" xmlns="http://www.w3.org/2000/svg" xmlns:xlink="http://www.w3.org/1999/xlink" x="0px" y="0px"
	 viewBox="0 0 960 566" style="enable-background:new 0 0 960 566;" xml:space="preserve">
<style type="text/css">
	.st0{display:none;}
	.st1{display:inline;fill:#F9AE53;}
	.st2{display:inline;}
	.st3{clip-path:url(#SVGID_2_);fill:#C8805E;}
	.st4{clip-path:url(#SVGID_4_);fill:#F9F9F9;}
	.st5{clip-path:url(#SVGID_6_);fill:#986455;}
	.st6{clip-path:url(#SVGID_8_);}
	.st7{clip-path:url(#SVGID_10_);fill:#DB5D56;}
	.st8{clip-path:url(#SVGID_12_);fill:#994E57;}
	.st9{clip-path:url(#SVGID_14_);fill:#994E57;}
	.st10{clip-path:url(#SVGID_16_);fill:#994E57;}
	.st11{clip-path:url(#SVGID_18_);fill:#994E57;}
	.st12{clip-path:url(#SVGID_20_);fill:#994E57;}
	.st13{clip-path:url(#SVGID_22_);fill:#994E57;}
	.st14{clip-path:url(#SVGID_24_);fill:#994E57;}
	.st15{clip-path:url(#SVGID_26_);fill:#994E57;}
	.st16{clip-path:url(#SVGID_28_);fill:#F29596;}
	.st17{clip-path:url(#SVGID_30_);fill:#C8805E;}
	.st18{clip-path:url(#SVGID_32_);fill:#996351;}
	.st19{clip-path:url(#SVGID_34_);fill:#E79F6F;}
	.st20{clip-path:url(#SVGID_36_);fill:#FFFFFF;}
	.st21{clip-path:url(#SVGID_38_);fill:#FFFFFF;}
	.st22{clip-path:url(#SVGID_40_);fill:#FFFFFF;}
	.st23{clip-path:url(#SVGID_42_);fill:#FFFFFF;}
	.st24{clip-path:url(#SVGID_44_);fill:#C3C4CB;}
	.st25{clip-path:url(#SVGID_46_);}
	.st26{clip-path:url(#SVGID_48_);fill:#C88A6C;}
	.st27{clip-path:url(#SVGID_50_);fill:#AF5B50;}
	.st28{clip-path:url(#SVGID_52_);fill:#FFFFFF;}
	.st29{clip-path:url(#SVGID_54_);fill:#FFFFFF;}
	.st30{clip-path:url(#SVGID_56_);fill:#4C3629;}
	.st31{clip-path:url(#SVGID_58_);fill:#C88A6C;}
	.st32{clip-path:url(#SVGID_60_);fill:#4C3629;}
	.st33{clip-path:url(#SVGID_62_);}
	.st34{clip-path:url(#SVGID_64_);}
	.st35{clip-path:url(#SVGID_66_);fill:#6D4029;}
	.st36{clip-path:url(#SVGID_68_);fill:#6D4029;}
	.st37{clip-path:url(#SVGID_70_);fill:#4C393A;}
	.st38{clip-path:url(#SVGID_72_);fill:#4C393A;}
	.st39{clip-path:url(#SVGID_74_);fill:#B27556;}
	.st40{clip-path:url(#SVGID_76_);fill:#B27556;}
	.st41{clip-path:url(#SVGID_78_);fill:#423733;}
	.st42{clip-path:url(#SVGID_80_);fill:#423733;}
	.st43{clip-path:url(#SVGID_82_);fill:none;stroke:#000000;stroke-miterlimit:10;}
	.st44{fill:#F9F29D;}
	.st45{fill:#FAB02B;stroke:#FBB03B;stroke-width:4;stroke-miterlimit:10;}
	.st46{fill:#1E1A1B;stroke:#1E1A1B;stroke-width:5;stroke-miterlimit:10;}
	.st47{fill:#1E1A1B;}
	.st48{fill:#1E1A1B;stroke:#1E1A1B;stroke-miterlimit:10;}
	.st49{fill:#FAB02B;}
</style>
<g id="Layer_1_1_" class="st0">
	<rect class="st1" width="960" height="566"/>
	<g id="kanye_character" class="st2">
		<g>
			<defs>
				<rect id="SVGID_1_" x="155.7" y="27.3" width="625.8" height="538.7"/>
			</defs>
			<clipPath id="SVGID_2_">
				<use xlink:href="#SVGID_1_"  style="overflow:visible;"/>
			</clipPath>
			<path id="left_hand" class="st3" d="M211.6,104.2l-1.6,2l0.8,4l7.8,13.6l9.9,13.5l7.3,9.2l2.7,9.9l8.5,18.7l9.7,15.1l21.4,14.4
				l-3.9-31.5l6.4-4.6l6.1-4.7l-3.7-24.1l-5.1-19.4l-1-3l-3.2-14.4L267.9,89l-4.3-7.3l-3.9-6.1l-4.4-4l-2.7,0.8l-1.5,1.9l-0.1,4.4
				l1.2,5.4l3.1,6.2l9.4,25.5l0.2,4c0,0,0,1.5-0.5,1.8s-1.5-0.3-1.5-0.3l-2.3-8.7l-7-15.6l-10-18.8l-4-7.3l-4-3.1l-4.8,0.1l-2,1.2
				l-0.5,3.1l0.8,5.2l15.3,29.4l5.6,12l0.1,4l-3.4-4.1l-7.7-11.8l-9.2-15.4l-5.5-8.8l-3.8-2.3l-2.8,0.9l-1.4,2.4l0.7,4.8l2.5,6
				l11.8,19.9l9.6,13.5l0.3,2.6l-0.8,2.4l-1.7-0.6c0,0-9.7-13.3-10.3-14s-8.5-10.3-8.8-10.7c-0.3-0.4-5.4-4.3-5.4-4.3L211.6,104.2z"
				/>
		</g>
		<g>
			<defs>
				<rect id="SVGID_3_" x="155.7" y="27.3" width="625.8" height="538.7"/>
			</defs>
			<clipPath id="SVGID_4_">
				<use xlink:href="#SVGID_3_"  style="overflow:visible;"/>
			</clipPath>
			<path id="white5" class="st4" d="M251.5,83.5c0,0,1.3-8.2,4.9-5.5c3.5,2.7,8,11.1,8,11.1s6.1,9.8,9,26.4c0,0,1.6,8,4.7,15.4
				c3,7.4,4.5,22.9,4.5,22.9s0.6,8.3-3.3,0c-3.8-8.3-5.9-14-5.9-14l-0.4,13.4l4.1,13l9.2,52.3l2.1,5.5l5.8-6.4l-3.5-4.8l0.7-8.8
				l-3.5-21.9l1.4-7.7l-1.9-9.1l-5.9-32.9l-2.6-9.4l-2.8-10.3l-3.1-12.4l-4.4-9.8l-4.3-7.4l-3.5-5.8l-3.1-4.1l-3.5-1.7l-2.6,1.8
				l-1.3,2.9L251.5,83.5z"/>
		</g>
		<g>
			<defs>
				<rect id="SVGID_5_" x="155.7" y="27.3" width="625.8" height="538.7"/>
			</defs>
			<clipPath id="SVGID_6_">
				<use xlink:href="#SVGID_5_"  style="overflow:visible;"/>
			</clipPath>
			<path id="left_hand_shadow" class="st5" d="M253.9,186.5c0,0,11-1.4,14.7,1.7l-8.7-12.7c0,0,2.5-11.1,7.1-12.9l-0.1-6.6
				c0,0-4.3-4.6-1.5-12.1s7.2-8.9,7.2-8.9s2.5-1.2,1.9,8.9c0,0-1.8,6.5,2.2,11.4s7.4,12.6,7.4,12.6s1.3,5.6,0,13.4
				c0,0,4.6,29.1,4.7,33.7c0.1,4.6,1.5,7.8,1.5,7.8l-13.6,8.1h-15.1l-7-8.4l2.4-12.3l-0.5-20L253.9,186.5z"/>
		</g>
		<g>
			<defs>
				<rect id="SVGID_7_" x="155.7" y="27.3" width="625.8" height="538.7"/>
			</defs>
			<clipPath id="SVGID_8_">
				<use xlink:href="#SVGID_7_"  style="overflow:visible;"/>
			</clipPath>
			<path id="undershirt" class="st6" d="M291.9,217.1c0,0-3.1,14.2-30.3,12.4l5.8,4.7h17.4l9.4-5.8l0.1-9.6L291.9,217.1z"/>
		</g>
		<g>
			<defs>
				<rect id="SVGID_9_" x="155.7" y="27.3" width="625.8" height="538.7"/>
			</defs>
			<clipPath id="SVGID_10_">
				<use xlink:href="#SVGID_9_"  style="overflow:visible;"/>
			</clipPath>
			<path id="red_shirt" class="st7" d="M254.9,219.6l14.7,13.4c0,0,18.9,2,24.7-8.2l0.1,6.9l6.5,4.5l4.3,10.3l4.6,19.8l6.3,19.2
				l2.8,7.6l2.6,8l6.9,15.2l13.3,6.8l5.9,10l6.5,2.4l6.9,10l2,1.8l4.7-3l5.9,5.3l1.8,0.5l4.8-2.5l41.2,11.5L426,373l19.5-6.5
				l60.1,3.9l17.5-3.6l27.8-1.7l13.2-9.7l23.2,0.7l6.3-1.7l5.4-10l18.9-11.9l2.6-2.4l7.7-14.6l4.6-6.9l10.8-37.4l3.5-14.7l4.1-7.8
				l4.5-9l1.3-14l1.2-3.3l4.5,1.5l34.5,9V245l5.9,7.7l-20.9,48l-24.2,64l-16,45.9l-34.2,25l-21.9,35.7l-2.2,6.7l8.3,45.9l2.6,16.5
				l7.8,40.7c0,0,5.3,19.9,5.5,20.5c0.2,0.5,3.4,6.4,3.4,6.4H591H473H359.3l1.8-23l4-42.8l5.3-39.9l4.7-19.3l-7.1-17l-51.2-72.6
				l-34.7-45.9l-16.2-30.6l-8.5-53.9L254.9,219.6z"/>
		</g>
		<g>
			<defs>
				<rect id="SVGID_11_" x="155.7" y="27.3" width="625.8" height="538.7"/>
			</defs>
			<clipPath id="SVGID_12_">
				<use xlink:href="#SVGID_11_"  style="overflow:visible;"/>
			</clipPath>
			<path id="dark_right_arm" class="st8" d="M589.2,438.1l2.8-13.4l8.5-1.2c0,0,25.2-19.5,37-20.4l-10.2-16.2l-10-2l11-3L618,349.8
				l13,14h8.5l-7.9-31.5l7.9,5.6l5.1-15.6l1.8-31.5c0,0,3.3-12.4,5.5-14.2c0,0,0.2-18.1,3-22.7c2.8-4.5,5.5-19.3,5.5-19.3
				s15.5,18.1,36.7,0v10.5l5.4,6.2l1.6,5.6l-0.6,15.4l0.4,11l-1.4,2.4l-3,2.6l-3.2,9l-3.3,17.4l-3.7,21.9l-4.6,13l-7.4,14l-3,3.6
				l-2.4,1.9l-5.1,8.8l-18.1,29l-4.5,5.9l-4.7,4.5l-19,21.1l-21.3,23.7l-14.7,14.5l5.3,35.5l8.1,47.8l-18.5-75l1.6-47.3L589.2,438.1
				z"/>
		</g>
		<g>
			<defs>
				<rect id="SVGID_13_" x="155.7" y="27.3" width="625.8" height="538.7"/>
			</defs>
			<clipPath id="SVGID_14_">
				<use xlink:href="#SVGID_13_"  style="overflow:visible;"/>
			</clipPath>
			<path id="dark_left_arm" class="st9" d="M257.1,210.9c0,0-0.3,23.1,21.5,24c0,0,8.5,1.8-1,8.9c-9.5,7.1-11.6,6.9-11.6,6.9v7.9
				h18.1c0,0,14.2,25.6,16.4,31.5s5.5,25.8,8.3,26l-16.5,18.3l-1.8,14.6l18.4-13.4c0,0,8.5,10.8,12.2,22.5c3.7,11.6,36,72.9,36,72.9
				s2.1-39.4,0-53c0,0,12.4,61.3,12.6,71.1c0.2,9.9-1.6-58.9-1.6-58.9s7.3,54.8,9.5,56.5c0,0-1.4-61.1,2.4-68.8l1.2,39.8l2.4-30.7
				c0,0,3.3,48.7-1.4,59.5c-4.7,10.8-7,37.4-7,37.4l-5.6-15.4l-5.7-9l-8.7-9.9l-24.3-31l-23.4-31.1l-20-27l-10.1-14.1l-8.5-11.2
				l-2.4-2.4l-3.1-16.7l-7.7-44l-3.2-20.9l-0.7-6.9l4.1-2.1l-1.1-11.1l0.1-11.6L257.1,210.9z"/>
		</g>
		<g>
			<defs>
				<rect id="SVGID_15_" x="155.7" y="27.3" width="625.8" height="538.7"/>
			</defs>
			<clipPath id="SVGID_16_">
				<use xlink:href="#SVGID_15_"  style="overflow:visible;"/>
			</clipPath>
			<path id="dark" class="st10" d="M563.8,409.5l-36.4,198.6h19.8l18.3-171.4l8.6,27.8v-8.6c0,0-10-47.6-8.9-51.4L563.8,409.5z"/>
		</g>
		<g>
			<defs>
				<rect id="SVGID_17_" x="155.7" y="27.3" width="625.8" height="538.7"/>
			</defs>
			<clipPath id="SVGID_18_">
				<use xlink:href="#SVGID_17_"  style="overflow:visible;"/>
			</clipPath>
			<path id="dark2" class="st11" d="M387.1,484c0,0-3.9,112.3,0,124.1h3.9C391,608.1,387.5,541.5,387.1,484z"/>
		</g>
		<g>
			<defs>
				<rect id="SVGID_19_" x="155.7" y="27.3" width="625.8" height="538.7"/>
			</defs>
			<clipPath id="SVGID_20_">
				<use xlink:href="#SVGID_19_"  style="overflow:visible;"/>
			</clipPath>
			<path id="dark3" class="st12" d="M438.3,398.3c0,0,11.2,9.9,13.6,13.8h2.2C454.1,412.1,445,401.7,438.3,398.3z"/>
		</g>
		<g>
			<defs>
				<rect id="SVGID_21_" x="155.7" y="27.3" width="625.8" height="538.7"/>
			</defs>
			<clipPath id="SVGID_22_">
				<use xlink:href="#SVGID_21_"  style="overflow:visible;"/>
			</clipPath>
			<path id="dark4" class="st13" d="M391,386.5l4.1,58.3c0,0,15.6,45.5,15.2,48.9l14.6,19.7c0,0,30.5,29,35.1,29
				c4.5,0,17.3-1.2,17.3-1.2l-16.7-4.1c0,0-32.7-25.2-38.4-40.6s-16.5-32-16.5-32l-6.1-14.5C399.5,449.9,395.8,410.3,391,386.5z"/>
		</g>
		<g>
			<defs>
				<rect id="SVGID_23_" x="155.7" y="27.3" width="625.8" height="538.7"/>
			</defs>
			<clipPath id="SVGID_24_">
				<use xlink:href="#SVGID_23_"  style="overflow:visible;"/>
			</clipPath>
			<path id="dark5" class="st14" d="M524.2,503.2c0,0-8.4,3.3-12.7,4.9l-8.2-1.4l-7.8,3.7h-7.2l-8.3,3.9l12-2.2l4.8,0.4l6.4-3.8
				l8.2,1.3C511.6,510.1,519.3,506.4,524.2,503.2z"/>
		</g>
		<g>
			<defs>
				<rect id="SVGID_25_" x="155.7" y="27.3" width="625.8" height="538.7"/>
			</defs>
			<clipPath id="SVGID_26_">
				<use xlink:href="#SVGID_25_"  style="overflow:visible;"/>
			</clipPath>
			<polygon id="dark6" class="st15" points="417.2,431.6 423.3,465.5 429.3,466.9 433,470.8 433,481.9 443.8,493.5 455.3,493.5 
				467.5,475.5 472.2,477.7 477.3,472.4 484.2,480.5 491.2,479.7 526,432.8 487.6,475.7 476.2,466.7 472.6,475 466.1,472.6 
				451.9,487.2 445.4,490.7 435.4,481.3 436.5,467.3 430.9,462.5 426.9,461.6 			"/>
		</g>
		<g>
			<defs>
				<rect id="SVGID_27_" x="155.7" y="27.3" width="625.8" height="538.7"/>
			</defs>
			<clipPath id="SVGID_28_">
				<use xlink:href="#SVGID_27_"  style="overflow:visible;"/>
			</clipPath>
			<path id="pink" class="st16" d="M291.9,213.9v37.3l2.4-6.3l1.6,6.3l2.6-2.4v5.1l2,3.9v16.7l3.2-17.7v-3l7.7,23.8v7.7l4.5,13.2
				l-1.4,27.6l1.4-1.8l0.8,6.5l8.3-6.7l4.3-0.6c0,0,7.5,16.9,7.3,26.2c0,0,1-10.2-5.1-28.8l5.2,3.5l2.7,10.8l5.7,0.6
				c0,0,2.6-1,4,1.8c1.5,2.9,3.4,7,3.4,7.6s5.1,14.6,2.8,18.3c0,0,3.5-4.5-0.6-18.3c0,0,3-1.6,3.9,0s2.8,7.5,2.8,7.5l3.6,19.1
				l-0.8-17.3l3.5,10v-14.2h2.8l4.9,7.1l3.7,2l1.6,13.4l1.4-11l1.4,2.8c0,0-0.9-9.9,1.2-10s4.6,5.1,4.6,5.1l3.6,8.1h4.8l3.7-7.1h2.8
				l1,5.1l6.5-1l1.8,18.9l6.3-2.8l-3.9-1.6l1.6-18.3l2.4,5.3l1.8,6.7v29.2l2.1-7.9c0,0,5-10.6,5-10s1.4,20.7,1.4,20.7l3.5,3
				c0,0-1.6-5.5-1.4-6.1s-1.4-13.8-1.4-13.8l3.5-1.8l2,7.1l5.5-0.6l-2.4-4.3l2.4-0.8l-7.5-10v-3.9l7.5,8.1v-10.6h4.5L502,378h6.1v3
				l-19.7,17.3l6.3-1.2l17.1-13.1l1.4,4.7l-18.1,31.1l22.7-10.6l18.3-20.3l-19.1-4.1v-12.6l4.9-2.4h10.6l4.3,1l5.9-3.5v7.7l5.3,3.3
				l4.3-2.4V369l2.2,1.4l7.7-9.9l3.7-0.8v11.8l2.6-10.6l2.2,4.3l2.4-5.5l5.5,4.9l2.8-5.1l1.4,4.5l-5.3,9.5l3.9-2l-0.4,9.1l9.1-20.1
				l-4.3,13.2l16-28.6l2.8-1l2.6,1.8l6.3-3.5l-3.9,15l19.7-39.2l2.8,4.1l4.1-24.2l7.3-25.2l1.8-6.2l1.2,19.9l3-35.3l-16.3,57.3
				l-7.2,10.9l-6.2,12.3l-13,6.1l-7.8,6.9l-5.4,6.3l-2.3,3.5l-3.4,1.5h-3.3l-2.8-2.5c0,0-5.1-0.9-5.9-1c-0.8-0.1-6.5-0.1-6.5-0.1
				l-5.1,3.1l-6.1,3.8c0,0-7.2,3-7.8,3.1s-7.9,0-7.9,0s-2.1,2-3.5,2.4s-13.8,1.6-13.8,1.6l-5.2,0.9l-6.3,2l-4.2-0.9l-4-1.4
				l-61.4-4.1l-6.8,1.5l-8.8,2l-4.9-2.8l-1.9-6.7l-6.4-1.5l-22-5.1l-13.9-3.2l-3.5,2.8l-2.3-1.2l-3.7-3.4l-2.4-0.7l-2.1,1.6l-2,0.8
				l-2-1.8l-5.5-8.2l-4.2-3.8l-3.7-0.4l-5.9-10l-13.3-6.8l-5.1-11.2l-3.5-7.7l-1.8-8.3l-4.7-11l-5.4-18.2l-1.4-8l-3.6-11.6l-2.8-5.5
				l-3.6-2.2l-2.1-0.7v-10.1l-0.3-5.2L291.9,213.9z"/>
		</g>
		<g>
			<defs>
				<rect id="SVGID_29_" x="155.7" y="27.3" width="625.8" height="538.7"/>
			</defs>
			<clipPath id="SVGID_30_">
				<use xlink:href="#SVGID_29_"  style="overflow:visible;"/>
			</clipPath>
			<path id="right_hand" class="st17" d="M697.1,202.1c0,0-20,5.3-32.6-18l-6.4-3.7v-13.2l-3.8-11.1l-4.6-1.9l-2.4-5.5l-6-4.6
				l-4.2-6.3c0,0,0.9-4.7,4.6-4.5c3.7,0.2,7.2,1.4,7.2,1.4l5.8,3.4l9.5,9.6l3-29.5c0,0,3.1-17.1,3.2-17.5c0.1-0.4,3.8-12.7,3.8-12.7
				l4.2-9.2l3.7-2.2l3,1.3l1.1,3.7l-1.1,5l-2.8,14.9l-1.2,9.2l0.2,4.6l1.5-0.8l2.3-5l5.5-18.3l2.9-15.5l1.9-4.7l4.5-1.5l3,1.8l1.3,6
				v4.8l4.4-3.4l2.7,0.8l1.4,4.7l-2.4,20.3l-3.4,16.1l-1.8,12v3.5l2.4,1l3.8-3.9l7.7-16.9l5.1-11.1l3.5-3.3l2.4,1.2l1.8,3.2v5.5
				L729,118l-12.9,28.2l-1.3,8.7l-3.5,15l-2.8,8.6l-5,11.2l-5.5,8.6l-1.2,1.9L697.1,202.1z"/>
		</g>
		<g>
			<defs>
				<rect id="SVGID_31_" x="155.7" y="27.3" width="625.8" height="538.7"/>
			</defs>
			<clipPath id="SVGID_32_">
				<use xlink:href="#SVGID_31_"  style="overflow:visible;"/>
			</clipPath>
			<path id="right_hand_shadow" class="st18" d="M697.1,235.9c0,0-12.2,14.4-29.4,5.5l-7.3-5.5l0.3-32.8l0.7-9.6l-6.5-12.4l-2.1-8.4
				v-8.2l-3.8-13.2c0,0,6.2-0.7,9.7,7.1s3,15.9,3,15.9s3.8,16.2,11.4,18.6c0,0,15.5,10.2,24.1,7.5v35.5H697.1z"/>
		</g>
		<g>
			<defs>
				<rect id="SVGID_33_" x="155.7" y="27.3" width="625.8" height="538.7"/>
			</defs>
			<clipPath id="SVGID_34_">
				<use xlink:href="#SVGID_33_"  style="overflow:visible;"/>
			</clipPath>
			<path id="watch" class="st19" d="M697,215.6c0,0-8.3,9.6-20.6,7.6c0,0-13.4,2.6-15.6-16.5l-2.8,0.8l-0.1,7.6l0.8,7
				c0,0,0.1,8.1,12.1,11.8c11.9,3.6,26.1-7.8,26.1-7.8L697,215.6z"/>
		</g>
		<g>
			<defs>
				<rect id="SVGID_35_" x="155.7" y="27.3" width="625.8" height="538.7"/>
			</defs>
			<clipPath id="SVGID_36_">
				<use xlink:href="#SVGID_35_"  style="overflow:visible;"/>
			</clipPath>
			<path id="white" class="st20" d="M637.2,137.3l0.7-2.5l3.3-1.4l3.1-0.6l4.1,1.2l6.3,3.6l5.8,5.3l3.6,4.2c0,0-0.6,5.6-4.1,1.4
				c-3.5-4.2-7.7-7-7.7-7s-4.4-4.2-9.8-4.1S637.2,137.3,637.2,137.3z"/>
		</g>
		<g>
			<defs>
				<rect id="SVGID_37_" x="155.7" y="27.3" width="625.8" height="538.7"/>
			</defs>
			<clipPath id="SVGID_38_">
				<use xlink:href="#SVGID_37_"  style="overflow:visible;"/>
			</clipPath>
			<path id="white2" class="st21" d="M675.4,85.1c0,0,5.8-7.7,9.8,1l0.9-4.4V78l-4.1-1.3l-3,1.4L675.4,85.1z"/>
		</g>
		<g>
			<defs>
				<rect id="SVGID_39_" x="155.7" y="27.3" width="625.8" height="538.7"/>
			</defs>
			<clipPath id="SVGID_40_">
				<use xlink:href="#SVGID_39_"  style="overflow:visible;"/>
			</clipPath>
			<path id="white3" class="st22" d="M693,77.9c-0.4,0.4,2.2-6.4,2.2-6.4l3.1-1.6l3.8,0.7l1.8,3.3l0.2,5.5h2.7l3.4-0.5
				c0,0,1.5,0.9,1.8,1.9s0.7,5.2,0.7,5.2s-2.8-6.6-7.7-4.7C705.1,81.3,700.8,69.7,693,77.9z"/>
		</g>
		<g>
			<defs>
				<rect id="SVGID_41_" x="155.7" y="27.3" width="625.8" height="538.7"/>
			</defs>
			<clipPath id="SVGID_42_">
				<use xlink:href="#SVGID_41_"  style="overflow:visible;"/>
			</clipPath>
			<path id="white4" class="st23" d="M724.2,105c0,0,5.7,0,7.5,6.3l-0.4-6.3l-2.4-3h-3.4L724.2,105z"/>
		</g>
		<g>
			<defs>
				<rect id="SVGID_43_" x="155.7" y="27.3" width="625.8" height="538.7"/>
			</defs>
			<clipPath id="SVGID_44_">
				<use xlink:href="#SVGID_43_"  style="overflow:visible;"/>
			</clipPath>
			<path id="hat" class="st24" d="M451.3,257.8l-9,4.4l-4.5,6l-2.6,8.3l-0.4,1.3l-5.4,5.1l-2.3,4.7v5.1l2.6,1.6l2,1.5
				c0,0,2.4-0.8,2.5-1.1s21.3-20.5,21.3-20.5l26.3,0.1l22,11.5l5.8,5.8l3,5.5l1.5,3.2l-0.7-8.2l-6.5-22l-3.6-6.2l-5.3-4.1
				c0,0-5.4-1.9-5.7-1.9c-0.3,0-3.5-3.3-3.8-3.4c-0.3-0.1-9.8-2.1-9.8-2.1h-16.8l-6.6,4.9L451.3,257.8z"/>
		</g>
		<g>
			<defs>
				<rect id="SVGID_45_" x="155.7" y="27.3" width="625.8" height="538.7"/>
			</defs>
			<clipPath id="SVGID_46_">
				<use xlink:href="#SVGID_45_"  style="overflow:visible;"/>
			</clipPath>
			<path id="brim" class="st25" d="M434.7,312.3l-2.2-7.5V294c0,0-5.2-3.7-0.5-9.8c4.7-6.1,14-11.8,14-11.8s9.2-5.9,16.2-5.6
				s8.6-1.2,16.7,1.2c8.1,2.4,11.6,4.3,11.6,4.3s11.1,6.9,13.4,9.8c2.4,2.8,8.4,10.4,10.1,17.3V312l-1.9-0.1l-4.8-3.1l-2.8-13.4
				l-4.8-5.7l-26.1-7.3l-10.1-0.3L444,292.7L434.7,312.3z"/>
		</g>
		<g>
			<defs>
				<rect id="SVGID_47_" x="155.7" y="27.3" width="625.8" height="538.7"/>
			</defs>
			<clipPath id="SVGID_48_">
				<use xlink:href="#SVGID_47_"  style="overflow:visible;"/>
			</clipPath>
			<path id="face" class="st26" d="M439.7,292.4l-3.2,6.3v12.1l1.2,15.8l2.7,18.4l7.7,12.8l7.9,10.1c0,0,14.6,4.6,15,4.6
				s18.9-3.7,18.9-3.7l10.5-14.4l5.7-17.8l4.8-24c0,0-0.8-12.7-0.9-13s-4.9-9.5-4.9-9.8s-6-2.9-6-2.9l-15.3-4.1
				c0,0-16.2-4.4-16.4-4.3s-20.8,9.7-20.8,9.7L439.7,292.4z"/>
		</g>
		<g>
			<defs>
				<rect id="SVGID_49_" x="155.7" y="27.3" width="625.8" height="538.7"/>
			</defs>
			<clipPath id="SVGID_50_">
				<use xlink:href="#SVGID_49_"  style="overflow:visible;"/>
			</clipPath>
			<path id="face_shadow" class="st27" d="M444.4,362.9v9.2c0,0,8.5,15.1,32.9,13s25-8.3,25-8.3l2.5-9.8v-9.9l4.7-11.2l2.5-7.9
				l1.5-8l2.2-10.1l0.7-7.8l-2.2-1.1l-0.1-7.6c0,0-3.5-11.4-10.3-15.8c-6.8-4.3-27.8-12-27.8-12h-14.4c0,0-21,9.4-27.1,23v13.8
				l-1.2,1.6l-2.6,0.9l0.6,2.1l1.8,2.6l4.4,29.1l5.5,11.2l8.8-0.5l-9.8-19.7l6.8-9.2l-10.2-7.7l-0.8-24l3.8-4.8l4.7,3.4l16.6-13.1
				l7.8-0.9h6.2l14.3,10.6l5.5-4.1h5.8l4.5,8.7l0.8,11.9l-6.6,26l-1.7,6l-7.5,7.1l1.1,7.2l5.1,5.4l-5,6.1l-18,8.4l-16.6-1.2
				l-5.4-7.8l-3.7-5.1L444.4,362.9z"/>
		</g>
		<g>
			<defs>
				<rect id="SVGID_51_" x="155.7" y="27.3" width="625.8" height="538.7"/>
			</defs>
			<clipPath id="SVGID_52_">
				<use xlink:href="#SVGID_51_"  style="overflow:visible;"/>
			</clipPath>
			<path id="face_highlight" class="st28" d="M508.1,310.3l-3.4,13.6c0,0,2.9-2.7,5.3,21.1l2.3-7.7
				C512.2,337.3,511.4,311.1,508.1,310.3z"/>
		</g>
		<g>
			<defs>
				<rect id="SVGID_53_" x="155.7" y="27.3" width="625.8" height="538.7"/>
			</defs>
			<clipPath id="SVGID_54_">
				<use xlink:href="#SVGID_53_"  style="overflow:visible;"/>
			</clipPath>
			<polygon id="neck_highlight" class="st29" points="504.6,356.4 499.7,362.8 502.2,365.2 502.2,370.4 500.2,372.7 500.6,378.2 
				504.6,378.2 			"/>
		</g>
		<g>
			<defs>
				<rect id="SVGID_55_" x="155.7" y="27.3" width="625.8" height="538.7"/>
			</defs>
			<clipPath id="SVGID_56_">
				<use xlink:href="#SVGID_55_"  style="overflow:visible;"/>
			</clipPath>
			<polygon id="beard" class="st30" points="493.6,355 500.4,361.9 489.1,375.9 479.2,380.3 471.6,380.3 457.9,378.2 445.4,363.5 
				442.3,357.9 454.6,357.6 455.6,346.9 463.6,340.2 468.3,339.2 482.8,338.8 488.6,341.9 493.2,347.6 			"/>
		</g>
		<g>
			<defs>
				<rect id="SVGID_57_" x="155.7" y="27.3" width="625.8" height="538.7"/>
			</defs>
			<clipPath id="SVGID_58_">
				<use xlink:href="#SVGID_57_"  style="overflow:visible;"/>
			</clipPath>
			<polygon id="mouth_skin" class="st31" points="458.2,349.7 458.2,358.2 466.6,368.8 472.8,369.7 478.4,369.7 482.5,368.3 
				483.2,364.1 488,364.1 491.2,358 491.2,353.2 487,346 481.3,342.7 468.7,342.3 			"/>
		</g>
		<g>
			<defs>
				<rect id="SVGID_59_" x="155.7" y="27.3" width="625.8" height="538.7"/>
			</defs>
			<clipPath id="SVGID_60_">
				<use xlink:href="#SVGID_59_"  style="overflow:visible;"/>
			</clipPath>
			<path id="mouth" class="st32" d="M468.7,359.3v3.6c0,0,8.2,2.6,12.6,0v-2.8l-7.9,0.1L468.7,359.3z"/>
		</g>
		<g>
			<defs>
				<rect id="SVGID_61_" x="155.7" y="27.3" width="625.8" height="538.7"/>
			</defs>
			<clipPath id="SVGID_62_">
				<use xlink:href="#SVGID_61_"  style="overflow:visible;"/>
			</clipPath>
			<path id="left_eye" class="st33" d="M448.4,314.7l1.2-0.5c0,0,2.8,2.6,5.8,1.8s6-2.3,6-2.3h1.5c0,0-0.3,2.7-5.9,3.7
				C451.3,318.5,448.4,314.7,448.4,314.7z"/>
		</g>
		<g>
			<defs>
				<rect id="SVGID_63_" x="155.7" y="27.3" width="625.8" height="538.7"/>
			</defs>
			<clipPath id="SVGID_64_">
				<use xlink:href="#SVGID_63_"  style="overflow:visible;"/>
			</clipPath>
			<path id="right_eye" class="st34" d="M483.1,313.7h2.4c0,0,2.1,2,5.7,1.4c3.5-0.6,3.8-0.6,4.7-1.4h2c0,0-1.1,2.7-6.7,3.2
				C485.6,317.3,483.1,313.7,483.1,313.7z"/>
		</g>
		<g>
			<defs>
				<rect id="SVGID_65_" x="155.7" y="27.3" width="625.8" height="538.7"/>
			</defs>
			<clipPath id="SVGID_66_">
				<use xlink:href="#SVGID_65_"  style="overflow:visible;"/>
			</clipPath>
			<path id="right_nostril" class="st35" d="M466.2,333.5c0,0,0,1.5,1.3,1.6s3.1,0,3.1,0s0.6-1.5-1-1.6S466.2,333.5,466.2,333.5z"/>
		</g>
		<g>
			<defs>
				<rect id="SVGID_67_" x="155.7" y="27.3" width="625.8" height="538.7"/>
			</defs>
			<clipPath id="SVGID_68_">
				<use xlink:href="#SVGID_67_"  style="overflow:visible;"/>
			</clipPath>
			<path id="left_nostril" class="st36" d="M478.4,333.5c0,0-0.7,1,1,0.8s3.3,0,3.3,0s1-1.3-0.5-1.8S478.4,333.5,478.4,333.5z"/>
		</g>
		<g>
			<defs>
				<rect id="SVGID_69_" x="155.7" y="27.3" width="625.8" height="538.7"/>
			</defs>
			<clipPath id="SVGID_70_">
				<use xlink:href="#SVGID_69_"  style="overflow:visible;"/>
			</clipPath>
			<path id="left_brow" class="st37" d="M443.3,308c0-0.3,0-3.2,0-3.2s4-5.2,6.1-5.4s6.5-0.3,7.6,0.7s5.2,4.8,5.2,4.8l-6.6-0.3
				c0,0-2.3-2.5-3.9-2.3S445,308,445,308H443.3z"/>
		</g>
		<g>
			<defs>
				<rect id="SVGID_71_" x="155.7" y="27.3" width="625.8" height="538.7"/>
			</defs>
			<clipPath id="SVGID_72_">
				<use xlink:href="#SVGID_71_"  style="overflow:visible;"/>
			</clipPath>
			<path id="right_brow" class="st38" d="M489.7,303.6h8.2l4.2,3.4v-4.5c0,0-2.7-2.3-5-2.2s-12.6,0-12.6,0l-2.3,2.1l3.3,3.4
				C485.5,305.8,489,305.6,489.7,303.6z"/>
		</g>
		<g>
			<defs>
				<rect id="SVGID_73_" x="155.7" y="27.3" width="625.8" height="538.7"/>
			</defs>
			<clipPath id="SVGID_74_">
				<use xlink:href="#SVGID_73_"  style="overflow:visible;"/>
			</clipPath>
			<path id="left_nose" class="st39" d="M464.1,324.7c0,0-3.2,3.6-3.3,5.1s0.4,1.3,0.4,1.3s3.5-4.1,3.5-4.3S465.9,324.3,464.1,324.7
				z"/>
		</g>
		<g>
			<defs>
				<rect id="SVGID_75_" x="155.7" y="27.3" width="625.8" height="538.7"/>
			</defs>
			<clipPath id="SVGID_76_">
				<use xlink:href="#SVGID_75_"  style="overflow:visible;"/>
			</clipPath>
			<path id="right_nose" class="st40" d="M483.1,326.5l2.5,3.3c0,0,1.4-0.3,0-2.2c-1.4-1.8-2.4-3-2.4-3S481.4,324.3,483.1,326.5z"/>
		</g>
		<g>
			<defs>
				<rect id="SVGID_77_" x="155.7" y="27.3" width="625.8" height="538.7"/>
			</defs>
			<clipPath id="SVGID_78_">
				<use xlink:href="#SVGID_77_"  style="overflow:visible;"/>
			</clipPath>
			<path id="hat_shadow" class="st41" d="M442.3,266.1c0,0-4.2,4.5-4,9.5c0,0,14.3-13.2,32.2-13.3c0,0-2.2-1.8-13.9,0.9
				c0,0-1-0.7,0.1-1.5c0,0-2.1-0.2-5.8,3.7l-6.8,4.6c0,0-1.3-4,0.3-4.7L442.3,266.1z"/>
		</g>
		<g>
			<defs>
				<rect id="SVGID_79_" x="155.7" y="27.3" width="625.8" height="538.7"/>
			</defs>
			<clipPath id="SVGID_80_">
				<use xlink:href="#SVGID_79_"  style="overflow:visible;"/>
			</clipPath>
			<path id="hat_shadow_2" class="st42" d="M500.4,265.5c0,0-1.9,1.3,0,3.1s3.8,1.2,4.8,4.1c0,0-1.7-5.2-2.8-6.1
				C501.2,265.7,500.4,265.5,500.4,265.5z"/>
		</g>
		<g>
			<defs>
				<rect id="SVGID_81_" x="155.7" y="27.3" width="625.8" height="538.7"/>
			</defs>
			<clipPath id="SVGID_82_">
				<use xlink:href="#SVGID_81_"  style="overflow:visible;"/>
			</clipPath>
			<path id="outline_1_" class="st43" d="M584.5,476.3c0,0,17.1,124.1,26.6,131.8H359.3c0,0,7.2-105.2,15.7-124.1
				c0,0-3-16.5-15.7-29.6s-79.8-104.6-79.8-104.6s-9.8-15.4-13-16.3c0,0-14.5-77.4-14.8-89.3l4.1-2.1c0,0-3.5-22.2,1.2-31.3v-20.1
				c0,0-16.8-21.5-21.3-44.3c0,0-31-37.2-25.1-41.7c0,0,3.4-3.3,6.4,0s22,26,22.2,29c0,0,2.3-0.3,2-5.3c0,0-30-39.6-24.3-46.4
				s12.5,8.9,12.5,8.9s19.5,34,21.6,32.2s-21.6-44.3-21.6-44.3s-3.6-10.6,1.2-10.9s7.3-1.5,10.6,6.5c0,0,17.8,28.7,21,47
				c0,0,2.5,3.3,2.1-4.9c0,0-7.8-24.1-11.4-29.6c-3.5-5.6-2.4-12.5-2.4-12.5s2.5-4.9,6.1-1.6S265,85,265,85s8.9,12,11.7,33.2
				c0,0,5.2,8.7,9.8,45.5c0,0,4.9,10.6,1.2,18.3c0,0,5.7,19.5,2.6,31.5c0,0,4.2-0.6,4,5.8s0,12.3,0,12.3s10,0.6,13,26.3
				c0,0,6.8,26,10.6,31l1.8,8.3l8.6,18.9l13.3,6.8l5.9,10c0,0,4.1-0.6,6.5,2.4s7.4,11.8,8.9,11.8s4.7-3,4.7-3s4.7,3,5.9,5.3
				s5.3-2.4,5.3-2.4l42.3,9.8c0,0,0,12.4,10.9,8.9s12.4-3,12.4-3l-6.8-15.7l-4.4-27.6c0,0-4.4-5.2-1.2-5.5s3.3-0.3,3.3-0.3
				s-3.3-7.2-3.3-13.7s-1-5-1-5s-6.2-2.8-3.3-9.2c3-6.4,7.4-8.3,7.4-8.3s1.2-12.6,9.3-16.8c8.1-4.3,10.5-3.4,10.5-3.4
				s5-5.9,14.6-5.6c9.6,0.3,16,1.6,16,1.6s4.5,0.9,6.3,4.6c0,0,4.7-0.6,8.9,3.4s6,7.2,6,7.2s6.6,20.5,7.1,26.6
				c0.4,6.1,0.4,16.4,0.4,16.4s4.1-3.5,1.5,8.3s-3.7,18.1-3.7,18.1s-4.3,14.8-7.2,19.2v9.9c0,0,6.5,2.5,8.3,2.4s4.7-2.7,14.5-3.1
				s10.8-1.3,10.8-1.3s2.4-3.5,7.4-2.5s10-2.1,10-2.1s7.1-3.5,10-6.6s15.2-0.1,15.2-0.1s1.6,2.5,2.8,2.5s6.4,1,8.4-3.8
				s13-13.4,13-13.4s10.9-6.2,14.3-7.1c0,0,9.5-21.6,13-23.1l12.1-42c0,0,1.9-13.7,5.5-17.1c3.5-3.4,5.3-8.8,5.3-8.8
				s-0.9-15.1,2.7-16.8c0,0-2.9-16.4,2.1-16.3l1-14.8c0,0-9.8-14.2-8.6-23.3s-5.5-21.7-5.5-21.7s-14.5-9-8.8-13.7s16.2,3.4,16.2,3.4
				s9.2,7.8,9.5,9.5c0,0,2.5-45.9,11.7-62.7c0,0,1.8-7.6,6.2-7.7s4.1,5,4.1,5s-6.6,30.1-4.9,33.4s9.9-23,10.3-29.5c0,0,1.9-15,5-15
				c0,0,8.3-4.4,7.6,8.3s-10.6,49.9-10.6,49.9s-0.4,3.7,2.1-2.2s7.8-28.4,8.6-36.2s0.5-11.1,4.4-11.5c3.8-0.4,5.2,3.3,3.3,16.5
				s-8.8,38-6.8,40.2s4.7,2.8,12.7-16c0,0,6.5-20.4,11.1-17.6s2.7,9.9,2.7,9.9l-15.4,33.2c0,0-3.3,33.8-19.2,52.9l0.1,47
				c0,0,8.1,6.2,6.9,12.9c-1.2,6.6-0.1,25.3-0.1,25.3s-1.9,4-3.3,3.8s-3.8,7.2-3.8,7.2s-7.7,39.7-7.5,42.1s-10.8,30.4-17,31.8
				c0,0-23.9,41.8-29.7,46S595.6,468.1,584.5,476.3z"/>
		</g>
	</g>
</g>
<g id="Layer_2">
	<rect x="-3.6" class="st44" width="963.6" height="566"/>
	<g id="primary_logo__x2B__type">
		<g id="text">
			<g id="sixside">
				<path id="yellow_s" class="st45" d="M441,271.9c3.8,2.3,9.5,4.4,15.4,4.4c8.7,0,14-4.7,14-11.3c0-6.2-3.5-9.8-12.6-13.2
					c-10.9-3.8-17.6-9.5-17.6-18.9c0-10.3,8.6-18,21.5-18c6.8,0,11.7,1.6,14.7,3.3l-2.3,7c-2.1-1.2-6.6-3.2-12.7-3.2
					c-9.1,0-12.6,5.4-12.6,10c0,6.2,4.1,9.3,13.2,12.8c11.3,4.4,17,9.8,17,19.5c0,10.2-7.6,19.2-23.4,19.2c-6.4,0-13.4-1.9-17-4.3
					L441,271.9z"/>
				<path id="i_1_" class="st45" d="M502.4,215.8v66.5h-8.6v-66.5L502.4,215.8L502.4,215.8z"/>
				<path id="z" class="st45" d="M556.8,282.4l-8.5-14.7c-3.4-5.7-5.7-9.3-7.7-13.1h-0.2c-1.9,3.8-3.7,7.4-7.3,13.2l-8,14.6h-9.9
					l20.4-33.7l-19.5-32.8h10l8.7,15.6c2.5,4.4,4.4,7.7,6.1,11.3h0.3c1.9-3.9,3.5-7,6-11.3l9.1-15.6h9.9l-20.3,32.4l20.7,34.1H556.8
					z"/>
				<path id="black_s" class="st46" d="M578.6,271.9c3.8,2.3,9.5,4.4,15.4,4.4c8.7,0,14-4.7,14-11.3c0-6.2-3.5-9.8-12.6-13.2
					c-10.9-3.8-17.6-9.5-17.6-18.9c0-10.3,8.6-18,21.5-18c6.8,0,11.7,1.6,14.7,3.3l-2.3,7c-2.1-1.2-6.6-3.2-12.7-3.2
					c-9.1,0-12.6,5.4-12.6,10c0,6.2,4.1,9.3,13.2,12.8c11.3,4.4,17,9.8,17,19.5c0,10.2-7.6,19.2-23.4,19.2c-6.4,0-13.4-1.9-17-4.3
					L578.6,271.9z"/>
				<path id="i" class="st46" d="M640,215.8v66.5h-8.6v-66.5L640,215.8L640,215.8z"/>
				<path id="d" class="st46" d="M658,216.7c5.2-0.7,11.4-1.4,18.2-1.4c12.4,0,21.1,2.9,27,8.3c6,5.4,9.4,13.1,9.4,23.9
					c0,10.9-3.3,19.7-9.6,25.9c-6.2,6.2-16.5,9.6-29.4,9.6c-6.1,0-11.3-0.3-15.6-0.7L658,216.7L658,216.7z M666.5,275.5
					c2.1,0.4,5.3,0.5,8.6,0.5c18.3,0,28.4-10.2,28.4-28.3c0.1-15.7-8.7-25.7-27-25.7c-4.5,0-7.8,0.4-10,0.9V275.5L666.5,275.5z"/>
				<path id="e" class="st46" d="M761.1,251.1h-25.9v24H764v7.3h-37.4v-66.5h35.9v7.3h-27.4v21H761L761.1,251.1L761.1,251.1
					L761.1,251.1z"/>
				<rect id="e_fill" x="760.7" y="250.9" class="st47" width="3" height="3"/>
			</g>
			<g id="construction">
				<path class="st48" d="M462.8,334.3c-1.5,0.7-4.5,1.5-8.3,1.5c-8.8,0-15.6-5.7-15.6-16c0-9.9,6.7-16.5,16.4-16.5
					c3.9,0,6.4,0.9,7.5,1.4l-1,3.3c-1.5-0.7-3.7-1.3-6.4-1.3c-7.4,0-12.3,4.7-12.3,13c0,7.7,4.5,12.7,12.2,12.7c2.5,0,5-0.5,6.6-1.3
					L462.8,334.3z"/>
				<path class="st48" d="M495.2,319.2c0,10.9-6.6,16.6-14.6,16.6c-8.3,0-14.2-6.5-14.2-16c0-10,6.2-16.5,14.6-16.5
					C489.6,303.3,495.2,309.9,495.2,319.2z M470.8,319.8c0,6.7,3.6,12.8,10,12.8c6.5,0,10.1-6,10.1-13.1c0-6.3-3.3-12.8-10-12.8
					C474.1,306.7,470.8,312.8,470.8,319.8z"/>
				<path class="st48" d="M501.9,335.3v-31.6h4.5l10.1,16c2.3,3.7,4.2,7,5.7,10.2h0.1c-0.4-4.2-0.4-8-0.4-12.9v-13.2h3.8v31.6h-4.2
					l-10-16c-2.2-3.5-4.3-7.1-5.9-10.6h-0.1c0.2,3.9,0.3,7.8,0.3,13v13.4h-3.9V335.3z"/>
				<path class="st48" d="M533.5,330.3c1.8,1.2,4.5,2,7.3,2c4.2,0,6.6-2.2,6.6-5.3c0-3-1.7-4.6-6-6.3c-5.1-1.8-8.3-4.5-8.3-9
					c0-4.9,4.1-8.5,10.2-8.5c3.2,0,5.5,0.7,6.9,1.5L549,308c-1.1-0.5-3.1-1.5-6-1.5c-4.3,0-6,2.6-6,4.7c0,3,1.9,4.4,6.3,6.1
					c5.3,2,8,4.6,8,9.3c0,4.9-3.6,9.1-11,9.1c-3,0-6.4-0.9-8-2L533.5,330.3z"/>
				<path class="st48" d="M564.5,307.3h-9.6v-3.4h23.4v3.4h-9.6v28h-4.2L564.5,307.3L564.5,307.3z"/>
				<path class="st48" d="M583.1,304.2c2-0.4,5-0.6,7.8-0.6c4.4,0,7.1,0.7,9.2,2.6c1.6,1.4,2.5,3.5,2.5,6c0,4.2-2.7,6.9-6,8v0.1
					c2.5,0.9,3.8,3.1,4.6,6.4c1.1,4.4,1.8,7.5,2.5,8.6h-4.2c-0.5-0.9-1.2-3.6-2.1-7.6c-1-4.4-2.7-6-6.3-6.1h-3.8v13.6h-4.1v-31
					H583.1z M587.2,318.6h4.2c4.4,0,7.1-2.3,7.1-6c0-4.1-3-5.9-7.3-5.9c-1.9,0-3.4,0.2-4.1,0.4L587.2,318.6L587.2,318.6z"/>
				<path class="st48" d="M613.7,303.8v18.7c0,7,3.1,10,7.4,10c4.7,0,7.7-3.1,7.7-10v-18.7h4.2v18.3c0,9.7-5.1,13.6-11.9,13.6
					c-6.5,0-11.3-3.7-11.3-13.4v-18.6h3.9V303.8z"/>
				<path class="st48" d="M663.3,334.3c-1.5,0.7-4.5,1.5-8.3,1.5c-8.8,0-15.6-5.7-15.6-16c0-9.9,6.7-16.5,16.4-16.5
					c3.9,0,6.4,0.9,7.5,1.4l-1,3.3c-1.5-0.7-3.7-1.3-6.4-1.3c-7.4,0-12.3,4.7-12.3,13c0,7.7,4.5,12.7,12.2,12.7c2.5,0,5-0.5,6.6-1.3
					L663.3,334.3z"/>
				<path class="st48" d="M677.2,307.3h-9.6v-3.4H691v3.4h-9.6v28h-4.2L677.2,307.3L677.2,307.3z"/>
				<path class="st48" d="M699.9,303.8v31.6h-4.1v-31.6H699.9z"/>
				<path class="st48" d="M735.3,319.2c0,10.9-6.6,16.6-14.6,16.6c-8.3,0-14.2-6.5-14.2-16c0-10,6.2-16.5,14.6-16.5
					C729.8,303.3,735.3,309.9,735.3,319.2z M710.9,319.8c0,6.7,3.6,12.8,10,12.8c6.5,0,10.1-6,10.1-13.1c0-6.3-3.3-12.8-10-12.8
					C714.2,306.7,710.9,312.8,710.9,319.8z"/>
				<path class="st48" d="M742,335.3v-31.6h4.5l10.1,16c2.3,3.7,4.2,7,5.7,10.2h0.1c-0.4-4.2-0.4-8-0.4-12.9v-13.2h3.8v31.6h-4.2
					l-10-16c-2.2-3.5-4.3-7.1-5.9-10.6h-0.1c0.2,3.9,0.3,7.8,0.3,13v13.4H742V335.3z"/>
			</g>
		</g>
		<g id="logo">
			<g id="main_logo_2_">
				<path class="st47" d="M424.5,275.5c-2.7-39.2-25.6-72.2-57.8-89.6l-88.1,90l-22.1-21.5l78-79.8c-8.8-1.6-18.1-2.2-27.5-1.6
					c-60.7,4.2-106.5,56.7-102.4,117.5c4.2,60.7,56.7,106.5,117.5,102.4c2.1-0.1,4.4-0.3,6.5-0.6L223,288.9l21.5-22.1l118,115.5
					C401.8,363.3,427.7,321.8,424.5,275.5z M358.1,308.2L358.1,308.2l-24.3,24.6l-22.1-21.5l24.2-24.7l-24.2-23.7l21.6-22.1
					l46.3,45.3L358.1,308.2z"/>
				<polygon class="st49" points="311.8,262.8 335.9,286.5 311.7,311.2 333.7,332.8 357.9,308 358.1,308.2 379.6,286.1 333.3,240.8 
									"/>
			</g>
		</g>
	</g>
</g>
</svg>
