<?xml version="1.0" encoding="utf-8"?>
<!-- Generator: Adobe Illustrator 21.1.0, SVG Export Plug-In . SVG Version: 6.00 Build 0)  -->
<svg version="1.1" id="Layer_1" xmlns="http://www.w3.org/2000/svg" xmlns:xlink="http://www.w3.org/1999/xlink" x="0px" y="0px"
	 viewBox="0 0 960 566" style="enable-background:new 0 0 960 566;" xml:space="preserve">
<style type="text/css">
	.st0{display:none;}
	.st1{display:inline;fill:#F9AE53;}
	.st2{display:inline;}
	.st3{clip-path:url(#SVGID_2_);fill:#C8805E;}
	.st4{clip-path:url(#SVGID_4_);fill:#F9F9F9;}
	.st5{clip-path:url(#SVGID_6_);fill:#986455;}
	.st6{clip-path:url(#SVGID_8_);}
	.st7{clip-path:url(#SVGID_10_);fill:#DB5D56;}
	.st8{clip-path:url(#SVGID_12_);fill:#994E57;}
	.st9{clip-path:url(#SVGID_14_);fill:#994E57;}
	.st10{clip-path:url(#SVGID_16_);fill:#994E57;}
	.st11{clip-path:url(#SVGID_18_);fill:#994E57;}
	.st12{clip-path:url(#SVGID_20_);fill:#994E57;}
	.st13{clip-path:url(#SVGID_22_);fill:#994E57;}
	.st14{clip-path:url(#SVGID_24_);fill:#994E57;}
	.st15{clip-path:url(#SVGID_26_);fill:#994E57;}
	.st16{clip-path:url(#SVGID_28_);fill:#F29596;}
	.st17{clip-path:url(#SVGID_30_);fill:#C8805E;}
	.st18{clip-path:url(#SVGID_32_);fill:#996351;}
	.st19{clip-path:url(#SVGID_34_);fill:#E79F6F;}
	.st20{clip-path:url(#SVGID_36_);fill:#FFFFFF;}
	.st21{clip-path:url(#SVGID_38_);fill:#FFFFFF;}
	.st22{clip-path:url(#SVGID_40_);fill:#FFFFFF;}
	.st23{clip-path:url(#SVGID_42_);fill:#FFFFFF;}
	.st24{clip-path:url(#SVGID_44_);fill:#C3C4CB;}
	.st25{clip-path:url(#SVGID_46_);}
	.st26{clip-path:url(#SVGID_48_);fill:#C88A6C;}
	.st27{clip-path:url(#SVGID_50_);fill:#AF5B50;}
	.st28{clip-path:url(#SVGID_52_);fill:#FFFFFF;}
	.st29{clip-path:url(#SVGID_54_);fill:#FFFFFF;}
	.st30{clip-path:url(#SVGID_56_);fill:#4C3629;}
	.st31{clip-path:url(#SVGID_58_);fill:#C88A6C;}
	.st32{clip-path:url(#SVGID_60_);fill:#4C3629;}
	.st33{clip-path:url(#SVGID_62_);}
	.st34{clip-path:url(#SVGID_64_);}
	.st35{clip-path:url(#SVGID_66_);fill:#6D4029;}
	.st36{clip-path:url(#SVGID_68_);fill:#6D4029;}
	.st37{clip-path:url(#SVGID_70_);fill:#4C393A;}
	.st38{clip-path:url(#SVGID_72_);fill:#4C393A;}
	.st39{clip-path:url(#SVGID_74_);fill:#B27556;}
	.st40{clip-path:url(#SVGID_76_);fill:#B27556;}
	.st41{clip-path:url(#SVGID_78_);fill:#423733;}
	.st42{clip-path:url(#SVGID_80_);fill:#423733;}
	.st43{clip-path:url(#SVGID_82_);fill:none;stroke:#000000;stroke-miterlimit:10;}
	.st44{display:inline;fill:#FFFFFF;}
	.st45{fill:#FAB02B;stroke:#FBB03B;stroke-width:4;stroke-miterlimit:10;}
	.st46{fill:#1E1A1B;stroke:#1E1A1B;stroke-width:5;stroke-miterlimit:10;}
	.st47{fill:#1E1A1B;}
	.st48{fill:#1E1A1B;stroke:#1E1A1B;stroke-miterlimit:10;}
	.st49{fill:#FAB02B;}
	.st50{display:inline;fill:#97BC4A;}
	.st51{display:inline;fill:#95D600;stroke:#F7F6F8;stroke-miterlimit:10;}
	.st52{display:inline;fill:#A92568;}
	.st53{display:inline;fill:#262242;}
	.st54{fill:#383837;}
	.st55{fill:#F1C928;}
	.st56{fill:#D1AF27;}
	.st57{fill:#DDBB85;}
	.st58{fill:#499D21;}
	.st59{fill:#C73832;}
	.st60{fill:#4C3C1A;}
</style>
<g id="Layer_1_1_" class="st0">
	<rect class="st1" width="960" height="566"/>
	<g id="kanye_character" class="st2">
		<g>
			<defs>
				<rect id="SVGID_1_" x="155.7" y="27.3" width="625.8" height="538.7"/>
			</defs>
			<clipPath id="SVGID_2_">
				<use xlink:href="#SVGID_1_"  style="overflow:visible;"/>
			</clipPath>
			<path id="left_hand" class="st3" d="M211.6,104.2l-1.6,2l0.8,4l7.8,13.6l9.9,13.5l7.3,9.2l2.7,9.9l8.5,18.7l9.7,15.1l21.4,14.4
				l-3.9-31.5l6.4-4.6l6.1-4.7l-3.7-24.1l-5.1-19.4l-1-3l-3.2-14.4L267.9,89l-4.3-7.3l-3.9-6.1l-4.4-4l-2.7,0.8l-1.5,1.9l-0.1,4.4
				l1.2,5.4l3.1,6.2l9.4,25.5l0.2,4c0,0,0,1.5-0.5,1.8s-1.5-0.3-1.5-0.3l-2.3-8.7l-7-15.6l-10-18.8l-4-7.3l-4-3.1l-4.8,0.1l-2,1.2
				l-0.5,3.1l0.8,5.2l15.3,29.4l5.6,12l0.1,4l-3.4-4.1l-7.7-11.8l-9.2-15.4l-5.5-8.8l-3.8-2.3l-2.8,0.9l-1.4,2.4l0.7,4.8l2.5,6
				l11.8,19.9l9.6,13.5l0.3,2.6l-0.8,2.4l-1.7-0.6c0,0-9.7-13.3-10.3-14s-8.5-10.3-8.8-10.7c-0.3-0.4-5.4-4.3-5.4-4.3L211.6,104.2z"
				/>
		</g>
		<g>
			<defs>
				<rect id="SVGID_3_" x="155.7" y="27.3" width="625.8" height="538.7"/>
			</defs>
			<clipPath id="SVGID_4_">
				<use xlink:href="#SVGID_3_"  style="overflow:visible;"/>
			</clipPath>
			<path id="white5" class="st4" d="M251.5,83.5c0,0,1.3-8.2,4.9-5.5c3.5,2.7,8,11.1,8,11.1s6.1,9.8,9,26.4c0,0,1.6,8,4.7,15.4
				c3,7.4,4.5,22.9,4.5,22.9s0.6,8.3-3.3,0c-3.8-8.3-5.9-14-5.9-14l-0.4,13.4l4.1,13l9.2,52.3l2.1,5.5l5.8-6.4l-3.5-4.8l0.7-8.8
				l-3.5-21.9l1.4-7.7l-1.9-9.1l-5.9-32.9l-2.6-9.4l-2.8-10.3l-3.1-12.4l-4.4-9.8l-4.3-7.4l-3.5-5.8l-3.1-4.1l-3.5-1.7l-2.6,1.8
				l-1.3,2.9L251.5,83.5z"/>
		</g>
		<g>
			<defs>
				<rect id="SVGID_5_" x="155.7" y="27.3" width="625.8" height="538.7"/>
			</defs>
			<clipPath id="SVGID_6_">
				<use xlink:href="#SVGID_5_"  style="overflow:visible;"/>
			</clipPath>
			<path id="left_hand_shadow" class="st5" d="M253.9,186.5c0,0,11-1.4,14.7,1.7l-8.7-12.7c0,0,2.5-11.1,7.1-12.9l-0.1-6.6
				c0,0-4.3-4.6-1.5-12.1s7.2-8.9,7.2-8.9s2.5-1.2,1.9,8.9c0,0-1.8,6.5,2.2,11.4s7.4,12.6,7.4,12.6s1.3,5.6,0,13.4
				c0,0,4.6,29.1,4.7,33.7c0.1,4.6,1.5,7.8,1.5,7.8l-13.6,8.1h-15.1l-7-8.4l2.4-12.3l-0.5-20L253.9,186.5z"/>
		</g>
		<g>
			<defs>
				<rect id="SVGID_7_" x="155.7" y="27.3" width="625.8" height="538.7"/>
			</defs>
			<clipPath id="SVGID_8_">
				<use xlink:href="#SVGID_7_"  style="overflow:visible;"/>
			</clipPath>
			<path id="undershirt" class="st6" d="M291.9,217.1c0,0-3.1,14.2-30.3,12.4l5.8,4.7h17.4l9.4-5.8l0.1-9.6L291.9,217.1z"/>
		</g>
		<g>
			<defs>
				<rect id="SVGID_9_" x="155.7" y="27.3" width="625.8" height="538.7"/>
			</defs>
			<clipPath id="SVGID_10_">
				<use xlink:href="#SVGID_9_"  style="overflow:visible;"/>
			</clipPath>
			<path id="red_shirt" class="st7" d="M254.9,219.6l14.7,13.4c0,0,18.9,2,24.7-8.2l0.1,6.9l6.5,4.5l4.3,10.3l4.6,19.8l6.3,19.2
				l2.8,7.6l2.6,8l6.9,15.2l13.3,6.8l5.9,10l6.5,2.4l6.9,10l2,1.8l4.7-3l5.9,5.3l1.8,0.5l4.8-2.5l41.2,11.5L426,373l19.5-6.5
				l60.1,3.9l17.5-3.6l27.8-1.7l13.2-9.7l23.2,0.7l6.3-1.7l5.4-10l18.9-11.9l2.6-2.4l7.7-14.6l4.6-6.9l10.8-37.4l3.5-14.7l4.1-7.8
				l4.5-9l1.3-14l1.2-3.3l4.5,1.5l34.5,9V245l5.9,7.7l-20.9,48l-24.2,64l-16,45.9l-34.2,25l-21.9,35.7l-2.2,6.7l8.3,45.9l2.6,16.5
				l7.8,40.7c0,0,5.3,19.9,5.5,20.5c0.2,0.5,3.4,6.4,3.4,6.4H591H473H359.3l1.8-23l4-42.8l5.3-39.9l4.7-19.3l-7.1-17l-51.2-72.6
				l-34.7-45.9l-16.2-30.6l-8.5-53.9L254.9,219.6z"/>
		</g>
		<g>
			<defs>
				<rect id="SVGID_11_" x="155.7" y="27.3" width="625.8" height="538.7"/>
			</defs>
			<clipPath id="SVGID_12_">
				<use xlink:href="#SVGID_11_"  style="overflow:visible;"/>
			</clipPath>
			<path id="dark_right_arm" class="st8" d="M589.2,438.1l2.8-13.4l8.5-1.2c0,0,25.2-19.5,37-20.4l-10.2-16.2l-10-2l11-3L618,349.8
				l13,14h8.5l-7.9-31.5l7.9,5.6l5.1-15.6l1.8-31.5c0,0,3.3-12.4,5.5-14.2c0,0,0.2-18.1,3-22.7c2.8-4.5,5.5-19.3,5.5-19.3
				s15.5,18.1,36.7,0v10.5l5.4,6.2l1.6,5.6l-0.6,15.4l0.4,11l-1.4,2.4l-3,2.6l-3.2,9l-3.3,17.4l-3.7,21.9l-4.6,13l-7.4,14l-3,3.6
				l-2.4,1.9l-5.1,8.8l-18.1,29l-4.5,5.9l-4.7,4.5l-19,21.1l-21.3,23.7l-14.7,14.5l5.3,35.5l8.1,47.8l-18.5-75l1.6-47.3L589.2,438.1
				z"/>
		</g>
		<g>
			<defs>
				<rect id="SVGID_13_" x="155.7" y="27.3" width="625.8" height="538.7"/>
			</defs>
			<clipPath id="SVGID_14_">
				<use xlink:href="#SVGID_13_"  style="overflow:visible;"/>
			</clipPath>
			<path id="dark_left_arm" class="st9" d="M257.1,210.9c0,0-0.3,23.1,21.5,24c0,0,8.5,1.8-1,8.9c-9.5,7.1-11.6,6.9-11.6,6.9v7.9
				h18.1c0,0,14.2,25.6,16.4,31.5s5.5,25.8,8.3,26l-16.5,18.3l-1.8,14.6l18.4-13.4c0,0,8.5,10.8,12.2,22.5c3.7,11.6,36,72.9,36,72.9
				s2.1-39.4,0-53c0,0,12.4,61.3,12.6,71.1c0.2,9.9-1.6-58.9-1.6-58.9s7.3,54.8,9.5,56.5c0,0-1.4-61.1,2.4-68.8l1.2,39.8l2.4-30.7
				c0,0,3.3,48.7-1.4,59.5c-4.7,10.8-7,37.4-7,37.4l-5.6-15.4l-5.7-9l-8.7-9.9l-24.3-31l-23.4-31.1l-20-27l-10.1-14.1l-8.5-11.2
				l-2.4-2.4l-3.1-16.7l-7.7-44l-3.2-20.9l-0.7-6.9l4.1-2.1l-1.1-11.1l0.1-11.6L257.1,210.9z"/>
		</g>
		<g>
			<defs>
				<rect id="SVGID_15_" x="155.7" y="27.3" width="625.8" height="538.7"/>
			</defs>
			<clipPath id="SVGID_16_">
				<use xlink:href="#SVGID_15_"  style="overflow:visible;"/>
			</clipPath>
			<path id="dark" class="st10" d="M563.8,409.5l-36.4,198.6h19.8l18.3-171.4l8.6,27.8v-8.6c0,0-10-47.6-8.9-51.4L563.8,409.5z"/>
		</g>
		<g>
			<defs>
				<rect id="SVGID_17_" x="155.7" y="27.3" width="625.8" height="538.7"/>
			</defs>
			<clipPath id="SVGID_18_">
				<use xlink:href="#SVGID_17_"  style="overflow:visible;"/>
			</clipPath>
			<path id="dark2" class="st11" d="M387.1,484c0,0-3.9,112.3,0,124.1h3.9C391,608.1,387.5,541.5,387.1,484z"/>
		</g>
		<g>
			<defs>
				<rect id="SVGID_19_" x="155.7" y="27.3" width="625.8" height="538.7"/>
			</defs>
			<clipPath id="SVGID_20_">
				<use xlink:href="#SVGID_19_"  style="overflow:visible;"/>
			</clipPath>
			<path id="dark3" class="st12" d="M438.3,398.3c0,0,11.2,9.9,13.6,13.8h2.2C454.1,412.1,445,401.7,438.3,398.3z"/>
		</g>
		<g>
			<defs>
				<rect id="SVGID_21_" x="155.7" y="27.3" width="625.8" height="538.7"/>
			</defs>
			<clipPath id="SVGID_22_">
				<use xlink:href="#SVGID_21_"  style="overflow:visible;"/>
			</clipPath>
			<path id="dark4" class="st13" d="M391,386.5l4.1,58.3c0,0,15.6,45.5,15.2,48.9l14.6,19.7c0,0,30.5,29,35.1,29
				c4.5,0,17.3-1.2,17.3-1.2l-16.7-4.1c0,0-32.7-25.2-38.4-40.6s-16.5-32-16.5-32l-6.1-14.5C399.5,449.9,395.8,410.3,391,386.5z"/>
		</g>
		<g>
			<defs>
				<rect id="SVGID_23_" x="155.7" y="27.3" width="625.8" height="538.7"/>
			</defs>
			<clipPath id="SVGID_24_">
				<use xlink:href="#SVGID_23_"  style="overflow:visible;"/>
			</clipPath>
			<path id="dark5" class="st14" d="M524.2,503.2c0,0-8.4,3.3-12.7,4.9l-8.2-1.4l-7.8,3.7h-7.2l-8.3,3.9l12-2.2l4.8,0.4l6.4-3.8
				l8.2,1.3C511.6,510.1,519.3,506.4,524.2,503.2z"/>
		</g>
		<g>
			<defs>
				<rect id="SVGID_25_" x="155.7" y="27.3" width="625.8" height="538.7"/>
			</defs>
			<clipPath id="SVGID_26_">
				<use xlink:href="#SVGID_25_"  style="overflow:visible;"/>
			</clipPath>
			<polygon id="dark6" class="st15" points="417.2,431.6 423.3,465.5 429.3,466.9 433,470.8 433,481.9 443.8,493.5 455.3,493.5 
				467.5,475.5 472.2,477.7 477.3,472.4 484.2,480.5 491.2,479.7 526,432.8 487.6,475.7 476.2,466.7 472.6,475 466.1,472.6 
				451.9,487.2 445.4,490.7 435.4,481.3 436.5,467.3 430.9,462.5 426.9,461.6 			"/>
		</g>
		<g>
			<defs>
				<rect id="SVGID_27_" x="155.7" y="27.3" width="625.8" height="538.7"/>
			</defs>
			<clipPath id="SVGID_28_">
				<use xlink:href="#SVGID_27_"  style="overflow:visible;"/>
			</clipPath>
			<path id="pink" class="st16" d="M291.9,213.9v37.3l2.4-6.3l1.6,6.3l2.6-2.4v5.1l2,3.9v16.7l3.2-17.7v-3l7.7,23.8v7.7l4.5,13.2
				l-1.4,27.6l1.4-1.8l0.8,6.5l8.3-6.7l4.3-0.6c0,0,7.5,16.9,7.3,26.2c0,0,1-10.2-5.1-28.8l5.2,3.5l2.7,10.8l5.7,0.6
				c0,0,2.6-1,4,1.8c1.5,2.9,3.4,7,3.4,7.6s5.1,14.6,2.8,18.3c0,0,3.5-4.5-0.6-18.3c0,0,3-1.6,3.9,0s2.8,7.5,2.8,7.5l3.6,19.1
				l-0.8-17.3l3.5,10v-14.2h2.8l4.9,7.1l3.7,2l1.6,13.4l1.4-11l1.4,2.8c0,0-0.9-9.9,1.2-10s4.6,5.1,4.6,5.1l3.6,8.1h4.8l3.7-7.1h2.8
				l1,5.1l6.5-1l1.8,18.9l6.3-2.8l-3.9-1.6l1.6-18.3l2.4,5.3l1.8,6.7v29.2l2.1-7.9c0,0,5-10.6,5-10s1.4,20.7,1.4,20.7l3.5,3
				c0,0-1.6-5.5-1.4-6.1s-1.4-13.8-1.4-13.8l3.5-1.8l2,7.1l5.5-0.6l-2.4-4.3l2.4-0.8l-7.5-10v-3.9l7.5,8.1v-10.6h4.5L502,378h6.1v3
				l-19.7,17.3l6.3-1.2l17.1-13.1l1.4,4.7l-18.1,31.1l22.7-10.6l18.3-20.3l-19.1-4.1v-12.6l4.9-2.4h10.6l4.3,1l5.9-3.5v7.7l5.3,3.3
				l4.3-2.4V369l2.2,1.4l7.7-9.9l3.7-0.8v11.8l2.6-10.6l2.2,4.3l2.4-5.5l5.5,4.9l2.8-5.1l1.4,4.5l-5.3,9.5l3.9-2l-0.4,9.1l9.1-20.1
				l-4.3,13.2l16-28.6l2.8-1l2.6,1.8l6.3-3.5l-3.9,15l19.7-39.2l2.8,4.1l4.1-24.2l7.3-25.2l1.8-6.2l1.2,19.9l3-35.3l-16.3,57.3
				l-7.2,10.9l-6.2,12.3l-13,6.1l-7.8,6.9l-5.4,6.3l-2.3,3.5l-3.4,1.5h-3.3l-2.8-2.5c0,0-5.1-0.9-5.9-1c-0.8-0.1-6.5-0.1-6.5-0.1
				l-5.1,3.1l-6.1,3.8c0,0-7.2,3-7.8,3.1s-7.9,0-7.9,0s-2.1,2-3.5,2.4s-13.8,1.6-13.8,1.6l-5.2,0.9l-6.3,2l-4.2-0.9l-4-1.4
				l-61.4-4.1l-6.8,1.5l-8.8,2l-4.9-2.8l-1.9-6.7l-6.4-1.5l-22-5.1l-13.9-3.2l-3.5,2.8l-2.3-1.2l-3.7-3.4l-2.4-0.7l-2.1,1.6l-2,0.8
				l-2-1.8l-5.5-8.2l-4.2-3.8l-3.7-0.4l-5.9-10l-13.3-6.8l-5.1-11.2l-3.5-7.7l-1.8-8.3l-4.7-11l-5.4-18.2l-1.4-8l-3.6-11.6l-2.8-5.5
				l-3.6-2.2l-2.1-0.7v-10.1l-0.3-5.2L291.9,213.9z"/>
		</g>
		<g>
			<defs>
				<rect id="SVGID_29_" x="155.7" y="27.3" width="625.8" height="538.7"/>
			</defs>
			<clipPath id="SVGID_30_">
				<use xlink:href="#SVGID_29_"  style="overflow:visible;"/>
			</clipPath>
			<path id="right_hand" class="st17" d="M697.1,202.1c0,0-20,5.3-32.6-18l-6.4-3.7v-13.2l-3.8-11.1l-4.6-1.9l-2.4-5.5l-6-4.6
				l-4.2-6.3c0,0,0.9-4.7,4.6-4.5c3.7,0.2,7.2,1.4,7.2,1.4l5.8,3.4l9.5,9.6l3-29.5c0,0,3.1-17.1,3.2-17.5c0.1-0.4,3.8-12.7,3.8-12.7
				l4.2-9.2l3.7-2.2l3,1.3l1.1,3.7l-1.1,5l-2.8,14.9l-1.2,9.2l0.2,4.6l1.5-0.8l2.3-5l5.5-18.3l2.9-15.5l1.9-4.7l4.5-1.5l3,1.8l1.3,6
				v4.8l4.4-3.4l2.7,0.8l1.4,4.7l-2.4,20.3l-3.4,16.1l-1.8,12v3.5l2.4,1l3.8-3.9l7.7-16.9l5.1-11.1l3.5-3.3l2.4,1.2l1.8,3.2v5.5
				L729,118l-12.9,28.2l-1.3,8.7l-3.5,15l-2.8,8.6l-5,11.2l-5.5,8.6l-1.2,1.9L697.1,202.1z"/>
		</g>
		<g>
			<defs>
				<rect id="SVGID_31_" x="155.7" y="27.3" width="625.8" height="538.7"/>
			</defs>
			<clipPath id="SVGID_32_">
				<use xlink:href="#SVGID_31_"  style="overflow:visible;"/>
			</clipPath>
			<path id="right_hand_shadow" class="st18" d="M697.1,235.9c0,0-12.2,14.4-29.4,5.5l-7.3-5.5l0.3-32.8l0.7-9.6l-6.5-12.4l-2.1-8.4
				v-8.2l-3.8-13.2c0,0,6.2-0.7,9.7,7.1s3,15.9,3,15.9s3.8,16.2,11.4,18.6c0,0,15.5,10.2,24.1,7.5v35.5H697.1z"/>
		</g>
		<g>
			<defs>
				<rect id="SVGID_33_" x="155.7" y="27.3" width="625.8" height="538.7"/>
			</defs>
			<clipPath id="SVGID_34_">
				<use xlink:href="#SVGID_33_"  style="overflow:visible;"/>
			</clipPath>
			<path id="watch" class="st19" d="M697,215.6c0,0-8.3,9.6-20.6,7.6c0,0-13.4,2.6-15.6-16.5l-2.8,0.8l-0.1,7.6l0.8,7
				c0,0,0.1,8.1,12.1,11.8c11.9,3.6,26.1-7.8,26.1-7.8L697,215.6z"/>
		</g>
		<g>
			<defs>
				<rect id="SVGID_35_" x="155.7" y="27.3" width="625.8" height="538.7"/>
			</defs>
			<clipPath id="SVGID_36_">
				<use xlink:href="#SVGID_35_"  style="overflow:visible;"/>
			</clipPath>
			<path id="white" class="st20" d="M637.2,137.3l0.7-2.5l3.3-1.4l3.1-0.6l4.1,1.2l6.3,3.6l5.8,5.3l3.6,4.2c0,0-0.6,5.6-4.1,1.4
				c-3.5-4.2-7.7-7-7.7-7s-4.4-4.2-9.8-4.1S637.2,137.3,637.2,137.3z"/>
		</g>
		<g>
			<defs>
				<rect id="SVGID_37_" x="155.7" y="27.3" width="625.8" height="538.7"/>
			</defs>
			<clipPath id="SVGID_38_">
				<use xlink:href="#SVGID_37_"  style="overflow:visible;"/>
			</clipPath>
			<path id="white2" class="st21" d="M675.4,85.1c0,0,5.8-7.7,9.8,1l0.9-4.4V78l-4.1-1.3l-3,1.4L675.4,85.1z"/>
		</g>
		<g>
			<defs>
				<rect id="SVGID_39_" x="155.7" y="27.3" width="625.8" height="538.7"/>
			</defs>
			<clipPath id="SVGID_40_">
				<use xlink:href="#SVGID_39_"  style="overflow:visible;"/>
			</clipPath>
			<path id="white3" class="st22" d="M693,77.9c-0.4,0.4,2.2-6.4,2.2-6.4l3.1-1.6l3.8,0.7l1.8,3.3l0.2,5.5h2.7l3.4-0.5
				c0,0,1.5,0.9,1.8,1.9s0.7,5.2,0.7,5.2s-2.8-6.6-7.7-4.7C705.1,81.3,700.8,69.7,693,77.9z"/>
		</g>
		<g>
			<defs>
				<rect id="SVGID_41_" x="155.7" y="27.3" width="625.8" height="538.7"/>
			</defs>
			<clipPath id="SVGID_42_">
				<use xlink:href="#SVGID_41_"  style="overflow:visible;"/>
			</clipPath>
			<path id="white4" class="st23" d="M724.2,105c0,0,5.7,0,7.5,6.3l-0.4-6.3l-2.4-3h-3.4L724.2,105z"/>
		</g>
		<g>
			<defs>
				<rect id="SVGID_43_" x="155.7" y="27.3" width="625.8" height="538.7"/>
			</defs>
			<clipPath id="SVGID_44_">
				<use xlink:href="#SVGID_43_"  style="overflow:visible;"/>
			</clipPath>
			<path id="hat" class="st24" d="M451.3,257.8l-9,4.4l-4.5,6l-2.6,8.3l-0.4,1.3l-5.4,5.1l-2.3,4.7v5.1l2.6,1.6l2,1.5
				c0,0,2.4-0.8,2.5-1.1s21.3-20.5,21.3-20.5l26.3,0.1l22,11.5l5.8,5.8l3,5.5l1.5,3.2l-0.7-8.2l-6.5-22l-3.6-6.2l-5.3-4.1
				c0,0-5.4-1.9-5.7-1.9c-0.3,0-3.5-3.3-3.8-3.4c-0.3-0.1-9.8-2.1-9.8-2.1h-16.8l-6.6,4.9L451.3,257.8z"/>
		</g>
		<g>
			<defs>
				<rect id="SVGID_45_" x="155.7" y="27.3" width="625.8" height="538.7"/>
			</defs>
			<clipPath id="SVGID_46_">
				<use xlink:href="#SVGID_45_"  style="overflow:visible;"/>
			</clipPath>
			<path id="brim" class="st25" d="M434.7,312.3l-2.2-7.5V294c0,0-5.2-3.7-0.5-9.8c4.7-6.1,14-11.8,14-11.8s9.2-5.9,16.2-5.6
				s8.6-1.2,16.7,1.2c8.1,2.4,11.6,4.3,11.6,4.3s11.1,6.9,13.4,9.8c2.4,2.8,8.4,10.4,10.1,17.3V312l-1.9-0.1l-4.8-3.1l-2.8-13.4
				l-4.8-5.7l-26.1-7.3l-10.1-0.3L444,292.7L434.7,312.3z"/>
		</g>
		<g>
			<defs>
				<rect id="SVGID_47_" x="155.7" y="27.3" width="625.8" height="538.7"/>
			</defs>
			<clipPath id="SVGID_48_">
				<use xlink:href="#SVGID_47_"  style="overflow:visible;"/>
			</clipPath>
			<path id="face" class="st26" d="M439.7,292.4l-3.2,6.3v12.1l1.2,15.8l2.7,18.4l7.7,12.8l7.9,10.1c0,0,14.6,4.6,15,4.6
				s18.9-3.7,18.9-3.7l10.5-14.4l5.7-17.8l4.8-24c0,0-0.8-12.7-0.9-13s-4.9-9.5-4.9-9.8s-6-2.9-6-2.9l-15.3-4.1
				c0,0-16.2-4.4-16.4-4.3s-20.8,9.7-20.8,9.7L439.7,292.4z"/>
		</g>
		<g>
			<defs>
				<rect id="SVGID_49_" x="155.7" y="27.3" width="625.8" height="538.7"/>
			</defs>
			<clipPath id="SVGID_50_">
				<use xlink:href="#SVGID_49_"  style="overflow:visible;"/>
			</clipPath>
			<path id="face_shadow" class="st27" d="M444.4,362.9v9.2c0,0,8.5,15.1,32.9,13s25-8.3,25-8.3l2.5-9.8v-9.9l4.7-11.2l2.5-7.9
				l1.5-8l2.2-10.1l0.7-7.8l-2.2-1.1l-0.1-7.6c0,0-3.5-11.4-10.3-15.8c-6.8-4.3-27.8-12-27.8-12h-14.4c0,0-21,9.4-27.1,23v13.8
				l-1.2,1.6l-2.6,0.9l0.6,2.1l1.8,2.6l4.4,29.1l5.5,11.2l8.8-0.5l-9.8-19.7l6.8-9.2l-10.2-7.7l-0.8-24l3.8-4.8l4.7,3.4l16.6-13.1
				l7.8-0.9h6.2l14.3,10.6l5.5-4.1h5.8l4.5,8.7l0.8,11.9l-6.6,26l-1.7,6l-7.5,7.1l1.1,7.2l5.1,5.4l-5,6.1l-18,8.4l-16.6-1.2
				l-5.4-7.8l-3.7-5.1L444.4,362.9z"/>
		</g>
		<g>
			<defs>
				<rect id="SVGID_51_" x="155.7" y="27.3" width="625.8" height="538.7"/>
			</defs>
			<clipPath id="SVGID_52_">
				<use xlink:href="#SVGID_51_"  style="overflow:visible;"/>
			</clipPath>
			<path id="face_highlight" class="st28" d="M508.1,310.3l-3.4,13.6c0,0,2.9-2.7,5.3,21.1l2.3-7.7
				C512.2,337.3,511.4,311.1,508.1,310.3z"/>
		</g>
		<g>
			<defs>
				<rect id="SVGID_53_" x="155.7" y="27.3" width="625.8" height="538.7"/>
			</defs>
			<clipPath id="SVGID_54_">
				<use xlink:href="#SVGID_53_"  style="overflow:visible;"/>
			</clipPath>
			<polygon id="neck_highlight" class="st29" points="504.6,356.4 499.7,362.8 502.2,365.2 502.2,370.4 500.2,372.7 500.6,378.2 
				504.6,378.2 			"/>
		</g>
		<g>
			<defs>
				<rect id="SVGID_55_" x="155.7" y="27.3" width="625.8" height="538.7"/>
			</defs>
			<clipPath id="SVGID_56_">
				<use xlink:href="#SVGID_55_"  style="overflow:visible;"/>
			</clipPath>
			<polygon id="beard" class="st30" points="493.6,355 500.4,361.9 489.1,375.9 479.2,380.3 471.6,380.3 457.9,378.2 445.4,363.5 
				442.3,357.9 454.6,357.6 455.6,346.9 463.6,340.2 468.3,339.2 482.8,338.8 488.6,341.9 493.2,347.6 			"/>
		</g>
		<g>
			<defs>
				<rect id="SVGID_57_" x="155.7" y="27.3" width="625.8" height="538.7"/>
			</defs>
			<clipPath id="SVGID_58_">
				<use xlink:href="#SVGID_57_"  style="overflow:visible;"/>
			</clipPath>
			<polygon id="mouth_skin" class="st31" points="458.2,349.7 458.2,358.2 466.6,368.8 472.8,369.7 478.4,369.7 482.5,368.3 
				483.2,364.1 488,364.1 491.2,358 491.2,353.2 487,346 481.3,342.7 468.7,342.3 			"/>
		</g>
		<g>
			<defs>
				<rect id="SVGID_59_" x="155.7" y="27.3" width="625.8" height="538.7"/>
			</defs>
			<clipPath id="SVGID_60_">
				<use xlink:href="#SVGID_59_"  style="overflow:visible;"/>
			</clipPath>
			<path id="mouth" class="st32" d="M468.7,359.3v3.6c0,0,8.2,2.6,12.6,0v-2.8l-7.9,0.1L468.7,359.3z"/>
		</g>
		<g>
			<defs>
				<rect id="SVGID_61_" x="155.7" y="27.3" width="625.8" height="538.7"/>
			</defs>
			<clipPath id="SVGID_62_">
				<use xlink:href="#SVGID_61_"  style="overflow:visible;"/>
			</clipPath>
			<path id="left_eye" class="st33" d="M448.4,314.7l1.2-0.5c0,0,2.8,2.6,5.8,1.8s6-2.3,6-2.3h1.5c0,0-0.3,2.7-5.9,3.7
				C451.3,318.5,448.4,314.7,448.4,314.7z"/>
		</g>
		<g>
			<defs>
				<rect id="SVGID_63_" x="155.7" y="27.3" width="625.8" height="538.7"/>
			</defs>
			<clipPath id="SVGID_64_">
				<use xlink:href="#SVGID_63_"  style="overflow:visible;"/>
			</clipPath>
			<path id="right_eye" class="st34" d="M483.1,313.7h2.4c0,0,2.1,2,5.7,1.4c3.5-0.6,3.8-0.6,4.7-1.4h2c0,0-1.1,2.7-6.7,3.2
				C485.6,317.3,483.1,313.7,483.1,313.7z"/>
		</g>
		<g>
			<defs>
				<rect id="SVGID_65_" x="155.7" y="27.3" width="625.8" height="538.7"/>
			</defs>
			<clipPath id="SVGID_66_">
				<use xlink:href="#SVGID_65_"  style="overflow:visible;"/>
			</clipPath>
			<path id="right_nostril" class="st35" d="M466.2,333.5c0,0,0,1.5,1.3,1.6s3.1,0,3.1,0s0.6-1.5-1-1.6S466.2,333.5,466.2,333.5z"/>
		</g>
		<g>
			<defs>
				<rect id="SVGID_67_" x="155.7" y="27.3" width="625.8" height="538.7"/>
			</defs>
			<clipPath id="SVGID_68_">
				<use xlink:href="#SVGID_67_"  style="overflow:visible;"/>
			</clipPath>
			<path id="left_nostril" class="st36" d="M478.4,333.5c0,0-0.7,1,1,0.8s3.3,0,3.3,0s1-1.3-0.5-1.8S478.4,333.5,478.4,333.5z"/>
		</g>
		<g>
			<defs>
				<rect id="SVGID_69_" x="155.7" y="27.3" width="625.8" height="538.7"/>
			</defs>
			<clipPath id="SVGID_70_">
				<use xlink:href="#SVGID_69_"  style="overflow:visible;"/>
			</clipPath>
			<path id="left_brow" class="st37" d="M443.3,308c0-0.3,0-3.2,0-3.2s4-5.2,6.1-5.4s6.5-0.3,7.6,0.7s5.2,4.8,5.2,4.8l-6.6-0.3
				c0,0-2.3-2.5-3.9-2.3S445,308,445,308H443.3z"/>
		</g>
		<g>
			<defs>
				<rect id="SVGID_71_" x="155.7" y="27.3" width="625.8" height="538.7"/>
			</defs>
			<clipPath id="SVGID_72_">
				<use xlink:href="#SVGID_71_"  style="overflow:visible;"/>
			</clipPath>
			<path id="right_brow" class="st38" d="M489.7,303.6h8.2l4.2,3.4v-4.5c0,0-2.7-2.3-5-2.2s-12.6,0-12.6,0l-2.3,2.1l3.3,3.4
				C485.5,305.8,489,305.6,489.7,303.6z"/>
		</g>
		<g>
			<defs>
				<rect id="SVGID_73_" x="155.7" y="27.3" width="625.8" height="538.7"/>
			</defs>
			<clipPath id="SVGID_74_">
				<use xlink:href="#SVGID_73_"  style="overflow:visible;"/>
			</clipPath>
			<path id="left_nose" class="st39" d="M464.1,324.7c0,0-3.2,3.6-3.3,5.1s0.4,1.3,0.4,1.3s3.5-4.1,3.5-4.3S465.9,324.3,464.1,324.7
				z"/>
		</g>
		<g>
			<defs>
				<rect id="SVGID_75_" x="155.7" y="27.3" width="625.8" height="538.7"/>
			</defs>
			<clipPath id="SVGID_76_">
				<use xlink:href="#SVGID_75_"  style="overflow:visible;"/>
			</clipPath>
			<path id="right_nose" class="st40" d="M483.1,326.5l2.5,3.3c0,0,1.4-0.3,0-2.2c-1.4-1.8-2.4-3-2.4-3S481.4,324.3,483.1,326.5z"/>
		</g>
		<g>
			<defs>
				<rect id="SVGID_77_" x="155.7" y="27.3" width="625.8" height="538.7"/>
			</defs>
			<clipPath id="SVGID_78_">
				<use xlink:href="#SVGID_77_"  style="overflow:visible;"/>
			</clipPath>
			<path id="hat_shadow" class="st41" d="M442.3,266.1c0,0-4.2,4.5-4,9.5c0,0,14.3-13.2,32.2-13.3c0,0-2.2-1.8-13.9,0.9
				c0,0-1-0.7,0.1-1.5c0,0-2.1-0.2-5.8,3.7l-6.8,4.6c0,0-1.3-4,0.3-4.7L442.3,266.1z"/>
		</g>
		<g>
			<defs>
				<rect id="SVGID_79_" x="155.7" y="27.3" width="625.8" height="538.7"/>
			</defs>
			<clipPath id="SVGID_80_">
				<use xlink:href="#SVGID_79_"  style="overflow:visible;"/>
			</clipPath>
			<path id="hat_shadow_2" class="st42" d="M500.4,265.5c0,0-1.9,1.3,0,3.1s3.8,1.2,4.8,4.1c0,0-1.7-5.2-2.8-6.1
				C501.2,265.7,500.4,265.5,500.4,265.5z"/>
		</g>
		<g>
			<defs>
				<rect id="SVGID_81_" x="155.7" y="27.3" width="625.8" height="538.7"/>
			</defs>
			<clipPath id="SVGID_82_">
				<use xlink:href="#SVGID_81_"  style="overflow:visible;"/>
			</clipPath>
			<path id="outline_1_" class="st43" d="M584.5,476.3c0,0,17.1,124.1,26.6,131.8H359.3c0,0,7.2-105.2,15.7-124.1
				c0,0-3-16.5-15.7-29.6s-79.8-104.6-79.8-104.6s-9.8-15.4-13-16.3c0,0-14.5-77.4-14.8-89.3l4.1-2.1c0,0-3.5-22.2,1.2-31.3v-20.1
				c0,0-16.8-21.5-21.3-44.3c0,0-31-37.2-25.1-41.7c0,0,3.4-3.3,6.4,0s22,26,22.2,29c0,0,2.3-0.3,2-5.3c0,0-30-39.6-24.3-46.4
				s12.5,8.9,12.5,8.9s19.5,34,21.6,32.2s-21.6-44.3-21.6-44.3s-3.6-10.6,1.2-10.9s7.3-1.5,10.6,6.5c0,0,17.8,28.7,21,47
				c0,0,2.5,3.3,2.1-4.9c0,0-7.8-24.1-11.4-29.6c-3.5-5.6-2.4-12.5-2.4-12.5s2.5-4.9,6.1-1.6S265,85,265,85s8.9,12,11.7,33.2
				c0,0,5.2,8.7,9.8,45.5c0,0,4.9,10.6,1.2,18.3c0,0,5.7,19.5,2.6,31.5c0,0,4.2-0.6,4,5.8s0,12.3,0,12.3s10,0.6,13,26.3
				c0,0,6.8,26,10.6,31l1.8,8.3l8.6,18.9l13.3,6.8l5.9,10c0,0,4.1-0.6,6.5,2.4s7.4,11.8,8.9,11.8s4.7-3,4.7-3s4.7,3,5.9,5.3
				s5.3-2.4,5.3-2.4l42.3,9.8c0,0,0,12.4,10.9,8.9s12.4-3,12.4-3l-6.8-15.7l-4.4-27.6c0,0-4.4-5.2-1.2-5.5s3.3-0.3,3.3-0.3
				s-3.3-7.2-3.3-13.7s-1-5-1-5s-6.2-2.8-3.3-9.2c3-6.4,7.4-8.3,7.4-8.3s1.2-12.6,9.3-16.8c8.1-4.3,10.5-3.4,10.5-3.4
				s5-5.9,14.6-5.6c9.6,0.3,16,1.6,16,1.6s4.5,0.9,6.3,4.6c0,0,4.7-0.6,8.9,3.4s6,7.2,6,7.2s6.6,20.5,7.1,26.6
				c0.4,6.1,0.4,16.4,0.4,16.4s4.1-3.5,1.5,8.3s-3.7,18.1-3.7,18.1s-4.3,14.8-7.2,19.2v9.9c0,0,6.5,2.5,8.3,2.4s4.7-2.7,14.5-3.1
				s10.8-1.3,10.8-1.3s2.4-3.5,7.4-2.5s10-2.1,10-2.1s7.1-3.5,10-6.6s15.2-0.1,15.2-0.1s1.6,2.5,2.8,2.5s6.4,1,8.4-3.8
				s13-13.4,13-13.4s10.9-6.2,14.3-7.1c0,0,9.5-21.6,13-23.1l12.1-42c0,0,1.9-13.7,5.5-17.1c3.5-3.4,5.3-8.8,5.3-8.8
				s-0.9-15.1,2.7-16.8c0,0-2.9-16.4,2.1-16.3l1-14.8c0,0-9.8-14.2-8.6-23.3s-5.5-21.7-5.5-21.7s-14.5-9-8.8-13.7s16.2,3.4,16.2,3.4
				s9.2,7.8,9.5,9.5c0,0,2.5-45.9,11.7-62.7c0,0,1.8-7.6,6.2-7.7s4.1,5,4.1,5s-6.6,30.1-4.9,33.4s9.9-23,10.3-29.5c0,0,1.9-15,5-15
				c0,0,8.3-4.4,7.6,8.3s-10.6,49.9-10.6,49.9s-0.4,3.7,2.1-2.2s7.8-28.4,8.6-36.2s0.5-11.1,4.4-11.5c3.8-0.4,5.2,3.3,3.3,16.5
				s-8.8,38-6.8,40.2s4.7,2.8,12.7-16c0,0,6.5-20.4,11.1-17.6s2.7,9.9,2.7,9.9l-15.4,33.2c0,0-3.3,33.8-19.2,52.9l0.1,47
				c0,0,8.1,6.2,6.9,12.9c-1.2,6.6-0.1,25.3-0.1,25.3s-1.9,4-3.3,3.8s-3.8,7.2-3.8,7.2s-7.7,39.7-7.5,42.1s-10.8,30.4-17,31.8
				c0,0-23.9,41.8-29.7,46S595.6,468.1,584.5,476.3z"/>
		</g>
	</g>
</g>
<g id="Layer_2" class="st0">
	<rect x="-3.6" class="st44" width="963.6" height="566"/>
	<g id="primary_logo__x2B__type" class="st2">
		<g id="text">
			<g id="sixside">
				<path id="yellow_s" class="st45" d="M441,271.9c3.8,2.3,9.5,4.4,15.4,4.4c8.7,0,14-4.7,14-11.3c0-6.2-3.5-9.8-12.6-13.2
					c-10.9-3.8-17.6-9.5-17.6-18.9c0-10.3,8.6-18,21.5-18c6.8,0,11.7,1.6,14.7,3.3l-2.3,7c-2.1-1.2-6.6-3.2-12.7-3.2
					c-9.1,0-12.6,5.4-12.6,10c0,6.2,4.1,9.3,13.2,12.8c11.3,4.4,17,9.8,17,19.5c0,10.2-7.6,19.2-23.4,19.2c-6.4,0-13.4-1.9-17-4.3
					L441,271.9z"/>
				<path id="i_1_" class="st45" d="M502.4,215.8v66.5h-8.6v-66.5L502.4,215.8L502.4,215.8z"/>
				<path id="z" class="st45" d="M556.8,282.4l-8.5-14.7c-3.4-5.7-5.7-9.3-7.7-13.1h-0.2c-1.9,3.8-3.7,7.4-7.3,13.2l-8,14.6h-9.9
					l20.4-33.7l-19.5-32.8h10l8.7,15.6c2.5,4.4,4.4,7.7,6.1,11.3h0.3c1.9-3.9,3.5-7,6-11.3l9.1-15.6h9.9l-20.3,32.4l20.7,34.1H556.8
					z"/>
				<path id="black_s" class="st46" d="M578.6,271.9c3.8,2.3,9.5,4.4,15.4,4.4c8.7,0,14-4.7,14-11.3c0-6.2-3.5-9.8-12.6-13.2
					c-10.9-3.8-17.6-9.5-17.6-18.9c0-10.3,8.6-18,21.5-18c6.8,0,11.7,1.6,14.7,3.3l-2.3,7c-2.1-1.2-6.6-3.2-12.7-3.2
					c-9.1,0-12.6,5.4-12.6,10c0,6.2,4.1,9.3,13.2,12.8c11.3,4.4,17,9.8,17,19.5c0,10.2-7.6,19.2-23.4,19.2c-6.4,0-13.4-1.9-17-4.3
					L578.6,271.9z"/>
				<path id="i" class="st46" d="M640,215.8v66.5h-8.6v-66.5L640,215.8L640,215.8z"/>
				<path id="d" class="st46" d="M658,216.7c5.2-0.7,11.4-1.4,18.2-1.4c12.4,0,21.1,2.9,27,8.3c6,5.4,9.4,13.1,9.4,23.9
					c0,10.9-3.3,19.7-9.6,25.9c-6.2,6.2-16.5,9.6-29.4,9.6c-6.1,0-11.3-0.3-15.6-0.7L658,216.7L658,216.7z M666.5,275.5
					c2.1,0.4,5.3,0.5,8.6,0.5c18.3,0,28.4-10.2,28.4-28.3c0.1-15.7-8.7-25.7-27-25.7c-4.5,0-7.8,0.4-10,0.9V275.5L666.5,275.5z"/>
				<path id="e" class="st46" d="M761.1,251.1h-25.9v24H764v7.3h-37.4v-66.5h35.9v7.3h-27.4v21H761L761.1,251.1L761.1,251.1
					L761.1,251.1z"/>
				<rect id="e_fill" x="760.7" y="250.9" class="st47" width="3" height="3"/>
			</g>
			<g id="construction">
				<path class="st48" d="M462.8,334.3c-1.5,0.7-4.5,1.5-8.3,1.5c-8.8,0-15.6-5.7-15.6-16c0-9.9,6.7-16.5,16.4-16.5
					c3.9,0,6.4,0.9,7.5,1.4l-1,3.3c-1.5-0.7-3.7-1.3-6.4-1.3c-7.4,0-12.3,4.7-12.3,13c0,7.7,4.5,12.7,12.2,12.7c2.5,0,5-0.5,6.6-1.3
					L462.8,334.3z"/>
				<path class="st48" d="M495.2,319.2c0,10.9-6.6,16.6-14.6,16.6c-8.3,0-14.2-6.5-14.2-16c0-10,6.2-16.5,14.6-16.5
					C489.6,303.3,495.2,309.9,495.2,319.2z M470.8,319.8c0,6.7,3.6,12.8,10,12.8c6.5,0,10.1-6,10.1-13.1c0-6.3-3.3-12.8-10-12.8
					C474.1,306.7,470.8,312.8,470.8,319.8z"/>
				<path class="st48" d="M501.9,335.3v-31.6h4.5l10.1,16c2.3,3.7,4.2,7,5.7,10.2h0.1c-0.4-4.2-0.4-8-0.4-12.9v-13.2h3.8v31.6h-4.2
					l-10-16c-2.2-3.5-4.3-7.1-5.9-10.6h-0.1c0.2,3.9,0.3,7.8,0.3,13v13.4h-3.9V335.3z"/>
				<path class="st48" d="M533.5,330.3c1.8,1.2,4.5,2,7.3,2c4.2,0,6.6-2.2,6.6-5.3c0-3-1.7-4.6-6-6.3c-5.1-1.8-8.3-4.5-8.3-9
					c0-4.9,4.1-8.5,10.2-8.5c3.2,0,5.5,0.7,6.9,1.5L549,308c-1.1-0.5-3.1-1.5-6-1.5c-4.3,0-6,2.6-6,4.7c0,3,1.9,4.4,6.3,6.1
					c5.3,2,8,4.6,8,9.3c0,4.9-3.6,9.1-11,9.1c-3,0-6.4-0.9-8-2L533.5,330.3z"/>
				<path class="st48" d="M564.5,307.3h-9.6v-3.4h23.4v3.4h-9.6v28h-4.2L564.5,307.3L564.5,307.3z"/>
				<path class="st48" d="M583.1,304.2c2-0.4,5-0.6,7.8-0.6c4.4,0,7.1,0.7,9.2,2.6c1.6,1.4,2.5,3.5,2.5,6c0,4.2-2.7,6.9-6,8v0.1
					c2.5,0.9,3.8,3.1,4.6,6.4c1.1,4.4,1.8,7.5,2.5,8.6h-4.2c-0.5-0.9-1.2-3.6-2.1-7.6c-1-4.4-2.7-6-6.3-6.1h-3.8v13.6h-4.1v-31
					H583.1z M587.2,318.6h4.2c4.4,0,7.1-2.3,7.1-6c0-4.1-3-5.9-7.3-5.9c-1.9,0-3.4,0.2-4.1,0.4L587.2,318.6L587.2,318.6z"/>
				<path class="st48" d="M613.7,303.8v18.7c0,7,3.1,10,7.4,10c4.7,0,7.7-3.1,7.7-10v-18.7h4.2v18.3c0,9.7-5.1,13.6-11.9,13.6
					c-6.5,0-11.3-3.7-11.3-13.4v-18.6h3.9V303.8z"/>
				<path class="st48" d="M663.3,334.3c-1.5,0.7-4.5,1.5-8.3,1.5c-8.8,0-15.6-5.7-15.6-16c0-9.9,6.7-16.5,16.4-16.5
					c3.9,0,6.4,0.9,7.5,1.4l-1,3.3c-1.5-0.7-3.7-1.3-6.4-1.3c-7.4,0-12.3,4.7-12.3,13c0,7.7,4.5,12.7,12.2,12.7c2.5,0,5-0.5,6.6-1.3
					L663.3,334.3z"/>
				<path class="st48" d="M677.2,307.3h-9.6v-3.4H691v3.4h-9.6v28h-4.2L677.2,307.3L677.2,307.3z"/>
				<path class="st48" d="M699.9,303.8v31.6h-4.1v-31.6H699.9z"/>
				<path class="st48" d="M735.3,319.2c0,10.9-6.6,16.6-14.6,16.6c-8.3,0-14.2-6.5-14.2-16c0-10,6.2-16.5,14.6-16.5
					C729.8,303.3,735.3,309.9,735.3,319.2z M710.9,319.8c0,6.7,3.6,12.8,10,12.8c6.5,0,10.1-6,10.1-13.1c0-6.3-3.3-12.8-10-12.8
					C714.2,306.7,710.9,312.8,710.9,319.8z"/>
				<path class="st48" d="M742,335.3v-31.6h4.5l10.1,16c2.3,3.7,4.2,7,5.7,10.2h0.1c-0.4-4.2-0.4-8-0.4-12.9v-13.2h3.8v31.6h-4.2
					l-10-16c-2.2-3.5-4.3-7.1-5.9-10.6h-0.1c0.2,3.9,0.3,7.8,0.3,13v13.4H742V335.3z"/>
			</g>
		</g>
		<g id="logo">
			<g id="main_logo_2_">
				<path class="st47" d="M424.5,275.5c-2.7-39.2-25.6-72.2-57.8-89.6l-88.1,90l-22.1-21.5l78-79.8c-8.8-1.6-18.1-2.2-27.5-1.6
					c-60.7,4.2-106.5,56.7-102.4,117.5c4.2,60.7,56.7,106.5,117.5,102.4c2.1-0.1,4.4-0.3,6.5-0.6L223,288.9l21.5-22.1l118,115.5
					C401.8,363.3,427.7,321.8,424.5,275.5z M358.1,308.2L358.1,308.2l-24.3,24.6l-22.1-21.5l24.2-24.7l-24.2-23.7l21.6-22.1
					l46.3,45.3L358.1,308.2z"/>
				<polygon class="st49" points="311.8,262.8 335.9,286.5 311.7,311.2 333.7,332.8 357.9,308 358.1,308.2 379.6,286.1 333.3,240.8 
									"/>
			</g>
		</g>
	</g>
</g>
<g id="Layer_2_1_">
</g>
<g id="Layer_4" class="st0">
	<rect class="st44" width="960" height="566"/>
	<circle id="green_circle" class="st50" cx="348.2" cy="274.3" r="102.1"/>
	<path id="dimension" class="st44" d="M388.1,206.2c0,0,11.3,15.7,7.3,16.2c-8.5-8.2-17.1,1-17,2.4
		C378.1,217.8,385.6,207.9,388.1,206.2z"/>
	<path id="ballot_2_" class="st44" d="M333.9,202.9l50.9,1.3c0,0-7.4,8.6-9.6,18.2c-2.3,9.6,1.1,24.8,1.1,24.8s-40.6,2.4-57.7-2.2
		c-1-0.2-0.5-17.3,1.1-25S333.9,202.9,333.9,202.9z"/>
	<path id="top_left_box_2_" class="st44" d="M408.8,255.7c-24.7,12.8-55.5,25-59.9,24.3c-4.9,2.2-40.5-11.1-61.2-24.3H408.8z"/>
	<path id="left_side_box_7_" class="st44" d="M412.1,271.7c-22.5,16.2-57.6,23.5-60.4,30.4c0,0-0.6,13.1-1.8,56.2
		c7-12.5,25.6-48.1,37.8-56.6c-2.9,24.5-37.8,56.6-37.8,56.6c21.9-1.5,41.4-11.2,51.8-20.6C411.2,324.1,409.3,305.4,412.1,271.7z"/>
	<path id="left_side_box_8_" class="st44" d="M283.3,271.1c22.4,16.3,53,24.5,55.8,31.4c0,0,2.7,13.1,3.8,56.2
		c-6.9-12.6-22.8-43.2-37.2-54.8c2.8,24.5,37.2,54.8,37.2,54.8c-21.9-1.6-40.4-11.4-50.8-20.8C282.7,324.3,285.9,304.8,283.3,271.1z
		"/>
	<path id="slot" class="st51" d="M393.2,261.8c-26.6,9.5-69.7,9.4-90.2-0.2L393.2,261.8z"/>
	<polygon id="E_2_" class="st52" points="655.8,167.2 670.2,167.2 693,167.2 693,181.6 669.9,181.7 669.9,212.8 687.1,213.1 
		687.1,229.7 670.1,230 670.2,260.5 693.9,260.5 693.9,276.1 655.8,276.1 	"/>
	<polygon id="T_2_" class="st52" points="628.9,276.9 613.7,276.9 613.4,183.7 595.6,183.6 595.5,167.8 628.8,167.6 648.8,167.3 
		648.7,182.9 628.8,183.2 	"/>
	<path id="O_2_" class="st52" d="M589.1,204.8v46.9c0,17.8-8.5,27.9-24.9,27.9s-24.9-10.1-24.9-27.9V194c0-17.8,8.5-27.9,24.9-27.9
		s24.9,10.1,24.9,27.9V204.8h-15.8v-11.9c0-7.9-3.3-10.9-8.6-10.9s-8.6,3-8.6,10.9v59.9c0,7.9,3.3,10.8,8.6,10.8s8.6-2.9,8.6-10.8
		v-48H589.1z"/>
	<polygon id="V_2_" class="st52" points="479.1,168.9 493.9,168.6 506.2,262.3 520.6,168.6 533.9,168.6 519.1,282 493.1,282.7 	"/>
	<path id="Bottom_of_Y_2_" class="st53" d="M556.2,339.2c-3.9-1.6-13.4-10.3-16.7-16c5.8,16,8.7,47.6,8.5,59.5h17.1
		C564.3,357.7,558.6,344.8,556.2,339.2"/>
	<path id="C_2_" class="st53" d="M703,339.5V355c0,18.6-9.5,29.2-27.9,29.2s-27.9-10.6-27.9-29.2v-60.5c0-18.6,9.5-29.2,27.9-29.2
		s27.9,10.6,27.9,29.2v11.3h-17.7v-12.5c0-8.3-3.7-11.5-9.7-11.5s-9.7,3.2-9.7,11.5v62.8c0,8.3,3.7,11.3,9.7,11.3s9.7-3,9.7-11.3
		v-16.6L703,339.5L703,339.5z"/>
	<path id="A_2_" class="st53" d="M641.7,382.8h-18.9l-3.2-21.6h-23l-3.2,21.6h-17.2l18.3-116.6h27.8L641.7,382.8z M599,345.1h18
		l-9-60.2L599,345.1z"/>
	<polygon id="L_2_" class="st53" points="483.7,267.8 503.3,267.4 503.2,365.8 534,365.8 534,382.8 484.5,382.8 	"/>
	<path id="right_leaf_1_" class="st50" d="M560.4,288.3c-12.2,16.6-0.1,46.3-0.1,46.3s-0.1-28,23.9-51c-5.8,10-15,28.1-16.7,40.4
		c26.2-3.3,36.9-28.5,37.4-39.9c0.5-12.1,3.7-21.9,15-31.4C603.1,251.5,572.6,271.7,560.4,288.3"/>
	<path id="left_leaf_2_" class="st50" d="M543.1,282.5c-8.8-12.6-31.1-28.1-43.5-27.5c8.2,7.3,10.4,14.6,10.6,23.6
		c0.1,8.5,7.6,27.4,27,30.3c-1.1-9.2-7.6-22.7-11.7-30.3c17.4,17.5,16.9,38.3,16.9,38.3S551.9,295,543.1,282.5"/>
</g>
<g id="Layer_5">
	<g id="Layer_3">
		<rect class="st54" width="960" height="566"/>
		<g>
			<path class="st55" d="M220.2,172.4c-0.1,0.4-0.1,0.8-0.2,1.4v3.4c-0.1,0-0.1,0-0.3,0c-0.1,0-0.2,0-0.3,0c0-0.1-0.1-0.7-0.2-1.8
				c-0.1-0.6-0.4-1.1-0.9-1.5c-0.2-0.2-0.7-0.1-1.5,0c-0.4,0-1,0.1-1.8,0.3c-0.3,0.1-0.4,0.3-0.5,0.5c-0.2,0.6-0.2,1.6-0.1,2.7
				c0.1,1.2,0.1,2.8-0.1,4.9c0,0,0.1,0.7,0.2,2.1c0,0.5,0,1.2,0,2.1c0.1,0.5,0.3,1.3,0.5,2.3c0.1,0.5,0.4,0.8,1,1
				c0.5,0.1,0.9,0.2,1.4,0.3c0,0.1-0.1,0.4-0.3,0.7h-8.4c-0.1,0-0.1-0.1-0.1-0.2c0,0,0-0.1,0-0.2c0.3-0.1,0.8-0.2,1.4-0.4
				c0.5-0.3,0.9-0.6,1.1-1c0.1-0.1,0.1-0.6,0.2-1.3c0-1.4,0.1-2.8,0.1-4.3v-5.3h0.4l0.1-0.1c-0.1-0.3-0.3-0.8-0.5-1.4
				c0-0.1-0.1-0.9-0.2-2.3h-2.7c-0.3,0-0.6,0.2-1.1,0.5s-0.7,0.6-0.7,0.8c-0.2,0.9-0.4,1.5-0.6,1.8c-0.1,0.2-0.3,0.3-0.7,0.3
				c0,0,0-0.2-0.1-0.4c0-0.2,0-0.3,0-0.4c0.1-0.4,0.2-1,0.3-1.9c0.1-1,0.2-1.7,0.3-2.1l0.5-0.6c-0.3,0,0.6,0,2.7,0
				c0.6,0,1.5,0.1,2.8,0.2c1.3,0.1,1.9,0.2,1.8,0.2h2.5c0,0,0.3,0,0.9-0.1c0.7-0.1,1.3-0.2,1.9-0.2c0.2,0,0.5-0.1,0.7-0.1
				C219.9,172.1,220.1,172.2,220.2,172.4z"/>
			<path class="st55" d="M241,172.4c0,0.1-0.1,0.2-0.2,0.3c-0.4,0.1-0.8,0.3-1.1,0.4c-0.2,0.1-0.4,0.3-0.6,0.7
				c-0.2,0.3-0.3,0.6-0.3,0.8c0,0.9,0,1.2,0,1.1c-0.1,0.2-0.2,0.6-0.3,1c0,0.1,0.1,0.6,0.2,1.5c0,0.3,0.1,0.7,0.1,1.2
				c0,0.6,0,1.3-0.1,2.1s-0.1,1.2-0.1,1.2v2.2c0,2.2,0.3,3.8,0.8,4.7c0.1,0.2,0.3,0.3,0.7,0.5c0.3,0.2,0.6,0.3,0.9,0.3
				c-0.1,0.1-0.2,0.2-0.3,0.4h-6.9c0-0.1,0-0.2,0-0.3s0-0.2,0-0.3c0.2-0.1,0.5-0.2,0.9-0.4c0.3-0.1,0.6-0.6,0.9-1.4
				c0.2-0.7,0.3-1.2,0.3-1.6v-2.2c0-0.1,0-0.6-0.1-1.2c0-0.5,0-0.9,0-1.2c0-0.2,0-0.6-0.3-1.2c-0.5,0.4-1.2,0.6-2.2,0.8
				c-0.5,0.1-1,0.1-1.3,0.1c-0.5-0.1-0.8-0.1-0.8-0.1h-3.7c-0.2,0.1-0.5,0.4-0.9,0.7c-0.1,0.2-0.2,0.6-0.1,1
				c0.1,0.2,0.2,0.4,0.3,0.7c0-0.1-0.1,0.1-0.1,0.8c0,0,0,0.8,0.1,2.3c0.1,1.6,0.6,2.5,1.7,2.7c0,0,0.3,0.1,0.6,0.2
				c-0.3,0.4-0.7,0.6-1.1,0.6c-0.1,0-0.3,0-0.4,0c-0.2,0-0.3,0-0.4,0l-5.9-0.1c0-0.2,0.2-0.4,0.7-0.5c0.5-0.2,0.9-0.5,1.2-1
				c0.2-0.3,0.3-0.9,0.4-1.8c0.1-0.9,0.1-1.7,0-2.4c0-0.1-0.1-0.2-0.2-0.3c0-0.8,0-1.9,0.1-3.4c0,0,0.1-0.2,0.2-0.5
				c0.1-0.2,0.1-0.4,0.1-0.6c-0.1-0.2-0.2-0.5-0.4-0.9c0,0.1,0.1-0.2,0.1-1c0-0.2,0-0.4-0.1-0.7c0-0.3-0.1-0.5-0.1-0.5v-2.4
				c0-0.3-0.2-0.7-0.7-1.1c-0.4-0.4-0.9-0.7-1.3-0.9c0,0,0.1-0.2,0.3-0.5c0.4,0,0.9,0,1.7-0.1c0.7-0.1,1.1-0.1,1.1-0.1h2.8
				c0.1,0,0.3,0,0.4,0c0.1,0,0.2,0,0.3,0c0.2,0,0.5,0.2,1,0.6c-0.3,0.2-0.7,0.3-1,0.5c-0.4,0.2-0.7,0.5-0.9,0.8
				c-0.3,0.4-0.5,1.3-0.5,2.5v3.2c0,0.1,0,0.1,0,0.2c0,0.1,0,0.1,0,0.2c0.5,0.2,0.9,0.3,1.2,0.3h5.9c0.2,0,0.5,0.1,0.9,0.2
				c0,0,0.1,0.1,0.4,0.2c0.2,0.1,0.4,0.1,0.5,0.1s0.1,0,0.2,0c0.3-0.4,0.5-0.8,0.5-1.4c0-0.3-0.1-0.7-0.2-1.2
				c-0.1-0.5-0.2-0.9-0.1-1.1c0-0.2,0-0.5-0.1-0.9c-0.1-0.5-0.1-0.9-0.1-1.2c0-1-0.8-1.8-2.2-2.6c0.2-0.2,0.3-0.3,0.4-0.3h2.2
				c-0.1,0,0.3,0,1.2,0c0.8,0,1.5,0,1.9,0C239.5,172.2,240.1,172.3,241,172.4z"/>
			<path class="st55" d="M257,186c0,0.5-0.1,1.2-0.2,2.2c-0.1,0.3-0.3,0.6-0.4,1.1c0,0.2-0.1,0.5-0.2,0.8c0,0.1-0.2,0.3-0.4,0.6
				c-0.3,0.3-0.5,0.5-0.6,0.5h-3.8c-0.1,0-0.5,0-1.3,0s-1.3,0-1.3,0h-2.3c-0.1,0-0.4,0-0.9-0.1s-0.9-0.1-0.9-0.1h-2.2l-0.2-0.2
				c0.1-0.1,0.5-0.4,1.3-0.9c0.5-0.3,0.8-0.7,0.8-1.2V184c0-0.8,0.1-1.8,0.3-3.1c-0.1-0.4-0.2-0.9-0.1-1.5c-0.2-0.1-0.3-0.4-0.3-0.6
				c0,0,0.1-0.4,0.3-1.2c0-0.1,0-0.2-0.1-0.4s-0.2-0.4-0.2-0.4c-0.1-0.2-0.1-0.5-0.1-1c0-0.6,0-1,0-1c0-0.3-0.1-0.6-0.2-0.8
				c-0.1-0.3-0.4-0.5-0.7-0.7c-0.3-0.1-0.6-0.3-0.9-0.4c0.1-0.3,0.3-0.5,0.4-0.5c0.3,0,0.7,0,1.3,0c0.6-0.1,0.9-0.2,0.9-0.2h2.6
				c0,0,0.3,0,0.9,0.1c0.6,0.1,1,0.1,1.3,0.1c0.1,0,1.1-0.1,3-0.2c0.4,0,1.5,0,3.3,0.1c0.2,0.1,0.2,0.2,0.2,0.4c0,0.1,0,0.2-0.1,0.4
				s-0.1,0.3-0.1,0.4c0,0.3-0.1,1.4-0.3,3.3c0,0.1-0.2,0.2-0.4,0.3c-0.1-0.1-0.2-0.6-0.6-1.6c-0.2-0.6-0.6-1-1.1-1
				c-0.2,0-0.4-0.1-0.7-0.1c-0.3-0.1-0.5-0.1-0.7,0c-0.4,0.1-1.4,0.1-2.8,0c-0.8-0.1-1.4,0-1.8,0c-0.1,0-0.2,0.1-0.2,0.3
				c0.4,1.2,0.4,2.2,0.1,3.1c0-0.1,0,0.2,0,0.7c0,0.1,0,0.4-0.1,0.9c0,0.4-0.1,0.6,0,0.9c0,0.1,0.1,0.2,0.3,0.4h5.6
				c0.2-0.1,0.4-0.1,0.5-0.2c0.3-0.1,0.5-0.3,0.6-0.5c0.1-0.3,0.3-0.6,0.5-1.1c0.3,0,0.5,0.1,0.6,0.3c0,0.6-0.1,1.3-0.1,2.2
				c0,0.6-0.1,1.4-0.2,2.6c0,0.2-0.2,0.2-0.6,0.2c-0.1-0.2-0.4-0.6-0.7-0.9c-0.6-0.5-1.2-0.7-1.6-0.7h-2c-0.1,0-0.4,0-0.8-0.1
				c-0.4,0-0.7-0.1-0.8-0.1c-0.5,0-0.9,0.2-1,0.5c-0.2,0.3-0.2,0.6-0.2,0.8s0,0.5,0.1,1s0.1,0.9,0.1,1.1c0,0.1-0.1,0.4-0.1,0.8
				c-0.1,0.4-0.1,0.7-0.1,0.9s0,0.3,0.1,0.5s0.3,0.5,0.8,0.9c0.5,0.3,0.9,0.5,1.2,0.6c0,0,0.1,0,0.1,0.1c0.1,0,0.2,0,0.3,0h2.5
				c0.6,0,1-0.1,1.4-0.3c0.5-0.2,1-0.6,1.5-1.2c0.5-0.6,0.8-1.2,0.9-1.8C256.3,186,256.7,185.9,257,186z"/>
		</g>
		<g>
			<path class="st55" d="M317,139.5c0.4,2.8,0.3,10.9-0.4,24.2c0,1-0.6,2.2-1.7,3.6c-0.2,0-0.9,0.1-2.2,0.1c-0.3-4.3-0.6-7.3-1-9.1
				c-0.8-3.6-2.2-5.8-4.3-6.6c-2-0.8-6.4-1.2-13.2-1.2H283c-2.1,0-3.2,2.9-3.2,8.6c0-0.7,0.2,2.5,0.7,9.6c0.1,1.5-0.1,4-0.5,7.6
				c-0.4,3.8-0.7,6.6-0.7,8.4c0,2.7,0.3,5,1,6.8h8.6c0.2,0,0.9,0.2,2.1,0.5s2,0.5,2.3,0.5h8.3c3.1,0,5.8-2.3,8.1-6.9
				c0.2-0.9,0.5-2.1,0.9-3.8c0.5-0.6,1.4-0.8,2.9-0.7c0.2,1.9,0.4,4.6,0.6,8.1c-0.1,4.4-0.7,13.1-1.6,26.1c-0.1,1.7-1.2,2.4-3.3,2.2
				c-0.4-2.5-0.8-5-1.2-7.5c-0.7-3.1-2-5-3.8-5.8c-1-0.4-3.7-0.7-8.1-0.7h-9.6c-0.4,0.3-1.4,0.5-3.1,0.4c-1.5-0.1-2.5,0.4-3.1,1.4
				c0,1.4,0,3.6-0.2,6.5c0,0.6-0.4,2.4-1,5.5c-0.5,2.3-0.7,4.1-0.6,5.5c0.3,0.8,0.6,2,0.9,3.5c0,1-0.1,2.7-0.2,5
				c-0.2,2.3-0.2,4-0.2,5.1c0,4.8,1.2,8.5,3.5,11.1c0,0,3.3,1.8,9.6,5.3c-0.9,1.5-2.1,2.2-3.6,2.2c-0.4,0-1-0.1-1.8-0.2
				c-0.8-0.1-1.3-0.2-1.6-0.3c-4-0.1-9-0.4-14.9-0.8c-3.2-0.2-5.2-0.2-6.2,0.1c-0.6,0.5-1.3,1.1-2.3,1.7c-0.6,0.1-1.3-0.1-2.3-0.5
				c-1.6-0.7-2.5-1-2.5-1c0.3-1.1,1.3-2.5,3.1-4.3c1.8-1.8,2.8-3.1,3.2-4c1.6-4.2,2.4-8.2,2.4-11.9v-21.9c0,0-0.1-2.1-0.2-6.3
				c-0.1-4.3-0.2-7.5-0.2-9.7c0,0.3,0-0.7,0.1-3.1c0.1-1.7,0.1-3.2-0.1-4.4c-0.1-1.8-0.5-3.3-1-4.4c1.5-3.1,2.3-6.7,2.3-10.8
				s-0.8-8.8-2.3-14.1c0-1.1,0-2.6-0.1-4.4c0-1-0.2-1.9-0.4-2.5c-0.9-2.6-2.2-5-3.8-7.3c-0.5-0.6-1.6-1-3.3-1.2
				c-0.3-0.7-0.5-2-0.4-3.8c-0.2,0,2.8-0.1,8.9-0.3c9.6-0.2,24.2-0.4,43.9-0.7C311.1,138.5,313.7,138.8,317,139.5z"/>
		</g>
		<g>
			<path class="st55" d="M334.2,268.5c0,1.1,0,1.9-0.1,2.5c-0.2,0.4-0.4,1.1-0.6,2c0,0.9-0.2,1.9-0.6,2.9c-0.3,0.4-0.8,1-1.3,1.9
				c-0.2,0.6-0.6,1.4-1.3,2.5c-0.6,0.6-1.4,1.4-2.5,2.6c-0.2,0.1-0.4,0.2-0.7,0.3c-0.2,0.2-0.7,0.6-1.3,1c-3.1,1.7-6.1,2.6-8.9,2.8
				H313c0,0,0-0.1-0.2-0.2c-2.1-0.1-3.6-0.3-4.6-0.9c-0.3-0.1-0.6-0.2-1.1-0.3c-0.8-0.3-1.9-0.8-3.4-1.6c-1.8-1.2-3.6-2.8-5.2-4.9
				c-0.9-1.2-1.7-2.7-2.4-4.6c-0.7-1.7-1-3.2-1.1-4.4c-0.1-2-0.1-4,0.2-6c0.1-0.2,0.3-0.6,0.5-1.1c0.1-0.6,0.3-1.4,0.6-2.5
				c0.4-0.7,1-1.6,1.7-2.9c0.1-0.2,0.1-0.5,0.1-0.7c0.1-0.1,0.3-0.1,0.6,0.1c0.1-0.3,0.1-0.6,0-1.1c0.2-0.1,0.6-0.2,1.1-0.5
				c0.2-0.4,0.5-0.9,1.1-1.5c1.1-0.6,2.9-1.5,5.2-2.7c0.6-0.3,1.3-0.5,2.3-0.7c2.3-0.5,3.9-0.8,4.8-0.8h2.2c1.7,0,3.2,0.2,4.5,0.5
				c0.7,0.2,2.1,0.7,4.4,1.6c0.5,0.3,1.2,0.8,2.3,1.4c1.5,1,2.8,2.3,4.1,3.9c1.1,1.5,1.8,2.9,2.1,4.1c0.2,0.2,0.3,0.5,0.6,0.9
				c0.4,1.1,0.7,2.8,0.7,5.1c0,0.1,0,0.3,0.1,0.5C334.1,268.1,334.2,268.3,334.2,268.5z M327.8,269.2c-0.2-2.4-0.6-4.6-1.4-6.6
				c-1-2.6-2.1-4.6-3.4-6.1c-1.9-2.1-3.9-3.3-6.1-3.6c-2.1-0.3-3.5-0.5-4.3-0.3c-1.5,0.2-2.8,0.5-3.9,1c-0.1,0.1-1,0.6-2.6,1.5
				c-0.1,0.2-0.3,0.4-0.5,0.7c-0.2,0-0.3,0.1-0.5,0.2c-0.4,0.5-0.9,1.2-1.4,2c-0.1,0.2-0.2,0.6-0.4,1c-0.3,0.5-0.6,1-0.9,1.6
				c-0.2,0.7-0.4,1.8-0.8,3.2c0,0.5,0,1.3,0,2.4c0,0.1,0,0.2-0.1,0.4c-0.1,0.2-0.1,0.3-0.1,0.4c0.3,1.2,0.6,3,1.1,5.2
				c-0.1,0.2-0.1,0.3-0.1,0.5c0.1,0.3,0.3,0.6,0.6,1.1c0,0.2,0.1,0.6,0.2,1c0.8,1.6,1.2,2.4,1.3,2.5c0.6,1,1.4,1.9,2.4,2.8
				c0,0,0.1,0.4,0.4,1.2c0.1,0,0.4,0.1,1,0.2c0.9,0.9,1.7,1.4,2.2,1.7c1.4,0.8,4,1.1,7.7,0.8c0.3-0.1,0.7-0.2,1.2-0.4
				c0.6-0.1,1.5-0.4,2.7-0.9c0.3-0.2,0.6-0.5,1.1-0.9c1.9-1.2,3-2.6,3.4-4.4c0.2-0.2,0.4-0.6,0.7-1c0-0.4,0.1-0.8,0.2-1.3
				c0.1-0.1,0.2-0.3,0.3-0.5c0-0.4,0.1-1.4,0.3-2.9C327.8,270.4,327.8,269.6,327.8,269.2z"/>
			<path class="st55" d="M360.1,250.7c0.2,0.9,0.1,3.4-0.2,7.6c0,0.3-0.3,0.7-0.7,1.1c-0.1,0-0.4,0-0.9,0c-0.1-1.4-0.3-2.3-0.4-2.9
				c-0.4-1.1-1-1.8-1.9-2.1s-2.8-0.4-5.8-0.4h-5c-0.9,0-1.4,0.9-1.4,2.7c0-0.2,0.1,0.8,0.3,3c0,0.5,0,1.3-0.2,2.4
				c-0.2,1.2-0.3,2.1-0.3,2.6c0,0.9,0.2,1.6,0.5,2.2h3.8c0.1,0,0.4,0.1,0.9,0.2s0.9,0.2,1,0.2h3.7c1.4,0,2.6-0.7,3.6-2.1
				c0.1-0.3,0.2-0.7,0.4-1.2c0.2-0.2,0.6-0.2,1.3-0.2c0.1,0.6,0.2,1.5,0.3,2.6c-0.1,1.4-0.3,4.1-0.7,8.2c-0.1,0.5-0.5,0.8-1.5,0.7
				c-0.2-0.8-0.3-1.6-0.5-2.4c-0.3-1-0.9-1.6-1.7-1.8c-0.5-0.1-1.7-0.2-3.6-0.2h-4.2c-0.2,0.1-0.7,0.2-1.4,0.1
				c-0.7,0-1.1,0.1-1.3,0.5c0,0.5,0,1.1-0.1,2c0,0.2-0.2,0.7-0.4,1.7c-0.2,0.7-0.3,1.3-0.3,1.7c0.1,0.2,0.3,0.6,0.4,1.1
				c0,0.3,0,0.9-0.1,1.6s-0.1,1.2-0.1,1.6c0,1.5,0.5,2.7,1.5,3.5c0,0,1.4,0.6,4.2,1.7c-0.4,0.4-0.8,0.7-1.4,0.7
				c1.1,0,0.6-0.1-1.7-0.1c-1.8,0-3.9-0.1-6.6-0.3c-1.4-0.1-2.3,0-2.7,0c-0.2,0.2-0.6,0.3-1,0.5c0,0-0.7-0.2-2.2-0.5
				c0.1-0.3,0.6-0.8,1.3-1.3c0.8-0.6,1.3-1,1.4-1.2c0.7-1.3,1.1-2.6,1.1-3.8v-6.9c0,0,0-0.6-0.1-2c0-1.3-0.1-2.4-0.1-3.1
				c0,0.1,0-0.2,0.1-1c0-0.5,0-1,0-1.4c-0.1-0.6-0.2-1-0.4-1.4c0.7-1,1-2.1,1-3.4s-0.3-2.8-1-4.4c0-0.3,0-0.8-0.1-1.4
				c0-0.3-0.1-0.6-0.2-0.8c-0.4-0.8-0.9-1.6-1.7-2.3c-0.2-0.2-0.7-0.4-1.5-0.4c-0.2-0.2-0.2-0.6-0.2-1.2c-0.1,0,1.2,0,3.9-0.1
				c4.2-0.1,10.7-0.1,19.3-0.2C357.5,250.4,358.7,250.5,360.1,250.7z"/>
			<path class="st55" d="M403.4,250.8c-0.1,0.7-0.2,1.6-0.4,2.6v6.7c-0.1,0-0.3,0-0.5,0.1s-0.4,0.1-0.5,0.1c0-0.2-0.2-1.3-0.5-3.4
				c-0.2-1.2-0.7-2.2-1.7-2.8c-0.4-0.3-1.4-0.3-3,0.1c-0.8,0.1-1.9,0.3-3.4,0.5c-0.5,0.2-0.8,0.5-1,1c-0.3,1.2-0.4,3-0.1,5.3
				c0.3,2.3,0.2,5.5-0.2,9.5c0,0,0.1,1.3,0.4,4c-0.1,0.9-0.1,2.3-0.1,4.1c0.2,1,0.5,2.5,0.9,4.4c0.2,1,0.8,1.6,1.9,1.8
				c0.9,0.2,1.8,0.4,2.6,0.6c0,0.3-0.2,0.7-0.7,1.3H381c-0.2,0-0.2-0.1-0.2-0.3c0-0.1,0-0.2,0-0.5c0.6-0.1,1.5-0.4,2.6-0.8
				c1-0.5,1.7-1.2,2.2-1.9c0.1-0.2,0.3-1.1,0.4-2.6c0.1-2.6,0.2-5.4,0.3-8.3V262h0.8c0,0,0.1-0.1,0.2-0.3c-0.3-0.6-0.6-1.5-1-2.7
				c0-0.2-0.2-1.7-0.5-4.4h-5.3c-0.6,0-1.2,0.3-2.1,0.9c-0.8,0.6-1.3,1.1-1.3,1.5c-0.4,1.7-0.8,2.9-1.2,3.5
				c-0.2,0.3-0.6,0.5-1.3,0.5c0-0.1,0-0.3-0.1-0.7c-0.1-0.3-0.1-0.6,0-0.7c0.2-0.8,0.4-2,0.7-3.6c0.2-2,0.4-3.3,0.6-4l0.9-1.2
				c-0.6-0.1,1.2-0.1,5.2-0.1c1.2,0,3,0.1,5.4,0.3s3.6,0.3,3.5,0.3h4.7c0,0,0.6-0.1,1.7-0.3c1.3-0.2,2.5-0.3,3.6-0.4
				c0.4-0.1,0.9-0.1,1.3-0.2C402.8,250.4,403.2,250.5,403.4,250.8z"/>
			<path class="st55" d="M443.4,250.9c0,0.2-0.1,0.4-0.3,0.6c-0.8,0.2-1.5,0.5-2.1,0.9c-0.3,0.2-0.7,0.7-1.2,1.3
				c-0.4,0.7-0.7,1.2-0.7,1.5c0,1.7,0,2.4,0.1,2c-0.2,0.5-0.3,1.1-0.5,2c0,0.2,0.1,1.2,0.4,3c0.1,0.6,0.1,1.4,0.1,2.3
				c0,1.1-0.1,2.5-0.2,4.1s-0.2,2.4-0.2,2.3v4.2c0,4.3,0.5,7.3,1.5,9c0.2,0.3,0.6,0.7,1.3,1c0.6,0.3,1.2,0.5,1.7,0.6
				c-0.1,0.2-0.3,0.5-0.6,0.9h-13.4c0-0.1,0-0.3-0.1-0.5s-0.1-0.4-0.1-0.5c0.4-0.2,1-0.5,1.8-0.9c0.6-0.3,1.1-1.2,1.7-2.6
				c0.4-1.3,0.7-2.3,0.7-3v-4.2c0-0.3-0.1-1.1-0.2-2.4c-0.1-1-0.1-1.8,0-2.4c0.1-0.4-0.1-1.2-0.5-2.2c-0.9,0.7-2.4,1.2-4.2,1.5
				c-1,0.2-1.9,0.2-2.6,0.1c-1-0.2-1.5-0.3-1.6-0.3H417c-0.4,0.2-1,0.7-1.7,1.4c-0.3,0.5-0.4,1.1-0.3,1.9c0.2,0.3,0.3,0.8,0.5,1.4
				c-0.1-0.3-0.1,0.3-0.2,1.6c0,0.1,0,1.6,0.2,4.5c0.2,3.1,1.2,4.9,3.2,5.3c0.1,0,0.5,0.2,1.2,0.5c-0.7,0.7-1.4,1.1-2.2,1.1
				c-0.2,0-0.5,0-0.8-0.1c-0.4-0.1-0.6-0.1-0.7-0.1l-11.3-0.2c0-0.3,0.5-0.7,1.3-1c1-0.4,1.8-1,2.3-1.9c0.4-0.6,0.7-1.8,0.8-3.6
				c0.2-1.8,0.2-3.4,0.1-4.6c-0.1-0.2-0.2-0.4-0.3-0.6c0-1.5,0.1-3.7,0.3-6.6c0-0.1,0.1-0.4,0.3-0.9c0.2-0.4,0.2-0.8,0.2-1.1
				c-0.2-0.3-0.5-0.9-0.8-1.7c0.1,0.2,0.1-0.4,0.2-1.9c0-0.3,0-0.8-0.1-1.3c-0.1-0.6-0.1-0.9-0.1-1v-4.6c0-0.6-0.4-1.3-1.3-2.2
				s-1.7-1.4-2.6-1.7c0,0,0.2-0.4,0.6-1c0.7,0,1.8-0.1,3.2-0.2c1.4-0.1,2.1-0.2,2.2-0.2h5.4c0.2,0,0.5,0,0.8-0.1s0.4-0.1,0.5-0.1
				c0.4,0,1.1,0.4,2,1.1c-0.7,0.3-1.3,0.7-2,1c-0.8,0.4-1.4,0.9-1.8,1.5c-0.6,0.8-0.9,2.4-0.9,4.7v6.1c0,0.1,0,0.2,0.1,0.4
				c0.1,0.1,0.1,0.2,0.1,0.3c0.9,0.4,1.7,0.6,2.3,0.6H429c0.4,0.1,1,0.2,1.8,0.4c0,0,0.3,0.1,0.8,0.3c0.4,0.2,0.7,0.3,0.9,0.3
				c0.1,0,0.2,0,0.3-0.1c0.6-0.7,0.9-1.6,0.9-2.6c0-0.5-0.1-1.3-0.3-2.2c-0.2-1-0.3-1.7-0.3-2s-0.1-0.9-0.2-1.8
				c-0.1-1.1-0.2-1.8-0.2-2.2c-0.1-1.9-1.5-3.5-4.2-5c0.4-0.4,0.6-0.6,0.8-0.6h4.3c-0.2,0,0.5,0,2.4-0.1c1.6-0.1,2.8-0.1,3.7,0
				C440.5,250.4,441.7,250.6,443.4,250.9z"/>
			<path class="st55" d="M474.4,277.2c-0.1,1-0.2,2.4-0.4,4.2c-0.2,0.5-0.5,1.2-0.9,2.1c-0.1,0.4-0.2,0.9-0.4,1.6
				c-0.1,0.2-0.3,0.6-0.7,1.1c-0.5,0.6-0.9,0.9-1.2,0.9h-7.3c-0.1,0-1,0-2.6-0.1s-2.4-0.1-2.6-0.1h-4.4c-0.1,0-0.7-0.1-1.8-0.2
				c-1.1-0.1-1.7-0.2-1.8-0.2H446l-0.4-0.4c0.2-0.3,1-0.8,2.5-1.7c1-0.6,1.5-1.4,1.5-2.3V273c0-1.5,0.2-3.5,0.7-5.9
				c-0.2-0.8-0.3-1.7-0.1-2.9c-0.3-0.3-0.5-0.7-0.5-1.2c0,0,0.2-0.8,0.6-2.4c0-0.1-0.1-0.4-0.3-0.8c-0.3-0.5-0.4-0.7-0.4-0.7
				c-0.1-0.4-0.2-1-0.2-1.9c0-1.2,0-1.8,0-1.9c-0.1-0.6-0.2-1.2-0.4-1.6c-0.3-0.6-0.8-1-1.4-1.3c-0.6-0.2-1.1-0.5-1.7-0.8
				c0.3-0.6,0.6-1,0.9-1c0.6,0,1.4,0,2.6,0c1.2-0.2,1.8-0.4,1.8-0.4h5.1c0.1,0,0.7,0.1,1.7,0.2c1.1,0.1,1.9,0.2,2.5,0.2
				c0.2,0,2.1-0.1,5.7-0.4c0.8-0.1,3,0,6.5,0.2c0.3,0.2,0.5,0.5,0.5,0.8c0,0.2-0.1,0.4-0.2,0.8c-0.1,0.3-0.2,0.6-0.2,0.7
				c0,0.6-0.2,2.7-0.6,6.3c-0.1,0.1-0.3,0.3-0.8,0.5c-0.1-0.2-0.5-1.2-1.1-3.1c-0.4-1.2-1.1-1.9-2.1-2c-0.4-0.1-0.9-0.2-1.3-0.3
				c-0.6-0.1-1.1-0.2-1.4-0.1c-0.8,0.2-2.7,0.2-5.5,0c-1.6-0.1-2.7-0.1-3.5,0.1c-0.2,0.1-0.4,0.3-0.5,0.7c0.7,2.2,0.7,4.2,0.1,6
				c0-0.1,0.1,0.4,0.1,1.4c0,0.3,0,0.8-0.1,1.7c-0.1,0.7-0.1,1.2,0,1.7c0,0.2,0.2,0.4,0.5,0.7h10.8c0.3-0.1,0.7-0.2,1-0.3
				c0.5-0.2,0.9-0.5,1.1-0.9c0.2-0.5,0.5-1.2,1.1-2.1c0.6,0,1,0.2,1.2,0.6c-0.1,1.1-0.2,2.5-0.2,4.2c0,1.1-0.2,2.8-0.4,5
				c-0.1,0.3-0.5,0.4-1.1,0.3c-0.2-0.5-0.7-1.1-1.3-1.8c-1.2-0.9-2.2-1.3-3.2-1.3h-3.9c-0.2,0-0.7,0-1.5-0.1
				c-0.7-0.1-1.3-0.1-1.6-0.1c-1,0-1.7,0.3-1.9,0.9c-0.3,0.7-0.5,1.2-0.5,1.5s0.1,1,0.2,1.9c0.1,1,0.2,1.7,0.2,2.2
				c0,0.3-0.1,0.8-0.3,1.5c-0.2,0.7-0.2,1.3-0.2,1.7c0,0.3,0,0.6,0.1,0.9c0.1,0.5,0.7,1,1.6,1.7c0.9,0.6,1.7,1,2.3,1.1
				c0.1,0,0.2,0.1,0.3,0.1c0.2,0.1,0.4,0.1,0.5,0.1h4.8c1.1,0,2-0.2,2.7-0.5c1-0.5,2-1.2,2.9-2.3c1-1.2,1.6-2.3,1.7-3.4
				C473,277,473.6,277,474.4,277.2z"/>
		</g>
		<g>
			<path class="st55" d="M691.4,182.1c-0.1,0.4-0.2,1-0.4,1.8c0,0-0.6,0.2-1.9,0.6c-0.8,0.2-1.3,0.7-1.5,1.5
				c-0.2,0.3-0.4,0.8-0.6,1.5c0,0.2-0.3,1.9-0.8,5l-0.1,22.4c-0.1,0.7-0.2,1.2-0.2,1.2s0.1,0.3,0.2,0.9l-0.1,6.7
				c-0.1,0.9-0.1,2.2,0,3.8c0.2,1.9,0.4,3.4,0.9,4.6c0.1,0.4,0.5,0.9,1.1,1.3c1,0.9,2.1,1.3,3.1,1.3c0,0.4-0.1,0.9-0.3,1.7h-3.6
				c-0.1,0-0.4,0-1-0.1s-1-0.1-1-0.1s-0.3,0-0.8,0.1s-0.8,0.1-0.8,0.1s-0.2,0-0.6-0.1c-0.3-0.1-0.5-0.1-0.6-0.1s-0.2,0-0.4,0.1
				s-0.4,0.1-0.4,0.1l-6.4,0.2c-0.5,0-0.8-0.3-0.8-0.8c0-0.7,0.1-1,0.4-1.1c0.7-0.2,1.3-0.4,2-0.5c0.8-0.2,1.3-0.6,1.5-1.2
				c0.1-0.3,0.2-0.9,0.4-1.6c0.3,0,0.7,0.1,1.3,0.3c0.2-1.2,0.3-2,0.3-2.3s-0.1-0.8-0.3-1.3c0.2-0.6,0.2-1.1,0.1-1.5
				c-0.1-0.3-0.3-0.8-0.6-1.5c-0.3-0.6-0.4-1-0.4-1c0,0.2,0.2-0.7,0.5-2.6c0.1-0.2,0-0.6-0.2-1c0.3-0.8,0.5-1.4,0.5-1.7
				c0-0.1-0.1-1-0.2-2.8c0-0.1-0.1-0.4-0.2-0.8c-0.1-0.4-0.2-0.6-0.2-0.7c0-0.1,0.1-0.3,0.3-0.6c-0.1,0.1-0.1-0.1-0.1-0.5V208
				c0-0.1,0-0.3,0.1-0.8c0.1-0.4,0.1-0.7,0.1-0.8s0-0.2-0.1-0.3c-0.1-0.2-0.1-0.3-0.1-0.4c0-0.4,0-1.8,0.1-4.3c0-0.3,0-1.1-0.1-2.4
				v-5.3c0-0.3-0.1-0.8-0.4-1.4c0.1-0.3,0-0.9-0.2-1.8c0-0.4-0.1-1-0.2-1.8c-0.2-0.3-0.4-0.6-0.6-1.1c-0.1-0.3-0.2-0.7-0.4-1.3
				c-0.4-0.9-0.8-1.5-1.2-1.7c-0.5-0.2-1.2-0.5-2.1-1c0.1-0.4,0.2-0.9,0.3-1.6h0.3c0.1,0,0.2,0,0.6,0.1c0.3,0.1,0.5,0.1,0.6,0.1H688
				L691.4,182.1z"/>
		</g>
		<g>
			<path class="st55" d="M674.4,237.2c0.1-0.4,0.2-1,0.4-1.8c0,0,0.6-0.2,1.9-0.6c0.8-0.2,1.3-0.7,1.5-1.5c0.2-0.3,0.4-0.8,0.6-1.5
				c0-0.2,0.3-1.9,0.8-5l0.1-22.4c0.1-0.7,0.2-1.2,0.2-1.2s-0.1-0.3-0.2-0.9l0.1-6.7c0.1-0.9,0.1-2.2,0-3.8
				c-0.2-1.9-0.4-3.4-0.9-4.6c-0.1-0.4-0.5-0.9-1.1-1.3c-1-0.9-2.1-1.3-3.1-1.3c0-0.4,0.1-0.9,0.3-1.7h3.6c0.1,0,0.4,0,1,0.1
				s1,0.1,1,0.1s0.3,0,0.8-0.1s0.8-0.1,0.8-0.1s0.2,0,0.6,0.1c0.3,0.1,0.5,0.1,0.6,0.1s0.2,0,0.4-0.1s0.4-0.1,0.4-0.1l6.4-0.2
				c0.5,0,0.8,0.3,0.8,0.8c0,0.7-0.1,1-0.4,1.1c-0.7,0.2-1.3,0.4-2,0.5c-0.8,0.2-1.3,0.6-1.5,1.2c-0.1,0.3-0.2,0.9-0.4,1.6
				c-0.3,0-0.7-0.1-1.3-0.3c-0.2,1.2-0.3,2-0.3,2.3s0.1,0.8,0.3,1.3c-0.2,0.6-0.2,1.1-0.1,1.5c0.1,0.3,0.3,0.8,0.6,1.5
				c0.3,0.6,0.4,1,0.4,1c0-0.2-0.2,0.7-0.5,2.6c-0.1,0.2,0,0.6,0.2,1c-0.3,0.8-0.5,1.4-0.5,1.7c0,0.1,0.1,1,0.2,2.8
				c0,0.1,0.1,0.4,0.2,0.8c0.1,0.4,0.2,0.6,0.2,0.7c0,0.1-0.1,0.3-0.3,0.6c0.1-0.1,0.1,0.1,0.1,0.5v5.3c0,0.1,0,0.3-0.1,0.8
				c-0.1,0.4-0.1,0.7-0.1,0.8s0,0.2,0.1,0.3c0.1,0.2,0.1,0.3,0.1,0.4c0,0.4,0,1.8-0.1,4.3c0,0.3,0,1.1,0.1,2.4v5.3
				c0,0.3,0.1,0.8,0.4,1.4c-0.1,0.3,0,0.9,0.2,1.8c0,0.4,0.1,1,0.2,1.8c0.2,0.3,0.4,0.6,0.6,1.1c0.1,0.3,0.2,0.7,0.4,1.3
				c0.4,0.9,0.8,1.5,1.2,1.7c0.5,0.2,1.2,0.5,2.1,1c-0.1,0.4-0.2,0.9-0.3,1.6h-0.3c-0.1,0-0.2,0-0.6-0.1c-0.3-0.1-0.5-0.1-0.6-0.1
				h-11.8L674.4,237.2z"/>
		</g>
		<g>
			<path class="st55" d="M750.5,183.4c0.4,2.2,0.2,7-0.7,14.4c-0.3,2.6-1.6,5.7-3.8,9.4c-2.1,3.5-4.3,6.2-6.5,8.1
				c-2,1.6-4.8,2.8-8.4,3.5c-0.9,0.5-2.2,1.1-3.9,1.7c-3.4,0.3-7.7,0.5-12.8,0.5c-0.2,0-0.6,0.3-1,1c0.1,2,0.3,8.2,0.6,18.8
				c0,2,0.4,4.7,1,8.1c0,1,0.2,2.4,0.6,4.2c0.9,1.9,2.3,3.2,4.3,4c1.6,0.6,3.2,1.1,4.8,1.7c0,0.6,0,1.2-0.1,2
				c-1.2,0.6-2.4,0.9-3.7,0.9h-6.6c-0.1,0-0.6-0.1-1.7-0.4c-1-0.3-1.8-0.4-2.3-0.4c-1.3,0-3.3,0.1-6,0.4s-4.1,0.4-4.1,0.4h-6.3
				c-0.6,0-1.4-0.2-2.3-0.7c0-0.1-0.1-0.4-0.2-0.9c-0.1-0.5-0.1-0.8-0.1-1c2.2-0.7,3.5-1.3,4-1.6c1.6-0.9,2.8-2.4,3.8-4.4
				c0.4-0.9,0.7-3.3,0.9-7.1c0-0.6,0.2-2.2,0.5-4.8c0.2-2.4,0.4-4.2,0.4-5.4v-9.6c0-0.7,0-1.8-0.1-3.3c-0.1-1.6-0.1-2.8-0.1-3.5
				c0-2.9,0.5-5.3,1.5-7.3c-0.4-0.3-0.7-1-1.2-2.1c-0.3-2.8-0.5-5.7-0.5-8.7c0-0.2,0.1-0.9,0.4-2c0.2-1.1,0.4-2,0.4-2.7
				c0-0.5-0.1-0.9-0.2-1.3c-0.7-2.2-0.8-5.1-0.3-8.5c0.1-1-0.1-4.1-0.9-9.3c0-1.7-0.4-3.8-1.1-6.5c-0.9-1.4-2.1-2.3-3.6-2.7
				c-1.2-0.3-2.5-0.6-3.7-1c0-2.9-0.1-3.5-0.2-1.8c0-0.8,0.4-1.3,1.2-1.3c1.7-0.1,4.4-0.4,8.2-0.8c3.4-0.4,5.2-0.6,5.4-0.6h8
				c1.5,0,3.1-0.2,4.7-0.5c1.6-0.3,3-0.5,4.1-0.5c1.4,0,3.1,0.2,5.3,0.5c1.3,0.4,3.3,0.9,6,1.5c0.2,0.2,0.6,0.5,1.2,0.7
				c4,0.8,7.6,3.1,10.6,7C748.1,174.5,749.6,178.4,750.5,183.4z M737,192.2c0-1.7-0.1-2.8-0.3-3.4c-2.1-6.8-3.9-11.2-5.3-13.1
				c-2.8-3.7-6.5-5.6-11-5.6c-0.7,0-1.9,0-3.6,0.1c-0.4,0-0.9,0.3-1.8,0.8c-0.7,8.8-1.1,16-1.2,21.4c0.2,0.4,0.4,1,0.6,1.8
				c0,1.7-0.1,3.8-0.4,6.5c-0.2,2.7-0.4,4.8-0.4,6.3c0,2,0.1,4,0.4,6.2c0.1,0.2,0.3,0.4,0.5,0.7h6.2c0.7,0.2,1.5,0.3,2.2,0.3
				c2.5,0,4.9-1,7.2-2.9c2.2-1.9,3.6-3.4,4.1-4.7C736.1,202.4,737,197.6,737,192.2z"/>
		</g>
		<g>
			<path class="st55" d="M360.3,222.2c-0.1,1.5-0.3,3.5-0.5,6.2c-0.3,0.7-0.8,1.8-1.3,3.1c-0.1,0.6-0.3,1.4-0.6,2.4
				c-0.1,0.3-0.5,0.8-1.1,1.6c-0.7,0.9-1.3,1.4-1.8,1.4h-10.8c-0.2,0-1.5,0-3.8-0.1s-3.6-0.1-3.8-0.1h-6.5c-0.2,0-1-0.1-2.6-0.2
				c-1.6-0.2-2.4-0.2-2.6-0.2h-6.4l-0.5-0.6c0.3-0.4,1.5-1.2,3.7-2.5c1.5-0.9,2.2-2.1,2.2-3.4v-13.3c0-2.2,0.3-5.1,1-8.7
				c-0.4-1.1-0.4-2.5-0.2-4.2c-0.5-0.4-0.8-1-0.8-1.8c0-0.1,0.3-1.2,0.8-3.5c0-0.2-0.1-0.6-0.4-1.2c-0.4-0.7-0.6-1.1-0.6-1.1
				c-0.2-0.6-0.3-1.5-0.3-2.8c0-1.7,0-2.7,0-2.9c-0.1-1-0.3-1.7-0.6-2.3c-0.4-0.8-1.1-1.5-2.1-1.9c-0.8-0.4-1.7-0.7-2.5-1.1
				c0.4-0.9,0.8-1.4,1.3-1.5c0.9,0.1,2.1,0.1,3.8,0c1.8-0.4,2.7-0.5,2.6-0.5h7.5c0.1,0,1,0.1,2.6,0.3s2.8,0.3,3.6,0.3
				c0.3,0,3.2-0.2,8.4-0.5c1.2-0.1,4.4,0,9.5,0.3c0.4,0.3,0.7,0.7,0.7,1.1c0,0.3-0.1,0.6-0.3,1.1s-0.3,0.8-0.3,1.1
				c0,0.9-0.3,4-0.9,9.3c-0.1,0.2-0.5,0.4-1.2,0.8c-0.2-0.3-0.7-1.8-1.6-4.5c-0.6-1.8-1.6-2.7-3.1-2.9c-0.6-0.1-1.3-0.3-1.9-0.4
				c-0.9-0.2-1.6-0.2-2-0.1c-1.2,0.3-3.9,0.3-8.1,0c-2.3-0.2-4-0.1-5.2,0.1c-0.3,0.1-0.6,0.4-0.7,1c1,3.3,1.1,6.2,0.2,8.8
				c0.1-0.2,0.1,0.5,0.1,2.1c0,0.4-0.1,1.2-0.2,2.5c-0.1,1-0.2,1.8-0.1,2.5c0,0.3,0.3,0.7,0.8,1.1h15.9c0.5-0.2,1-0.3,1.5-0.5
				c0.8-0.3,1.3-0.7,1.6-1.3c0.3-0.7,0.8-1.7,1.6-3c0.9,0,1.5,0.3,1.7,0.9c-0.1,1.6-0.2,3.7-0.3,6.2c0,1.7-0.2,4.1-0.6,7.3
				c-0.1,0.5-0.7,0.6-1.7,0.5c-0.4-0.7-1-1.6-1.9-2.7c-1.7-1.3-3.3-1.9-4.7-1.9H341c-0.4,0-1.1-0.1-2.2-0.2
				c-1.1-0.1-1.9-0.2-2.4-0.2c-1.5,0-2.4,0.4-2.8,1.3c-0.4,1-0.7,1.7-0.7,2.3c0,0.5,0.1,1.5,0.3,2.9c0.2,1.4,0.3,2.5,0.3,3.3
				c0,0.4-0.2,1.1-0.4,2.2c-0.2,1.1-0.4,1.9-0.4,2.6c0,0.5,0.1,0.9,0.2,1.3c0.2,0.7,1,1.5,2.3,2.4c1.3,1,2.5,1.5,3.4,1.6
				c0.1,0.1,0.3,0.1,0.4,0.2c0.3,0.1,0.5,0.1,0.8,0.1h7c1.6,0,2.9-0.3,4-0.8c1.5-0.7,2.9-1.8,4.3-3.4c1.5-1.7,2.4-3.4,2.5-5
				C358.3,222,359.2,221.9,360.3,222.2z"/>
			<path class="st55" d="M408.8,223.7c-0.6,2.1-1.2,4.2-1.8,6.2c-0.7,2.4-1.8,4.8-3.1,7l-37.5-0.3c-0.4-0.1-1-0.2-1.9-0.4
				s-1.6-0.3-1.9-0.4c0-0.7,0.3-1.3,0.8-1.6c1.1,0,2.3-0.2,3.5-0.8c1.5-0.7,2.5-1.8,2.8-3.3c0.2-0.6,0.2-1.6,0.1-3.1
				c-0.1-1.7-0.1-2.9,0-3.5c0-0.3,0.2-1.5,0.5-3.5c0.2-1.5,0.3-2.7,0.3-3.6c0-10.1-0.2-16.9-0.5-20.4c0.1-0.1,0.3-0.4,0.5-0.7
				c-0.2-2.8-0.6-5.2-1.1-7c-0.3-0.8-1.1-1.6-2.6-2.4c-1.5-0.7-2.5-1-3.2-0.8c0-1.2,0.7-1.7,2.2-1.7c0.4,0,1,0,1.7,0.1
				s1.2,0.1,1.4,0.1h21.2c0.1,0.7-0.6,1.2-2.1,1.6c-1,0.3-2.1,0.5-3.1,0.8c-1.3,0.6-1.9,0.9-2,1c-0.8,0.5-1.3,1.1-1.5,1.7
				c-0.6,2-1,4.6-1.2,7.9c-0.4,5-0.6,7.6-0.6,8c0.6,1.6,0.8,3.1,0.8,4.3c0,0.6-0.1,1.5-0.3,2.6c-0.2,1.1-0.3,2-0.3,2.6v11.5
				c0.4,1.4,1.1,3.3,1.9,5.9c0.2,0.5,0.7,0.8,1.6,0.9c1.1,0.1,2.7,0.4,4.8,0.7c0.4,0.1,0.7,0.1,1.1,0c2-0.3,4.1-0.6,6.1-0.9
				c2.5-0.4,4.4-1.1,5.7-2c0.5-0.4,1.1-1.4,1.8-3c0.7-1.7,1.4-2.9,1.9-3.5c0.4-0.4,1-0.7,1.7-0.7
				C406.9,223.1,407.6,223.3,408.8,223.7z"/>
			<path class="st55" d="M455.5,223.7c-0.6,2.1-1.2,4.2-1.8,6.2c-0.7,2.4-1.8,4.8-3.1,7l-37.5-0.3c-0.4-0.1-1-0.2-1.9-0.4
				s-1.6-0.3-1.9-0.4c0-0.7,0.3-1.3,0.8-1.6c1.1,0,2.3-0.2,3.5-0.8c1.5-0.7,2.5-1.8,2.8-3.3c0.2-0.6,0.2-1.6,0.1-3.1
				c-0.1-1.7-0.1-2.9,0-3.5c0-0.3,0.2-1.5,0.5-3.5c0.2-1.5,0.3-2.7,0.3-3.6c0-10.1-0.2-16.9-0.5-20.4c0.1-0.1,0.3-0.4,0.5-0.7
				c-0.2-2.8-0.6-5.2-1.1-7c-0.3-0.8-1.1-1.6-2.6-2.4c-1.5-0.7-2.5-1-3.2-0.8c0-1.2,0.7-1.7,2.2-1.7c0.4,0,1,0,1.7,0.1
				s1.2,0.1,1.4,0.1h21.2c0.1,0.7-0.6,1.2-2.1,1.6c-1,0.3-2.1,0.5-3.1,0.8c-1.3,0.6-1.9,0.9-2,1c-0.8,0.5-1.3,1.1-1.5,1.7
				c-0.6,2-1,4.6-1.2,7.9c-0.4,5-0.6,7.6-0.6,8c0.6,1.6,0.8,3.1,0.8,4.3c0,0.6-0.1,1.5-0.3,2.6c-0.2,1.1-0.3,2-0.3,2.6v11.5
				c0.4,1.4,1.1,3.3,1.9,5.9c0.2,0.5,0.7,0.8,1.6,0.9c1.1,0.1,2.7,0.4,4.8,0.7c0.4,0.1,0.7,0.1,1.1,0c2-0.3,4.1-0.6,6.1-0.9
				c2.5-0.4,4.4-1.1,5.7-2c0.5-0.4,1.1-1.4,1.8-3c0.7-1.7,1.4-2.9,1.9-3.5c0.4-0.4,1-0.7,1.7-0.7
				C453.6,223.1,454.3,223.3,455.5,223.7z"/>
			<path class="st55" d="M511.5,209.4c0,1.6,0,2.8-0.1,3.7c-0.3,0.6-0.6,1.6-0.9,3c-0.1,1.4-0.4,2.8-0.9,4.3c-0.5,0.6-1.1,1.5-2,2.7
				c-0.2,0.8-0.8,2.1-1.9,3.6c-0.8,0.8-2.1,2.1-3.7,3.8c-0.3,0.1-0.6,0.2-1,0.4c-0.4,0.3-1,0.8-1.9,1.5c-4.6,2.4-9,3.8-13.2,4.2
				h-5.6c0.1,0-0.1-0.1-0.3-0.3c-3-0.1-5.3-0.5-6.8-1.3c-0.4-0.1-0.9-0.2-1.6-0.4c-1.1-0.4-2.8-1.3-5.1-2.4
				c-2.7-1.7-5.2-4.1-7.6-7.3c-1.3-1.7-2.5-4-3.5-6.8c-1-2.6-1.5-4.7-1.6-6.5c-0.2-3-0.1-5.9,0.3-8.8c0.2-0.4,0.4-0.9,0.7-1.6
				c0.2-0.8,0.5-2.1,0.9-3.7c0.6-1,1.4-2.4,2.4-4.3c0.1-0.3,0.2-0.7,0.2-1.1c0.1-0.1,0.4-0.1,0.8,0.1c0.1-0.4,0.1-1,0-1.7
				c0.4-0.1,0.9-0.4,1.6-0.7c0.2-0.6,0.8-1.3,1.6-2.2c1.7-0.9,4.2-2.2,7.6-4c0.9-0.4,2-0.8,3.3-1.1c3.4-0.8,5.8-1.2,7-1.2h3.3
				c2.6,0,4.8,0.2,6.6,0.7c1,0.3,3.2,1.1,6.5,2.4c0.7,0.5,1.8,1.2,3.3,2.1c2.2,1.4,4.2,3.3,6,5.8c1.6,2.2,2.6,4.2,3.1,6.1
				c0.2,0.3,0.5,0.8,0.8,1.4c0.6,1.7,1,4.2,1.1,7.5c0,0.1,0.1,0.4,0.2,0.8C511.4,208.9,511.5,209.2,511.5,209.4z M502.1,210.5
				c-0.3-3.5-0.9-6.8-2.1-9.7c-1.4-3.8-3.1-6.7-5.1-8.9c-2.8-3-5.8-4.8-9-5.4c-3.1-0.5-5.2-0.7-6.4-0.5c-2.3,0.3-4.2,0.8-5.7,1.5
				c-0.2,0.1-1.5,0.8-3.8,2.2c-0.1,0.3-0.4,0.6-0.8,1c-0.2,0.1-0.5,0.1-0.8,0.3c-0.6,0.7-1.3,1.7-2.1,3c-0.1,0.3-0.3,0.8-0.5,1.4
				c-0.4,0.7-0.9,1.5-1.4,2.4c-0.3,1-0.6,2.6-1.2,4.7c0,0.8,0,2,0,3.6c0,0.1-0.1,0.3-0.2,0.5c-0.1,0.3-0.2,0.5-0.1,0.6
				c0.4,1.8,1,4.4,1.7,7.6c-0.1,0.2-0.1,0.5-0.2,0.8c0.2,0.4,0.5,0.9,0.8,1.6c0,0.4,0.1,0.8,0.3,1.4c1.2,2.4,1.8,3.6,1.9,3.6
				c0.8,1.5,2,2.9,3.5,4.2c0,0,0.2,0.6,0.5,1.7c0.1,0,0.6,0.1,1.4,0.3c1.4,1.3,2.4,2.1,3.2,2.6c2.1,1.2,5.9,1.6,11.3,1.1
				c0.4-0.1,1-0.3,1.8-0.5c0.9-0.2,2.3-0.7,4-1.4c0.4-0.4,0.9-0.8,1.6-1.3c2.8-1.7,4.5-3.9,5-6.5c0.3-0.3,0.6-0.8,1-1.4
				c0.1-0.5,0.1-1.2,0.3-1.9c0.2-0.2,0.3-0.4,0.5-0.8c0.1-0.6,0.2-2.1,0.4-4.2C502.1,212.3,502.2,211.2,502.1,210.5z"/>
			<path class="st55" d="M573.2,182.8c0.1,0.5-0.5,0.9-1.6,1.4c-1.5,0.6-2.3,0.9-2.3,0.9c-1.2,0.8-2,2.3-2.5,4.2
				c-0.6,1.2-1.3,3-2,5.6c-0.1,0.8-0.5,2.1-1.3,3.7c-0.8,1.6-1.1,2.6-1.1,3s0,0.9-0.1,1.6c-2,6.1-5,15.2-8.8,27.4
				c-0.4,1.3-0.7,2.6-1.1,3.9c-0.6,1.5-1.3,2.3-2.2,2.3c-0.4,0-0.7-0.1-1.1-0.3c0-0.1,0.1-0.4,0.2-0.9c0.1-0.5,0.2-0.8,0.2-1.1
				c-0.4-0.2-0.7-0.8-1.1-1.7c0-0.3,0-0.8-0.1-1.4c-0.4-0.8-0.9-2.2-1.5-4.1c-0.1-0.6-0.1-1.3-0.2-2c-0.1-1-0.5-1.8-1.1-2.4
				c0-0.2-0.1-0.5-0.2-0.8c0.2-0.4,0.3-0.8,0.3-1.2c0-0.7-0.3-1.5-0.8-2.3c-0.5-0.6-1-1.2-1.5-1.8c0.3-0.4,0.6-0.9,1-1.5
				c-0.4-0.4-0.8-1-1.2-1.7c0-0.4,0-1.2-0.1-2.2c-0.3-0.5-0.7-1.3-1.3-2.4c-0.1-0.3-0.1-0.7,0-1.3c0.1-0.8,0.2-1.4,0.2-1.6
				c-0.8-0.6-1.5-0.3-1.9,0.7c-0.4,1.5-1,3.6-1.9,6.5c-1,2.2-2.1,5.5-3.4,9.9c-0.3,0.8-0.8,2-1.3,3.7c-0.4,2-0.8,3.5-1.1,4.5
				c-0.5,1.8-1.1,3.3-1.8,4.5c-0.7,0.3-1.4,0.3-2.2,0c-0.5-1-0.8-2.3-1.1-3.8c-0.3-1.9-0.6-3.1-0.8-3.7c-0.4-1.1-0.9-2-1.6-2.7
				c0.3-1.7,0.2-3-0.2-3.8c-0.4-0.4-1-1-1.8-1.9c0-0.4-0.1-0.8-0.1-1.4c0-0.1,0-0.3-0.1-0.3c-0.4-0.8-0.9-2-1.5-3.6
				c0.1-0.4,0-0.9-0.1-1.5l0.6-0.6c0.6,0.5,1.6,1.1,2.9,1.7c0.1-0.6-0.2-1.3-0.7-1.9c-0.7-0.8-1-1.4-1.1-1.8c-3-1.5-4.5-3.2-4.5-4.9
				c0-0.4,0.1-0.8,0.3-1.2c-0.4-0.6-0.9-1.5-1.4-2.6c-0.2-1-0.6-2.5-1.1-4.4c-0.4-0.4-0.8-1-1.3-1.9c0.1-0.6,0.1-1.5,0.1-2.7
				c-0.3-0.5-0.8-1.4-1.5-2.6c-0.4-0.8-0.7-1.5-1.1-2.2c-0.5-0.9-1-1.6-1.6-2c-0.5-0.4-1.7-0.7-3.7-1.1c0.1,0-0.1-0.2-0.5-0.6
				c0.1-0.2,0.3-0.5,0.5-0.8c1.1-0.1,3.1,0,5.9,0.3c0.4,0.1,1.1,0,2-0.1c1-0.2,1.6-0.3,1.6-0.3h7.4c0.2,0,0.4-0.1,0.8-0.3
				c0.4-0.2,0.6-0.3,0.8-0.3c0.1,0.2,0.2,0.4,0.2,0.6c0,0.5-0.6,1-1.8,1.6s-1.8,1.4-1.9,2.3c-0.1,1.4,0.4,2.9,1.3,4.6
				c0.1,0.7,0.2,1.9,0.4,3.4c0.3,1,1.3,3.5,3,7.7c0,0.6,0.1,1.4,0.2,2.4c0.1,0.3,0.3,0.6,0.5,1c0,0.8,0.2,1.7,0.8,2.8
				c0.7,1.4,1.1,2.2,1.1,2.5c0.4,1.8,1.2,4.5,2.5,7.9c0.6,0,1-0.3,1.2-0.9c1.1-3.4,1.9-6.5,2.6-9.5c0.2-0.2,0.5-0.6,0.8-1.2
				c0.2-1,0.5-2.5,1.1-4.4c0.8-1.9,1.3-3.3,1.3-4.1c0-0.5-0.1-0.9-0.2-1.4c-0.9-2.6-2.3-6.6-4.1-11.9c-0.4-0.4-1.2-0.9-2.4-1.5
				c-1.1-0.5-1.7-0.9-1.9-1.3c0.6-0.1,1.6-0.3,2.9-0.5c0,0.5,0.1,0.8,0.2,0.9c1,0.2,2.3,0.2,4,0c1.5-0.2,3-0.4,4.5-0.5
				c0.3,0,1.4,0,3.3,0.1c1.4,0.1,2.5-0.1,3.3-0.5c0.1,0.3,0.2,0.6,0.2,0.8c0,0.4-0.4,0.7-1.3,0.9c-1.1,0.3-1.9,0.6-2.4,1.1
				c-0.3,0.3-0.5,0.8-0.5,1.6c0,0.5,0.1,1.3,0.4,2.3c0.4,1.3,0.6,2.2,0.6,2.6c-0.1,0.7-0.1,1.6-0.1,2.9c0.5,0.5,1.1,1.3,1.8,2.4
				c0.1,1,0.4,2.3,0.7,3.9c0.4,1.4,0.7,2.7,1.1,4c0.5,1.7,0.7,2.9,0.5,3.8c0.4,0.4,0.9,0.9,1.3,1.5c0,0.4,0.2,1.7,0.6,4.1
				c0.3,1.9,0.5,3.3,0.5,4.2c0.2,0.2,0.4,0.4,0.6,0.7c0.3-0.2,0.7-0.5,1.2-0.9c0.5-1.2,1.4-3,2.4-5.6c0.3-1.8,0.7-4.3,1.4-7.5
				c0.1-0.2,0.6-0.9,1.6-1.9c0.1-2.2,0.6-4.4,1.7-6.6c0-0.5,0.2-1.2,0.4-2.2c0.3-0.2,0.5-0.6,0.8-1.2c0.2-1,0.6-2.7,1.2-4.9
				c0.6-1.4,0.4-2.5-0.4-3.3c-0.3-0.3-1-0.5-1.9-0.8c-1.1-0.3-1.8-0.5-2.2-0.7c0.5-0.7,1.7-1,3.5-0.8c0,0,0.2,0,0.5,0.1
				s0.5,0.1,0.7,0.1s0.5-0.1,1.1-0.3c0.5-0.2,1.1-0.3,1.6-0.4c0.3,0,0.8,0,1.5,0.2s1.2,0.3,1.5,0.3
				C570.1,183.3,571.6,183.2,573.2,182.8z M521,210.3l-0.8,0.6l-0.2-0.3l0.8-0.6L521,210.3z"/>
			<path class="st55" d="M606.3,222.5c0,0.6-0.3,1.8-1,3.7c-0.7,1.8-1.1,2.9-1.5,3.4c-1.3,1.6-2.7,3-4.2,4.2
				c-0.8,0.6-1.9,1.2-3.2,1.6c-3.4,1.1-6.6,1.6-9.7,1.6c0.1,0-0.5,0-1.6-0.1c-1-0.1-1.8-0.1-2.2-0.1c0.1,0.3,0.1-0.2,0.1-1.5
				c-0.7-0.7-1.6-1-2.8-1c-0.4,0-0.8,0.2-1.2,0.5c0.1,0.1,0.5,0.3,1.3,0.6c-0.2,0.5-0.5,0.8-1,0.8s-1.7-0.2-3.6-0.7
				c-2.4-0.6-4.2-1.3-5.3-2c-0.3-0.2-0.5-1.3-0.8-3.4c-0.2-1.7-0.3-3.7-0.3-6.1c0-2.2,0.1-4,0.3-5.4c0.1,0,0.6,0,1.4-0.2
				c0.2,0.3,0.3,0.8,0.3,1.6c0,1,0,1.5,0,1.5c0.1,0.7,0.4,1.7,0.6,3c0,0.2,0.4,0.8,1.1,1.9c0.4,0.7,1.2,1.6,2.3,2.8
				c0.9,0.7,2.2,1.3,3.8,1.7c0.8,0.3,1.7,0.5,2.5,0.8c1.1,0.3,2,0.5,2.7,0.5c0.3,0.2,0.5,0.3,0.6,0.3s0.3,0,0.5-0.1s0.4-0.1,0.5-0.1
				s0.7,0.1,1.6,0.3c0.9,0.2,1.5,0.3,1.6,0.3s0.4-0.2,0.8-0.5c0.4-0.3,0.8-0.5,1-0.6c0.8-0.2,1.9-0.4,3.5-0.7
				c0.8-0.2,1.4-0.9,1.9-2.3c0.2-0.4,0.5-0.9,0.8-1.6c0-0.2,0-0.5,0.1-0.9c0.1-0.2,0.2-0.5,0.5-1.1c0.3-0.5,0.4-0.8,0.4-1
				c0-1-0.1-1.9-0.4-2.7c-0.1-0.4-0.7-1.4-1.7-3c-0.3-0.2-0.8-0.5-1.4-1c-2.4-2-4.8-3.3-7.1-4.1c-0.6-0.4-1.5-0.9-2.7-1.5
				c-1.4-0.6-3.7-1.9-6.8-3.8c-0.2-0.1-0.5-0.2-1-0.4c-0.8-0.7-1.7-1.6-2.6-2.7c-1.3-1.6-2-2.5-2.1-2.6c0-0.4,0-1-0.1-1.8
				c-0.2-0.3-0.4-0.7-0.7-1.4c0-0.6,0-1.4-0.1-2.4c0.2-0.2,0.3-0.4,0.3-0.6c-0.3-0.7-0.5-1.1-0.5-1.1c0,0.1,0.3-0.6,0.9-2
				c0.1-0.6,0.3-1.5,0.6-2.5c0.1-0.3,0.9-1.1,2.2-2.4c0.6,0.3,0.9,0.5,0.9,0.5c0.1-0.4,0.3-0.8,0.5-1.4c2.6-2.5,5-4,7.1-4.6
				c1.8-0.4,4.2-0.7,7.1-0.7c0.1,0,1.6,0.2,4.3,0.5s4.1,0.5,4.3,0.5c0.1,0,0.7-0.1,1.9-0.2c1.1-0.2,1.8-0.2,1.9-0.2
				c0.8,0,1.2,0.3,1.2,1l-0.6,7v3.7c0,0.1,0,0.5-0.1,1.5c-0.1,0.9-0.1,1.6-0.1,2c0,0-0.1,0.1-0.3,0.2c-0.2,0.1-0.3,0.2-0.4,0.2h-1
				c-0.1-0.9-0.3-2.2-0.5-3.8c-0.9-3.3-2.7-5.5-5.4-6.5c-1.4-0.5-4-0.8-7.6-0.8c-0.7,0-1.8,0.3-3.5,0.8c-1.4,0.5-2.7,1.7-4,3.7
				c-0.5,0.7-0.7,1.5-0.7,2.3c0,1.3,0.4,2.9,1.3,4.8c0.4,0.3,0.9,0.8,1.5,1.4c1.9,1.9,4.8,3.7,8.7,5.3c6.1,2.5,10.3,5.2,12.6,8.2
				c0.9,1.1,1.5,2.4,1.8,3.8C606.1,219,606.3,220.7,606.3,222.5z"/>
			<path class="st55" d="M665.4,183.5c0,0.3-0.2,0.6-0.5,0.8c-1.2,0.3-2.2,0.7-3,1.3c-0.5,0.3-1,1-1.7,1.9c-0.7,1-1,1.7-1,2.2
				c0,2.5,0,3.5,0.1,3c-0.2,0.7-0.5,1.7-0.8,3c0,0.3,0.2,1.8,0.5,4.3c0.1,0.9,0.2,2,0.2,3.4c0,1.7-0.1,3.7-0.3,6.1
				c-0.2,2.4-0.3,3.5-0.3,3.3v6.2c0,6.4,0.7,10.8,2.2,13.2c0.3,0.5,0.9,1,1.9,1.5s1.8,0.8,2.4,0.8c-0.2,0.3-0.5,0.7-0.9,1.3h-19.7
				c0-0.2,0-0.4-0.1-0.8c-0.1-0.4-0.1-0.6-0.1-0.7c0.6-0.3,1.5-0.7,2.7-1.3c0.9-0.4,1.7-1.7,2.4-3.9c0.6-1.9,1-3.4,1-4.4v-6.2
				c0-0.4-0.1-1.6-0.3-3.5c-0.1-1.4-0.1-2.6,0-3.5c0.1-0.6-0.1-1.7-0.7-3.3c-1.4,1-3.5,1.8-6.2,2.3c-1.5,0.3-2.7,0.3-3.8,0.2
				c-1.5-0.3-2.2-0.4-2.3-0.4h-10.6c-0.6,0.4-1.5,1-2.5,2c-0.4,0.7-0.6,1.6-0.4,2.9c0.2,0.5,0.5,1.2,0.8,2.1
				c-0.1-0.4-0.2,0.4-0.3,2.3c0,0.1,0.1,2.4,0.3,6.6c0.2,4.6,1.8,7.2,4.8,7.8c0.1,0,0.7,0.3,1.8,0.7c-1,1-2,1.6-3.3,1.6
				c-0.3,0-0.7,0-1.2-0.1c-0.6-0.1-0.9-0.1-1.1-0.1l-16.6-0.3c0-0.5,0.7-1,1.9-1.5c1.5-0.6,2.6-1.5,3.4-2.7c0.6-0.9,1-2.7,1.2-5.2
				c0.2-2.7,0.3-5,0.1-6.8c-0.1-0.2-0.3-0.5-0.5-0.9c0-2.2,0.1-5.4,0.4-9.7c0-0.1,0.2-0.6,0.5-1.4c0.3-0.6,0.4-1.2,0.3-1.6
				c-0.3-0.5-0.7-1.3-1.2-2.5c0.1,0.3,0.2-0.6,0.3-2.8c0-0.4,0-1.1-0.1-2s-0.2-1.4-0.2-1.5v-6.8c0-0.9-0.6-2-1.9-3.3
				c-1.3-1.3-2.5-2.1-3.8-2.5c0-0.1,0.3-0.5,0.9-1.4c1,0,2.6-0.1,4.7-0.3c2-0.2,3.1-0.3,3.2-0.3h8c0.4,0,0.7,0,1.1-0.1
				c0.4-0.1,0.7-0.1,0.8-0.1c0.6,0,1.5,0.5,3,1.6c-1,0.5-2,1-3,1.5c-1.2,0.6-2.1,1.4-2.7,2.2c-0.9,1.2-1.4,3.6-1.4,7v9
				c0,0.2,0,0.4,0.1,0.5c0.1,0.2,0.1,0.4,0.1,0.5c1.3,0.6,2.4,0.9,3.4,0.9h16.8c0.6,0.1,1.5,0.3,2.6,0.5c0,0,0.4,0.2,1.1,0.5
				c0.6,0.3,1,0.4,1.3,0.4c0.2,0,0.4,0,0.5-0.1c0.9-1.1,1.4-2.4,1.4-3.9c0-0.8-0.2-1.9-0.5-3.3c-0.3-1.4-0.5-2.4-0.4-3
				c0-0.4-0.1-1.3-0.3-2.7c-0.2-1.5-0.3-2.6-0.3-3.3c-0.1-2.7-2.2-5.2-6.2-7.3c0.5-0.6,0.9-0.8,1.2-0.8h6.3c-0.4,0,0.8,0,3.5-0.1
				c2.4-0.1,4.2-0.1,5.4,0C661.1,182.9,663,183.2,665.4,183.5z"/>
		</g>
		<g>
			<path class="st55" d="M569.7,332.1c0,0.4,0,0.8-0.1,1.3s-0.3,0.9-0.8,1c-0.4,0.2-1.3,0.3-2.7,0.5c-0.5,0.1-1.4,0.3-2.9,0.8
				c-1.3,0.4-2.3,0.6-3,0.6c-0.2,0-0.5,0-0.7-0.1s-0.5-0.3-1-0.6c-0.6-0.4-0.8-0.8-0.7-1.1c-0.4-0.2-1.1-0.2-2.2,0.2
				c0.7,0.4,1.6,0.9,2.7,1.6c-2.6,0.1-4.4-0.1-5.3-0.8c0.1-0.3,0.2-0.8,0.4-1.5c0,0-0.1-0.1-0.3-0.2c0.2,0-1.3-0.2-4.4-0.5
				c0,0-0.1,0.1-0.4,0.3c0.3,0.1,0.7,0.3,1.2,0.6c-1.6,0.1-2.6,0-3-0.3c-0.4-0.6-0.8-1.1-1.3-1.6c-0.8-0.9-1.5-1.3-2.2-1.2
				c-0.8-1.1-2.7-3.1-5.7-6.1c-2.6-2.5-4-4.1-4.1-4.6c-0.4-0.2-0.8-0.6-1.3-1.1c-0.5-0.7-1.2-1.7-1.9-3.1c-0.1-0.4-0.4-0.5-0.8-0.6
				c-0.5-1.5-1.6-2.9-3.3-4.1c0.2-0.4,0.2-0.8,0-1.1c-0.9-1-1.8-2.1-2.7-3.1c-1.2-1.4-1.8-2.6-1.8-3.6c0-0.2,0-0.4,0.1-0.5
				s0.5-0.1,1.2,0.1c0.2,0.1,0.4,0.3,0.8,0.6c0.8-0.1,1.4-0.4,1.8-0.8c0.6,0.6,1.5,1.4,2.5,2.6c0.5-0.1,0.8-0.4,0.8-0.9
				c0-0.9-0.5-1.4-1.5-1.3c0.1-0.1,0.1-0.2,0.2-0.4c0.1-0.2,0.2-0.3,0.2-0.3c0.2,0.2,0.6,0.4,1.1,0.7c0.3,0,0.5-0.1,0.6-0.3
				c0.1-0.4,0.1-0.9,0-1.6c-0.8-0.7-1.8-1.1-2.9-1.1c-0.6,0-1.6,0.2-2.8,0.4c-1.2,0.3-2.1,0.4-2.6,0.4c-0.7,0-1.2-0.1-1.7-0.4
				c-1.2-0.7-2-1.9-2.4-3.7c-0.2-0.1-0.4-0.3-0.7-0.6c0-0.1,0.1-0.3,0.1-0.4c0-0.6-0.3-1.1-0.9-1.5c-0.6-0.4-1.2-0.6-1.7-0.6
				c-2,0-4.7,0-8.1,0c-4,0-6.7,0-8.1,0c-0.3,0-0.5,0.2-0.5,0.5c-0.1,2-0.1,3.2,0,3.5v6.8c0.1,3.9,0.2,6.4,0.2,7.4
				c0,0.1-0.1,0.4-0.2,0.8c-0.2,0.4-0.2,0.8-0.1,1c0.3,0.5,0.7,1.2,1.1,2.2c0.4,2.6,0.5,4.2,0.4,4.9c-0.5,0.4-1.3,0.9-2.4,1.7
				c0,0.2,0.1,0.4,0.2,0.4c2,0,5.1,0.4,9.4,1.2c0.4,0.1,0.9,0.3,1.6,0.5c0.1,0.3,0,1-0.2,2.2c-0.6,0.4-1.1,0.6-1.5,0.6
				c-1.1,0-3.9-0.3-8.4-1l-11.4-0.2c-0.7,0.2-1.9,0.4-3.5,0.6c-2.5,0.1-5.5,0.2-8.9,0.2c0-0.6,0-1.5,0.1-2.6c1.1-0.5,2.8-1,4.9-1.5
				c1.1-0.3,2.3-1.2,3.6-2.8c1.3-1.6,1.9-2.9,2-3.9c0.5-4.9,0.7-7.5,0.7-8v-37.8c0-0.1-0.1-0.6-0.2-1.3c-0.1-0.7-0.2-1.2-0.2-1.4
				c0-0.5,0-1.5,0.2-3.2s0.3-3,0.3-4c0-0.4-0.1-1.2-0.2-2.4c-0.2-1.3-0.3-2.3-0.3-2.9c-0.1-1-0.3-2.5-0.6-4.5
				c-0.2-0.5-0.6-1.2-1-2.3c-0.3-1.2-1.7-2.2-4.2-2.8c-0.3-0.1-0.9-0.4-1.6-0.7c-0.6,0-1.5,0-2.7-0.1c-0.8-0.6-1-1.4-0.4-2.5
				c1-0.2,2.5-0.5,4.5-0.8c5.7-0.5,9-0.7,9.8-0.7h7.5c0.1,0,1.1-0.1,3-0.3c1.8-0.2,2.9-0.3,3-0.3h4.2c0.2,0,0.7,0.1,1.7,0.2
				c1.1,0.1,1.8,0.2,2.3,0.2c0.7-0.1,1.6-0.3,2.9-0.4c3.6,0.5,7.7,1.2,12.3,2.3c1.7,0.4,5.1,2.6,10.2,6.7c0.2,0.3,0.2,0.7,0,1.2
				c-0.6,0.6-1.8,1.4-3.6,2.3s-3,1.7-3.7,2.4c0.1,0.4,0.5,0.7,1.2,0.8c0.6,0.1,1.2,0,1.7-0.2c0.1-0.2,0.3-0.4,0.6-0.7
				c1-0.2,1.7-0.3,2.1-0.3c0.2,0.6,0.6,1.2,1.2,1.8c0.6-0.2,0.8-0.5,0.8-1.1c0-0.5-0.3-1-0.8-1.5c0.5-0.1,1-0.1,1.5,0
				c0.7,0.2,1.4,0.3,1.9,0.3c0.4,1.8,0.7,3.7,1.1,5.5c0.5,2.5,0.7,4.5,0.7,6.2c0,1.4-0.2,2.7-0.5,3.8c-0.5,1.9-1.5,4.7-3.1,8.4
				c-0.9,1.6-2.6,3.9-5.2,7c-0.1,0.1-1.7,1.4-4.9,3.8c1,1.9,2.4,3.9,4.2,6.2c1.4,1.8,2.5,3.4,3.3,4.8c0.8,1.6,1.5,2.7,1.9,3.3
				c0.1,0.2,0.2,0.6,0.4,0.9c2,2.4,4.8,6,8.5,10.7c0.1,0.2,0.1,0.4,0,0.6c1.5,1.1,3.3,2.7,5.5,4.8c1,1,2.3,2.5,4.1,4.5
				c-1.1,0.1-1.7,0.6-1.7,1.6c0,0.9,0.4,1.5,1.3,1.8c0.2-1.3,0.7-1.9,1.6-1.9c0.1,0,0.3,0,0.4,0.1c0.1,0,1,0.4,2.6,1.2
				c2.4,1.2,4.7,2.3,7.1,3.5C566.6,331.9,568,332.1,569.7,332.1z M527.4,269.5c-0.9-0.3-1.4-0.8-1.4-1.4v-5.6c0-0.2-0.1-0.4-0.2-0.7
				c-0.1-0.3-0.2-0.4-0.2-0.6c-0.2-2.2-1.3-4.8-3.4-7.6c-2.3-3.1-4.6-4.9-7-5.4c-0.4-0.2-0.8-0.4-1.4-0.7c-3.6-0.7-5.6-1.1-6-1.1
				h-4.6c-1.8,0-3.4,0.2-4.8,0.7c-0.1,0.1-0.5,0.5-1.2,1.3c0.3,2.1,0.4,3.2,0.4,3.5c0,0-0.1,0.1-0.2,0.3s-0.2,0.4-0.2,0.5v7.3
				c0,0.2-0.1,0.5-0.3,0.9c-0.2,0.4-0.3,0.8-0.3,1c0.2,0.8,0.4,1.7,0.6,2.5c0.2,0.9,0.2,1.7,0,2.4c-0.5,1.6-0.5,3.8-0.1,6.6
				c0-0.6-0.1,0.3-0.1,2.5v7.5c0,0.5-0.1,1-0.2,1.7c-0.1,0.5-0.1,0.9-0.1,1.2c0.1,0.5,0.3,1.1,0.7,1.8c0.8,0.2,2.1,0.5,3.7,0.9
				l10.3,0.2c1.1-0.5,2.7-1.1,4.9-1.9c0.8-0.2,1.9-0.7,3.3-1.4c2.1-1.9,3.5-3.7,4.4-5.3c0.7-1.3,1.3-3.1,1.7-5.4
				c0-0.7,0.2-1.7,0.4-3.1c0.1-0.5,0.2-1.2,0.4-2.1C526.6,269.6,526.9,269.4,527.4,269.5z M524.2,302.1c-0.4,0.5-0.8,0.7-1.2,0.6
				c0.1-0.4,0.3-0.7,0.7-0.8C523.8,301.9,524,302,524.2,302.1z"/>
		</g>
		<g>
			<path class="st55" d="M566.3,252.9c-0.1,0.5-0.4,1.3-0.7,2.2l-3.2,0.7c-1.3,0.3-2.2,0.9-2.5,1.8c-0.3,0.4-0.6,1-1.1,1.8
				c-0.1,0.2-0.5,2.3-1.4,6.1l-0.2,22.1c-0.2,0.9-0.4,1.4-0.4,1.5l0.4,1.1v8.2c-0.2,1.1-0.2,2.7,0,4.6c0.2,2.3,0.7,4.1,1.5,5.6
				c0.2,0.5,0.8,1,1.8,1.6c1.8,1.1,3.6,1.6,5.4,1.5c0,0.5-0.2,1.1-0.6,2h-6.1c-0.1,0-0.7,0-1.8-0.1s-1.7-0.1-1.8-0.1s-0.6,0-1.4,0.1
				c-0.8,0.1-1.3,0.1-1.4,0.1c-0.1,0-0.4,0-1-0.1s-0.9-0.1-1-0.1s-0.3,0-0.7,0.1s-0.6,0.1-0.7,0.1l-11,0.3c-0.9,0-1.4-0.4-1.4-1.1
				c0-0.8,0.2-1.3,0.7-1.4c1.1-0.2,2.2-0.4,3.4-0.6c1.3-0.3,2.1-0.8,2.5-1.4c0.1-0.4,0.4-1.1,0.6-1.9c0.5,0,1.2,0.1,2.3,0.3
				c0.4-1.4,0.5-2.4,0.5-2.8s-0.2-0.9-0.5-1.6c0.3-0.7,0.3-1.3,0.2-1.8c-0.1-0.4-0.5-0.9-1-1.8c-0.5-0.7-0.7-1.2-0.7-1.3
				c0,0.2,0.3-0.8,0.9-3.2c0.1-0.3-0.1-0.7-0.4-1.2c0.6-1,0.9-1.6,0.9-2c0-0.1-0.1-1.2-0.3-3.4c0-0.2-0.1-0.5-0.4-1
				c-0.2-0.5-0.4-0.8-0.4-0.9s0.2-0.4,0.5-0.7c-0.1,0.1-0.2-0.1-0.2-0.6v-6.4c0-0.1,0.1-0.4,0.2-0.9c0.2-0.5,0.2-0.8,0.2-0.9
				s-0.1-0.2-0.2-0.4c-0.1-0.2-0.2-0.3-0.2-0.4c0,0.1,0.1-0.6,0.2-2.4c0-0.4-0.1-1.3-0.2-2.9V267c0-0.4-0.2-0.9-0.7-1.7
				c0.1-0.4,0-1.1-0.3-2.2c0-0.5-0.2-1.2-0.4-2.2c-0.3-0.3-0.6-0.8-1.1-1.4c-0.1-0.4-0.4-0.9-0.7-1.6c-0.7-1.1-1.4-1.8-2-2.1
				c-0.8-0.2-2-0.6-3.7-1.2c0.1-0.5,0.3-1.1,0.6-1.9h0.5c0.1,0,0.4,0,1,0.1c0.5,0.1,0.9,0.1,1,0.1L566.3,252.9z"/>
		</g>
		<g>
			<path class="st55" d="M539,313.2c0.1-0.5,0.4-1.3,0.7-2.2l3.2-0.7c1.3-0.3,2.2-0.9,2.5-1.8c0.3-0.4,0.6-1,1.1-1.8
				c0.1-0.2,0.5-2.3,1.4-6.1l0.2-22.1c0.2-0.9,0.4-1.4,0.4-1.5l-0.4-1.1v-8.2c0.2-1.1,0.2-2.7,0-4.6c-0.2-2.3-0.7-4.1-1.5-5.6
				c-0.2-0.5-0.8-1-1.8-1.6c-1.8-1.1-3.6-1.6-5.4-1.5c0-0.5,0.2-1.1,0.6-2h6.1c0.1,0,0.7,0,1.8,0.1s1.7,0.1,1.8,0.1s0.6,0,1.4-0.1
				c0.8-0.1,1.3-0.1,1.4-0.1c0.1,0,0.4,0,1,0.1s0.9,0.1,1,0.1s0.3,0,0.7-0.1s0.6-0.1,0.7-0.1l11-0.3c0.9,0,1.4,0.4,1.4,1.1
				c0,0.8-0.2,1.3-0.7,1.4c-1.1,0.2-2.2,0.4-3.4,0.6c-1.3,0.3-2.1,0.8-2.5,1.4c-0.1,0.4-0.4,1.1-0.6,1.9c-0.5,0-1.2-0.1-2.3-0.3
				c-0.4,1.4-0.5,2.4-0.5,2.8s0.2,0.9,0.5,1.6c-0.3,0.7-0.3,1.3-0.2,1.8c0.1,0.4,0.5,0.9,1,1.8c0.5,0.7,0.7,1.2,0.7,1.3
				c0-0.2-0.3,0.8-0.9,3.2c-0.1,0.3,0.1,0.7,0.4,1.2c-0.6,1-0.9,1.6-0.9,2c0,0.1,0.1,1.2,0.3,3.4c0,0.2,0.1,0.5,0.4,1
				c0.2,0.5,0.4,0.8,0.4,0.9s-0.2,0.4-0.5,0.7c0.1-0.1,0.2,0.1,0.2,0.6v6.4c0,0.1-0.1,0.4-0.2,0.9c-0.2,0.5-0.2,0.8-0.2,0.9
				s0.1,0.2,0.2,0.4c0.1,0.2,0.2,0.3,0.2,0.4c0-0.1-0.1,0.6-0.2,2.4c0,0.4,0.1,1.3,0.2,2.9v4.2c0,0.4,0.2,0.9,0.7,1.7
				c-0.1,0.4,0,1.1,0.3,2.2c0,0.5,0.2,1.2,0.4,2.2c0.3,0.3,0.6,0.8,1.1,1.4c0.1,0.4,0.4,0.9,0.7,1.6c0.7,1.1,1.4,1.8,2,2.1
				c0.8,0.2,2,0.6,3.7,1.2c-0.1,0.5-0.3,1.1-0.6,1.9h-0.5c-0.1,0-0.4,0-1-0.1c-0.5-0.1-0.9-0.1-1-0.1L539,313.2z"/>
		</g>
		<g>
			<path class="st55" d="M628.2,254.7c-0.6,0.1-1.5,0.2-2.6,0.5c-1.2,0.3-2.1,1.1-2.8,2.3c-1,1.7-1.6,3.4-1.8,5.1
				c-0.4,2.9-0.6,5.2-0.6,7c0,0.1,0.1,1.5,0.2,4.1c0.1,2.6,0.2,3.9,0.2,4.1v7.5c0,0.1,0.1,0.4,0.2,0.9c0.1,0.5,0.1,0.9,0.1,1.2
				c-0.2,3.8-0.3,5.9-0.3,6.4c0,0.3,0.1,0.8,0.2,1.5c0.1,0.8,0.2,1.2,0.2,1.3V311c0,0.2,0,0.3,0.1,0.3c0,0,0.1,0,0.1,0.1
				c-2.2,0.4-3.2,0.6-3,0.6c-1.3,0-2.1-0.1-2.4-0.4c-2.2-2-5.3-5.5-9.6-10.5c-0.8-1-1.9-2.4-3.4-4.3c-1.3-1.3-3.1-3.2-5.3-5.6
				c-0.6-0.9-1.5-2.3-2.8-4.2c-2.8-3.4-6.8-8.4-12-15.1c-0.7-0.5-1.6-1.4-2.8-2.5c0-0.2-0.1-0.5-0.3-0.9c-0.4-0.6-1-1.5-1.9-2.7
				c-0.7,0.3-1,0.8-1,1.5c0,0,0.2,1.6,0.7,4.8c0,0.2,0,0.5-0.1,0.9s-0.1,0.6-0.1,0.8c0,1.3,0.1,3.2,0.2,5.8c0.1,2.6,0.2,3.9,0.2,3.8
				v6.6c0,0.2,0,1.8,0.1,4.8c0,3,0.1,4.6,0.1,4.7c0,6.5,2.3,10,7,10.3c0.1,0,0.2,0.1,0.4,0.4c0.1,0.3,0.2,0.4,0.3,0.5
				c0,0.6,0,1-0.2,1.4h-16.4c-0.1,0-0.7,0.1-1.7,0.2c-1,0.2-1.6,0.2-1.8,0.2h-0.8c-0.3-0.3-0.4-0.5-0.4-0.5c0-1.1,0.3-1.8,1-2.2
				c0.8-0.3,2-0.7,3.6-1.4c1.5-0.8,2.5-2.2,2.8-4c0.8-4.5,1-7.3,0.5-8.3c-0.2-0.4-0.3-0.8-0.1-1.1l0.4-0.5l-0.3-0.4
				c0-0.3,0-0.9,0-1.8c0.1-0.9,0.1-1.5,0.1-1.9s-0.1-1.2-0.3-2.3c-0.2-1.1-0.3-1.8-0.3-2.3c0,0.5,0.1-0.5,0.2-2.9
				c0-0.1-0.2-0.4-0.4-0.9l0.2-0.2c0.1-0.2,0.2-0.5,0.2-1c0.1-0.1,0.1-0.2,0-0.3c-0.4-3.5-0.7-5.9-0.7-7.1v-6.5
				c-0.2-3.7-0.3-5.9-0.3-6.8c0-0.1,0.1-0.3,0.2-0.6c0.1-0.3,0.1-0.6,0.1-0.8c-2.4-2.5-5.4-3.6-9-3.4l-0.2-0.2v-1.5
				c0.3-0.4,1.2-0.6,2.5-0.6c0.2,0,1.4,0.1,3.8,0.2c2.4,0.1,3.6,0.2,3.8,0.2c0.1,0,1.3-0.1,3.5-0.2c2.2-0.1,3.4-0.2,3.5-0.2
				c0.8,0,1.2,0,1.3,0.1c0.4,0.2,1.3,1.2,2.7,3c2.6,3.7,6.5,9.1,11.7,16.3c1.1,1.3,2.7,3.3,4.8,6c-0.4,2.8,0,4.1,1.2,4.1
				c0.1,0,0.4-0.1,0.8-0.3s0.6-0.3,0.8-0.3c0.4,0,1,0.6,1.6,1.7c0.3,0.6,0.7,1.2,1,1.7c2.3,1.8,3.7,3.3,4.3,4.2
				c0.1,0.5,0.3,1.3,0.7,2.3c0.3,0.3,0.5,0.5,0.6,0.5c0.2,0,0.3-0.1,0.5-0.2s0.3-0.2,0.3-0.2c0.8,0.9,2,2.2,3.4,4
				c0.5-0.3,0.8-0.5,0.8-0.7s-0.1-0.4-0.2-0.8c-0.1-0.4-0.2-0.6-0.2-0.8v-5c0-0.2,0-0.4-0.1-0.7c0-0.3-0.1-0.7-0.1-1.1
				c0.1-0.6,0.2-1.4,0.3-2.5c-0.2-0.9-0.4-2.2-0.6-4c-0.1-0.3,0-0.7,0.1-1.4c0.1-0.7,0.2-1.1,0.2-1.2s0-0.4-0.1-0.8
				s-0.1-0.7-0.1-0.8c-0.1-0.6-0.1-1.3,0-2.3c0.1-1.2,0.1-2,0.1-2.4c0-0.2-0.1-0.4-0.2-0.8s-0.2-0.7-0.3-0.8l0.2-1.3
				c0-0.3,0-0.7-0.2-1.5c-0.1-0.7-0.2-1.3-0.2-1.6c0-0.1,0.1-0.4,0.2-0.8c0.1-0.4,0.2-0.8,0.1-0.9c-0.2-1.3-0.5-3.2-1-5.6
				c-0.4-1.6-2.2-2.7-5.3-3.2c0.1-0.5,0-1.1-0.2-1.7c0.3-0.3,1.5-0.4,3.3-0.4l8.5,0.3c-0.2,0,1.2-0.1,4.2-0.2c1.8-0.1,3.2,0,4.2,0.3
				v1.5H628.2z M610.8,290.5l-0.4,0.5l-0.3-0.3l0.2-1C610.9,290.3,611.1,290.5,610.8,290.5z"/>
		</g>
		<g>
			<path class="st55" d="M684.9,252.4c0.1,0.3,0.1,0.6,0.1,1c0,0.8-0.2,2.3-0.5,4.3c-0.4,2-0.5,3.6-0.5,4.6c0,0.5,0,1,0.1,1.4
				c-0.2,0.7-0.4,1.6-0.5,2.8c0.3,1.5,0.5,2.1,0.5,1.7c-0.1,0.2-0.3,0.5-0.5,0.8c0,0.4,0.1,1.4,0.3,3.2c-0.9,0.9-1.8,1.3-2.5,1.3
				c-0.3,0-0.6-0.2-1-0.7c0.3-2.2,0.4-3.6,0.3-4.1c-0.1-0.6-0.3-1.4-0.7-2.5c-0.7-1.6-2.1-3.4-4.1-5.4c-0.8-0.7-2.6-1.7-5.5-3
				c-0.3-0.1-1.5-0.4-3.6-0.8c-1.3-0.2-3.3-0.3-5.9-0.3c-7.4,0-13.1,2-17.3,5.9c-0.5,0.3-1.3,0.8-2.2,1.7c-3.2,4.5-5.1,8.8-5.5,13.1
				c-0.2,1.8-0.3,4.7-0.3,8.8v3.7c0-0.2,0.3,0.8,0.8,3c0,1.2,0.2,2.7,0.6,4.7c0.2,0.2,0.6,0.7,1.1,1.7c0,0.5,0.2,1.1,0.4,1.9
				c0.5,0.7,1.3,1.8,2.4,3.2c0.1,0.4,0.4,1.1,0.8,1.9c1.7,3,4.3,5.6,7.8,7.6c1.6,0.9,3.1,1.5,4.6,1.9c7.3,1.7,12,2.6,14.1,2.6
				c1,0,1.9-0.1,2.8-0.3c0.4-0.1,1.1-0.3,2-0.7l0.3-2.2c0-0.5-0.2-0.9-0.7-1.1c-0.7-0.2-1.1-0.5-1.3-0.9c-0.4-0.6-0.4-1.7-0.1-3.5
				V301c-0.2-2.2-0.5-3.8-0.9-5.1c-0.2-0.2-0.5-0.5-0.9-1.1c-0.6-2-2-3.2-4.1-3.8c-0.9-0.2-2.7-0.4-5.5-0.4
				c-0.1-0.1-0.3-0.2-0.5-0.4v-1.5c0.9-0.3,2.5-0.4,4.6-0.4c0.1,0,1.5,0.1,3.9,0.3c2.5,0.2,3.8,0.3,3.9,0.3c0.2,0,0.5-0.1,0.9-0.3
				c0.4-0.2,0.8-0.3,1-0.3c2.3-0.2,3.5-0.3,3.8-0.3c5.2,0,7.5,0,6.7,0.1v2.4c0,0.1-0.2,0.5-0.5,1.2c-0.4,0.8-0.7,1.3-0.7,1.6
				c-0.6,2.6-1,5.2-1.1,7.8c-0.1,3.3-0.2,5.6-0.2,6.9c0,2.6,0.3,6.1,0.8,10.6c-1.7,0.9-6.2,2.1-13.4,3.6c-0.6,0-1.5,0-2.7,0.1
				c-1.7,0.4-2.8,0.6-3.5,0.6c-0.2,0-0.5-0.1-0.8-0.2c-0.4-0.1-0.6-0.2-0.8-0.2c-3.8-0.2-7-0.5-9.5-0.9c-1-0.4-2.4-0.8-4.3-1.4
				c-3.8-0.7-7.9-3.1-12.4-7.1c-4.7-4.2-7.6-8.2-8.7-12.1c-0.3-0.9-0.8-2.1-1.3-3.8c-0.3-0.6-0.7-1.4-1.2-2.5
				c-0.4-1.8-0.7-3.4-0.7-4.6c0,0.1,0.1-0.6,0.3-2.1c0.2-1.3,0.2-2.2,0.1-2.7c-0.1-0.6-0.2-1.2-0.2-1.9c0-1.3,0.3-3.1,0.9-5.4
				c0.7-2.9,1.2-4.8,1.3-5.9c3.6-6.6,5.9-9.9,6.6-9.9c0.1,0,0.3,0.1,0.3,0.2c0.1,0.1,0.2,0.2,0.4,0.2c0.6,0,1.1-0.1,1.5-0.4
				c0.1-0.4,0.4-1.1,0.9-1.8c3.5-3.8,5.6-5.7,6.3-5.7c0.2,0,0.3,0,0.4,0.1c0.1,0.1,0.2,0.1,0.3,0.1s0.5-0.3,1.2-0.8s1.1-0.8,1.3-0.8
				c0.1,0,0.4,0.1,0.6,0.2c0.3,0.1,0.5,0.2,0.6,0.2c0.2,0,1.8-0.4,5-1.2c3.1-0.8,4.8-1.2,5-1.2H670c0.2,0,1.9,0.2,5.1,0.5
				c3.2,0.4,4.9,0.5,5.1,0.5c0.1,0,0.7,0,2,0S684.4,252.4,684.9,252.4z"/>
		</g>
		<path class="st56" d="M458.8,420.1c30.7-22.1,70.2-20.1,89.7,4.2c0.2-10.6-2.6-20.7-8.7-29.2c-18.8-26.1-62-27.2-96.4-2.4
			c-34.4,24.8-47.1,66.1-28.2,92.3c4,5.6,9.1,10,15,13.3C419.8,472.8,431.2,440,458.8,420.1z"/>
		<path class="st55" d="M539.7,395.1c-18.8-26.1-62-27.2-96.4-2.4c-34.4,24.8-47.1,66.1-28.2,92.3c18.8,26.1,62,27.2,96.4,2.4
			C545.9,462.5,558.5,421.2,539.7,395.1z M487.8,454.4c-28.9,20.9-62.3,24.1-74.5,7.2s1.4-47.6,30.3-68.4
			c28.9-20.9,62.3-24.1,74.5-7.2S516.7,433.5,487.8,454.4z"/>
		<rect class="st57" width="960" height="566"/>
	</g>
	<path class="st58" d="M449.5,135.8c0,0,6.9-25.7-19.9-36.2C429.5,99.5,421.9,125.2,449.5,135.8z"/>
	<path class="st58" d="M464.6,148.1c0,0,21.7-15.5,7.6-40.6C472.2,107.5,450.1,122.6,464.6,148.1z"/>
	<path class="st58" d="M408.5,157.6c0,0,21.5,21.6,47.3,1.1C455.8,158.6,434.7,136.3,408.5,157.6z"/>
	<path class="st58" d="M395.6,120.6c0,0,6.8,21.3,30.5,16.6C426.2,137.2,419.9,115.5,395.6,120.6z"/>
	<path class="st58" d="M549,250.8c0,0,7.6,23.9,34.3,18.5C583.3,269.5,576.2,245.1,549,250.8z"/>
	<path class="st58" d="M570.7,237.9c0,0,22.2,11.8,37.6-10.5C608.1,227.3,586.2,214.8,570.7,237.9z"/>
	<path class="st58" d="M565.6,195.8c0,0,18.9,16.5,38.9-1.8C604.5,194,585.8,176.9,565.6,195.8z"/>
	<path class="st58" d="M330.7,223.4c0,0,18.9,16.5,38.9-1.8C369.6,221.5,350.9,204.4,330.7,223.4z"/>
	<path class="st58" d="M378.6,224c0,0,17.5,19,40,2.8C418.4,226.7,401.5,207,378.6,224z"/>
	<path class="st58" d="M414.9,177.3c0,0-10.5,23.6,13.5,37.7C428.4,215.2,439.5,191.6,414.9,177.3z"/>
	<path class="st58" d="M487.9,176.7c0,0,17.6-17.3,1.1-38.3C489,138.4,470.8,155.4,487.9,176.7z"/>
	<path class="st58" d="M520.1,144.1c0,0,0.7-24.7-25.7-28.5C494.4,115.7,493.1,140.5,520.1,144.1z"/>
	<path class="st58" d="M551.8,114.1c0,0-24.6,2.2-25.3,28.8C526.4,142.8,551.3,141.3,551.8,114.1z"/>
	<path class="st58" d="M566.2,208.3c0,0-24.6,2.2-25.3,28.8C541,237.1,565.8,235.6,566.2,208.3z"/>
	<path class="st58" d="M380.6,233c0,0-24.6,2.2-25.3,28.8C355.3,261.7,380.1,260.2,380.6,233z"/>
	<path class="st59" d="M524.9,303.3c0,0-7.5,9-14.3,2.2c0,0-21.9-22.7,0-31.1c0,0,1.9-3-4.4-4c0,0,1.5-4.4,3.6-5.1
		c0,0,1.2,2.9,6.3,8.2c0,0,4.1,2.2,8.7-1.2c0,0,8.7-5.8,12.4,6.5c0,0,7.8,25.1-5.8,25.3L524.9,303.3z"/>
	<path class="st59" d="M524.5,255.6c0,0-9.7,7.5-5.7,15.8C518.8,271.3,528.9,271,524.5,255.6z"/>
	<path class="st59" d="M396.4,285c0,0-11.2,3.4-13.1-5.9c0,0-6.1-31,17-26.2c0,0,3.3-1.5-1.5-5.8c0,0,3.6-2.9,5.8-2.3
		c0,0-0.6,3.2,0.8,10.3c0,0,2.3,4,8,3.8c0,0,10.4-0.1,6.8,12.1c0,0-7.2,25.3-18.7,18.2L396.4,285z"/>
	<path class="st59" d="M422.1,244.9c0,0-12.2,1.1-13.3,10.1C408.7,254.9,417.3,260.1,422.1,244.9z"/>
	<path class="st59" d="M374.1,204.6c0,0-12.2,3.8-14.4-6.5c0,0-6.7-34.2,18.7-28.7c0,0,3.6-1.6-1.6-6.3c0,0,4-3.2,6.4-2.5
		c0,0-0.6,3.4,0.8,11.4c0,0,2.5,4.5,8.7,4.1c0,0,11.5-0.1,7.5,13.5c0,0-7.9,27.9-20.5,20L374.1,204.6z"/>
	<path class="st59" d="M402.2,160.5c0,0-13.5,1.2-14.7,11C387.5,171.6,397,177.3,402.2,160.5z"/>
	<path class="st59" d="M461.9,237c0,0-9.8,6.9-14.8-1.7c0,0-15.8-28.5,8.4-31c0,0,2.8-2.4-3.3-5.2c0,0,2.7-4,5-4.1
		c0,0,0.5,3.2,4,9.8c0,0,3.5,3.3,9,1.1c0,0,10.2-3.4,10.5,9.8c0,0,1,27.1-12.6,23.8L461.9,237z"/>
	<path class="st59" d="M474.4,189.5c0,0-11.6,5-9.9,14.1C464.5,203.6,474.6,205.9,474.4,189.5z"/>
	<path class="st59" d="M549,189.1c0,0-9.8,6.9-14.8-1.7c0,0-15.8-28.5,8.4-31c0,0,2.8-2.4-3.3-5.2c0,0,2.7-4,5-4.1
		c0,0,0.5,3.2,4,9.8c0,0,3.5,3.3,9,1.1c0,0,10.2-3.4,10.5,9.8c0,0,1,27.1-12.6,23.8L549,189.1z"/>
	<path class="st59" d="M561.3,141.6c0,0-11.6,5-9.9,14.1C551.5,155.8,561.6,158.2,561.3,141.6z"/>
	<polygon class="st60" points="450.2,453.4 477.7,453.4 474.4,284.1 496,250.2 541,247.8 539.4,244.7 500.9,241 514.3,222.3 
		551.8,203.8 548.1,198.8 517.1,212.6 517.1,148.1 512.6,148.7 512,174.6 505.6,210.7 461.5,160.4 458.2,163.3 501,217.1 
		461.5,270.2 418.4,212.3 415.4,214.4 452.4,283.4 	"/>
</g>
</svg>
