<?xml version="1.0" encoding="utf-8"?>
<!-- Generator: Adobe Illustrator 20.1.0, SVG Export Plug-In . SVG Version: 6.00 Build 0)  -->
<svg version="1.1" xmlns="http://www.w3.org/2000/svg" xmlns:xlink="http://www.w3.org/1999/xlink" x="0px" y="0px"
	 viewBox="0 0 792 612" style="enable-background:new 0 0 792 612;" xml:space="preserve">
<style type="text/css">
	.st0{display:none;}
	.st1{fill:#E24D26;}
	.st2{fill:#F05A28;}
	.st3{fill:none;stroke:#231F20;stroke-miterlimit:10;}
	.st4{fill:#A39C46;}
	.st5{fill:#BAB452;}
	.st6{fill:#853082;}
	.st7{fill:#732A72;}
	.st8{fill:#853082;stroke:#231F20;stroke-miterlimit:10;}
	.st9{fill:#F05A28;stroke:#231F20;stroke-miterlimit:10;}
	.st10{fill:#F48348;}
	.st11{fill:#FCFAFB;stroke:#000000;stroke-miterlimit:10;}
	.st12{fill:#FFFFFF;stroke:#000000;stroke-miterlimit:10;}
	.st13{fill:none;stroke:#231F20;stroke-width:3;stroke-miterlimit:10;}
	.st14{clip-path:url(#clip_1_);fill:#C8805E;}
	.st15{clip-path:url(#clip_1_);fill:#F9F9F9;}
	.st16{clip-path:url(#clip_1_);fill:#986455;}
	.st17{clip-path:url(#clip_1_);}
	.st18{clip-path:url(#clip_1_);fill:#DB5D56;}
	.st19{clip-path:url(#clip_1_);fill:#994E57;}
	.st20{clip-path:url(#clip_1_);fill:#F29596;}
	.st21{clip-path:url(#clip_1_);fill:#996351;}
	.st22{clip-path:url(#clip_1_);fill:#E79F6F;}
	.st23{clip-path:url(#clip_1_);fill:#FFFFFF;}
	.st24{clip-path:url(#clip_1_);fill:#C3C4CB;}
	.st25{clip-path:url(#clip_1_);fill:#C88A6C;}
	.st26{clip-path:url(#clip_1_);fill:#AF5B50;}
	.st27{clip-path:url(#clip_1_);fill:#4C3629;}
	.st28{clip-path:url(#clip_1_);fill:#6D4029;}
	.st29{clip-path:url(#clip_1_);fill:#4C393A;}
	.st30{clip-path:url(#clip_1_);fill:#B27556;}
	.st31{clip-path:url(#clip_1_);fill:#423733;}
	.st32{clip-path:url(#clip_1_);fill:none;stroke:#000000;stroke-miterlimit:10;}
	.st33{fill:#231F20;}
	.st34{fill:none;stroke:#000000;stroke-miterlimit:10;}
</style>
<g id="original" class="st0">
</g>
<g id="back_arrows">
	<g id="orange_mid_back">
		<g id="orange_mid_back_colour">
			<path id="shadow_6_" class="st1" d="M453,340.3l7.5,6.9l3.5-4.4l3.3-4.1l7.8-9.2l5.5-6.1l1-0.6c0,0,4.2-29,7.8-33.2l1.4-4.3
				l-0.7-3l-2.9-0.5l-1.4,4.8l-2.6,7.3l-3.2,7.9C479.9,301.8,467.6,328.4,453,340.3z"/>
			<path id="top_3_" class="st2" d="M472.2,287.9l14.8-6l-1.4,4.8l-1.3,4.6l-3.4,8.1l-5.8,12l-3.6,6.1l-3.5,5.3l-3.2,4.5l-3.4,4.3
				l-2.4,2.8l-3.6,3.8l-2.3,2.2l-1.4-1.2l-2-1.8l2.5-2.6C452.1,334.7,471.3,312.2,472.2,287.9z"/>
			<path id="shadow_7_" class="st1" d="M421,280l-2.3-0.1l-3.6,1.1l-5.3,3.2l-3.7,3l-4.7,4.6l-5.5,6.4l3.2,2.1l5.9-6.5l3.3-2.4
				l2.7-1.5c0,0,3.9-2,4.9-1.9l1.6-1.7L421,280z"/>
			<path id="top_4_" class="st2" d="M429.1,264.4l-40.5,7.1c0,0-1.9,9.2,4.3,25.1l3,1.4c0,0,15.2-20.1,25-18.1l4.4-8.2L429.1,264.4z
				"/>
		</g>
		<path class="st3" d="M449.8,337.4c0,0,19.7-18.7,22.5-49.6l14.8-6c0,0-8.7,36.9-37.2,61.3l5.7,10.6c0,0,25.5-34.7,33.2-36"/>
		<path class="st3" d="M416.4,287.9c0,0-6.7-0.3-17.2,12.2"/>
		<path class="st3" d="M396,298.2c0,0,14.3-19.5,25.1-18.5"/>
	</g>
	<g id="green_back">
		<g id="green_back_colour">
			<path id="shadow_8_" class="st4" d="M258.1,264.6l17.2,7.5l7.4,3.9l5.6,2.8l5.1,3.1l3.2,2.1l3.4,2.4l4.9,3.8l4.4,3.8h5.3
				l-4.2-5.5c0,0-16.9-23.1-46.6-28.5L258.1,264.6z"/>
			<path id="top_5_" class="st5" d="M263.7,260c0,0,27.4,3.5,47.4,29.8l9.5-3.1c0,0-10.1-19.3-44.2-32.9L263.7,260z"/>
		</g>
		<path class="st3" d="M257.7,264.3c3,2.3,30.7,10.2,51.5,29.6h5.1c0,0-16.6-27.3-50.6-34l12.8-6.4c0,0,37.2,14.8,46,37.3"/>
	</g>
	<g id="_x33_50_back">
		<g id="_x33_50_back_colour">
			<path id="top_6_" class="st2" d="M632.1,446.3l5.3,1.4l4.6,0.4l9.8,0.9l13.1,1.2l4.3,0.5c0,0,29-45.1,14.8-86.6l-9.1-5.1
				l-11.6-6.4l-13.6-33.8l-6.4-2.1l-14.6-4.7l-9.7-2l-10.3-0.6l-66.5,6.4L508,334l-27.5,7.2l-15.5,5.4l-3.9,1.2l20.9,20.9
				c0,0,7,7.5,7.6,8.1c0.6,0.6-6.2,4.6-6.2,4.6l-22,5.5l-13.3,4.1l-12.5,3.8l-4.7-6.1l-7,5.5v4.9l4.2,0.5c0,0,19.2,3.4,128.6-43.1
				c0,0,30.7-5.7,31.7-5.9s15.8-7,17-7s5.7,0.2,7.1,0.4c1.4,0.1,12.4,3.1,12.4,3.1l7,3.4l7.8,5.8l5.7,6.3l4.5,9.9
				C649.7,372.6,665.5,403.7,632.1,446.3z"/>
			<path id="shadow_9_" class="st1" d="M418.1,398.9l9.9,0.9c0,0,13.9,4,117.8-38.5l66.5-17.1l7.5,1.5l11.9,5l7.8,5.8l5.7,6.3
				l-5.4-3.8l-7.8-3.5l-6.5-1.7l-7.4-0.8l-5.9-0.4h-6.5l-12.2,1.2l-54.1,19.9l-14,5.4l-9.9,3.7l-20.5,7.5l-16.6,5.6l-12.8,4l-8,2.3
				l-6.7,1.7l-7.6,1.7l-7.9,1.3l-6.4,0.4l-11-2V398.9z"/>
			<path id="shadow_10_" class="st1" d="M625.5,443.3l6.7,3c0,0,32.2-31.6,15.9-77.4l1.7,12.3l-0.5,4.5l0.5,3.2l-0.4,2.1l-0.2,3.7
				l-1.7,6.9l-3.2,10.4l-7.7,15.1l-4.8,7.7L625.5,443.3z"/>
		</g>
		<path class="st3" d="M422.9,397.2c0,0-10.6,20.5,162.9-51.6c0,0,38.5-10.9,59.2,16.9c0,0,28.8,42.2-21.8,93.8l35.5,10.3
			c0,0,41.9-52.9,25.2-102.5l-24.6-13.8l-7.4-12l-5.1-20.3c0,0-37.3-15.5-46.8-5"/>
		<path class="st3" d="M422.8,401.5c0,0-19.5,28,145.7-39.5c0,0,49.2-21.5,76.5,0.5c0,0,20.9,35.1-25.5,88l3.8,5.8"/>
		<path class="st3" d="M480.5,341.2c0,0-22,8-25,8"/>
	</g>
	<g id="green_left">
		<g id="green_left_colour">
			<path id="top_7_" class="st5" d="M114.6,294.6c0,0,15.6,2.2,15.7,6l6.2-6.5l10.3-10.1l8-7.1l9.7-7.6l5.7-3.9l15.9-8l13.5-1.3
				c0,0,9.1,6,11.1,7.5s9.2,4.9,9.2,4.9l2.3,5.2l3.9,2.2l5.8,4.2l6.4,5.5l12.2,11.9l4.5,4.8l3.4,3.7l4.5,5l6.7,7.2l10.6,10.2
				c0,0,11.6,9.8,12.1,10.2s7.1,5.2,7.1,5.2l5.6,3.7l5.4,2.5l5,1.8l7.6,2.7l6.2-10.2l-4.7-2.2l-6.7-4.6l-23-18.9L279,304.4l-7.5-6.9
				l-11.5-10.7l-7.4-7l-7.6-7.3l-2.7-2.6L239,268l-8.1-4.4l-11-6c0,0-10-4.3-10.9-4.8s-28.7-7.5-28.7-7.5l-5.4,1l-5.9,1.8l-6.2,2.5
				l-10.1,5.9l-13.9,10.9C138.8,267.5,120.6,284.5,114.6,294.6z"/>
			<path id="shadow_11_" class="st4" d="M114.6,294.6l2.5,9.6l2.4,9.3l8.8,6.6l5.8-3.1h4.8l3.1-0.7l9.4-8.2l13.6-10.2l5.4-4l8.2-3.6
				l3.5-1.3l3.4-0.8l47.5,19.8c0,0-2.8,7.2-2.5,7.4s3.1,6.4,3.3,7c0.2,0.6,3.2,3.4,3.2,3.4l9.8,7.8l24.5,20l11.4,8.5
				c0,0,5.6,3.8,6.2,4.2s8.4,5,8.4,5l7.3-2.9l-5.6-6.2l-5.4-7.9l-6.1-11.3l-3.9-12L255,302.3l-10.3-10.5l-11.5-10.5l-7.1-5.3
				l-3.9-2.2l-1.5-3.3c0,0-9-1.4-9.5-1.5s-20.3-7.2-20.3-7.2l-3.9-4.4L182,259l-4.4,2.1L162,271l-4.9,4.1l-6.4,5.2l-4,3.7l-4.7,4.5
				l-5.5,5.5l-4.9,5.2l-1.3,1.3l-2-2l-4.4-1.8L114.6,294.6z"/>
		</g>
		<path class="st3" d="M114.6,294.6c0,0,15.1,2.7,15.7,6c0.7,3.4,11.7,15.7,11.7,15.7S118.6,322.9,114.6,294.6z"/>
		<path class="st3" d="M114.6,294.6c0,0,47.1-68.8,91.8-44.4l36,19.6c0,0,95.3,92.8,88.7,71.2l6.7,4.6l-9,10.8l-21-7.4
			c0,0-20.3-10.4-47.3-40.9c-27-30.5-38.1-34.4-38.1-34.4s-14.6-56.5-91.9,26.9l11.7,15.7c0,0,34.7-32.9,49.4-27.6
			c14.7,5.3,100.2,91.6,119.6,86.6"/>
	</g>
	<g id="orange_left_back">
		<g id="orange_left_back_colour">
			<path id="top_8_" class="st2" d="M279.8,401.3l1.9-2.6c0,0,21.1-52.2,55.9-83.2l10.5,3.2l15.2,4.9l-15.8,28.6l-6,12.4l-8.4,17.6
				l-3.9,8.8l-7.6,17.6l-5.1,9.6l-21.7-2.8L279.8,401.3z"/>
			<path id="shadow_12_" class="st1" d="M336.2,416.5l0.7-5.2l3.5-6l3.4-6.3l3.9-7.9l4.9-11l13.1-33.6l6.6-22.3l-9-0.5l-14.6,25.6
				l-2.6,5.9c0,0-23.3,47.8-24.6,53.5c-1.3,5.7,6.6,5.2,6.6,5.2L336.2,416.5z"/>
		</g>
		<path class="st3" d="M332.8,320.4c0,0-36.9,36.1-53.7,85.8l38.7,12c0,0,31.2-78.5,48.2-94l-28.3-8.8L332.8,320.4z"/>
		<path class="st3" d="M314.2,426.5c0,0,42.5-103.5,55.5-109.2c0,0-5,57.2-44,110.8L314.2,426.5z"/>
	</g>
	<g id="purple_back">
		<g id="purple_back_colour">
			<path id="top_10_" class="st6" d="M53,287.5l24.1,27L95,333.7l38.4,31.8l6.8,3.3c0,0,39.3,18.6,74.6,9.6L246,375l9.7-1.6l15.1-5
				l13.2-5.3l-8.1-5.8l-6.2-4.9l-2,0.9l-4,1.5l-6,1.9l-6.7,1.5l-3.4,0.9l-23,2.2H191l-13-2.6l-11.6-3.4l-11.4-4.4l-7.9-4l-6.1-3.2
				l-9.1-5.2l-32.1-25.2l-11.8-11.9L79,290.9l-6-7.6l-6.5-9.4l-4.4,2.4l-3.4,2.6l-2.8,2.9l-1.9,2.6L53,287.5z"/>
			<path id="top_9_" class="st6" d="M298.1,361.1l-6.3-9l-2.9-5.9l-4.1-10.2c0,0-4.5-14.8,0.4-24.5c4.9-9.8,9-12.1,9-12.1l9.7-6.5
				l5-2.8l14.9-4.3l5-0.9l4,1.8c0,0,6.4-1.7,6.9-1.8c0.5-0.1,9.2-0.8,9.5-0.8s8.1,0.5,8.3,0.5c0.2,0,8.7,1.6,8.8,1.6
				c0.1,0,17.6,3.4,44.1,20.6c0,0,8.2,5.6,8.4,5.7s10.3,7.6,10.5,7.8s12.5,10.1,12.5,10.1l14.5,12.9l9.4,8.8l27.4,28.7l5,5.8l9,10.4
				l10.2,12.9v18c0,0-29.2-3.2-30.5-4.2s-9.2-12.2-9.2-12.2l-5.9-8.4l-5.5-6.9l-5-6l-9.9-10.9l-5.7-5.6l-4.2-4l-4.1-3.8l-4.4-4.2
				l-3.2-2l-61.6-38.5l-5-2l-7.5-2.9l-6.9-1.8l-13-2.8l-7.5-0.7l-9.5,0.3l-5,1l-5.9,2l-4.2,2.9l-3.6,3.6l-2,4.1l-1.8,4.3l-1,5.4
				l-0.4,5.9l0.2,6.2l0.5,3.8l0.8,3.8L298.1,361.1z"/>
			<path id="shadow_14_" class="st7" d="M478.4,412.4l3.8,5.2c0,0-6.9,8.1-7.2,8.2c-0.3,0.1-14.4,1.8-14.8,1.8
				c-0.4-0.1-6.4-7.4-6.4-7.4l-2.8-4l-13.1-17.8l-5.3-7.3l-5.9-6.8c0,0-44.8-38.7-44.9-38.6c-0.1,0.1-22-18.3-22-18.3
				s-32.8-12.4-50.3-5.6l-3.8,2l-3.2,2.6l-2.2,3.5l-1.1,3.1l-0.8,4.9v4.3l0.8,5.1l1.3,5.4l1.9,6.4l-2.6,3.9l-1.6-1.8l-1.7-5.8
				l-1.2-7.7l-0.2-10.2l0.7-5.9l2.5-6.7l3.7-5.8l2.7-2.6l4.3-2.9l5.1-1.4l6.2-1l5.3-0.2l5.8,0.2l3.9,0.4l3.8,0.5l5.3,0.8l4.8,1.5
				l6.9,1.8l7.5,2.9l5,2l64.8,40.5l6.8,6.3l11.6,11.2l4.9,4.9l8.2,9.7l4.8,6l7.1,9.5L478.4,412.4z"/>
			<path id="shadow_13_" class="st7" d="M284,363.1l4.9,3.3l3.5,2.2l2.8,2.1l-3.1,5.7l-3.8,1.2l-5.3,1.9l-4.3,1.4l-3.3,0.7l-6.6,1.3
				l-73.4,8l-11.4,1l-8-0.3l-5.5-0.6l-9.3-1.8l-9-2.2l-8.5-3.6l-6.8-3L92.6,352l-6.6-5.9l-16.1-17.4L59.6,317l-6.6-7.6
				c0,0-3.5-9.4,0-21.9l3.5,4.2l6.2,6.7L79.4,317L95,333.7l36.8,31.1l8.4,4l13.6,5.3l14.7,3.9l14.3,2.5l15.2,0.8l57.7-8l8-2.6
				l12.3-3.9L284,363.1z"/>
			<path class="st8" d="M550.5,378l-12.1-7.9l-4.4-6.4l-6.7-12.6l-2.8-5.9l15.8-16.1l0,0c0,0,3.7,14.6,18.5,20.1
				S550.5,378,550.5,378z"/>
			<path class="st7" d="M534,384.2l6.5-12.6l-3.1-2.7l-6.1-10l-6.9-13.8l-3,3.5l-4.2,4.8C517.2,353.6,522.7,371.9,534,384.2z"/>
		</g>
		<path class="st3" d="M534,384.2c0,0-15.2-19.1-16.5-31l6.9-8c0,0,12.4,26.6,16.2,26.5c0,0,2.1-3.7,3.3-3.9l6.5-23
			c0,0-8.2-8.5-10.3-15.6"/>
		<path class="st3" d="M454.5,421.2c0,0-18.5-26.7-27.5-37c-9-10.2-62.4-55.1-62.4-55.1s-86-35.2-62.1,29.8c0.4,1.1-0.2-1.3-2.3,3.6
			s-17.5-44.9,15.4-50.7c40.5-7.2,118.6,35.4,162.8,100.5l-4.1,2.6l-3.3,1.9l-3,1.4l-2.8,0.7l-3,0l-3.7-0.2l-2,0.7L454.5,421.2z"/>
		<path class="st3" d="M511.4,402.1c0,0-109.9-138.6-178.6-115.4l-4-1.8c0,0-80.1,10.5-29.1,78.4"/>
		<path class="st3" d="M292.4,375.9c-26.3,12.2-51.5,7.2-96,14.9c-50.9,8.8-96.9-35.8-102.8-38.2c-5.9-2.4-40.6-43.2-40.6-43.2
			c-3.2-12.1,0-21.9,0-21.9c2.5-9,13.5-13.6,13.5-13.6s77.1,125.6,203.5,78.6"/>
		<path class="st3" d="M53.3,287.9c0,0,64.9,74.6,73.3,73.6c0,0,61,44,158.2,1.2"/>
	</g>
	<g id="green_top">
		<g id="green_top_colour">
			<path id="top_11_" class="st5" d="M370.3,55.3c0,0,12.4-34.7,49.3-44.9c0,0,52.4-20.6,141.7,43.3l5.7,5.2l11.8,11.9L593,87.3
				l9,12.1l7.2,11.1c0,0,2.6,4.5,3,5.1c0.4,0.7,4.6,8.9,4.6,8.9l4.5,10.8l-45.7,4.6l-9.7-18.1l-14.8-23.5l-16-21.2l-5.7-6.7
				l-11.7-12.2l-8.3-7.3l-10-7.5L491,37l-11.6-6l-15.1-6l-10.7-2.2l-9.2-1.2l-12,0.8l-12.3,2.2l-7.9,2.8l-8.7,3.7l-7.5,4.4l-6.5,4.3
				l-9.5,7L370.3,55.3z"/>
			<path id="shadow_15_" class="st4" d="M370.3,55.3c0,0,38.9-42.8,88-31.5c0,0,13.3,3.3,14.2,4.1c0.8,0.7,8.5,3.9,9,4.2
				c0.5,0.3,9.5,5,9.5,5l11.2,8.2l10.7,8.8l5,4.3l11.7,12.2l6.8,8.7L546.7,92l9.2,13.3l7,11.3l7.3,12.9l5.6,10.3l-12.3,2l-8.2-17.2
				l-8.7-15.5c0,0-39-67.5-89-76C457.5,33.2,418.1,21.6,370.3,55.3z"/>
		</g>
		<path class="st3" d="M370,56.1c0,0,35.6-108.4,191.3-2.4c0,0,43.9,37.7,60,81.7l-45.7,4.6C575.7,139.9,483.5-55,370,56.1z"/>
		<path class="st3" d="M563.3,141.9c0,0-69.6-174.5-193.3-85.9"/>
	</g>
	<g id="purple_zig">
		<g id="purple_zig_colour">
			<path id="top_12_" class="st6" d="M253.6,16L237,58.1l-15-10.5l-18-13.3l-18.6-15l-11-10.6c0,0-18.1,52.7-1.7,136.9l17.7,53.9
				l18.4-9.6l10.2-10.2l-8.8-25.1l-5-15l-2.8-10.1l-6.4-24l-3.5-18l-1.4-14.3l-0.1-8.3l1.2-9l4.7,5.4l6.9,6.8l10,8.4l5,2.9l6.4,2.2
				l30.2,10.8L266,64.9l8.7-27.6l17.7-9.5L268,8.7L253.6,16z"/>
			<path id="shadow_18_" class="st7" d="M191.4,4c0,0-10.6-0.7-17.1,4.7c0,0,23.4,24,62.6,49.4l1.9-4.8l4-8.5l-4.2-4l-10.5-8
				l-10-7.8l-13.4-10.5L191.4,4z"/>
			<polygon id="shadow_17_" class="st7" points="274.7,37.2 292.3,27.7 288.9,41.1 285.1,54.9 280.5,70.6 277.1,79.7 268.5,98.7 
				251.8,96 262.7,72.8 265,67.5 269.5,54.2 			"/>
			<path id="shadow_16_" class="st7" d="M192.3,55.8c0,0,1.4,22.4,28.9,57.8l-6.2,6.8l-12.5,9l-5.5-20.7l-2.1-9.3l-2-10.4l-0.9-7.1
				l-0.7-6.6l-0.5-5l0.3-5.6L192.3,55.8z"/>
		</g>
		<polygon class="st3" points="253.6,16 274.7,37.2 292.3,27.7 268,8.7 		"/>
		<path class="st3" d="M174.3,8.7c0,0,7.2-5.7,17.1-4.7L243,44.7L253.6,16l21.1,21.2c0,0-9.6,32.8-12,35.7S189,26,174.3,8.7z"/>
		<line class="st3" x1="243" y1="44.7" x2="237.7" y2="56.1"/>
		<path class="st3" d="M292.3,27.7c0,0-13.3,52.8-15.8,52.6"/>
		<path class="st3" d="M174.3,8.7c0,0-29.1,95.9,18.8,196.8l25.9-25.9c0,0-34.8-90.8-26.7-123.5c0,0,20.4,23.1,29.7,24.2"/>
		<path class="st3" d="M217.3,109.6c-1-2.2-23.1-33.1-25-53.5"/>
	</g>
	<g id="orange_left">
		<g id="cube1">
			<polygon id="top_cube_1" class="st2" points="69,45.1 66.1,46.8 63.1,48.9 60.8,51.1 60.3,52.8 60.8,55.3 62.2,58.7 64.6,63.3 
				67.7,67.4 70.3,65.2 74.8,62.4 82.4,58.9 87.4,57 90,56.1 88.5,51 85.5,43.8 82.9,40.5 79.9,40.5 71.2,43.7 			"/>
			<polygon id="shadow_cube_1" class="st1" points="60.3,52.8 57.6,56.9 54.8,61.9 53.3,64.5 54.4,68.2 57.4,77.5 59.7,82.5 
				61.8,82.9 66.1,82.8 70,82.4 75.2,81.3 80,79.6 84.6,76.8 86.8,74 88.3,71.1 89.5,67.9 90,64.5 90.4,61.2 90.4,58.1 90,56.1 
				85.2,57.6 78.5,60.5 71.9,64.1 67.7,67.4 65.3,64.4 61.6,57.6 			"/>
			<path class="st3" d="M60.3,52l-7,12.5c0,0,5.3,19.1,7,18.3c1.7-0.8,6.3-13,7.3-14.6S60.7,59.3,60.3,52z"/>
			<path class="st3" d="M82.3,40.3c3.8,0.6,7.7,15.8,7.7,15.8s-19.7,6.2-22.3,12.2c0,0-8.3-12.6-7.3-16.2S77.7,39.6,82.3,40.3z"/>
			<path class="st3" d="M60.3,82.8c0,0,2.3,0.2,5.6,0c0.8,0,1.6-0.1,2.4-0.2C73.8,82,80.8,80.4,85,76c2.1-2.2,3.4-4.6,4.2-7.1
				c2.2-6.5,0.8-12.9,0.8-12.9"/>
		</g>
		<g id="cube2">
			<polygon id="top_cube_2" class="st2" points="68.1,80.3 72.2,77.4 78.1,73.8 84.6,70.4 88.3,69.1 89.6,69.1 91.1,70.3 92,71.7 
				92.8,74.2 93.5,77.7 93.7,80.3 92.2,81.1 88.2,83.5 84.2,86.1 80.7,88.5 77.3,91.3 75.1,93.4 73.7,95.3 72.2,92.8 70.2,88 
				68.1,82.6 			"/>
			<polygon id="shadow_cube_2" class="st1" points="68.1,80.3 65.1,84.1 63.2,87.7 61.4,92.4 60.5,95.3 61.8,98.8 65,106.3 
				67.5,109.6 70.4,109.6 80.7,108 90.4,105.7 93.4,104 94.4,102.4 95.4,97 95.4,91.2 94.8,84.7 93.7,80.3 88.2,83.5 80.7,88.5 
				77.3,91.3 73.7,95.3 71.5,90.5 68.5,83.7 			"/>
			<path class="st3" d="M60.5,95.3c0,0,5,14.8,7.2,14.2C70,109,69.7,96,73.7,95.3c0,0-7.2-15.2-5.9-15.1S63.4,83.3,60.5,95.3z"/>
			<path class="st3" d="M67.8,80.3c0,0,17.2-11.6,21.4-11.1c4.2,0.5,4.6,11.1,4.6,11.1S77,89.5,73.7,95.3"/>
			<path class="st3" d="M93.7,80.3c0,0,1.7,5.3,1.9,11.7c0,0.2,0,0.4,0,0.5c0.1,3.6-0.4,7.5-2,11c-1.1,2.5-9.9,4.2-16.9,5.1
				c-0.5,0.1-1.1,0.1-1.6,0.2c-4.2,0.5-7.5,0.8-7.5,0.8"/>
		</g>
		<g id="cube3">
			<path id="top_cube_3" class="st2" d="M95.7,92l-1.9,0.3L90,93.7l-5.7,2.9l-3.2,2.2l-2.6,2.7l-1,1.8l-0.6,3.1l0.1,3.1l0.5,3.1
				c0,0,1,3.4,1.1,3.8s3.1,6.7,3.1,6.7l4.2-2.8l8.3-5.9l4.8-3.9l3.2-3.2l1.7-2.5l-0.2-2.6l-1-2.3l-1.8-2.8l-2.6-3.5L95.7,92z"/>
			<polygon id="shadow_cube_3" class="st1" points="103.8,105 104.7,108.7 104.7,111.1 104.6,116.7 103.9,121.5 102.9,126 
				100.8,131.2 98.7,134.2 96.3,135.8 93.7,136.7 90.1,137.4 85,138 80.7,138 78.8,136.8 76.1,133.4 73.4,129.2 70,123.2 
				72.9,114.2 76.8,105.3 76.8,108 77.4,112.7 79,117.3 81.7,123.2 88.3,118.8 94.8,114.2 100,109.6 			"/>
			<path class="st3" d="M81.7,123.2c0,0-6.1-9.9-4.7-18.2s18.7-13.3,18.7-13.3s9.3,8.3,8,13.3C102.3,110,81.7,123.2,81.7,123.2z"/>
			<path class="st3" d="M77,105c-0.7,1.1-1.3,2.4-2,3.9c-2.7,6.1-5,14.4-5,14.4s8.2,15.1,10.7,14.8c1.2-0.2,3.6-0.1,6.5-0.3
				c3.2-0.2,6.9-0.8,10.1-2.4c3.8-1.9,6.5-10.6,7.2-18.6c0.4-4.6,0.2-8.9-0.9-11.7"/>
			<path class="st3" d="M81.7,123.2c0,0-1.9,7.1-1,14.8"/>
		</g>
		<g id="main">
			<polygon id="top_main" class="st9" points="188,203.8 169.1,199.7 160.7,195.9 147.8,188.3 143,185 138.1,181.5 131.1,176 
				123.7,169.9 115.9,163 112.2,159.6 106.1,153.9 101,148.9 96.2,143.9 90.1,137.4 88.3,135.3 90.3,131.2 93.7,127.3 101.8,119.2 
				106,115.4 109,118.9 115.1,126.5 122.6,134.1 130,140.3 137.5,145.8 145.3,150.7 162.2,159.1 168.9,160.9 182.7,176.3 
				188.8,191.9 189.6,202.8 			"/>
			<path id="shadow_main" class="st1" d="M88.3,135.3l-2.4,7l-0.9,6.9l4.1,8.3l4.6,7l6.7,7.8l3.4,3.3c0,0,7.8,6.8,12.5,9.8
				s8,4.9,8,4.9l7.4,3.8l10.3,4.5l10.3,3.7l10.5,3.1l9.3,1.4l5.6-3.1l-5.6-3.4l-4.9-0.9l-19.3-11.1l-13-9.3l-16.3-13.7l-12.4-11.5
				l-6.8-6.5l-4.8-5.3l-4.4-4.6L88.3,135.3z"/>
			<path class="st3" d="M178.3,209.3c-1-1.3-72.7-10.5-93.3-60.1c0,0,0.3-8.5,3.3-13.9"/>
			<path class="st3" d="M174.3,162.2c0,0-38-6.2-68.3-46.9c0,0-19.3,17.3-17.7,20c1.7,2.7,67,73.5,99.7,67
				C188,202.3,182.3,170.8,174.3,162.2z"/>
		</g>
	</g>
	<g id="purple_loop">
		<g id="purple_loop_colour">
			<path id="top_14_" class="st6" d="M679.7,163.3l-1.6-4.3l-2.6-7.8l-3.5-12.6l-1.9-9.8l-0.8-5.7l5.2-2.1l7.1-3.3l10.4-6.1l6.1-4.7
				l6.8-6.8l4.7-6.4l3.2-5.9l2.8-8.3c0,0,6.1-24.9-22.1-29.8l5-0.6l7.3,0.4c0,0,7.3,1.5,7.7,1.6c0.4,0.1,6.9,2.8,6.9,2.8l4.6,3.9
				l2.9,3.5l2.6,5.1L732,73l0.4,8l-0.9,7.5l-2.6,10.9l-3.1,9.1l-4.3,10.5l-3.5,7.3l-2.2,4.3l-7.9,13.7l-4.6,5l-3.4,3l-7.2,4.4
				l-5.5,2.8L679.7,163.3z"/>
			<polyline id="top_13_" class="st6" points="648.7,173.1 637.8,175.3 626.1,176.9 611.8,178.3 591,180 574.4,181.3 569.7,181.3 
				569.7,155.5 578.9,146.1 592.1,137 602.4,133.1 609.2,131.5 615.9,130.5 624.6,129.6 621.4,132.3 618.8,134.2 615.9,137.8 
				612.4,142.7 611.9,148.4 615.5,146.6 623.4,144 632.3,142.7 639,142.7 644.8,143.1 			"/>
			<path id="shadow_19_" class="st7" d="M685.1,228.7l-20.6,4.6l-0.9-4.6l-6.1-19.6l-2.9-10.9l-4.1-18l-2.9-15.3l-2-16.2l-0.8-14.1
				l-0.1-16.2c0,0,0.9-34.9,19.6-54.1l7.5-6.4c0,0,6.2-3.7,6.5-3.8c0.2-0.1,10.4-4,10.4-4l-2.8,2.1l-5.3,4.1l-6.8,6.8l-5.6,7.3
				l-4.5,7.6c0,0-12.9,22.8-7.9,60.2l1.5,10.8l4.2,20l6.2,20.2C667.9,189,680.6,222.2,685.1,228.7z"/>
			<polygon id="shadow_20_" class="st7" points="688.7,50 698.7,54 702.7,57.2 707.9,63.2 709.5,66.7 710.6,71.1 710.2,74.5 
				709.1,78.9 707.1,83.1 704.5,86.9 700.9,91.3 697,95.1 694.4,97.4 692,99.4 682.1,106.6 676.4,110.1 668.6,114.8 669.3,123.1 
				681.6,117.7 692,111.6 700.4,104.6 708.4,96.2 711.6,90.1 714.5,83.9 716.3,76.4 716.3,71.5 714.6,64.8 711.5,59.4 706.6,54.5 
				700.9,51.5 695.8,50.1 692,49.5 			"/>
		</g>
		<path class="st3" d="M710.5,137c0,0,3.5,12.7-37.2,29"/>
		<path class="st3" d="M661.3,118.3c0,0,78-36.3,37.3-64.3"/>
		<path class="st3" d="M688.7,50c0,0,77.3-15,26.3,82.3"/>
		<path id="top_15_" class="st6" d="M685.1,228.7l45.9,23.7l-7.7-10.7l-11-16.3l-9.5-15.2l-7.7-13.5l-8.3-16.5l-6.1-14l-3.5-8.9
			c0,0-16-42.3-3.9-73.6c0,0,3-6.6,3.2-7c0.2-0.4,5-7.9,5-7.9l5.6-6.3l10.3-7.7l1.2-0.6l-3.7-1.8l-6.3-2.2l-6.6,4.9l-8.2,8l-5.6,7.3
			l-3.6,6L660,86.8l-2.8,9.8l-1.4,7.8l-0.6,5.5l-0.5,6.6l0.4,15.1l0.8,8l1.2,8C657.1,147.7,661.9,184.2,685.1,228.7z"/>
		<path class="st3" d="M685.1,228.7c0,0-70.8-129.3,3.5-178.7c0,0,8.3,2.7,10,4c0,0-85.7,37,32.3,198.3L685.1,228.7z"/>
		<path class="st3" d="M664,229.7c0,0-56.7-156.7,24.7-179.7c0,0,11-1.9,19.7,6.1c8.7,7.9,8,17.5,8,17.5s1.3,34.1-52.7,51.5"/>
		<path class="st3" d="M630.3,129.7c0,0-30.3-2.3-51.7,16.7c-21.3,19-9,35-9,35s62.1-3.2,79.6-8.4"/>
	</g>
	<g id="orange_hook">
		<g id="orange_hook_colour">
			<path id="top_16_" class="st2" d="M731,135l0.1,7.4l0.2,5.3l0.8,9.6l1.5,6.3l-0.5,0.9l-1-1.2c0,0-3.2-1.6-3.6-1.7
				c-0.3-0.2-11-5-11-5l-16.2-6.6l-8.5-2.9l-7.6-2.5l-7.2-1.8l-6.9-1.7l-10.2-1.8l-6.2-1l-4.4-0.4l-9.3-0.1l-7,0.6l-7.2,1.5l-5.9,2
				l-5.9,3.1l-4.5,2.9l1.9-5.3l4.3-5.7l4.7-4.7l5.3-3.5l4.2-2l9.2-2.9c0,0,6.5-1.3,6.8-1.3s5.7-0.6,6-0.6s7.3-0.2,7.3-0.2l13.8,0.8
				l11.2,1.1l11.6,2.2l17.2,4.1L731,135z"/>
			<path id="shadow_21_" class="st1" d="M721.9,167l11.2-2.5l-2.1-1.7l-5.8-2.7l-10.9-4.8l-8.4-3.4l-7.1-2.7c0,0-25.6-8.2-32.8-9.2
				c-7.2-1-15-1.8-15-1.8l-10.2-0.2l-6.1,0.5l-7.4,1.3l-4,1l-4.9,2l-4.4,2.9l-2.5,1.6l-1.1,4.2l10.3,14.2l4.6,3.8l4.5,2.9l9.3,3.8
				l6.3,1.2l4.6,0.2l-0.9-2.6l-0.9-6.4l-6.2-0.7l-6.7-2.6l-8.2-3.3l-4.2-2.8l-4.8-2.8l-6.5-5.8l0.1-2.2l3.6-1.8l9.7-2.7l5.8-0.8
				l9.9-0.1l7.1,0.6l10.6,1.5l16.8,4.2l14.6,4.8l10.4,3.8L721.9,167z"/>
		</g>
		<path class="st3" d="M650.1,177.5c0,0-28.6,1.7-39-28.3c0,0,3.3-50.6,119.9-14.2c0,0-0.3,25.5,3,29.2c0,0-90.9-47.8-124.3-14.9
			c0,0,18.5,17.4,38.9,19.6"/>
		<path class="st3" d="M609.2,150.7c0,0,21.2-26,112.6,16.3l12.1-2.8"/>
	</g>
	<g id="orange_slice">
		<g id="orange_slice_colour">
			<path id="top_17_" class="st2" d="M168.2,217.8c0,0-4.2-3.2-6-3l-2.8,2.5l-3.7,3.5l-3.9,3.8l-7.4,7.7l-3.6,4l-5.7,6.9l-3.5,4.8
				l-4.5,7.1l-1.6,3.1l-1.5,3.4l-1.2,3.9l-0.6,4.3l4.6-4.9l11.5-11.1l15.1-12.9l7.3-5.5l11-7l4.1-3.2L168.2,217.8z"/>
			<path id="shadow_22_" class="st1" d="M122.2,269.8l5.2,9.2l5.6-5.7l7.4-6.9l9.6-7.8l9.4-6.1l3.6-1.8l9.1-3.5l8.4-1.8l-2.5-4.3
				l-3.4-6.7l-2.8-6l-6,3.7C165.8,232,131.2,257.1,122.2,269.8z"/>
		</g>
		<path class="st3" d="M162.2,214.8c0,0-39.5,34.2-40,55c0,0,28.3-31.4,55.4-44.5C177.7,225.2,168.2,216.5,162.2,214.8z"/>
		<path class="st3" d="M122.2,270.3l5.1,8.6c0,0,21.2-23.7,41.2-30.5c0,0,8.8-3,11.9-3c0,0-4.1-6.7-8.6-17"/>
	</g>
	<g id="purple_left_side_top">
		<g id="purple_left_side_top_colour">
			<path id="top_18_" class="st6" d="M147.3,200.7l10.4,3.1l-1.5,3.4l-2.1,4.3c0,0-12.4,26.8,22,80.1l11.4,16.7l11.5,22.5l-13.2,9.4
				l-7.5,5.4l-7.2-10.4l-9.7-15.5l-8.9-16.7l-8.2-18.8l-3-9.4l-2.4-9.8l-2.5-13l-0.4-8.1v-8.9l0.8-5.9l2.1-10.9
				c0,0,4.2-10.2,4.3-10.4C143.3,207.7,147.3,200.7,147.3,200.7z"/>
			<polygon id="shadow_23_" class="st7" points="157.2,204.6 155.2,208.9 153.7,212.8 152.7,217.2 152,220.9 152,226.6 152.8,237.7 
				155.2,247.2 159.7,260.6 165.6,273 172,285 176.1,291.6 181,289.5 182.9,288.9 179.6,285 172.8,273.2 169.1,266.2 165.6,259.4 
				161.8,251.1 159.8,245.4 156.5,235.1 155.5,229.8 154.7,222.7 154.8,217.5 155.2,210.6 			"/>
			<polyline class="st7" points="175.9,290.4 186.4,306.9 191.4,304.8 187.5,295.6 181.9,287.7 			"/>
		</g>
		<path class="st3" d="M147.8,200.8c0,0-41.2,44.7,30.5,144.8L203,328c0,0-71.9-81.5-45.3-124c0,0-22.1,31.2,50.3,119.2"/>
	</g>
	<g id="orange_square">
		<g id="orange_sqaure_colour">
			<polygon id="top_19_" class="st2" points="191,361.2 185.1,358.5 176.2,353 174.1,350.4 173.1,347.2 173.3,342.4 174.2,335.9 
				174.7,332.9 177.7,335.3 183.8,339.1 187.5,340.5 			"/>
			<polygon id="shadow_24_" class="st1" points="174.7,332.9 175.9,332.4 177.1,330 177.8,326.5 186.1,332.9 187.5,340.5 
				184.9,339.8 182,338 			"/>
		</g>
		<path class="st3" d="M191,361.2c0,0-12.5-4.9-16.2-9.7s0-18.6,0-18.6s1.8,1.1,2.9-6.4l8.5,6.7l1.4,8.1"/>
		<path class="st3" d="M175,333.3c0,0,9.9,7.8,12.5,7.2"/>
	</g>
	<g id="orange_slice_right">
		<g id="orange_slice_right_colour">
			<path id="top_20_" class="st2" d="M661.2,202.9c0,0-38.7,5.5-42.7,8.9c-4,3.5-17.6-2.5-17.6-2.5s6.4-9.4,6.8-9.4
				c0.4,0,5.4-1,5.8-1.3c0.4-0.3,11.1-5.7,11.1-5.7l11.5-3.7l8.7-1.3l12,10.2L661.2,202.9z"/>
			<path id="shadow_25_" class="st1" d="M657.9,223.1l0.8-6.1l2.1-12.1l0.4-2l-5.6,0.6l-9,1.5l-9.9,1.6l-6.3,1.5l-10.5,1.9
				l-15.6,11.8l0.9,7.8l16.7-1.2c0,0,10.2-2.3,10.8-2.3c0.7,0,12-1.9,12-1.9L657.9,223.1z"/>
		</g>
		<path class="st3" d="M603,205.4c3.3-1.4,19.5-16,41.8-17.5c0,0,14.5,11.4,16.5,15.1c0,0-38.1,3.5-51.7,13.3l-2,15.9
			c0,0,34.3-9,50.3-9.1c0,0,1.9-18,3.6-20.2"/>
	</g>
	<g id="green_right_side">
		<g id="green_right_side_colour">
			<path id="top_22_" class="st5" d="M437,247.3l-7.9,17.1l-4.8,9.4l-6.3,11.3l-5.5,8.9l-3.2,4.6l-6.9,8.7l-7,7.3l-5.3,6.5l16.2,5.5
				c0,0,10.4-4.6,11-4.8c0.5-0.2,9.8-7.2,9.8-7.2l9.8-10.2l5.6-7.2l5.4-8.2l3.3-5.9L456,273l3.1-8.6l2.3-8.7l-11.7-4L437,247.3z"/>
			<path id="top_21_" class="st5" d="M490.7,285.3c0,0,64.3-37.8,86.1-41.1l45.2-15.7c0,0,27.6-5.8,35.9-5.4c8.3,0.4,18.7,0,18.7,0
				l12,1.3l14.1,3.4l6.4,1.9l13.4,6.4c0,0,16.5,7.9,26.1,26.6l1.2,0.7l2.2-0.2c0,0,2.4-0.8,2.8-1c0.4-0.2,14-8.2,14.8-9.9l0.7,7.4
				l0.7,14.1l-0.9,10.6l-1.2,9.6l-3.4,16l-5.9,17.3l-5,10.8l-5.7,10.1l-7.4,10.6l-6.3-2.6l-19-8.6l-16.6-8.7l-13.1-7.5l-7.9-5.4
				l-6.5-4.5l-10.7-8.4l-8.1-7.3l-5.8-6.1l3.8,0.2l9.8,0.9l9.2-0.3l16.9-3.3l-4.2-8.4l-5.9-6.5l-6.1-5.8l-5.2-3.2l-7.8-3.1l-7.6-1.6
				l-3.6-1l-6-0.2l-8.6,0l-16.6,0.8l-17.5,2.6l-31.5,10l-12.5,5.9l-12.3,7.1l-10.9,7.4l-7.9,6.1l-13.2,11.9l-13,14.1l-9.2,12l-4.4,7
				l-1.2-3.3l-1.7-8v-9l1.1-10.5l1.7-9.6l2.4-9.5L490.7,285.3z"/>
			<path id="shadow_27_" class="st4" d="M461.3,255.7l5,2.5c0,0,7.7,5.1,7.6,5c-0.1-0.1,4.5,4.8,4.5,4.8l1.5,4.6l-1.5,3.4l-3.5,4.6
				l-14.6,15.1l-10.6,10.9L435.5,321L422,334.6l-14.2-7.5l11.3-6.2l11.7-9.8l8.8-9.7l5.4-7.2l5.6-9.4l4.9-9.1l2.8-7.7L461.3,255.7z"
				/>
			<path id="shadow_26_" class="st4" d="M483.3,352.6c0,0,5.9,4.5,6.3,4.7s9.9,4.6,9.9,4.6l8.9,2.5l11.8-14.1l8.2-9.6l10.5-10.4
				l9.9-8.5l12.5-9.1l38.8-11.4l5.6-2.3l7.6-0.1l12.2,1.2l9.6,2.1l9.7,3.2l1.5,0.6v6.8l1.7,12.6l2.6,9.4l2.6,6l6.1,10l9.5,5.2
				l23.2,12.5l40.7,19.5l6.4,2.2l6.2,0.9l1.5-3l4.2-9.3c0,0,6.2-16.5,6.3-16.8c0.1-0.3,5.1-17,5.1-17l3.4-14.5l2.7-15.2l1.4-11.6
				l1-13l0.2-10.1l-1.1,7.9l-1.1,7.6c0,0-4.2,33.6-27.2,62.9l-24.2-10.4l-17.8-9.5l-21-12.9l-11-7.6l-6.1-5.3l-6.9-6.3l-6.9-7.2
				l6.1,0.8l13,0.5l7.3-1.1c0,0,10-1.8,13.2-2.6c0,0-5.5-14.7-17.4-20.9l-7.1-4.2l-8.2-2.7l-9.9-2h-5.7l-16.5,0.4l-11.1,0.7
				l-25.4,4.6l-21.4,8.4l-19.1,10l-13.4,8.7l-9.1,6.9l-13.2,11.9l-4.2,4.8l-6.8,6.9l-7.8,10.1L483.3,352.6z"/>
		</g>
		<path class="st3" d="M490.7,285.3c0,0-16.7,47-7.3,67c0,0,50-87.8,156.3-84.6c0,0,33-2.4,48,29.7c0,0-22.3,6.5-40.3,1.8
			c0,0,24.3,31.7,94.3,59.7c0,0,36-42.3,28-106.7c0,0-18,14.7-21,10.3C748.7,262.7,705,159.3,490.7,285.3z"/>
		<path class="st3" d="M483.3,352.3c0,0,7.7,8.7,25.3,12c0,0,42.3-58,77.7-61.7c0,0,25.3-10.7,60,3.3l1-6.7c0,0-5.7,29.7,12,51
			c0,0,73.7,42.7,86,40.7c0,0,33-60.7,24.3-138.7"/>
		<path class="st3" d="M741.7,359c0,0,4.7,24.7,3.7,32"/>
		<path class="st3" d="M461.3,255.7c0,0-4.6,50-67.1,79.5l-14.6-13.5c0,0,22,6.6,57.3-74.4L461.3,255.7z"/>
		<path class="st3" d="M404,335.2l10.4,7.2c0,0,53.2-53.9,63.2-64.8c10-10.9-16.3-21.9-16.3-21.9s-9.6,56-67.1,79.5
			C336.7,358.7,404,335.2,404,335.2z"/>
	</g>
	<g id="orange_loop">
		<g id="orange_loop_colour">
			<path id="top_23_" class="st2" d="M359.8,278.9l10-6.1l9.9-6.1l-0.2,8l1.4,5.1l5.7,18.2l5.9,13.8l3.5,7.5l27.8,46.8l5.3-0.6
				l3.1-1.8l1.8-3.5l1-5.8l0.3-7.2l-0.8-8.4l-3.1-13.8l6.3-6.2l1.8,7l2.4,10.8l0.6,9v8.1l-1.2,6.4l-3.9,5.7c0,0-3.1,2.8-3.2,3.2
				s-3.1,2.5-3.9,2.4s-16.1,0-16.1,0l-28.8-22.7l-13.6-31l-4.8-14.2l-4.6-14.6L359.8,278.9z"/>
			<path id="shadow_28_" class="st1" d="M379.7,266.8l10.1,3l-1.4,2.8c0,0-1.8,12.5,11.7,41.8l2.6,4.7l-2.4,1.5l-6.8-6.9l-8.4-20
				l-2.1-6.2l-2-7.6l-1.4-5.1L379.7,266.8z"/>
		</g>
		<path class="st3" d="M359.8,278.9c0,0,13,48.6,19.9,54l19.6-7.4c0,0-21.4-39.2-19.6-58.8L359.8,278.9z"/>
		<path class="st3" d="M402,329.1c0,0-25.4-44.1-22.3-62.4l10.1,3c0,0-9.4,4.5,17.1,59.4l22.8,41.6c0,0,22.7-1.5,8-52l-6.2,6.3
			c0,0,9.7,31.5-1.8,41.1"/>
	</g>
	<g id="green_square">
		<g id="green_square_colour">
			<polygon id="top_24_" class="st5" points="356.2,280 365.8,270 366.9,274.6 368.7,284.1 369.8,289.8 366.6,292.1 362.4,295.8 
				360.3,298.6 359.4,296.8 358.4,290.9 			"/>
			<polygon id="shadow_29_" class="st4" points="372.2,263.1 365.8,270 369.8,289.8 366.6,292.1 362.4,295.8 360.3,298.6 
				361.6,300.6 364.5,303.4 368.5,299.8 375.2,293.1 374.6,285.1 373.3,273.8 			"/>
		</g>
		<path class="st3" d="M356.2,280l3.5,17.5c0,0,2.4,5.2,4.8,5.4l10.8-9.7l-3-30.1l-6.3,6.6L356.2,280z"/>
		<path class="st3" d="M369.8,289.8l-3.8-20L369.8,289.8z"/>
		<path class="st3" d="M375.2,293.2l-5.5-3.5c0,0-9.1,6.4-9.4,8.8"/>
	</g>
</g>
<g id="orange_back">
	<path id="background2" class="st10" d="M198.2,186.5c0,0,3.5,6.8,1.5,10.8s-8,9.5-8,9.5s-9.5,8-3,19.5c0,0-0.5,6.5-3.5,7.8
		s1.2,22.5,1.2,22.5s9.5,29,25.8,28.8s24.2-5,24.2-5l36-20.2c0,0,11.8,16.8,27,2c0,0,11,13.8,21.2,15.8c0,0,8.2,18.2,17.5,13.2
		s31.5-11.8,31.5-11.8s12.2-2.2,6.5-10c0,0,22.5,17,32,7.5l23.2-11c0,0,0.8-2.2,14.2,11.5s27,14.6,27,14.6s12.5,1.6,19-4.6
		c0,0,13.2,19.2,26.8,12.5c0,0,18.8-12.5,32.5-17c0,0,26.2-5.2,38-24.5c0,0,13.2-13.2,11.5-30.2S589,152.2,589,152.2
		s13.8-8.8,7.5-8.8l4.2-24.2c0,0,5.1-4.5-11.7-17c0,0,7.5-22.5-15.2-27.5c0,0,2.2-24.2-9-27.8c0,0-3-4.8-20.2,14.5
		c0,0-0.5-14.5-12.8-8c0,0-8-9.5-17-5.2S503,58,503,58l-0.2,3.2c0,0-25.2-9.2-27.8-3c0,0-2,2.8-1.2,7c0,0-22.5-11-32.2-9
		c0,0,3.2-10.5-23-11.5s-22.5,6-22.5,6s-5.9,1.5-3.2,5.2l-3.3-0.5c0,0-3.8-11.2-15.2-9.8s-15,11.2-15,11.2s-12.5-5.2-14.8-2.2
		c0,0-12.2,6-13.8,11.8c0,0-12.5-14.2-24.8-8.5s-17,24.8-17,24.8s-2-16-9.2-20c0,0,2.2-5.2-9.5-9.8s-20.8,0-20.8,0s-18-2.5-23.5,0.8
		S196.8,68,203.8,77s3.8,19.8,3.8,19.8l-6.8,22.5l-6,26.8c0,0-5.5,21.1,7.2,26.9C202,172.9,193.5,179,198.2,186.5z"/>
</g>
<g id="black_back">
	<path id="background" d="M221.8,62.2c0,0-15.8,8-13.2,14.5s6.2,11.8,3.2,22.5s-11.8,53-11.8,53s-2,14,6.5,18s1,4,1,4
		s-9.2,4.2-3.5,13.5c0,0,2,9.8-1,13.5s-6.5,9-6.5,9s-4.2,6.5-2,12.2s-0.7,10-0.7,10s-5.4,7,0,17.8c0,0,6.9,32.2,22.2,28.8
		s34.8-13.8,34.8-13.8l38.8-23.5c0,0,34.8,36.8,39.8,34.8c0,0,3.2,13.5,9.8,8s28.8-10.2,28.8-10.2s10,2.2,0-13.5l4.4-2.8
		c0,0,27.3,21.5,37.6,12.2l22.5-10.5l21.2,16c0,0,24.5,23.5,40.8,3.2c0,0,5.5,14.8,15.2,15.5s12.2-2,12.2-2s7.2-6,49-22
		c0,0,23.2-12.8,26.2-39L583.5,149l8-2.5l4-33l-21-15.8l-2.5,1.8c0,0-6.5-29.5-3.2-39c0,0-2.2-8.5-6.2-9.2S543,68.5,543,68.5
		s-3.5-14.5-8.5-11s-5.5,1-5.5,1l-6.8-5.8l-6.2-0.2l-9.8,8.8l1.5,10.8L481,62.2c0,0-3.8-1.2-2.5,3.8c0,0-1.2,5.2-0.2,6.8l-27.8-11.5
		c0,0-12.2-4.5-12.2,1.2c0,0-3.5-10.8-7-11.3C427.8,50.8,406,50,406,50s-5.8,0.5-3.5,5.5c0,0-7-2-6.5,4v4.8c0,0-15.2-9.2-22.2,1.5
		s-8.2,20.8-8.2,20.8s3.5-19.2-3.2-21.8c0,0-18.5-11.8-29.2,6.8l-5.8-0.2c0,0-9.4-15.2-24.8-6c0,0-9.5,13-13.2,34.2
		c0,0-4.5-1.8-6.5,1c0,0-0.5-28.8-10-36.8S257.5,56,257.5,56s-6.2-1-6.8,3C250.8,59,234,56.8,221.8,62.2z"/>
</g>
<g id="orange_top">
	<path class="st10" d="M255.5,162.2c0,0,6.5,21.2-3,41.8c0,0,1.1-37.3-3-38.5L255.5,162.2z"/>
	<path class="st10" d="M328.8,204c0,0-8.8-17.8-1.8-19c0,0,2.8-1.8,9,0c0,0,11.2,1.8,13.4,4.5c0,0,2.9-5.9,1.4-12c0,0-3.3,5-13,4.7
		s-16.2-3-16.2-3s-6-3-2.8,1C318.8,180.2,321.2,194.5,328.8,204z"/>
	<path class="st10" d="M389.8,172.9v2.6l6.2,10.7c0,0,4-1.3,4.5-4.5L389.8,172.9z"/>
	<path class="st10" d="M351.2,150.8l2.8,13.5c0,0,1.9-12.7,4.8-13.5C358.8,150.8,354.4,152,351.2,150.8z"/>
	<path class="st10" d="M325.5,138c0,0-2,5.2,0,6.8s7.2,1,7.2,1S331.2,139.8,325.5,138z"/>
	<path class="st10" d="M251.8,103.5c0,0-8,19.5-5.6,23.8c0,0,5.6-2.8,5.6-13.2C251.8,114,250.5,110.2,251.8,103.5z"/>
	<path class="st10" d="M356,132.8c0,0-7.2,4.2,5-29.2C361,103.5,355.2,127,356,132.8z"/>
	<path class="st10" d="M399,140c-0.3-0.7-1.2,3.8-1.2,3.8s3.2,0,5,5.5h5C407.8,149.2,400.8,144.5,399,140z"/>
	<path class="st10" d="M418,150.8c0,0,7.1,14.8,6.2,17.5c0,0,13.8-9.8,19.6-10.8c0,0-5.2-21.9-2-24.6s4.8-13.2,4.8-13.2
		s2.2-14-7.2-23.2c0,0,1.3-1.5-2.8,8.8c-1,2.5-5.5,18-4.1,22c1.4,4,2.9,6.8,2.9,6.8s3.2,5.8-2.9,13.2
		C432.4,147.2,428.2,152.2,418,150.8z"/>
	<path class="st10" d="M469,200.2l-1.4-11.6c0,0-0.7-0.8-1.7-0.4S466.2,196.2,469,200.2z"/>
	<path class="st10" d="M504.1,223.8c0,0,8.9-6.4,7-10.2c-1.9-3.8-1.2-16-1.2-16l1.4-0.5v-2c0,0-5.9-1.1-7.3,1.6
		C502.8,199.3,502.5,221.1,504.1,223.8z"/>
	<path class="st10" d="M531.2,179.8c0,0,10.7-13.2,13.9-13.8c0,0,0.2,9.1,1.5,10.7l0.4,5.6l3.2,20.2l-2,7.4c0,0-1.3-23.4-6.1-26.2
		S531.2,179.8,531.2,179.8z"/>
	<path class="st10" d="M543.5,123.2c0,0-7.1,12.2-5.9,20.4c0,0,6.4-3.1,7.9-6.2c0,0,0.7-5.1,0-6.7c0,0,0.3-1,0.9-0.8
		C546.4,130,548.4,129.8,543.5,123.2z"/>
	<path class="st10" d="M520.2,108.9l-0.6,3.2c0,0-3-1.8-2.7-4.4l0-0.8C516.9,107,519.3,109.1,520.2,108.9z"/>
	<circle class="st10" cx="280.1" cy="277.6" r="3.6"/>
	<circle class="st10" cx="302.5" cy="285" r="6.7"/>
	
		<ellipse transform="matrix(0.2958 -0.9553 0.9553 0.2958 215.2705 363.8857)" class="st10" cx="354.4" cy="35.9" rx="5.4" ry="4.3"/>
	<circle class="st10" cx="367" cy="37.2" r="3.1"/>
	
		<ellipse transform="matrix(0.7071 -0.7071 0.7071 0.7071 96.8747 289.2454)" class="st10" cx="397.6" cy="27.7" rx="6.6" ry="5.1"/>
	<circle class="st10" cx="589.4" cy="64.5" r="8.4"/>
	<circle class="st10" cx="598.6" cy="77.5" r="2.8"/>
</g>
<g id="white_letters">
	<path id="Y1" class="st11" d="M248,172.3c0,0-4,58.2,11.5,47.9s5-52.2,5-52.2s0.8-16-6.7-10.8s-34.8,19.1-37,15.7
		c0,0-11.5,3.3,0-36.9s11.5-43.2,11.5-43.2s1-7.8-6-13.2s14-11,14-11s12.2-2,17.5,4.8c0,0-10,13.2-6.5,21.2l-9.4,24.8
		c0,0-4.1,23.2,10.2,15.2s3.2-43.2,3.2-43.2s1.2-20.6,16.5-23c0,0,8,12.8,6.2,34c0,0-3.2,4.2-7.5,3.8s0.8,16.5,0.8,16.5
		s6.2,6,2.8-5.2l-1.5-7.5c0,0,8.2-1.8,12-4.5c0,0,4.5,13.5,2.5,20c0,0-9,2-4.2,18.2c0,0-3.8-0.8-4,7.8l-4.8,21.1
		c0,0-13,29.3,12.2,65.2c0,0-44.8,33.2-64,36.2c0,0-6.5,2.8-10.5-13.2c0,0-11-16.8-5.5-20.8c0,0,15.8-0.2,9-15.8c0,0-3.8-7,6.2-15.2
		s2.8-9.8,2.8-9.8s-5.8,0.5-3.5-11.5L248,172.3z"/>
	<path id="EE" class="st12" d="M292.2,129c0,0,13-38.8,15.2-45.5c0,0-0.2-9,3.5-9s5.8,2.8,5.8,2.8s2.2,8.5,9.5,6.2s5.2,1.2,5.2,1.2
		s-2,13.5,3,12.2s6.2-17.2,6.2-17.2s-0.5-11,11.2-9.2s9.8,6.8,9.8,6.8s-0.5,19.5-6.5,32.2s-4.8,23.2-4.8,23.2s8,9.2,15,0
		c0,0,7.8-55.2,17.8-58.8s21.5,17.5,21.5,17.5s4.2,7,6.5-3.5s0-9.2,0-9.2l-5.8-3.2l0.8-6.2c0,0,5.8,3.7,6-1c0.2-4.7,0-7.5,0-7.5
		h21.2c0,0,0.5,28-10.5,68.2c0,0,0.2,4.5,6.5,11c0,0,1.2,7.2-6,8c0,0-13.5,4.5-21.2-10.2c0,0-3.8-7.1,0.8-33.1c0,0-11-13.7-13-9.7
		s6,12.2,6,12.2s3,14,0,27.2s-4.2,14.1-4.2,14.1s12.5,6.6,17.8,4.1c0,0,3.8,4.5,3.8,14s5.2,14.5,5.2,14.5H404L381.5,161
		c0,0-6.8-5.8-6.8,2l-1.5,3c0,0-1,5,4.8,2l2-2.5l5.5,4.5c0,0-3,36.8,15,45.5c0,0,10.4,7.7,5-15c0,0-8.5-11.2-3-15.2s18.5,2,18.5,2
		s6.8,9.8,6.2,19.5s12,39.5,12,39.5l-35.5,16.5c0,0-38.2-13.5-45.5-36c0,0-10.5-30.2,3.2-76.8l12.2-5c0,0,2.2,4.8,4.8,2.2
		c0,0,1.2-6,3-6.5c0,0,1.5-6-6.5-3.2c0,0-0.8,3.2-5.8,5.2s-8.5,7.2-29,2.2c0,0-4.8-1-8.5-7c0,0-2.5-3.5-6-3.8v-10.8
		c0,0-0.8-1.8-3-1.8s-2.2,2.8-2.2,2.8l-1.4,23.4c0,0-2.2,7.2,11,7.1c0,0,10.2-2.5,10.9,6.8c0,0,4.9,17.5-2.2,16.8c0,0-5,2-20-3.6
		c0,0-6.8-2.8-6.1,4.4l-0.8,14.1l0.6,10.6c0,0,8.9,19.5,18.1,13.2c0,0,6.9-2.5,2.2-13.8s-3.6-15-3.6-15s-0.5-1.6,4.1-0.1
		s8.6,1.2,8.6,1.2s5.8,0.9,7.6,5.5c0,0-2.4,34.8,15.4,48.8l4.6,9.6l-29.2,14.2c0,0-52.1-22.6-62.1-66.5c0,0,0.5-38.8,8.8-57.5
		c0,0-4-9.2-1.8-11.1S292.2,129,292.2,129z"/>
	<path id="E_bottom" class="st12" d="M332.8,276.9l29.2-13.8l4,6.9c0,0-31.1,14.1-30.4,11.2C335.6,281.2,333.9,280.8,332.8,276.9z"
		/>
	<path id="Z" class="st12" d="M443.5,254.1c0,0,27.5,30.5,35.6,27.5c0,0,15.5-1.2,13-9.3c-2.5-8-2.5-8-2.5-8s-5.6,1.8-7.6-1.2
		s-21.9-25.9-33.4-47c0,0,0.4-2.5,3.8-2.6s5,1.1,5,1.1s24.8,46.9,29.9,45.6c0,0-1-19,12.1-23c0,0-14.5-21.1-1.5-46.6c0,0-5-7-2.6-14
		c0,0-17.4-2.6-20.5,0.6c0,0-2,14.5,1.4,32.1c0,0,1.9,10.8-6,4.9s-11.8-25.1-11.8-25.1s-0.4-2.4,11.8-7c0,0-1.5-7.9,2.5-9.2
		c4-1.3,15.1-1.9,18.4-0.6c0,0,2.5-3.7,5.1-4.1c0,0,1-13.9,9.5-28.1s11.9-26.5,11.9-26.5l-4.4-2.8v-7.2c0,0-8.5-9.4-4.6-14.2
		s2.6-9.5,2.6-9.5l-1.1-3.1L493.1,70c0,0,1,5.1-1.2,7.1s2.4,10.1,2.4,10.1s6.1,3.2,6.5,3.2s6.5,10.1,6.5,10.1s-6.9,32.2-6.9,32.8
		s0.1,5.2-4.2,3.1c0,0-2.9-0.1-2-3.9s3.6-17.9,3.6-17.9s5.5-14.6,0.9-18.6l1.2-1.3c0,0-6.1-6.4-12.1-6.2c0,0-0.6-2.9-4.8-4.9
		c0,0-23.1-13.6-36.1-14.4c0,0-2.1-0.6-2.4,1.1s-0.9,6.4-0.9,6.4l-0.7,3.9c0,0-0.6,4.1,2,7.4c0,0,7.3,11.9,18.5,20.6
		c0,0,2.6,0.9,1.1,6.9s-1.3,9.4-1.3,9.4s1.3,3.6,3.6,5.4s0.4,4.8,0.4,4.8l-2.2,2.4c0,0-5.1,4-3.5,5.6c0,0,0.2,2.9-1.4,3.5
		s1.1,10.8,1.1,10.8s24.8-0.6,24.7-31.4l-5.6-2.8l2.9-2.2l7.3,2.4l0.8,1.1l-1.1,4.6l-0.8,0.4c0,0-1.2,19.2-10,24.9
		s-17.2,6.9-17.2,6.9s-20.5,2.8-25.8,9c0,0-13.5,10-11.8,14.8c0,0,5.2,7,6.5,17.6c1.3,10.7,4,20.3,4,20.3s7.1,21.7,9.3,23.3
		c2.2,1.7,2.4,3.8,2.4,3.8S448.1,253.7,443.5,254.1z"/>
	<path id="Y2" class="st12" d="M559.3,183.7l5,27c0,0,3.3,5.2-4.3,11.2l-7.5,8.7c0,0-9,8.8-9.3-6.8c-0.3-15.7,0-30-3.3-35.5
		c0,0-2-1.3-8.3,3.5c0,0-11,5.3-11,7.3s-1.3,8.2,0,10.2c0,0,3-0.2,7.3-0.8c4.3-0.7,1.8,5,1.8,5s-2.8,4.7-6,5.5
		c-3.2,0.8-9.5,9.7-9.5,9.7s0,19.7,9.7,25.5c9.7,5.8,34.2-11,34.2-11s-5.2-9,0.2-9c0,0,3.8-1,5,1.3c1.2,2.3,0.3,5.2,0.3,5.2
		s3.7,7.8-1,7.3s-11.5,5-11.5,5s-17,9.2-20.8,8.8c-3.8-0.3-11.3,4.2-19.7-19.2c0,0-12,2-12.2,6.8c-0.2,4.8,5.3,23,5.3,23
		s5.3,20.2,11.3,17.5c6-2.7-3.2,6.8,14-7c0,0,8.2-4.9,32.5-12.5c0,0,9.3-1.2,26.3-24.8c0,0,10.2-11.3,1-34.8l-10.2-64.3l7-3.2
		l2.8-25.3l-10.3,7.3c0,0-4.3,1.3-6.7-11.5s-7.3-22-8.3-44.5l-17,23c0,0-5.8,18.8,4.5,37c10.3,18.2-1.8,20.2-1.8,20.2
		s-15.3,4.5-15.5-6c-0.2-10.5,6.2-22.3,6.2-22.3s1.8-2.2,3-1.3c0,0-2.8-9.3-1.7-16.8c1.2-7.5,2.2-13.2-1-16.8c0,0-1.5-2.2,2.3-5.2
		c3.8-3-3-11.7-3-11.7s-0.7-0.8-3.3,1.8c-2.7,2.7-8.2-0.3-8.2-0.3l-5.8-6.2c0,0-7,7-9,7.2c-2,0.2,2.8,10.2,2.8,10.2s0.5,5.2-3.3,8
		c-3.8,2.8,3.7,12.2,3.7,12.2s4.3,5.8,7.5,5s0,6,0,6l-7.5,23.3c0,0-20.2,46-11.3,53.7c8.8,7.7,27.5-18.7,27.5-18.7l15.5-13.5
		c0,0,5.3-4.8,7.2,4.2C556.7,171,559.3,183.7,559.3,183.7z"/>
</g>
<g id="accents">
	<path class="st10" d="M436.1,245l-32.8,15.4c0,0-7.9-2.4-12.3-6.4l29.4-13l-0.8-6.1l10.6-5.1C430.4,229.8,432.4,236.5,436.1,245z"
		/>
	<polygon class="st10" points="428.6,223.1 418.6,227.9 418.8,230 429.1,225.3 	"/>
	<polygon class="st10" points="427.9,220.6 418.2,225.4 418.5,227.3 428.5,222.6 	"/>
	<polygon class="st10" points="582,139.7 574,143.2 581,177.5 585.8,200.2 582.5,201.8 569.7,138.8 582.8,130.8 	"/>
	<path class="st10" d="M268.5,210.9c0,0-5.2,16.6-14.9,13l1.9,4.5l16.4-7.9c0,0,5.5,12.8,8.3,15.1c0,0-44.2,33.5-58.1,32.1l-0.1,3
		c0,0,23.1-4,60.9-34.5c0,0-12.7-19.6-12-26.5L268.5,210.9z"/>
	<path class="st10" d="M501.5,250.7l7-2.2c0,0,5.6,11.9,10.3,13.2l-12.8,4C506,265.6,502.8,260.2,501.5,250.7z"/>
	<path class="st10" d="M521,263.3l-14.4,4.4c0,0-0.1,2,0.7,3.5l17.3-6.2L521,263.3z"/>
	<path class="st10" d="M511.4,153.8c0,0-19.7,54.5,9.9,27.5l-6.8-1.3c0,0-15.7,23.5-2.2-25.5L511.4,153.8z"/>
	<polygon class="st10" points="521.6,181 514.8,179.6 515.2,178.9 522.6,180.1 	"/>
	<polygon class="st10" points="522.8,179.9 515.5,178.5 515.9,177.7 523.7,178.8 	"/>
	<path class="st10" d="M221.9,265.2c0,0-0.6-12-3.4-17.1c0,0,1.7-6.1,0.8-7.9l0.9-0.3c0,0-0.9,22,5.9,20.2c0,0,12.1-4.5,14.2-6
		l0.8,2.1l1.3,3.7c0,0-13.9,8-20.3,7.3L221.9,265.2z"/>
	<path class="st10" d="M309.2,183.1l-24.8,16.3l-0.8-39.6c0,0-4.5,31.5-3.3,40.9c0,0,1.3,6.3,3.9,13l26.1-28.3v-3.2L309.2,183.1z"/>
	<path class="st10" d="M285.2,215.8l25.1-28.4v2.7l-17.9,38C292.3,228.1,286.8,219.7,285.2,215.8z"/>
	<path class="st10" d="M271,222.4c0,0,5.4,12.8,7.2,13l-7.9,5.6l-6.7-14.6L271,222.4z"/>
	<path class="st10" d="M262,227.1l7,14.9c0,0-4.7,3.3-5.3,3.4l-7.2-15.5L262,227.1z"/>
	<path class="st10" d="M356.2,200.1c0,0,1.5,21.1,3.5,24.6c0.6,1.1,5.8,20.9,44.1,35.9l7.1-3.8c0,0-38.6-14.6-47-33.4
		C364,223.5,360.1,215.4,356.2,200.1z"/>
	<path class="st10" d="M366.6,252.2l-3.3-7.2c0,0-4.1-2.9-6-6.3l-3.5,1.8l5.9,9.1l-6.9,2.6c0,0,4.3,2.9,5.9,3.4l0.6,0.3L366.6,252.2
		z"/>
	<polygon class="st10" points="351.8,252.8 358.1,256.8 356.2,257.7 350,253.6 	"/>
	<polygon class="st10" points="350.4,255.3 355.6,258.1 354.1,258.8 348.9,255.9 	"/>
	<polygon class="st10" points="350,257.3 353.1,259.3 352.2,259.8 349.1,257.8 	"/>
	<path class="st10" d="M480.5,249.8c0,0,7-6.7,9-6.6c0,0-6,9.2-3.5,13.9C486,257,481.6,251.8,480.5,249.8z"/>
	<path class="st10" d="M479.9,248.5l-2.8-4.8c0,0,11.7-2.9,13.5-2.4C490.7,241.2,482.5,245,479.9,248.5z"/>
	<path class="st10" d="M460.9,239l-1.2,4.6l21.1,23.4c0,0,4.2,3.2,7.5,0c0,0-4.1,0.8-6.7-0.5C481.6,266.5,461.9,241.2,460.9,239z"/>
	<path class="st10" d="M476.7,178.6c0,0-2,8,0.8,19.1h0.9v-16.3c0,0,8.2,0.1,7.7,0.1s0-3,0-3S477.8,177.4,476.7,178.6z"/>
</g>
<g id="tag">
	<polyline class="st13" points="610.4,571 617.1,566.1 619.5,570.5 	"/>
	<path class="st13" d="M615.5,570.2l-5.3,22.2c0,0,82.4-54.8,135.8-31.5c0,0,4.4-11.5,7.7-11.6"/>
	<path class="st13" d="M756.8,541.9c0,0-2-0.1-2.6,1.4s0.5,2.3,0.5,2.3s2.2,1.1,2.9-0.9s0-2.2,0-2.2"/>
	<path class="st13" d="M760.3,537.1c0,0-2.4,0.3-1.7,2.3c0.7,2,2.7,0.6,2.7,0.6s1.6-0.4,0.8-1.7C761.3,537,760.3,537.1,760.3,537.1z
		"/>
	<path class="st13" d="M646.3,587.6l14.8-52.4c0,0-36.7,36.6-34,16.7"/>
	<path class="st13" d="M661.7,583.5c0-0.2,10.4-39.9,10.4-39.9l14.6,36.2"/>
	<path class="st13" d="M683,553.9c0-0.8,4.1-18.3,4.1-18.3l4.7,8l7.9-12l1,21.9"/>
	<polyline class="st13" points="730.6,528.1 708.6,533.1 707.4,576.8 733.6,570.2 	"/>
	<path class="st13" d="M663.2,597.6c0.2-0.2,31-17.1,37.5-18.4"/>
	<path class="st13" d="M669.3,601.6c0,0,32.9-19.1,38.9-20.2"/>
</g>
<g id="kanye_1_">
	<g id="kanye_character">
		<defs>
			<rect id="clip" x="91.3" y="100.8" width="593.8" height="511.2"/>
		</defs>
		<clipPath id="clip_1_">
			<use xlink:href="#clip"  style="overflow:visible;"/>
		</clipPath>
		<path id="left_hand" class="st14" d="M144.4,173.8l-1.5,1.9l0.8,3.8l7.4,12.9l9.4,12.8l7,8.7l2.5,9.4l8,17.8l9.2,14.3l20.3,13.6
			l-3.7-29.9l6-4.3l5.7-4.5l-3.5-22.9l-4.9-18.4l-1-2.8l-3.1-13.6l-5.5-13.2l-4.1-6.9l-3.7-5.8l-4.2-3.8l-2.5,0.8l-1.4,1.8l-0.1,4.2
			l1.1,5.1l3,5.9l8.9,24.2l0.2,3.8c0,0,0,1.4-0.5,1.7c-0.5,0.3-1.5-0.3-1.5-0.3l-2.2-8.3l-6.2-14.9l-9.5-17.8l-3.8-7l-3.8-2.9
			l-4.6,0.1l-1.9,1.2l-0.5,2.9l0.8,5l14.5,27.9l5.3,11.4l0,3.8l-3.2-3.9l-7.3-11.2l-8.7-14.6l-5.2-8.3l-3.6-2.2l-2.7,0.9l-1.3,2.3
			l0.6,4.5l2.3,5.7l11.2,18.9l9.1,12.8l0.3,2.5l-0.8,2.3l-1.7-0.6c0,0-9.2-12.6-9.8-13.3c-0.5-0.7-8.1-9.8-8.4-10.1
			c-0.3-0.4-5.1-4.1-5.1-4.1L144.4,173.8z"/>
		<path id="white5" class="st15" d="M182.2,154.2c0,0,1.2-7.7,4.6-5.2c3.4,2.5,7.6,10.6,7.6,10.6s5.7,9.3,8.6,25
			c0,0,1.5,7.6,4.4,14.6c2.9,7,4.3,21.7,4.3,21.7s0.6,7.9-3.1,0c-3.6-7.9-5.6-13.3-5.6-13.3l-0.4,12.8l3.9,12.3l8.7,49.6l2,5.2
			l5.5-6.1l-3.4-4.6l0.7-8.3l-3.4-20.8l1.3-7.3l-1.8-8.7l-5.6-31.2l-2.4-8.9l-2.7-9.7l-2.9-11.8l-4.2-9.3l-4.1-7l-3.4-5.5l-3-3.8
			l-3.3-1.6l-2.5,1.7l-1.2,2.8L182.2,154.2z"/>
		<path id="left_hand_shadow" class="st16" d="M184.5,251.9c0,0,10.4-1.3,13.9,1.6l-8.3-12.1c0,0,2.4-10.5,6.7-12.2l-0.1-6.3
			c0,0-4.1-4.3-1.4-11.5c2.7-7.2,6.9-8.4,6.9-8.4s2.4-1.1,1.8,8.4c0,0-1.7,6.2,2.1,10.8c3.8,4.6,7,11.9,7,11.9s1.3,5.3,0,12.8
			c0,0,4.3,27.6,4.5,32c0.1,4.3,1.4,7.4,1.4,7.4l-12.9,7.7h-14.3l-6.6-8l2.3-11.6l-0.4-18.9L184.5,251.9z"/>
		<path id="undershirt" class="st17" d="M220.6,281c0,0-3,13.5-28.7,11.7l5.5,4.4h16.5l8.9-5.5l0-9.1L220.6,281z"/>
		<path id="red_shirt" class="st18" d="M185.5,283.3l13.9,12.7c0,0,17.9,1.9,23.4-7.8l0.1,6.5l6.2,4.3l4.1,9.7l4.3,18.7l6,18.2
			l2.7,7.2l2.5,7.6l6.5,14.5l12.6,6.4l5.6,9.5l6.2,2.2l6.6,9.5l1.9,1.7l4.5-2.8l5.6,5l1.8,0.4l4.5-2.4l39.1,10.9l4.4,13.2l18.5-6.2
			l57,3.7l16.6-3.4l26.4-1.6l12.6-9.2l22,0.7l6-1.6l5.1-9.5l17.9-11.3l2.5-2.3l7.3-13.9l4.3-6.5l10.3-35.5l3.3-13.9l3.8-7.4l4.3-8.6
			l1.2-13.3l1.1-3.1l4.3,1.4L605,296l0,11.5l5.6,7.3l-19.9,45.6l-23,60.8l-15.2,43.6l-32.5,23.7l-20.8,33.8l-2.1,6.4l7.9,43.5
			l2.5,15.7l7.4,38.6c0,0,5,18.9,5.2,19.4s3.2,6.1,3.2,6.1h-19.3h-112H284.6l1.7-21.9l3.8-40.6l5-37.8l4.4-18.3l-6.7-16.3
			l-48.6-68.9l-32.9-43.6L196,375.6l-8-51.1L185.5,283.3z"/>
		<path id="dark_right_arm" class="st19" d="M502.7,490.7l2.6-12.7l8-1.2c0,0,23.9-18.5,35.1-19.4l-9.7-15.3l-9.5-1.9l10.5-2.8
			l-9.7-30.5l12.3,13.3h8l-7.5-29.9l7.5,5.3l4.9-14.8l1.7-29.9c0,0,3.2-11.8,5.2-13.5c0,0,0.2-17.2,2.8-21.5
			c2.6-4.3,5.2-18.3,5.2-18.3s14.7,17.2,34.8,0l0,10l5.2,5.8l1.5,5.3l-0.6,14.6l0.4,10.4l-1.3,2.2l-2.9,2.4l-3.1,8.6l-3.1,16.5
			l-3.5,20.8l-4.4,12.3l-7,13.3l-2.8,3.4l-2.3,1.8l-4.9,8.3l-17.2,27.5l-4.2,5.6l-4.5,4.2l-18,20l-20.2,22.5l-13.9,13.7l5,33.7
			l7.7,45.3l-17.5-71.1l1.5-44.9L502.7,490.7z"/>
		<path id="dark_left_arm" class="st19" d="M187.5,275.1c0,0-0.3,21.9,20.4,22.8c0,0,8,1.7-0.9,8.4c-9,6.7-11,6.5-11,6.5v7.5h17.2
			c0,0,13.5,24.3,15.5,29.9s5.2,24.5,7.9,24.7l-15.7,17.4l-1.7,13.8l17.4-12.7c0,0,8,10.3,11.6,21.3c3.6,11,34.2,69.2,34.2,69.2
			s2-37.4,0-50.3c0,0,11.8,58.1,12,67.5c0.2,9.3-1.5-55.9-1.5-55.9s6.9,52,9,53.7c0,0-1.3-58,2.2-65.2l1.1,37.8l2.2-29.2
			c0,0,3.2,46.2-1.3,56.5c-4.5,10.3-6.6,35.5-6.6,35.5l-5.3-14.6l-5.4-8.6l-8.2-9.4l-23.1-29.4l-22.2-29.5l-19-25.7l-9.6-13.4
			l-8.1-10.6l-2.2-2.3l-2.9-15.8l-7.3-41.7l-3-19.8l-0.6-6.6l3.9-2l-1.1-10.5l0.1-11L187.5,275.1z"/>
		<path id="dark" class="st19" d="M478.6,463.6L444.1,652h18.8l17.4-162.6l8.1,26.4v-8.1c0,0-9.5-45.1-8.4-48.8L478.6,463.6z"/>
		<path id="dark2" class="st19" d="M310.9,534.2c0,0-3.7,106.6,0,117.8h3.7C314.7,652,311.3,588.8,310.9,534.2z"/>
		<path id="dark3" class="st19" d="M359.5,452.9c0,0,10.7,9.3,12.9,13.1h2.1C374.5,466,365.9,456.1,359.5,452.9z"/>
		<path id="dark4" class="st19" d="M314.7,441.7l3.9,55.3c0,0,14.8,43.2,14.4,46.4l13.8,18.7c0,0,29,27.5,33.3,27.5
			c4.3,0,16.5-1.1,16.5-1.1l-15.9-3.9c0,0-31-23.9-36.5-38.5c-5.4-14.6-15.7-30.4-15.7-30.4l-5.8-13.7
			C322.7,501.9,319.1,464.3,314.7,441.7z"/>
		<path id="dark5" class="st19" d="M441,552.4c0,0-8,3.2-12,4.7l-7.8-1.3l-7.4,3.6H407l-7.9,3.7l11.4-2.1l4.6,0.4l6.1-3.6l7.8,1.2
			C429,559,436.4,555.4,441,552.4z"/>
		<polygon id="dark6" class="st19" points="339.5,484.5 345.3,516.6 350.9,518 354.5,521.7 354.5,532.2 364.8,543.2 375.6,543.2 
			387.2,526.2 391.7,528.2 396.5,523.2 403.1,530.9 409.7,530.1 442.7,485.6 406.3,526.4 395.4,517.8 392.1,525.6 385.9,523.4 
			372.4,537.2 366.3,540.6 356.7,531.6 357.8,518.3 352.5,513.8 348.7,512.9 		"/>
		<path id="pink" class="st20" d="M220.6,277.9v35.3l2.2-6l1.5,6l2.4-2.2v4.9l1.9,3.7v15.9l3-16.8v-2.8l7.3,22.6v7.3l4.3,12.5
			l-1.3,26.2l1.3-1.7l0.7,6.2l7.9-6.4l4.1-0.6c0,0,7.1,16.1,6.9,24.9c0,0,0.9-9.7-4.9-27.3l4.9,3.4l2.6,10.3l5.4,0.6
			c0,0,2.4-1,3.8,1.8c1.4,2.7,3.3,6.7,3.3,7.2c0,0.6,4.9,13.8,2.6,17.4c0,0,3.4-4.3-0.6-17.4c0,0,2.8-1.5,3.7,0
			c0.9,1.5,2.6,7.1,2.6,7.1l3.4,18.1l-0.8-16.5l3.4,9.5v-13.5h2.6l4.7,6.7l3.6,1.9l1.5,12.7l1.3-10.5l1.3,2.6c0,0-0.8-9.3,1.1-9.5
			s4.3,4.9,4.3,4.9l3.5,7.7h4.6l3.6-6.7h2.6l0.9,4.9l6.2-0.9l1.7,17.9l6-2.6l-3.7-1.5l1.5-17.4l2.2,5l1.7,6.4v27.7l2-7.5
			c0,0,4.8-10.1,4.8-9.5c0,0.6,1.3,19.6,1.3,19.6l3.4,2.8c0,0-1.5-5.2-1.3-5.8c0.2-0.6-1.3-13.1-1.3-13.1l3.4-1.7l1.9,6.7l5.2-0.6
			l-2.2-4.1l2.2-0.7l-7.1-9.5v-3.7l7.1,7.7v-10.1h4.3l52.7,6.4h5.8v2.8l-18.7,16.5l6-1.2l16.3-12.5l1.3,4.5l-17.2,29.5l21.5-10.1
			l17.4-19.3l-18.1-3.9v-12l4.7-2.2h10.1l4.1,0.9l5.6-3.4v7.3l5,3.2l4.1-2.2V425l2.1,1.3l7.3-9.3l3.6-0.7v11.2l2.4-10.1l2.1,4.1
			l2.2-5.2l5.2,4.7l2.6-4.9l1.3,4.3l-5,9l3.7-1.9l-0.4,8.6l8.6-19.1l-4.1,12.5l15.1-27.1l2.6-0.9l2.4,1.7l6-3.4l-3.7,14.2l18.7-37.2
			l2.6,3.9l3.9-23l6.9-23.9l1.7-5.8l1.1,18.9l2.8-33.4l-15.4,54.3l-6.9,10.3l-5.9,11.7l-12.4,5.8l-7.4,6.6l-5.2,5.9l-2.2,3.3
			l-3.2,1.4l-3.2,0l-2.7-2.4c0,0-4.9-0.9-5.6-1c-0.7-0.1-6.2-0.1-6.2-0.1l-4.8,3l-5.8,3.6c0,0-6.9,2.8-7.4,2.9s-7.5,0-7.5,0
			s-2,1.9-3.3,2.3c-1.3,0.4-13.1,1.5-13.1,1.5l-4.9,0.8l-6,1.9l-4-0.9l-3.8-1.3l-58.3-3.9l-6.5,1.5l-8.3,1.9L345,420l-1.8-6.3
			l-6.1-1.4l-20.9-4.8l-13.2-3l-3.3,2.7l-2.2-1.1l-3.5-3.2l-2.2-0.7l-2,1.5l-1.9,0.8l-1.9-1.7l-5.3-7.7l-3.9-3.6l-3.5-0.4l-5.6-9.5
			l-12.6-6.4l-4.8-10.6L247,357l-1.7-7.9l-4.5-10.5l-5.2-17.3l-1.3-7.6l-3.4-11l-2.6-5.2l-3.4-2.1l-2-0.7l0-9.6l-0.3-4.9
			L220.6,277.9z"/>
		<path id="right_hand" class="st14" d="M605,266.7c0,0-18.9,5.1-30.9-17.1l-6-3.5v-12.5l-3.6-10.5l-4.3-1.8l-2.3-5.2l-5.7-4.4
			l-3.9-5.9c0,0,0.8-4.5,4.4-4.2s6.8,1.4,6.8,1.4l5.5,3.2l9,9.1l2.8-28c0,0,2.9-16.2,3-16.6c0.1-0.4,3.6-12.1,3.6-12.1l4-8.7
			l3.5-2.1l2.9,1.3l1,3.6l-1,4.8l-2.6,14.1l-1.2,8.8l0.2,4.4l1.4-0.7l2.2-4.8l5.3-17.4l2.8-14.7l1.8-4.4l4.3-1.4l2.9,1.7l1.2,5.7
			v4.5l4.2-3.3l2.6,0.8l1.3,4.5l-2.3,19.2l-3.2,15.3l-1.7,11.4v3.3l2.3,1l3.6-3.7l7.4-16.1l4.8-10.5l3.3-3.1l2.3,1.2l1.7,3v5.3
			l-2.8,5.5l-12.2,26.7l-1.2,8.3l-3.3,14.2l-2.7,8.1l-4.7,10.6l-5.2,8.2l-1.1,1.8L605,266.7z"/>
		<path id="right_hand_shadow" class="st21" d="M605,298.8c0,0-11.6,13.6-27.9,5.3l-6.9-5.3l0.3-31.1l0.6-9.1l-6.2-11.8l-2-8v-7.8
			l-3.6-12.5c0,0,5.9-0.7,9.2,6.7c3.4,7.4,2.8,15.1,2.8,15.1s3.6,15.4,10.8,17.7c0,0,14.7,9.7,22.8,7.1V298.8z"/>
		<path id="watch" class="st22" d="M605,279.5c0,0-7.9,9.1-19.5,7.2c0,0-12.7,2.5-14.8-15.7l-2.6,0.7l-0.1,7.3l0.7,6.7
			c0,0,0.1,7.7,11.5,11.2c11.3,3.5,24.8-7.4,24.8-7.4L605,279.5z"/>
		<path id="white" class="st23" d="M548.2,205.2l0.6-2.4l3.1-1.3l3-0.6l3.9,1.1l6,3.4l5.5,5l3.5,4c0,0-0.6,5.4-3.9,1.3
			s-7.3-6.7-7.3-6.7s-4.2-4-9.3-3.9C548.2,205.2,548.2,205.2,548.2,205.2z"/>
		<path id="white2" class="st23" d="M584.5,155.7c0,0,5.5-7.3,9.3,0.9l0.9-4.2v-3.5l-3.9-1.3l-2.9,1.4L584.5,155.7z"/>
		<path id="white3" class="st23" d="M601.2,148.9c-0.4,0.4,2.1-6,2.1-6l2.9-1.5l3.6,0.6l1.7,3.1l0.2,5.2h2.5l3.3-0.4
			c0,0,1.4,0.8,1.7,1.8c0.3,1,0.6,4.9,0.6,4.9s-2.6-6.3-7.3-4.5C612.6,152.2,608.6,141.1,601.2,148.9z"/>
		<path id="white4" class="st23" d="M630.8,174.6c0,0,5.4,0,7.1,5.9l-0.3-5.9l-2.3-2.8H632L630.8,174.6z"/>
		<path id="hat" class="st24" d="M371.9,319.6l-8.5,4.1l-4.3,5.7l-2.4,7.9l-0.4,1.2l-5.1,4.9l-2.2,4.5v4.9l2.5,1.5l1.9,1.5
			c0,0,2.3-0.8,2.4-1c0.1-0.3,20.2-19.5,20.2-19.5l25,0.1l20.9,10.9l5.5,5.5l2.9,5.2l1.4,3l-0.7-7.8l-6.2-20.8l-3.4-5.9l-5.1-3.9
			c0,0-5.1-1.8-5.4-1.8c-0.3,0-3.3-3.1-3.6-3.3c-0.2-0.1-9.3-2-9.3-2h-15.9l-6.2,4.7L371.9,319.6z"/>
		<path id="brim" class="st17" d="M356.1,371.3l-2.1-7.2v-10.3c0,0-4.9-3.5-0.5-9.3s13.3-11.2,13.3-11.2s8.7-5.6,15.4-5.3
			c6.6,0.3,8.2-1.1,15.8,1.1c7.6,2.2,11,4.1,11,4.1s10.5,6.6,12.8,9.3c2.2,2.7,8,9.9,9.6,16.4v11.9l-1.8-0.1l-4.6-2.9l-2.6-12.8
			l-4.5-5.4l-24.8-6.9l-9.5-0.3l-18.7,10.2L356.1,371.3z"/>
		<path id="face" class="st25" d="M360.8,352.4l-3,6v11.5l1.1,15l2.5,17.4l7.3,12.1l7.5,9.6c0,0,13.8,4.4,14.2,4.4
			c0.4,0,17.9-3.6,17.9-3.6l10-13.6l5.4-16.9l4.6-22.8c0,0-0.7-12.1-0.8-12.3c-0.1-0.3-4.7-9-4.7-9.3s-5.7-2.7-5.7-2.7l-14.5-3.9
			c0,0-15.3-4.2-15.5-4.1c-0.2,0.1-19.7,9.2-19.7,9.2L360.8,352.4z"/>
		<path id="face_shadow" class="st26" d="M365.3,419.2v8.7c0,0,8,14.3,31.2,12.3s23.7-7.9,23.7-7.9l2.4-9.3v-9.4l4.5-10.7l2.4-7.5
			l1.4-7.6l2.1-9.6l0.7-7.4l-2.1-1l-0.1-7.2c0,0-3.3-10.8-9.8-15s-26.4-11.4-26.4-11.4h-13.6c0,0-19.9,8.9-25.7,21.8v13.1l-1.1,1.5
			l-2.5,0.9l0.5,2l1.7,2.4l4.2,27.6l5.2,10.6l8.3-0.5l-9.3-18.7l6.4-8.7l-9.7-7.3l-0.7-22.8l3.6-4.6l4.5,3.3l15.8-12.4l7.4-0.8h5.9
			l13.6,10.1l5.2-3.9h5.5l4.3,8.2l0.7,11.3l-6.3,24.7l-1.6,5.7l-7.1,6.7l1,6.8l4.9,5.1l-4.8,5.8l-17.1,7.9l-15.8-1.1l-5.1-7.4
			l-3.6-4.9L365.3,419.2z"/>
		<path id="face_highlight" class="st23" d="M425.7,369.4l-3.3,12.9c0,0,2.8-2.6,5,20l2.2-7.3C429.6,395,428.9,370.2,425.7,369.4z"
			/>
		<polygon id="neck_highlight" class="st23" points="422.4,413.2 417.8,419.2 420.1,421.5 420.1,426.4 418.2,428.6 418.6,433.8 
			422.4,433.8 		"/>
		<polygon id="beard" class="st27" points="412,411.8 418.4,418.4 407.7,431.6 398.3,435.8 391.1,435.8 378.1,433.8 366.3,419.9 
			363.3,414.5 374.9,414.3 375.9,404.1 383.5,397.8 387.9,396.8 401.7,396.4 407.2,399.3 411.6,404.8 		"/>
		<polygon id="mouth_skin" class="st25" points="378.4,406.8 378.4,414.9 386.3,424.9 392.2,425.8 397.6,425.8 401.4,424.4 
			402.1,420.4 406.6,420.4 409.7,414.7 409.7,410.1 405.7,403.3 400.3,400.1 388.3,399.7 		"/>
		<path id="mouth" class="st27" d="M388.3,415.9v3.5c0,0,7.8,2.4,12,0v-2.6l-7.5,0.1L388.3,415.9z"/>
		<path id="left_eye" class="st17" d="M369.1,373.5l1.1-0.5c0,0,2.6,2.4,5.5,1.7s5.7-2.1,5.7-2.1h1.4c0,0-0.3,2.5-5.6,3.6
			C371.9,377.2,369.1,373.5,369.1,373.5z"/>
		<path id="right_eye" class="st17" d="M402.1,372.6h2.3c0,0,2,1.9,5.4,1.3c3.4-0.6,3.6-0.6,4.5-1.3h1.9c0,0-1,2.5-6.4,3
			S402.1,372.6,402.1,372.6z"/>
		<path id="right_nostril" class="st28" d="M386,391.4c0,0,0,1.4,1.2,1.5s2.9,0,2.9,0s0.6-1.4-0.9-1.5
			C387.7,391.3,386,391.4,386,391.4z"/>
		<path id="left_nostril" class="st28" d="M397.6,391.4c0,0-0.7,1,0.9,0.8c1.6-0.2,3.2,0,3.2,0s0.9-1.2-0.5-1.7
			C399.8,390,397.6,391.4,397.6,391.4z"/>
		<path id="left_brow" class="st29" d="M364.3,367.2c0-0.3,0-3,0-3s3.8-5,5.8-5.1c2-0.2,6.2-0.3,7.2,0.7c1,0.9,5,4.6,5,4.6l-6.3-0.3
			c0,0-2.2-2.3-3.7-2.1c-1.5,0.2-6.4,5.3-6.4,5.3H364.3z"/>
		<path id="right_brow" class="st29" d="M408.3,363.1h7.8l4,3.2V362c0,0-2.5-2.1-4.8-2.1c-2.2,0.1-12,0-12,0l-2.1,2l3.1,3.3
			C404.3,365.1,407.6,364.9,408.3,363.1z"/>
		<path id="left_nose" class="st30" d="M384,383.1c0,0-3,3.5-3.1,4.9c-0.1,1.4,0.4,1.2,0.4,1.2s3.4-3.9,3.4-4.1
			S385.7,382.7,384,383.1z"/>
		<path id="right_nose" class="st30" d="M402,384.8l2.3,3.2c0,0,1.3-0.3,0-2.1s-2.3-2.8-2.3-2.8S400.4,382.6,402,384.8z"/>
		<path id="hat_shadow" class="st31" d="M363.3,327.4c0,0-4,4.3-3.8,9c0,0,13.6-12.5,30.6-12.7c0,0-2.1-1.7-13.2,0.8
			c0,0-1-0.7,0.1-1.4c0,0-2-0.2-5.5,3.5l-6.4,4.3c0,0-1.3-3.8,0.3-4.5L363.3,327.4z"/>
		<path id="hat_shadow_2" class="st31" d="M418.4,326.9c0,0-1.8,1.2,0,2.9s3.6,1.2,4.6,3.9c0,0-1.7-4.9-2.7-5.8
			C419.2,327.1,418.4,326.9,418.4,326.9z"/>
		<path id="outline_1_" class="st32" d="M498.2,526.9c0,0,16.3,117.8,25.2,125.1H284.6c0,0,6.8-99.8,14.9-117.8
			c0,0-2.8-15.7-14.9-28c-12.1-12.3-75.7-99.3-75.7-99.3s-9.3-14.6-12.3-15.4c0,0-13.7-73.5-14-84.7l3.9-2c0,0-3.4-21,1.1-29.7
			v-19.1c0,0-15.9-20.4-20.2-42.1c0,0-29.4-35.3-23.8-39.5c0,0,3.2-3.1,6.1,0c2.9,3.1,20.8,24.7,21.1,27.5c0,0,2.2-0.3,1.9-5
			c0,0-28.4-37.6-23-44c5.4-6.4,11.9,8.4,11.9,8.4s18.5,32.2,20.5,30.6c2-1.7-20.5-42.1-20.5-42.1s-3.4-10.1,1.2-10.4
			c4.6-0.3,6.9-1.4,10,6.2c0,0,16.9,27.2,20,44.6c0,0,2.4,3.1,2-4.6c0,0-7.4-22.8-10.8-28.1c-3.4-5.3-2.2-11.9-2.2-11.9
			s2.4-4.6,5.7-1.5c3.4,3.1,7.9,11.6,7.9,11.6s8.4,11.4,11.1,31.5c0,0,5,8.2,9.3,43.2c0,0,4.6,10.1,1.1,17.4c0,0,5.4,18.5,2.5,29.9
			c0,0,3.9-0.6,3.8,5.5c-0.1,6,0,11.6,0,11.6s9.5,0.6,12.3,25c0,0,6.4,24.7,10.1,29.4l1.7,7.9l8.1,17.9l12.6,6.4l5.6,9.5
			c0,0,3.9-0.6,6.2,2.2c2.2,2.8,7,11.2,8.4,11.2c1.4,0,4.5-2.8,4.5-2.8s4.5,2.8,5.6,5c1.1,2.2,5-2.2,5-2.2l40.1,9.3
			c0,0,0,11.8,10.4,8.4c10.4-3.4,11.8-2.8,11.8-2.8l-6.4-14.9l-4.2-26.2c0,0-4.2-4.9-1.1-5.2c3.1-0.3,3.1-0.3,3.1-0.3
			s-3.1-6.9-3.1-13s-1-4.8-1-4.8s-5.9-2.7-3.1-8.7c2.8-6,7-7.9,7-7.9s1.1-11.9,8.8-16c7.7-4.1,10-3.2,10-3.2s4.8-5.6,13.9-5.3
			c9.1,0.3,15.2,1.5,15.2,1.5s4.3,0.8,6,4.3c0,0,4.4-0.6,8.5,3.2c4,3.8,5.7,6.9,5.7,6.9s6.3,19.5,6.7,25.2
			c0.4,5.7,0.4,15.6,0.4,15.6s3.9-3.4,1.4,7.9c-2.5,11.2-3.5,17.1-3.5,17.1s-4.1,14-6.9,18.2v9.4c0,0,6.2,2.4,7.9,2.2
			s4.5-2.5,13.7-2.9c9.3-0.4,10.2-1.3,10.2-1.3s2.2-3.4,7-2.4s9.5-2,9.5-2s6.7-3.4,9.5-6.3c2.8-2.9,14.4-0.1,14.4-0.1
			s1.5,2.4,2.7,2.4c1.1,0,6,1,8-3.6s12.3-12.8,12.3-12.8s10.4-5.9,13.6-6.7c0,0,9-20.5,12.3-21.9l11.5-39.8c0,0,1.8-13,5.2-16.3
			c3.4-3.2,5-8.3,5-8.3s-0.8-14.4,2.5-15.9c0,0-2.8-15.6,2-15.4l1-14c0,0-9.3-13.5-8.1-22.2c1.1-8.7-5.2-20.6-5.2-20.6
			s-13.8-8.6-8.4-13c5.4-4.5,15.4,3.2,15.4,3.2s8.7,7.4,9,9c0,0,2.4-43.6,11.1-59.4c0,0,1.7-7.2,5.9-7.3s3.9,4.8,3.9,4.8
			s-6.3,28.6-4.6,31.7s9.4-21.9,9.8-28c0,0,1.8-14.2,4.7-14.2c0,0,7.9-4.2,7.2,7.9c-0.7,12.1-10.1,47.4-10.1,47.4s-0.4,3.5,2-2.1
			c2.4-5.6,7.4-26.9,8.2-34.3c0.8-7.4,0.5-10.5,4.2-10.9s4.9,3.1,3.1,15.7s-8.4,36.1-6.4,38.1c1.9,2.1,4.5,2.7,12.1-15.1
			c0,0,6.2-19.3,10.5-16.7s2.5,9.4,2.5,9.4l-14.6,31.5c0,0-3.1,32.1-18.2,50.2l0.1,44.6c0,0,7.7,5.9,6.6,12.2
			c-1.1,6.3-0.1,24-0.1,24s-1.8,3.8-3.1,3.6s-3.6,6.9-3.6,6.9s-7.3,37.7-7.2,40c0.1,2.2-10.2,28.9-16.1,30.1
			c0,0-22.7,39.7-28.2,43.6C547.9,471.8,508.7,519.1,498.2,526.9z"/>
	</g>
</g>
<g id="top_arrows_colour">
	<g id="sply">
		<g id="sply_350_arrow">
			<g>
				<path d="M645,485.7l-0.4,0.5c-19.4,26.4-43.2,47.1-70.6,61.4c-22,11.5-46.3,19-72.4,22.2c-10.7,1.3-20.8,1.8-30,1.8
					c-29,0-48.9-5-49.2-5.1c-11.4-2.6-34.1-27.8-36.2-30.2l-0.9-0.1l12.7-12.9l0.4,0.2c14.9,6.7,41-3.8,41.3-3.9l0.5-0.2l0.1,0.2
					c2.8,0.5,26.8,4.1,57.7-0.1c30.2-4.1,73.4-16.8,107.6-54l0.2-0.3l7.7,2.5l0.1,0L645,485.7z M643.3,486l-29.8-16.9l-5.9,4.4
					c-0.9,1.2-14.9,18.5-41.1,33.9c-24.9,14.6-66.2,30.5-121.8,23.1c-7.4,5-19.3,7.6-35.3,7.6c-0.2,0-0.4,0-0.6,0
					c-9.5,0-17.7-1-20.9-1.4c4.7,5.2,24.7,26.6,34.7,28.8c0.4,0.1,34.7,8.8,78.9,3.2c25.9-3.3,50.2-10.7,72-22.1
					C600.6,532.4,624.1,512.1,643.3,486z M606.9,472.7l5.4-4.1l-6.3-2c-34.4,37.2-77.7,49.9-108,54c-11.1,1.5-21.3,2-29.9,2
					c-14.1,0-24.1-1.3-27.3-1.8l4.2,8.6c55.2,7.4,96.3-8.4,121-22.9c26.8-15.8,40.7-33.6,40.9-33.7L606.9,472.7z M443.9,529.7
					l-4.4-8.9c-1.7,0.7-7.6,2.8-14.7,4.4c-11.2,2.4-20.2,2.2-26.6-0.5l-10.6,10.8C394.1,536.4,427.9,540.3,443.9,529.7z"/>
				<path class="st2" d="M613.6,469.1l29.8,16.9c-19.2,26-42.7,46.4-69.9,60.6c-21.8,11.4-46.1,18.8-72,22.1
					c-44.2,5.5-78.5-3.1-78.9-3.2c-10-2.3-30-23.7-34.7-28.8c3.3,0.4,11.5,1.4,20.9,1.4c0.2,0,0.4,0,0.6,0c16,0,27.9-2.6,35.3-7.6
					c55.6,7.5,96.9-8.4,121.8-23.1c26.2-15.4,40.2-32.8,41.1-33.9L613.6,469.1z"/>
				<path class="st1" d="M612.3,468.6l-5.4,4.1l-0.1,0.1c-0.1,0.2-14,18-40.9,33.7c-24.7,14.5-65.7,30.3-121,22.9l-4.2-8.6
					c3.2,0.5,13.2,1.8,27.3,1.8c8.7,0,18.9-0.5,29.9-2c30.3-4.1,73.6-16.9,108-54L612.3,468.6z"/>
				<path class="st1" d="M439.5,520.8l4.4,8.9c-16,10.6-49.8,6.6-56.3,5.7l10.6-10.8c6.4,2.8,15.4,2.9,26.6,0.5
					C431.9,523.6,437.8,521.5,439.5,520.8z"/>
			</g>
			<g>
			</g>
		</g>
		<g id="sply_350">
			<g>
				<path class="st33" d="M476.6,547c-0.8,0-1.2,0.1-1.9,0.1c-0.3-1.5-1-2.3-2.1-2.3c-0.7,0-1.2,0.2-1.5,0.6c-0.3,0.4-0.4,1-0.4,1.8
					c0.1,0.6,0.3,1.1,0.7,1.6c1.9,2.2,2.8,3.2,4.7,5.3c0.9,1,1.4,2,1.5,3.2c0,0.5,0.1,0.7,0.1,1.1c0.1,1.3-0.1,2.4-0.8,3.3
					c-0.7,1-1.6,1.5-2.7,1.5c-0.8,0-1.2,0.1-2,0.1c-1.4,0.1-2.4-0.3-3.2-1c-0.7-0.8-1.2-1.9-1.3-3.5c0.8,0,1.2,0,2-0.1
					c0,0.2,0,0.3,0,0.4c0.1,0.6,0.3,1.1,0.8,1.4c0.4,0.3,0.9,0.5,1.4,0.4c0.7,0,1.2-0.3,1.5-0.7s0.4-1,0.3-1.8
					c-0.1-0.6-0.3-1.1-0.7-1.6c-1.9-2.1-2.8-3.2-4.7-5.4c-0.9-1-1.3-2.1-1.4-3.3c0-0.5-0.1-0.7-0.1-1.2c-0.1-1.3,0.2-2.4,0.9-3.3
					c0.7-0.9,1.5-1.4,2.6-1.4c0.8,0,1.1,0,1.9,0C474.7,542.5,476.1,544,476.6,547z"/>
				<path class="st33" d="M482.4,562.9c-1-8.3-1.5-12.4-2.5-20.6c3.1-0.2,4.6-0.3,7.6-0.6c1-0.1,2,0.3,2.9,1.1
					c0.9,0.8,1.4,1.8,1.6,3c0.1,0.9,0.2,1.3,0.4,2.2c0.2,1.2,0,2.3-0.6,3.3c-0.6,1-1.5,1.5-2.5,1.6c-1.6,0.2-2.4,0.2-3.9,0.4
					c0.5,3.6,0.7,5.5,1.2,9.1C484.8,562.7,484,562.7,482.4,562.9z M484.9,551.1c0.8-0.1,1.2-0.1,1.9-0.2c0.5-0.1,1-0.3,1.3-0.8
					c0.3-0.5,0.4-1,0.3-1.6c-0.1-0.9-0.2-1.4-0.3-2.3c-0.1-0.6-0.4-1.2-0.8-1.6c-0.4-0.4-0.9-0.6-1.5-0.5c-0.8,0.1-1.1,0.1-1.9,0.2
					C484.4,547,484.6,548.4,484.9,551.1z"/>
				<path class="st33" d="M498.5,560.9c-1.4-8-2-12-3.4-20.1c1.5-0.2,2.3-0.3,3.8-0.5c1.3,7.1,1.9,10.6,3.2,17.7
					c2.4-0.4,3.6-0.6,5.9-1.1c0.2,0.9,0.3,1.3,0.4,2.2C504.5,560,502.5,560.3,498.5,560.9z"/>
				<path class="st33" d="M516.3,557.5c-0.8-3.4-1.2-5.2-2-8.6c-2.6,0.2-4.2-1-4.8-3.5c-0.6-2.6-0.8-3.9-1.4-6.5
					c1.5-0.3,2.2-0.4,3.7-0.7c0.6,2.6,0.9,3.9,1.5,6.5c0.1,0.6,0.4,1.1,0.9,1.4c0.5,0.3,1,0.5,1.5,0.3c0.5-0.1,0.9-0.4,1.2-0.9
					c0.3-0.5,0.3-1,0.2-1.6c-0.6-2.6-0.9-3.8-1.5-6.4c1.5-0.3,2.2-0.5,3.7-0.8c0.6,2.5,1,3.8,1.6,6.3c0.6,2.5-0.3,4.2-2.7,5.2
					c0.8,3.4,1.2,5.1,2,8.5C518.7,557,517.9,557.2,516.3,557.5z"/>
				<path class="st33" d="M532,546.6c-0.2-0.8-0.4-1.2-0.6-2.1c3.8-1.1,5.6-1.7,9.3-3c0.3,0.8,0.4,1.2,0.6,2
					C537.7,544.8,535.8,545.4,532,546.6z"/>
				<path class="st33" d="M546.4,528.4c4.3-1.6,6.4-2.4,10.6-4.2c0.3,0.8,0.5,1.1,0.8,1.9c-1.5,2.4-2.3,3.6-3.8,6.1
					c0.7-0.3,1.1-0.4,1.8-0.7c1-0.4,2-0.4,3,0.2c1,0.5,1.7,1.2,2,2.1c0.6,1.5,0.9,2.3,1.5,3.8c0.4,1,0.4,2.1,0,3.2
					c-0.4,1.1-1.1,1.8-2.1,2.3c-1.5,0.7-2.2,1-3.7,1.6c-2.2,0.9-3.9,0.1-5.1-2.4c0.7-0.3,1.1-0.4,1.9-0.7c0.6,1.3,1.4,1.7,2.6,1.2
					c0.7-0.3,1.1-0.5,1.8-0.8c0.5-0.2,0.9-0.6,1.1-1.1c0.2-0.5,0.2-1.1,0-1.6c-0.6-1.5-0.9-2.3-1.5-3.8c-0.1-0.3-0.4-0.6-0.9-1
					c-0.5-0.4-1-0.4-1.6-0.2c-1.4,0.6-2.2,0.9-3.6,1.5c-0.3-0.8-0.4-1.2-0.7-1.9c1.6-2.4,2.4-3.6,3.9-6c-2.8,1.2-4.3,1.7-7.1,2.8
					C546.9,529.5,546.7,529.1,546.4,528.4z"/>
				<path class="st33" d="M560.5,522.6c4.2-1.9,6.2-2.8,10.3-4.9c0.3,0.7,0.5,1.1,0.8,1.8c-2.7,1.4-4.1,2.1-6.9,3.4
					c0.6,1.5,1,2.2,1.6,3.7c1.4-0.7,2.1-1,3.5-1.7c0.9-0.5,1.9-0.5,2.9-0.2c1,0.4,1.7,1,2.2,2c0.7,1.4,1,2.1,1.7,3.6
					c0.5,1,0.5,2,0.1,3.1c-0.4,1.1-1,1.9-2,2.4c-1.4,0.8-2.2,1.1-3.6,1.9c-2.1,1.1-3.9,0.4-5.2-1.9c0.7-0.3,1.1-0.5,1.8-0.9
					c0.6,1.2,1.5,1.5,2.6,1c0.7-0.4,1.1-0.5,1.8-0.9c0.5-0.3,0.8-0.7,1-1.2c0.2-0.5,0.2-1.1-0.1-1.6c-0.7-1.5-1-2.2-1.6-3.6
					c-0.2-0.5-0.6-0.9-1.1-1c-0.5-0.2-1-0.2-1.5,0.1c-2.1,1-3.2,1.5-5.3,2.5C562.3,527.1,561.7,525.6,560.5,522.6z"/>
				<path class="st33" d="M577.5,514.1c1.3-0.7,2-1.1,3.3-1.9c0.9-0.5,1.9-0.6,2.9-0.3c1,0.3,1.8,0.9,2.2,1.8
					c1.8,3.4,2.7,5.1,4.5,8.5c0.5,0.9,0.6,1.9,0.3,3c-0.3,1.1-1,1.9-1.9,2.5c-1.4,0.9-2.1,1.3-3.5,2.1c-1,0.6-2,0.7-3,0.4
					c-1-0.3-1.8-0.9-2.3-1.9c-1.7-3.5-2.6-5.3-4.3-8.9c-0.5-1-0.5-2-0.2-3C576,515.4,576.6,514.6,577.5,514.1z M582.5,515.4
					c-0.7-0.8-1.5-1-2.4-0.5c-0.5,0.3-0.8,0.6-0.9,1.2c-0.2,0.5-0.1,1,0.1,1.5c1.2,2.4,1.8,3.6,3,5.9
					C582.4,520.3,582.4,518.6,582.5,515.4z M583.8,526.6c0.3,0.4,0.7,0.7,1.1,0.8c0.4,0.1,0.9,0,1.3-0.3c0.5-0.3,0.8-0.7,1-1.3
					s0.1-1.1-0.1-1.5c-1.2-2.3-1.8-3.5-3-5.9C584,521.7,584,523.3,583.8,526.6z"/>
			</g>
		</g>
	</g>
	<g id="green_arrow">
		<path id="green_top_1_" class="st5" d="M107.7,303c0,0-49.5,60.8,36.7,150.7s0,0,0,0s-26.2,17-27.3,21l2.2,2.3
			c0,0,56.6,39.1,114.8,26.7l1.5-9.3l0.7-11.6c0,0,0.6-36.3-8.2-55.1c0,0-2.8-7-2.9-7.3c-0.1-0.3-4.3-8.7-4.3-8.7l-4.1-7l-3.5-5.2
			l-3.8-4.9l-1.9-2.2c0,0-20.9,21.9-23.4,29.2l-6.5-3.4l-3.5-2.5l-7.2-5.1c0,0-20.2-14-28.2-25.4S126.9,368,126.9,368l-5.2-12.2
			l-1.8-9.1l-0.6-10.3l0.7-7.4l1.1-5.7l1.5-5.1l1.7-4.6l2.4-5.3C126.7,308.3,114.5,301.6,107.7,303z"/>
		<path id="shadow" class="st4" d="M139,323.3c0,0-9.8-13-12.3-15c0,0-22.8,38.4,13.3,78.6C140,386.9,122.2,361.2,139,323.3z"/>
		<path id="shadow_1_" class="st4" d="M144.3,453.7c0,0-39.3-38.1-47.7-78.7c0,0,3,35.9,38.9,84.6L144.3,453.7z"/>
		<path id="shadow_2_" class="st4" d="M117,474.7c0,0,3.7,24,6,25.7c2.4,1.7,4.7,3.2,4.7,3.2s45,28.8,106.9,25.7
			c0,0,2.5-17.8-0.7-25.7C234,503.7,175.3,517.2,117,474.7z"/>
		<polygon id="shadow_3_" class="st4" points="234,503.7 235,507.6 235.6,513.9 236.4,512.3 237.2,496.4 237.4,485.3 237.2,476.1 
			236.4,478.9 236.3,485.3 		"/>
	</g>
	<g id="purple_arrow">
		<path id="top" class="st6" d="M576.7,432.5c0,0,49.4,62.7,113.6,41.2c0,0-2.1-11.9-9.8-21.8l-40.6-4l-4.2-0.5l-5.5-1.5l-7.4-4
			l-11.5-8.3l-7.8-6.9l-5.6-5.5l-5.4-5.8l-1.7-1.9l-0.4,0.6l-0.5,0.9l-1,1.7l-1.5,2.2l-1.5,2.2l-1.4,1.9l-0.6,0.8c0,0-1.4,1.1-1.8,1
			l-4.6,7.7"/>
		<path id="top_1_" class="st6" d="M684.5,446.9c0,0,13.2,15.7,13.8,17.4c0.7,1.8,1.6,0.1,1.6,0.1l1.7-1.1l3.6-1.3
			c0,0-5.9-15-12.2-19.5C693.1,442.6,686.4,443.1,684.5,446.9z"/>
		<path id="top_2_" class="st6" d="M697.9,438.6c0,0,9.3,16.6,16.1,21.2c0,0,4.6-2.2,4.9-2.3c0.3-0.1,5.2-1.3,5.2-1.3l5.8-0.5
			l6.1,0.3l4.5,0.9l7.6,2.4c0,0,5.2-3.8,3.9-20.5l-2.4-2.5l-7.5-4.9l-5.1-1.9l-4.8-0.9l-5.3-0.2l-6.1,0.6l-4.1,0.9l-3.3,1l-5.2,2
			L697.9,438.6z"/>
		<path id="shadow_4_" class="st7" d="M576.7,433.3l-7.4,12.5l12.3,13.1l8,7.1c0,0,41,36.6,82,33.3l5.9-0.5l5.1-0.8l4.7-1l3.2-0.9
			l2.7-1l1.6-2.1l-0.1-2.3l-1.2-4.6l-1-3.3l-2.2-9.2l-5.2,1.9l-8.4,1.5l-4.5,0.7c0,0-41.9,9.5-88.5-37.8l-5.8-6.2l-1-1L576.7,433.3z
			"/>
		<path id="shadow_5_" class="st7" d="M684.5,446.9l-0.7,1.5v3.5v4.7l4.5,9l1.1,3.8l1.6,6.5l1.7,6.9l2.5,3.2l2.9,3.3l2,1.9h1.4
			l2.2-1l7.7-5.4l0.2-3.8l-0.9-4.3l2.6,1.9l3.5,2.3c0,0,13.7-8.3,35.4,0l2.3-5.4l2.4-6.3l1.5-5.2l0.2-1.9l-2.2-7.6l-1-5.5l-1.3-5.1
			l-1.5-4.5l-0.4,1.1l-0.2,4.4l-0.2,4.7l-0.5,4.1l-1.4,3.1l-1.7,2.4l-2-0.7l-5-1.6l-7.5-1.2l-5.2-0.1l-4.9,0.7l-3.1,0.9l-3.9,1.1
			l-2.5,1.3l-3.4-3.1l-4.3-4.8l-2.9-4.3l-2.8-4.6l-2.8-4.5l-1.2,2.1v4.2l-0.3,1.3l2.6,3.4l1.9,3.5l3.6,6.8l0.9,2.2l-3.6,1.3
			l-2.9,1.8l-4.4-6.2L684.5,446.9z"/>
	</g>
</g>
<g id="top_arrows">
	<g id="green_arrow_top">
		<path id="green4" class="st3" d="M144.3,453.7c0,0-27.3,17.7-27.3,21c0,3.3,63.3,41.7,117,29c0,0,14-64-26.3-111.3
			c0,0-18.3,18.3-23.5,29c0,0-91.2-46.3-57.5-113c0,0-10-6-19-5.3C107.7,303,58.3,365,144.3,453.7z"/>
		<path id="green3" class="st3" d="M234,503.7c3,7.5,0.7,25.7,0.7,25.7c-64.2,2.2-108.9-26.2-111.6-29s-6.1-26.5-6.1-26.5"/>
		<path id="green2" class="st3" d="M135.5,459.6c0,0-44.3-52.1-41.6-115.9"/>
		<path id="green1" class="st3" d="M126.7,308.3c0,0-1.5-3,12.3,15c0,0-17.3,32.9,1.2,63.6"/>
		<path id="green5" class="st34" d="M234.7,529.3c0,0,7.6-57.2-2.8-91"/>
	</g>
	<g id="purple_front">
		<path class="st3" d="M590,412.7c0,0,28,33.5,48.7,35.2c20.7,1.7,41.8,4,41.8,4s8.2,10.8,9.8,21.8c0,0-55.5,24.8-113.6-41.2
			l-8.1,12.9c0,0,57.8,70.2,122.5,50.5c0,0,4.8-0.3,3.3-6.2l-4.1-15.9"/>
		<path class="st3" d="M684.5,446.9c0,0,13.7,16.2,14.3,18.4c0,0,4.4-3.5,6.4-3.2c0,0-4.2-12.1-12.2-19.5
			C693.1,442.6,686.5,443.2,684.5,446.9z"/>
		<path class="st3" d="M683.9,457c0,0-1-9.5,0.6-10.1"/>
		<path class="st3" d="M698.8,465.3c0,0,4.5,21.6,2.8,25.5c-1.7,3.8-9.1-8.4-9.1-8.4"/>
		<path class="st3" d="M705.2,462.1c0,0,7.6,15.6,6,22.8c0,0-6.9,6-9.6,5.9"/>
		<path class="st3" d="M696.7,446.5c0,0-0.2-7.2,1.2-7.9c1.4-0.8,32.2-22.4,54.1,0c0,0,1.5,15.8-3.9,20.8c0,0-19.1-8.5-34.1,0.4
			c0,0-7.8-7-10.9-12.9l-5.1-8"/>
		<path class="st3" d="M710.6,476.4c0,0,5.1,4.7,5.9,4.7s13.9-8.6,35.7,0c0,0,7.4-15.9,6.3-19.5c-1.1-3.6-4.9-21.5-6.5-23"/>
		<path class="st3" d="M748.1,459.4c0,0,5.2,8.2,4.1,21.7"/>
		<path class="st3" d="M716.5,481.1c0,0-4.3-20.3-2.5-21.2"/>
	</g>
</g>
<g id="drips">
	<path id="drip4" d="M554,542.9c0,0-0.4,1.4,0.6,1.7c1,0.3,1.6,1.7,1,2.4c-0.6,0.6,0.3,1,0.3,1s0.8,0.1,0.6-0.7
		c-0.1-0.8-0.2-1.2-0.4-1.7c-0.2-0.5-0.4-0.7-0.2-1.3s-0.6-1.4-0.6-1.4H554z"/>
	<path id="drip3" d="M580.4,516.9c0,0,0.3,0.2,0.3,0.9c-0.1,0.6,0.5,0.4,0.5,0.4s0.7-0.2,0-0.8c-0.7-0.5-0.3-1-0.3-1s0.6-0.5-0.4-1
		c-1-0.5-0.3-0.9-0.3-0.9l-1.1,0.3c0,0,0.5,0.9,1,1s0,0.6,0,0.6S579.9,516.8,580.4,516.9z"/>
	<path id="drip2" d="M611.2,598.8c0,0,0.7,0.3,0.9,1.5c0.2,1.2,1.2,0.5,1.2,0.5s1.3-0.8-0.4-1.4s-0.9-1.7-0.9-1.7s0.9-1.2-1.3-1.6
		c-2.1-0.4-1-1.5-1-1.5l-2,1.1c0,0,1.4,1.4,2.4,1.3s0.3,1.1,0.3,1.1S610.1,598.9,611.2,598.8z"/>
	<path id="drip1" d="M728.7,528.6c0,0-0.5,1.8,0.8,2.2c1.3,0.4,2.1,2.2,1.3,3.1c-0.8,0.8,0.4,1.3,0.4,1.3s1,0.1,0.8-0.9
		s-0.3-1.5-0.5-2.1c-0.2-0.6-0.5-0.9-0.3-1.7c0.2-0.8-0.8-1.8-0.8-1.8H728.7z"/>
</g>
</svg>
