<?xml version="1.0" encoding="utf-8"?>
<!-- Generator: Adobe Illustrator 21.1.0, SVG Export Plug-In . SVG Version: 6.00 Build 0)  -->
<svg version="1.1" xmlns="http://www.w3.org/2000/svg" xmlns:xlink="http://www.w3.org/1999/xlink" x="0px" y="0px"
	 viewBox="0 0 962 1105" style="enable-background:new 0 0 962 1105;" xml:space="preserve">
<style type="text/css">
	.st0{display:none;}
	.st1{display:inline;}
	.st2{fill-rule:evenodd;clip-rule:evenodd;fill:#E2E0E0;}
	.st3{fill-rule:evenodd;clip-rule:evenodd;fill:#BEC995;}
	.st4{fill:#F7F9F4;}
	.st5{fill-rule:evenodd;clip-rule:evenodd;fill:#97BD4C;}
	.st6{enable-background:new    ;}
	.st7{fill:#FAFAF7;}
	.st8{fill:#262545;}
	.st9{fill-rule:evenodd;clip-rule:evenodd;fill:#262545;}
	.st10{fill:#272545;}
	.st11{fill:#262242;}
	.st12{fill-rule:evenodd;clip-rule:evenodd;fill:#272545;}
	.st13{fill:none;}
	.st14{font-family:'ArialNarrow-Bold';}
	.st15{font-size:12.6381px;}
	.st16{font-size:23.5132px;}
	.st17{font-size:22.3697px;}
	.st18{fill:#585858;}
	.st19{font-family:'ArialMT';}
	.st20{font-size:14.0964px;}
	.st21{fill:#3C3C3C;}
	.st22{font-family:'Arial-BoldMT';}
	.st23{font-size:13.6103px;}
	.st24{font-size:29.1649px;}
	.st25{fill-rule:evenodd;clip-rule:evenodd;fill:#262242;}
	.st26{fill:#333334;}
	.st27{fill:#4D4C4D;}
	.st28{fill:#2E2E30;}
	.st29{fill:#4C4C4D;}
	.st30{fill:#262626;}
	.st31{fill:#303031;}
	.st32{font-size:16.0407px;}
	.st33{fill:#2A2A2B;}
	.st34{fill:#AD1E69;}
	.st35{font-size:27.2206px;}
	.st36{letter-spacing:26;}
	.st37{letter-spacing:17;}
	.st38{letter-spacing:28;}
</style>
<g id="Artboard_3_1_" class="st0">
	<g id="wireframes_5_" class="st1">
		<g id="page1_xA0_Image_5_">
			
				<image style="overflow:visible;" width="960" height="1093" id="page1_xA0_Image_4_" xlink:href="9F053FE833DD8248.png"  transform="matrix(1 0 0 1 2075 5)">
			</image>
		</g>
		<g id="page2_xA0_Image_3_">
			
				<image style="overflow:visible;" width="960" height="1093" id="page2_xA0_Image_2_" xlink:href="9F053FE833DD8249.png"  transform="matrix(1 0 0 1 2075 5)">
			</image>
		</g>
	</g>
	<g id="background_5_" class="st1">
		<g id="grey-backgrd__x2B__grey-pattern_xA0_Image_5_">
			
				<image style="overflow:visible;" width="977" height="1104" id="grey-backgrd__x2B__grey-pattern_xA0_Image_4_" xlink:href="9F053FE833DD824F.png"  transform="matrix(1 0 0 1 2066 4)">
			</image>
		</g>
		<g id="container">
			<g>
				<rect x="2087.8" y="3.3" class="st2" width="937.4" height="917.1"/>
			</g>
		</g>
	</g>
	<g id="footer_5_" class="st1">
		<g id="footer_backgrd_5_">
			<g id="footer-box">
				<g>
					<rect x="2104" y="908" class="st3" width="894.2" height="194"/>
				</g>
			</g>
		</g>
		<g id="copyright_5_">
			<g id="off_25_">
				<g id="LYAC_logo_xA0_Image_5_">
					
						<image style="overflow:visible;" width="63" height="42" id="LYAC_logo_xA0_Image_4_" xlink:href="9F053FE833DD824A.png"  transform="matrix(1 0 0 1 2870 975)">
					</image>
				</g>
				<g id="_London_Youth__Advisory_Council_5_">
					<polygon class="st13" points="2771.6,1007.2 3027.2,1010.4 3026.6,1074.2 2770.9,1070.9 					"/>
					
						<text id="_London_Youth__Advisory_Council" transform="matrix(0.9237 1.166560e-02 -1.077798e-02 0.9999 2865.7683 1035.6157)"><tspan x="0" y="0" class="st4 st14" style="font-size:13.6708px;">London Youth </tspan><tspan x="-7.4" y="16.4" class="st4 st14" style="font-size:13.6708px;">Advisory Council</tspan></text>
				</g>
				<g id="_xA9__Copyright_2016__x0D__x0D__5_">
					<polygon class="st13" points="2772.3,955.2 3028,958.4 3027.3,1022.2 2771.6,1018.9 					"/>
					<text transform="matrix(0.9237 1.166560e-02 -1.077798e-02 0.9999 2859.7534 967.1165)"><tspan x="0" y="0" class="st4 st14" style="font-size:13.6708px;">© Copyright 2016 </tspan><tspan x="-94.8" y="46.9" class="st4 st14" style="font-size:25.4345px;">   </tspan></text>
				</g>
			</g>
			<g id="on_7_">
				<g id="_London_Youth__Advisory_Council_____copy_5_">
					<polygon class="st13" points="2771.6,1007.2 3027.2,1010.4 3026.6,1074.2 2770.9,1070.9 					"/>
					
						<text id="_London_Youth__Advisory_Council_____copy" transform="matrix(0.9237 1.166560e-02 -1.077798e-02 0.9999 2865.7683 1035.6157)"><tspan x="0" y="0" class="st4 st14" style="font-size:13.6708px;">London Youth </tspan><tspan x="-7.4" y="16.4" class="st4 st14" style="font-size:13.6708px;">Advisory Council</tspan></text>
				</g>
				<g id="_xA9__Copyright_2016__x0D__x0D__4_">
					<polygon class="st13" points="2772.3,955.2 3028,958.4 3027.3,1022.2 2771.6,1018.9 					"/>
					<text transform="matrix(0.9237 1.166560e-02 -1.077798e-02 0.9999 2859.7534 967.1165)"><tspan x="0" y="0" class="st4 st14" style="font-size:13.6708px;">© Copyright 2016 </tspan><tspan x="-94.8" y="46.9" class="st4 st14" style="font-size:25.4345px;">   </tspan></text>
				</g>
			</g>
		</g>
		<g id="social_media_5_">
			<g id="off_24_">
				<g id="linkedin_xA0_Image_5_">
					
						<image style="overflow:visible;" width="41" height="46" id="linkedin_xA0_Image_4_" xlink:href="9F053FE833DD824B.png"  transform="matrix(1 0 0 1 2743 1007)">
					</image>
				</g>
				<g id="twitter_xA0_Image_7_">
					
						<image style="overflow:visible;" width="42" height="46" id="twitter_xA0_Image_6_" xlink:href="9F053FE833DD8246.png"  transform="matrix(1 0 0 1 2743 956)">
					</image>
				</g>
				<g id="facebook_xA0_Image_7_">
					
						<image style="overflow:visible;" width="42" height="46" id="facebook_xA0_Image_6_" xlink:href="9F053FE833DD8247.png"  transform="matrix(1 0 0 1 2792 1008)">
					</image>
				</g>
				<g id="instagram_xA0_Image_7_">
					
						<image style="overflow:visible;" width="41" height="46" id="instagram_xA0_Image_6_" xlink:href="9F053FE833DD8258.png"  transform="matrix(1 0 0 1 2793 956)">
					</image>
				</g>
			</g>
			<g id="on_6_">
				<g id="facebook_xA0_Image_5_">
					
						<image style="overflow:visible;" width="42" height="45" id="facebook_xA0_Image_4_" xlink:href="9F053FE833DD825B.png"  transform="matrix(1 0 0 1 2792 1008)">
					</image>
				</g>
				<g id="twitter_xA0_Image_5_">
					
						<image style="overflow:visible;" width="42" height="45" id="twitter_xA0_Image_4_" xlink:href="FBC23C8F7F03D4B7.png"  transform="matrix(1 0 0 1 2743 956)">
					</image>
				</g>
				<g id="instagram_xA0_Image_5_">
					
						<image style="overflow:visible;" width="41" height="45" id="instagram_xA0_Image_4_" xlink:href="FBC23C8F7F03D4B5.png"  transform="matrix(1 0 0 1 2793 956)">
					</image>
				</g>
				<g id="linked_in_xA0_Image_1_">
					
						<image style="overflow:visible;" width="41" height="45" id="linked_in_xA0_Image" xlink:href="FBC23C8F7F03D4B3.png"  transform="matrix(1 0 0 1 2743 1008)">
					</image>
				</g>
			</g>
		</g>
		<g id="footer_nav_5_">
			<g id="off_23_">
				<g id="header_nav_backgrd_copy_3">
					<g>
						<path class="st5" d="M2505.4,966.6h-362.7c-8.3,0-15,6.7-15,15v37.5c0,8.3,6.7,15,15,15h362.7c8.3,0,15-6.7,15-15v-37.5
							C2520.4,973.3,2513.7,966.6,2505.4,966.6z"/>
					</g>
				</g>
				<g id="_x7C______Home_____x7C______How_to_Vote_____x7C______Contact____x7C__copy_3_5_">
					<rect x="2148.8" y="988.8" class="st13" width="465.7" height="37.2"/>
					
						<text id="_x7C______Home_____x7C______How_to_Vote_____x7C______Contact____x7C__copy_3" transform="matrix(0.9238 0 0 1 2148.8252 1007.1846)" class="st4 st14" style="font-size:24.1978px;">|     Home    |     How to Vote    |     Contact   |</text>
				</g>
			</g>
		</g>
	</g>
	<g id="content_5_" class="st1">
		<g id="contact_section_1_">
			<g id="submit_button_1_">
				<g id="off_22_">
					<g id="purple_submit_button__x2B__black_shadow_copy_2_" class="st6">
						<defs>
							<rect id="SVGID_1_" x="2582" y="823" class="st6" width="97" height="27"/>
						</defs>
						<clipPath id="SVGID_2_">
							<use xlink:href="#SVGID_1_"  style="overflow:visible;"/>
						</clipPath>
						<g style="clip-path:url(#SVGID_2_);">
							
								<image style="overflow:visible;" width="97" height="27" id="purple_submit_button__x2B__black_shadow_copy_xA0_Image" xlink:href="FBC23C8F7F03D4CD.png"  transform="matrix(1 0 0 1 2582 823)">
							</image>
						</g>
					</g>
					<g id="submit">
						<text transform="matrix(1.0006 0 0 1 2608.2969 840.5459)"><tspan x="0" y="0" class="st7 st19" style="font-size:11.2361px;">s</tspan><tspan x="7.3" y="0" class="st7 st19" style="font-size:11.2361px;">u</tspan><tspan x="15.6" y="0" class="st7 st19" style="font-size:11.2361px;">b</tspan><tspan x="22.8" y="0" class="st7 st19" style="font-size:11.2361px;">m</tspan><tspan x="32.1" y="0" class="st7 st19" style="font-size:11.2361px;">i</tspan><tspan x="35.4" y="0" class="st7 st19" style="font-size:11.2361px;">t</tspan></text>
					</g>
				</g>
			</g>
			<g id="validation-section_1_">
				<g id="validation_box_xA0_Image_1_">
					
						<image style="overflow:visible;" width="193" height="19" id="validation_box_xA0_Image" xlink:href="FBC23C8F7F03D4CF.png"  transform="matrix(1 0 0 1 2582 779)">
					</image>
				</g>
				<g id="WHAT_iS_2__x2B__2_x3F_">
					<text transform="matrix(1.0006 0 0 1 2582.2969 767.5459)"><tspan x="0" y="0" class="st8 st19" style="font-size:11.2361px;">W</tspan><tspan x="11.3" y="0" class="st8 st19" style="font-size:11.2361px;">H</tspan><tspan x="19.6" y="0" class="st8 st19" style="font-size:11.2361px;">A</tspan><tspan x="26.8" y="0" class="st8 st19" style="font-size:11.2361px;">T</tspan><tspan x="34.1" y="0" class="st8 st19" style="font-size:11.2361px;"> i</tspan><tspan x="40.7" y="0" class="st8 st19" style="font-size:11.2361px;">S</tspan><tspan x="47.9" y="0" class="st8 st19" style="font-size:11.2361px;"> </tspan><tspan x="51.2" y="0" class="st8 st19" style="font-size:11.2361px;">2</tspan><tspan x="57.5" y="0" class="st8 st19" style="font-size:11.2361px;"> </tspan><tspan x="60.8" y="0" class="st8 st19" style="font-size:11.2361px;">+</tspan><tspan x="68.1" y="0" class="st8 st19" style="font-size:11.2361px;"> </tspan><tspan x="71.3" y="0" class="st8 st19" style="font-size:11.2361px;">2?</tspan></text>
				</g>
			</g>
			<g id="comment-section_1_">
				<g id="comment_box_xA0_Image_1_">
					
						<image style="overflow:visible;" width="297" height="202" id="comment_box_xA0_Image" xlink:href="FBC23C8F7F03D4D2.png"  transform="matrix(1 0 0 1 2582 531)">
					</image>
				</g>
				<g id="Comments:">
					<text transform="matrix(1.0006 0 0 1 2582.2969 518.7144)"><tspan x="0" y="0" class="st8 st19" style="font-size:11.2361px;">C</tspan><tspan x="8.3" y="0" class="st8 st19" style="font-size:11.2361px;">o</tspan><tspan x="17.6" y="0" class="st8 st19" style="font-size:11.2361px;">mm</tspan><tspan x="36.1" y="0" class="st8 st19" style="font-size:11.2361px;">e</tspan><tspan x="43.4" y="0" class="st8 st19" style="font-size:11.2361px;">n</tspan><tspan x="51.7" y="0" class="st8 st19" style="font-size:11.2361px;">t</tspan><tspan x="58.9" y="0" class="st8 st19" style="font-size:11.2361px;">s</tspan><tspan x="66.2" y="0" class="st8 st19" style="font-size:11.2361px;">: </tspan></text>
				</g>
			</g>
			<g id="subject-section_1_">
				<g id="subject_box_xA0_Image_1_">
					
						<image style="overflow:visible;" width="193" height="20" id="subject_box_xA0_Image" xlink:href="FBC23C8F7F03D4D3.png"  transform="matrix(1 0 0 1 2582 467)">
					</image>
				</g>
				<g id="SUBJECT:">
					<text transform="matrix(1.0006 0 0 1 2583.2334 452.2339)"><tspan x="0" y="0" class="st8 st19" style="font-size:11.2361px;">S</tspan><tspan x="7.3" y="0" class="st8 st19" style="font-size:11.2361px;">U</tspan><tspan x="15.6" y="0" class="st8 st19" style="font-size:11.2361px;">B</tspan><tspan x="22.8" y="0" class="st8 st19" style="font-size:11.2361px;">J</tspan><tspan x="29.1" y="0" class="st8 st19" style="font-size:11.2361px;">E</tspan><tspan x="36.4" y="0" class="st8 st19" style="font-size:11.2361px;">C</tspan><tspan x="44.7" y="0" class="st8 st19" style="font-size:11.2361px;">T</tspan><tspan x="51.9" y="0" class="st8 st19" style="font-size:11.2361px;">: </tspan></text>
				</g>
			</g>
			<g id="email-section_1_">
				<g id="email_box_xA0_Image_1_">
					
						<image style="overflow:visible;" width="193" height="20" id="email_box_xA0_Image" xlink:href="FBC23C8F7F03D4D5.png"  transform="matrix(1 0 0 1 2582 405)">
					</image>
				</g>
				<g id="Email:">
					<text transform="matrix(1.0006 0 0 1 2582.2969 395.7349)"><tspan x="0" y="0" class="st8 st19" style="font-size:11.2361px;">E</tspan><tspan x="7.3" y="0" class="st8 st19" style="font-size:11.2361px;">m</tspan><tspan x="16.6" y="0" class="st8 st19" style="font-size:11.2361px;">a</tspan><tspan x="23.8" y="0" class="st8 st19" style="font-size:11.2361px;">i</tspan><tspan x="27.1" y="0" class="st8 st19" style="font-size:11.2361px;">l</tspan><tspan x="33.4" y="0" class="st8 st19" style="font-size:11.2361px;">: </tspan><tspan x="39.9" y="0" style="fill:#586371; font-family:'OpenSans-Semibold'; font-size:11.2361px;"> </tspan></text>
				</g>
			</g>
			<g id="name-section_1_">
				<g id="name_box_xA0_Image_1_">
					
						<image style="overflow:visible;" width="193" height="20" id="name_box_xA0_Image" xlink:href="FBC23C8F7F03D4D7.png"  transform="matrix(1 0 0 1 2582 348)">
					</image>
				</g>
				<g id="Name:">
					<text transform="matrix(1.0006 0 0 1 2582.2969 338.4272)"><tspan x="0" y="0" class="st8 st19" style="font-size:11.2361px;">N</tspan><tspan x="8.3" y="0" class="st8 st19" style="font-size:11.2361px;">a</tspan><tspan x="15.6" y="0" class="st8 st19" style="font-size:11.2361px;">m</tspan><tspan x="24.8" y="0" class="st8 st19" style="font-size:11.2361px;">e</tspan><tspan x="32.1" y="0" class="st8 st19" style="font-size:11.2361px;">:</tspan><tspan x="35.4" y="0" class="st8" style="font-family:'OpenSans-Semibold'; font-size:11.2361px;"> </tspan></text>
				</g>
			</g>
			<g id="contact_copy_1_">
				<rect x="2583.5" y="258" class="st13" width="459.6" height="44.2"/>
				<text id="contact_copy" transform="matrix(1 0 0 1 2583.5 271.9102)"><tspan x="0" y="0" class="st33 st22" style="font-size:18px;">If you have any questions about the election </tspan><tspan x="0" y="21.6" class="st33 st22" style="font-size:18px;">process, please write to us in the form below.</tspan></text>
			</g>
			<g id="border-line_vertical">
				<g>
					<rect x="2542" y="260" class="st3" width="2" height="600"/>
				</g>
				<g>
					<polygon class="st8" points="2544,260 2542,260 2542,860 2544,860 2544,260 					"/>
				</g>
			</g>
		</g>
		<g id="picture_section_1_">
			<g id="t-shirt_picture_1_">
				<g id="border">
					<g>
						<rect x="2133" y="575" class="st9" width="368" height="285"/>
					</g>
				</g>
				<g id="picbox_2__x2B__t-shirt_pic_2_" class="st6">
					<defs>
						<rect id="SVGID_3_" x="2138" y="581" class="st6" width="358" height="274"/>
					</defs>
					<clipPath id="SVGID_4_">
						<use xlink:href="#SVGID_3_"  style="overflow:visible;"/>
					</clipPath>
					<g style="clip-path:url(#SVGID_4_);">
						
							<image style="overflow:visible;" width="358" height="274" id="picbox_2__x2B__t-shirt_pic_xA0_Image" xlink:href="FBC23C8F7F03D4D0.png"  transform="matrix(1 0 0 1 2138 581)">
						</image>
					</g>
				</g>
			</g>
			<g id="phone_picture_1_">
				<g id="border_1_">
					<g>
						<rect x="2133" y="249" class="st9" width="368" height="285"/>
					</g>
				</g>
				<g id="picbox_1__x2B__phone_pic_2_" class="st6">
					<defs>
						<rect id="SVGID_5_" x="2138" y="254" class="st6" width="358" height="274"/>
					</defs>
					<clipPath id="SVGID_6_">
						<use xlink:href="#SVGID_5_"  style="overflow:visible;"/>
					</clipPath>
					<g style="clip-path:url(#SVGID_6_);">
						
							<image style="overflow:visible;" width="358" height="274" id="picbox_1__x2B__phone_pic_xA0_Image" xlink:href="FBC23C8F7F03D4F6.png"  transform="matrix(1 0 0 1 2138 254)">
						</image>
					</g>
				</g>
			</g>
		</g>
	</g>
	<g id="header_5_" class="st1">
		<g id="purple-logo_xA0_Image_5_">
			
				<image style="overflow:visible;" width="173" height="83" id="purple-logo_xA0_Image_4_" xlink:href="FBC23C8F7F03D4F5.png"  transform="matrix(1 0 0 1 2110 75)">
			</image>
		</g>
		<g id="border-line">
			<g>
				<rect x="2096" y="197" class="st3" width="904" height="2"/>
			</g>
			<g>
				<polygon class="st8" points="3000,197 2096,197 2096,199 3000,199 3000,197 				"/>
			</g>
		</g>
		<g id="nav_5_">
			<g id="off_21_">
				<g id="header_nav_backgrd">
					<g>
						<path class="st5" d="M2897.6,83.2h-335c-8.3,0-15,6.7-15,15V127c0,8.3,6.7,15,15,15h335c8.3,0,15-6.7,15-15V98.2
							C2912.6,89.9,2905.9,83.2,2897.6,83.2z"/>
					</g>
				</g>
				<g id="_x7C______Home_____x7C______How_to_Vote_____x7C______Contact____x7C__5_">
					<rect x="2567.2" y="102.5" class="st13" width="432.8" height="32.3"/>
					
						<text id="_x7C______Home_____x7C______How_to_Vote_____x7C______Contact____x7C_" transform="matrix(0.9865 0 0 1 2567.1846 118.5298)" class="st4 st14" style="font-size:21.0616px;">|     Home    |     How to Vote    |     Contact   |</text>
				</g>
			</g>
		</g>
	</g>
</g>
<g id="Artboard_2_1_" class="st0">
	<g id="wireframes_4_" class="st1">
		<g id="page1_xA0_Image_3_">
			
				<image style="overflow:visible;" width="960" height="1093" id="page1_xA0_Image_2_" xlink:href="FBC23C8F7F03D4F2.png"  transform="matrix(1 0 0 1 1047 2)">
			</image>
		</g>
		<g id="page2_xA0_Image_1_">
			
				<image style="overflow:visible;" width="960" height="1093" id="page2_xA0_Image" xlink:href="FBC23C8F7F03D4FD.png"  transform="matrix(1 0 0 1 1047 2)">
			</image>
		</g>
		<g id="page3_xA0_Image_1_">
			
				<image style="overflow:visible;" width="960" height="1093" id="page3_xA0_Image" xlink:href="FBC23C8F7F03D4FE.png"  transform="matrix(1 0 0 1 1047 2)">
			</image>
		</g>
	</g>
	<g id="background_4_" class="st1">
		<g id="grey-backgrd__x2B__grey-pattern_xA0_Image_3_">
			
				<image style="overflow:visible;" width="977" height="1104" id="grey-backgrd__x2B__grey-pattern_xA0_Image_2_" xlink:href="FBC23C8F7F03D4FC.png"  transform="matrix(1 0 0 1 1038 1)">
			</image>
		</g>
		<g id="container_1_">
			<g>
				<rect x="1059.8" y="0.3" class="st2" width="937.4" height="917.1"/>
			</g>
		</g>
	</g>
	<g id="footer_4_" class="st1">
		<g id="footer_backgrd_4_">
			<g id="footer-box_1_">
				<g>
					<rect x="1076" y="913" class="st3" width="894.2" height="182"/>
				</g>
			</g>
		</g>
		<g id="copyright_4_">
			<g id="off_20_">
				<g id="LYAC_logo_xA0_Image_3_">
					
						<image style="overflow:visible;" width="63" height="39" id="LYAC_logo_xA0_Image_2_" xlink:href="FBC23C8F7F03D4F3.png"  transform="matrix(1 0 0 1 1842 976)">
					</image>
				</g>
				<g id="_London_Youth__Advisory_Council_4_">
					
						<rect x="1841.2" y="909.6" transform="matrix(1.184685e-02 -0.9999 0.9999 1.184685e-02 811.5105 2896.1055)" class="st13" width="59.8" height="255.7"/>
					
						<text id="_London_Youth__Advisory_Council_1_" transform="matrix(0.9846 1.166550e-02 -1.148853e-02 0.9999 1837.767 1032.7212)"><tspan x="0" y="0" class="st4 st14" style="font-size:12.8253px;">London Youth </tspan><tspan x="-7" y="15.4" class="st4 st14" style="font-size:12.8253px;">Advisory Council</tspan></text>
				</g>
				<g id="_xA9__Copyright_2016__x0D__x0D__3_">
					
						<rect x="1841.9" y="860.8" transform="matrix(1.184685e-02 -0.9999 0.9999 1.184685e-02 861.0394 2848.6431)" class="st13" width="59.8" height="255.7"/>
					<text transform="matrix(0.9846 1.166550e-02 -1.148853e-02 0.9999 1831.7539 968.4598)"><tspan x="0" y="0" class="st4 st14" style="font-size:12.8253px;">© Copyright 2016 </tspan><tspan x="-88.9" y="44" class="st4 st14" style="font-size:23.8615px;">   </tspan></text>
				</g>
			</g>
			<g id="on_5_">
				<g id="_London_Youth__Advisory_Council_____copy_4_">
					
						<rect x="1841.2" y="909.6" transform="matrix(1.184685e-02 -0.9999 0.9999 1.184685e-02 811.5105 2896.1055)" class="st13" width="59.8" height="255.7"/>
					
						<text id="_London_Youth__Advisory_Council_____copy_1_" transform="matrix(0.9846 1.166550e-02 -1.148853e-02 0.9999 1837.767 1032.7212)"><tspan x="0" y="0" class="st4 st14" style="font-size:12.8253px;">London Youth </tspan><tspan x="-7" y="15.4" class="st4 st14" style="font-size:12.8253px;">Advisory Council</tspan></text>
				</g>
				<g id="_xA9__Copyright_2016__x0D__x0D__2_">
					
						<rect x="1841.9" y="860.8" transform="matrix(1.184685e-02 -0.9999 0.9999 1.184685e-02 861.0394 2848.6431)" class="st13" width="59.8" height="255.7"/>
					<text transform="matrix(0.9846 1.166550e-02 -1.148853e-02 0.9999 1831.7539 968.4598)"><tspan x="0" y="0" class="st4 st14" style="font-size:12.8253px;">© Copyright 2016 </tspan><tspan x="-88.9" y="44" class="st4 st14" style="font-size:23.8615px;">   </tspan></text>
				</g>
			</g>
		</g>
		<g id="social_media_4_">
			<g id="off_19_">
				<g id="linkedin_xA0_Image_3_">
					
						<image style="overflow:visible;" width="41" height="43" id="linkedin_xA0_Image_2_" xlink:href="FBC23C8F7F03D4F4.png"  transform="matrix(1 0 0 1 1715 1006)">
					</image>
				</g>
				<g id="twitter_xA0_Image_3_">
					
						<image style="overflow:visible;" width="42" height="43" id="twitter_xA0_Image_2_" xlink:href="FBC23C8F7F03D4F7.png"  transform="matrix(1 0 0 1 1715 958)">
					</image>
				</g>
				<g id="facebook_xA0_Image_3_">
					
						<image style="overflow:visible;" width="42" height="43" id="facebook_xA0_Image_2_" xlink:href="FBC23C8F7F03D4CB.png"  transform="matrix(1 0 0 1 1764 1007)">
					</image>
				</g>
				<g id="instagram_xA0_Image_3_">
					
						<image style="overflow:visible;" width="41" height="44" id="instagram_xA0_Image_2_" xlink:href="FBC23C8F7F03D519.png"  transform="matrix(1 0 0 1 1765 958)">
					</image>
				</g>
			</g>
		</g>
		<g id="footer_nav_4_">
			<g id="off_18_">
				<g id="header_nav_backgrd_copy_3_1_">
					<g>
						<path class="st5" d="M1477.4,968h-362.7c-8.3,0-15,6.7-15,15v33.3c0,8.3,6.7,15,15,15h362.7c8.3,0,15-6.7,15-15V983
							C1492.4,974.7,1485.7,968,1477.4,968z"/>
					</g>
				</g>
				<g id="_x7C______Home_____x7C______How_to_Vote_____x7C______Contact____x7C__copy_3_4_">
					<rect x="1120.8" y="988.8" class="st13" width="465.7" height="34.9"/>
					
						<text id="_x7C______Home_____x7C______How_to_Vote_____x7C______Contact____x7C__copy_3_1_" transform="matrix(0.9847 0 0 1 1120.8257 1006.0498)" class="st4 st14" style="font-size:22.701px;">|     Home    |     How to Vote    |     Contact   |</text>
				</g>
			</g>
		</g>
	</g>
	<g id="content_4_" class="st1">
		<g id="text_section_1_">
			<g id="how_to_vote_section_1_">
				<g id="how_copy_1_">
					<rect x="1585.8" y="637.6" class="st13" width="356.5" height="232.9"/>
					<text id="how_copy" transform="matrix(0.9874 0 0 1 1585.7754 650.6699)"><tspan x="0" y="0" class="st31 st19" style="font-size:16.9474px;">From  May 1st to 7th, you can vote for your youth </tspan><tspan x="0" y="20.3" class="st31 st19" style="font-size:16.9474px;">councillor online at lyac.ca/. After voting, you will </tspan><tspan x="0" y="40.7" class="st31 st19" style="font-size:16.9474px;">receive a text confirmation that you voted so we </tspan><tspan x="0" y="61" class="st31 st19" style="font-size:16.9474px;">can verify your vote. You can also vote via ballot if </tspan><tspan x="0" y="81.3" class="st31 st19" style="font-size:16.9474px;">a candidate canvasses you at the door. </tspan><tspan x="0" y="122" class="st31 st19" style="font-size:16.9474px;">You can sign up to receive a text reminder to vote </tspan><tspan x="0" y="142.4" class="st31 st19" style="font-size:16.9474px;">at 519 - 902 - 0804. </tspan><tspan x="0" y="183" class="st31 st19" style="font-size:16.9474px;">Check out the candidates’ platforms to decide who </tspan><tspan x="0" y="203.4" class="st31 st19" style="font-size:16.9474px;">you’ll vote for this National Youth Month.</tspan></text>
				</g>
				<g id="How_to_Vote">
					<rect x="1688.4" y="585.9" class="st13" width="263.6" height="43.3"/>
					<text transform="matrix(0.9874 0 0 1 1688.4072 607.0317)" class="st10 st14" style="font-size:28.2456px;">How to Vote</text>
				</g>
			</g>
			<g id="who_can_vote_section_1_">
				<g id="who_copy_1_">
					<rect x="1127.9" y="637.2" class="st13" width="345.5" height="261.2"/>
					<text id="who_copy" transform="matrix(0.9874 0 0 1 1127.916 650.2358)"><tspan x="0" y="0" class="st31 st19" style="font-size:16.9474px;">If you are: </tspan><tspan x="0" y="40.7" class="st31 st19" style="font-size:16.9474px; letter-spacing:28.4;">	</tspan><tspan x="33.9" y="40.7" class="st31 st19" style="font-size:16.9474px;">• Ten or older</tspan><tspan x="0" y="81.3" class="st31 st19" style="font-size:16.9474px; letter-spacing:28.4;">	</tspan><tspan x="33.9" y="81.3" class="st31 st19" style="font-size:16.9474px;">•  A resident of London  </tspan><tspan x="0" y="122" class="st31 st19" style="font-size:16.9474px;">Then you’re eligible to vote in the London Youth </tspan><tspan x="0" y="142.4" class="st31 st19" style="font-size:16.9474px;">Advisory Council election. You can vote in the </tspan><tspan x="0" y="162.7" class="st31 st19" style="font-size:16.9474px;">ward you live or go to school in. Find out what </tspan><tspan x="0" y="183" class="st31 st19" style="font-size:16.9474px;">your ward is by searching by address in our ward </tspan><tspan x="0" y="203.4" class="st31 st19" style="font-size:16.9474px;">lookup tool. </tspan></text>
				</g>
				<g id="Who_Can_Vote">
					<rect x="1198.5" y="584.9" class="st13" width="263.6" height="43.3"/>
					<text transform="matrix(0.9874 0 0 1 1198.4883 606.0903)" class="st11 st14" style="font-size:28.2456px;">Who Can Vote</text>
				</g>
			</g>
			<g id="border-line_vertical_1_">
				<g>
					<rect x="1518" y="583" class="st3" width="2" height="296"/>
				</g>
				<g>
					<polygon class="st8" points="1520,583 1518,583 1518,879 1520,879 1520,583 					"/>
				</g>
			</g>
		</g>
		<g id="images_section_1_">
			<g id="ballot_pic_1_">
				<g id="border_2_">
					<g>
						<rect x="1716.7" y="248.1" class="st12" width="258.5" height="236.2"/>
					</g>
				</g>
				<g id="picbox_3__x2B__person-ballot_xA0_Image_1_">
					
						<image style="overflow:visible;" width="246" height="228" id="picbox_3__x2B__person-ballot_xA0_Image" xlink:href="FBC23C8F7F03D517.png"  transform="matrix(1 0 0 1 1723 251)">
					</image>
				</g>
			</g>
			<g id="ipad_pic_1_">
				<g id="border_3_">
					<g>
						<rect x="1397.3" y="247.1" class="st12" width="260.3" height="236.3"/>
					</g>
				</g>
				<g id="picbox_2__x2B__person-ipad_xA0_Image_1_">
					
						<image style="overflow:visible;" width="250" height="228" id="picbox_2__x2B__person-ipad_xA0_Image" xlink:href="FBC23C8F7F03D529.png"  transform="matrix(1 0 0 1 1403 252)">
					</image>
				</g>
			</g>
			<g id="button_pic_1_">
				<g id="border_4_">
					<g>
						<rect x="1083.9" y="247.1" class="st12" width="261.2" height="236.3"/>
					</g>
				</g>
				<g id="picbox_1__x2B__button_xA0_Image_1_">
					
						<image style="overflow:visible;" width="251" height="224" id="picbox_1__x2B__button_xA0_Image" xlink:href="FBC23C8F7F03D52B.png"  transform="matrix(1 0 0 1 1088 254)">
					</image>
				</g>
			</g>
		</g>
	</g>
	<g id="header_4_" class="st1">
		<g id="purple-logo_xA0_Image_3_">
			
				<image style="overflow:visible;" width="173" height="83" id="purple-logo_xA0_Image_2_" xlink:href="FBC23C8F7F03D528.png"  transform="matrix(1 0 0 1 1079 73)">
			</image>
		</g>
		<g id="border-line_1_">
			<g>
				<rect x="1065" y="195" class="st3" width="910" height="2"/>
			</g>
			<g>
				<polygon class="st8" points="1975,195 1065,195 1065,197 1975,197 1975,195 				"/>
			</g>
		</g>
		<g id="nav_4_">
			<g id="off_17_">
				<g id="header_nav_backgrd_1_">
					<g>
						<path class="st5" d="M1915.6,82.2h-335c-8.3,0-15,6.7-15,15V126c0,8.3,6.7,15,15,15h335c8.3,0,15-6.7,15-15V97.2
							C1930.6,88.9,1923.9,82.2,1915.6,82.2z"/>
					</g>
				</g>
				<g id="_x7C______Home_____x7C______How_to_Vote_____x7C______Contact____x7C__4_">
					<rect x="1585.2" y="101.5" class="st13" width="432.8" height="32.3"/>
					
						<text id="_x7C______Home_____x7C______How_to_Vote_____x7C______Contact____x7C__1_" transform="matrix(0.9865 0 0 1 1585.1846 117.5298)" class="st4 st14" style="font-size:21.0616px;">|     Home    |     How to Vote    |     Contact   |</text>
				</g>
			</g>
		</g>
	</g>
</g>
<g id="Artboard_1_1_">
	<g id="wireframes_3_">
		<g id="page1_xA0_Image_1_">
			
				<image style="overflow:visible;" width="960" height="1093" id="page1_xA0_Image" xlink:href="FBC23C8F7F03D52F.png"  transform="matrix(1 0 0 1 0 5)">
			</image>
		</g>
	</g>
	<g id="background_3_">
		<g id="grey-backgrd__x2B__grey-pattern_xA0_Image_1_">
			
				<image style="overflow:visible;" width="962" height="1104" id="grey-backgrd__x2B__grey-pattern_xA0_Image" xlink:href="FBC23C8F7F03D52A.png"  transform="matrix(1 0 0 1 0 1)">
			</image>
		</g>
		<g id="container_2_">
			<g>
				<rect x="14" y="0" class="st2" width="928" height="919"/>
			</g>
		</g>
	</g>
	<g id="footer_3_">
		<g id="footer_backgrd_3_">
			<g id="footer-box_2_">
				<g>
					<rect x="29.4" y="918.7" class="st3" width="894" height="179.3"/>
				</g>
			</g>
		</g>
		<g id="copyright_3_">
			<g id="off_16_">
				<g id="LYAC_logo_xA0_Image_1_">
					
						<image style="overflow:visible;" width="63" height="38" id="LYAC_logo_xA0_Image" xlink:href="FBC23C8F7F03D526.png"  transform="matrix(1 0 0 1 795 981)">
					</image>
				</g>
				<g id="_London_Youth__Advisory_Council_3_">
					
						<rect x="794.8" y="913.5" transform="matrix(1.167620e-02 -0.9999 0.9999 1.167620e-02 -226.5349 1853.4073)" class="st13" width="59" height="255.6"/>
					
						<text id="_London_Youth__Advisory_Council_2_" transform="matrix(0.999 1.166548e-02 -1.165644e-02 0.9999 791.0284 1036.631)"><tspan x="0" y="0" class="st4 st14 st15">London Youth </tspan><tspan x="-6.9" y="15.2" class="st4 st14 st15">Advisory Council</tspan></text>
				</g>
				<g id="_xA9__Copyright_2016__x0D__x0D__1_">
					
						<rect x="795.6" y="865.4" transform="matrix(1.167620e-02 -0.9999 0.9999 1.167620e-02 -177.718 1806.6404)" class="st13" width="59" height="255.6"/>
					<text transform="matrix(0.999 1.166548e-02 -1.165644e-02 0.9999 785.0166 973.3055)"><tspan x="0" y="0" class="st4 st14 st15">© Copyright 2016 </tspan><tspan x="-87.6" y="43.4" class="st4 st14 st16">   </tspan></text>
				</g>
			</g>
			<g id="on_4_">
				<g id="_London_Youth__Advisory_Council_____copy_3_">
					
						<rect x="794.8" y="913.5" transform="matrix(1.167620e-02 -0.9999 0.9999 1.167620e-02 -226.5349 1853.4073)" class="st13" width="59" height="255.6"/>
					
						<text id="_London_Youth__Advisory_Council_____copy_2_" transform="matrix(0.999 1.166548e-02 -1.165644e-02 0.9999 791.0284 1036.631)"><tspan x="0" y="0" class="st4 st14 st15">London Youth </tspan><tspan x="-6.9" y="15.2" class="st4 st14 st15">Advisory Council</tspan></text>
				</g>
				<g id="_xA9__Copyright_2016__x0D__x0D_">
					
						<rect x="795.6" y="865.4" transform="matrix(1.167620e-02 -0.9999 0.9999 1.167620e-02 -177.718 1806.6404)" class="st13" width="59" height="255.6"/>
					<text transform="matrix(0.999 1.166548e-02 -1.165644e-02 0.9999 785.0166 973.3055)"><tspan x="0" y="0" class="st4 st14 st15">© Copyright 2016 </tspan><tspan x="-87.6" y="43.4" class="st4 st14 st16">   </tspan></text>
				</g>
			</g>
		</g>
		<g id="social_media_3_">
			<g id="off_15_">
				<g id="linkedin_xA0_Image_1_">
					
						<image style="overflow:visible;" width="42" height="43" id="linkedin_xA0_Image" xlink:href="FBC23C8F7F03D527.png"  transform="matrix(1 0 0 1 668 1010)">
					</image>
				</g>
				<g id="twitter_xA0_Image_1_">
					
						<image style="overflow:visible;" width="41" height="42" id="twitter_xA0_Image" xlink:href="FBC23C8F7F03D537.png"  transform="matrix(1 0 0 1 669 963)">
					</image>
				</g>
				<g id="facebook_xA0_Image_1_">
					
						<image style="overflow:visible;" width="41" height="43" id="facebook_xA0_Image" xlink:href="FBC23C8F7F03D504.png"  transform="matrix(1 0 0 1 718 1011)">
					</image>
				</g>
				<g id="instagram_xA0_Image_1_">
					
						<image style="overflow:visible;" width="42" height="43" id="instagram_xA0_Image" xlink:href="FBC23C8F7F03D507.png"  transform="matrix(1 0 0 1 718 963)">
					</image>
				</g>
			</g>
		</g>
		<g id="footer_nav_3_">
			<g id="off_14_">
				<g id="header_nav_backgrd_copy_3_2_">
					<g>
						<path class="st5" d="M430.7,972.8H68.2c-8.3,0-15,6.7-15,15v32.4c0,8.3,6.7,15,15,15h362.6c8.3,0,15-6.7,15-15v-32.4
							C445.7,979.5,439,972.8,430.7,972.8z"/>
					</g>
				</g>
				<g id="_x7C______Home_____x7C______How_to_Vote_____x7C______Contact____x7C__copy_3_3_">
					<rect x="74.2" y="993.3" class="st13" width="465.6" height="34.4"/>
					
						<text id="_x7C______Home_____x7C______How_to_Vote_____x7C______Contact____x7C__copy_3_2_" transform="matrix(0.9991 0 0 1 74.2231 1010.3477)" class="st4 st14 st17">|     Home    |     How to Vote    |     Contact   |</text>
				</g>
			</g>
		</g>
	</g>
	<g id="content_3_">
		<g id="info_section_1_">
			<g id="debate_box_1_">
				<g id="debate_copy_1_">
					<rect x="744.7" y="803" class="st13" width="188.4" height="63.2"/>
					<text id="debate_copy" transform="matrix(0.9992 0 0 1 744.7026 830.9785)"><tspan x="0" y="0" class="st18 st19 st20">Come to the LYAC debate to </tspan><tspan x="0" y="16.9" class="st18 st19 st20">hear the candidates and share </tspan><tspan x="0" y="33.8" class="st18 st19 st20">your thoughts and opinions.</tspan></text>
				</g>
				<g id="Listen_and_Discuss">
					<rect x="773.8" y="798.1" class="st13" width="167.7" height="11.7"/>
					<text transform="matrix(0.9992 0 0 1 773.8428 808.8535)" class="st21 st22 st23">Listen and Discuss</text>
				</g>
				<g id="The_Debate">
					<rect x="775.8" y="587.5" class="st13" width="212.7" height="56.3"/>
					<text transform="matrix(0.9992 0 0 1 775.7856 609.3086)" class="st11 st14 st24">The Debate</text>
				</g>
				<g id="border_5_">
					<g>
						<rect x="741.8" y="627.3" class="st25" width="191.4" height="164.3"/>
					</g>
				</g>
				<g id="debate_picture_1_">
					<g id="picbox_4__x2B__podium_2_" class="st6">
						<defs>
							<rect id="SVGID_7_" x="744.7" y="629.2" class="st6" width="186.5" height="159.4"/>
						</defs>
						<clipPath id="SVGID_8_">
							<use xlink:href="#SVGID_7_"  style="overflow:visible;"/>
						</clipPath>
						<g style="clip-path:url(#SVGID_8_);">
							
								<image style="overflow:visible;" width="188" height="160" id="picbox_4__x2B__podium_xA0_Image" xlink:href="FBC23C8F7F03D505.png"  transform="matrix(1 0 0 1 744 629)">
							</image>
						</g>
					</g>
				</g>
			</g>
			<g id="role_box_1_">
				<g id="the_role_copy_1_">
					<rect x="499.7" y="804" class="st13" width="184.6" height="67.3"/>
					<text id="the_role_copy" transform="matrix(0.9992 0 0 1 499.667 831.9736)"><tspan x="0" y="0" class="st18 st19 st20">Learn about the community </tspan><tspan x="0" y="16.9" class="st18 st19 st20">work youth councillors do </tspan><tspan x="0" y="33.8" class="st18 st19 st20">over their one year term.</tspan></text>
				</g>
				<g id="How_Council_Works">
					<rect x="528.8" y="800.1" class="st13" width="167.7" height="11.7"/>
					<text transform="matrix(0.9992 0 0 1 528.8071 810.7979)" class="st26 st22 st23">How Council Works</text>
				</g>
				<g id="The_Role">
					<rect x="543.4" y="587.5" class="st13" width="212.7" height="56.3"/>
					<text transform="matrix(0.9992 0 0 1 543.3774 609.3086)" class="st11 st14 st24">The Role</text>
				</g>
				<g id="role_picture_1_">
					<g id="border_6_">
						<g>
							<rect x="501.6" y="628.2" class="st25" width="189.4" height="162.4"/>
						</g>
					</g>
					<g id="picbox_3__x2B__therole_2_" class="st6">
						<defs>
							<rect id="SVGID_9_" x="504.5" y="630.2" class="st6" width="183.6" height="157.5"/>
						</defs>
						<clipPath id="SVGID_10_">
							<use xlink:href="#SVGID_9_"  style="overflow:visible;"/>
						</clipPath>
						<g style="clip-path:url(#SVGID_10_);">
							
								<image style="overflow:visible;" width="185" height="158" id="picbox_3__x2B__therole_xA0_Image" xlink:href="FBC23C8F7F03D503.png"  transform="matrix(1 0 0 1 504 630)">
							</image>
						</g>
					</g>
				</g>
			</g>
			<g id="wards_box_1_">
				<g id="wards_copy_1_">
					<rect x="262.7" y="805.9" class="st13" width="188.4" height="63.2"/>
					<text id="wards_copy" transform="matrix(0.9992 0 0 1 262.6602 833.8945)"><tspan x="0" y="0" class="st27 st19 st20">Find out which ward you live in </tspan><tspan x="0" y="16.9" class="st27 st19 st20">so you can decide who you </tspan><tspan x="0" y="33.8" class="st27 st19 st20">want to vote for.</tspan></text>
				</g>
				<g id="London_x2019_s_Communities">
					<rect x="286" y="802" class="st13" width="167.7" height="11.7"/>
					<text transform="matrix(0.9992 0 0 1 285.9722 812.7422)" class="st28 st22 st23">London’s Communities</text>
				</g>
				<g id="The_Wards">
					<rect x="294.7" y="588.4" class="st13" width="212.7" height="56.3"/>
					<text transform="matrix(0.9992 0 0 1 294.7144 610.2808)" class="st11 st14 st24">The Wards</text>
				</g>
				<g id="wards_picture_1_">
					<g id="border_7_">
						<g>
							<rect x="265.6" y="628.2" class="st25" width="192.3" height="162.4"/>
						</g>
					</g>
					<g id="picbox_2__x2B__thewards_2_" class="st6">
						<defs>
							<rect id="SVGID_11_" x="269.5" y="630.2" class="st6" width="185.5" height="157.5"/>
						</defs>
						<clipPath id="SVGID_12_">
							<use xlink:href="#SVGID_11_"  style="overflow:visible;"/>
						</clipPath>
						<g style="clip-path:url(#SVGID_12_);">
							
								<image style="overflow:visible;" width="186" height="158" id="picbox_2__x2B__thewards_xA0_Image" xlink:href="FBC23C8F7F03D51C.png"  transform="matrix(1 0 0 1 269 630)">
							</image>
						</g>
					</g>
				</g>
			</g>
			<g id="candidates_box_1_">
				<g id="candidate_copy_1_">
					<rect x="23.4" y="804" class="st13" width="188.4" height="63.2"/>
					<text id="candidate_copy" transform="matrix(0.9992 0 0 1 23.4238 831.9502)"><tspan x="0" y="0" class="st29 st19 st20">See the issues the candidates </tspan><tspan x="0" y="16.9" class="st29 st19 st20">care about and how they’ll </tspan><tspan x="0" y="33.8" class="st29 st19 st20">tackle them during their terms.</tspan></text>
				</g>
				<g id="Platforms_and_Profiles">
					<rect x="43.8" y="799.1" class="st13" width="167.7" height="11.7"/>
					<text transform="matrix(0.9992 0 0 1 43.8218 809.8262)" class="st30 st22 st23">Platforms and Profiles</text>
				</g>
				<g id="The_Candidates">
					<rect x="28.3" y="585.5" class="st13" width="212.7" height="56.3"/>
					<text transform="matrix(0.9992 0 0 1 28.2803 607.3643)" class="st11 st14 st24">The Candidates</text>
				</g>
				<g id="border_8_">
					<g>
						<rect x="23.4" y="627.3" class="st25" width="192.3" height="162.4"/>
					</g>
				</g>
				<g id="candidates_picture_1_">
					<g id="picbox_1__x2B__smiling-closeup_2_" class="st6">
						<defs>
							<rect id="SVGID_13_" x="26.8" y="628.7" class="st6" width="186.3" height="157.9"/>
						</defs>
						<clipPath id="SVGID_14_">
							<use xlink:href="#SVGID_13_"  style="overflow:visible;"/>
						</clipPath>
						<g style="clip-path:url(#SVGID_14_);">
							
								<image style="overflow:visible;" width="188" height="159" id="picbox_1__x2B__smiling-closeup_xA0_Image" xlink:href="FBC23C8F7F03D51F.png"  transform="matrix(1 0 0 1 26 628)">
							</image>
						</g>
					</g>
				</g>
			</g>
		</g>
		<g id="main_section_1_">
			<g id="main_copy_1_">
				<rect x="676.5" y="383.5" class="st13" width="225" height="132"/>
				<text id="main_copy" transform="matrix(0.9992 0 0 1 676.4507 395.9771)"><tspan x="0" y="0" class="st31 st19 st32">Each year the public elects 15 </tspan><tspan x="0" y="19.2" class="st31 st19 st32">young people to be on the </tspan><tspan x="0" y="38.5" class="st31 st19 st32">London Youth Advisory Council. </tspan><tspan x="0" y="57.7" class="st31 st19 st32">Vote to give a young person a </tspan><tspan x="0" y="77" class="st31 st19 st32">chance to listen and discover </tspan><tspan x="0" y="96.2" class="st31 st19 st32">the voices of their communities. </tspan></text>
			</g>
			<g id="vote_subheading_1_">
				<rect x="675.5" y="335.9" class="st13" width="246.8" height="96.7"/>
				<text id="vote_subheading" transform="matrix(0.9992 0 0 1 675.4795 348.3413)"><tspan x="0" y="0" class="st33 st22 st32">What would government look </tspan><tspan x="0" y="19.2" class="st33 st22 st32">like if youth designed it?  </tspan></text>
			</g>
			<g id="VOTE_to_Make_an__x09____x09__x09____Impact">
				<rect x="688.6" y="265.2" class="st13" width="210" height="80.1"/>
				<text transform="matrix(0.9992 0 0 1 688.5928 285.6553)"><tspan x="0" y="0" class="st34 st14 st35">VOTE </tspan><tspan x="63.6" y="0" class="st11 st14 st35">to Make an </tspan><tspan x="177.7" y="0" class="st11 st14 st35 st36">	</tspan><tspan x="210" y="0" class="st11 st14 st35">  </tspan><tspan x="221" y="0" class="st11 st14 st35 st37">	</tspan><tspan x="0" y="32.7" class="st11 st14 st35 st38">	</tspan><tspan x="35" y="32.7" class="st11 st14 st35">   Impact</tspan></text>
			</g>
			<g id="main_picture_1_">
				<g id="main_border">
					<g>
						<rect x="36" y="257.4" class="st25" width="548.8" height="238.2"/>
					</g>
				</g>
				<g id="main_picbox__x2B__person-laptop_2_" class="st6">
					<defs>
						<rect id="SVGID_15_" x="38.9" y="259.3" class="st6" width="542" height="233.3"/>
					</defs>
					<clipPath id="SVGID_16_">
						<use xlink:href="#SVGID_15_"  style="overflow:visible;"/>
					</clipPath>
					<g style="clip-path:url(#SVGID_16_);">
						
							<image style="overflow:visible;" width="543" height="234" id="main_picbox__x2B__person-laptop_xA0_Image" xlink:href="FBC23C8F7F03D51D.png"  transform="matrix(1 0 0 1 38 259)">
						</image>
					</g>
				</g>
			</g>
		</g>
	</g>
	<g id="header_3_">
		<g id="border-line_2_">
			<g>
				<rect x="35.4" y="203.6" class="st3" width="880" height="1.9"/>
			</g>
			<g>
				<polygon class="st8" points="915.4,203.6 35.4,203.6 35.4,205.5 915.4,205.5 915.4,203.6 				"/>
			</g>
		</g>
		<g id="purple-logo_xA0_Image_1_">
			
				<image style="overflow:visible;" width="186" height="88" id="purple-logo_xA0_Image" xlink:href="FBC23C8F7F03D502.png"  transform="matrix(1 0 0 1 31 75)">
			</image>
		</g>
		<g id="nav_3_">
			<g id="off_13_">
				<g id="header_nav_backgrd_2_">
					<g>
						<path class="st5" d="M879.2,83.7H516.7c-8.3,0-15,6.7-15,15v32.4c0,8.3,6.7,15,15,15h362.6c8.3,0,15-6.7,15-15V98.7
							C894.2,90.4,887.5,83.7,879.2,83.7z"/>
					</g>
				</g>
				<g id="_x7C______Home_____x7C______How_to_Vote_____x7C______Contact____x7C__3_">
					<rect x="522.7" y="104.2" class="st13" width="465.6" height="34.4"/>
					
						<text id="_x7C______Home_____x7C______How_to_Vote_____x7C______Contact____x7C__2_" transform="matrix(0.9991 0 0 1 522.7246 121.2339)" class="st4 st14 st17">|     Home    |     How to Vote    |     Contact   |</text>
				</g>
			</g>
		</g>
	</g>
</g>
</svg>
